G04 #@! TF.GenerationSoftware,KiCad,Pcbnew,5.0.2+dfsg1-1*
G04 #@! TF.CreationDate,2019-08-13T09:37:24+09:00*
G04 #@! TF.ProjectId,portal_shield_for_arduino,706f7274-616c-45f7-9368-69656c645f66,rev?*
G04 #@! TF.SameCoordinates,Original*
G04 #@! TF.FileFunction,Copper,L2,Bot*
G04 #@! TF.FilePolarity,Positive*
%FSLAX46Y46*%
G04 Gerber Fmt 4.6, Leading zero omitted, Abs format (unit mm)*
G04 Created by KiCad (PCBNEW 5.0.2+dfsg1-1) date Tue 13 Aug 2019 09:37:24 AM KST*
%MOMM*%
%LPD*%
G01*
G04 APERTURE LIST*
G04 #@! TA.AperFunction,ComponentPad*
%ADD10C,4.064000*%
G04 #@! TD*
G04 #@! TA.AperFunction,ComponentPad*
%ADD11O,1.727200X2.032000*%
G04 #@! TD*
G04 #@! TA.AperFunction,ComponentPad*
%ADD12C,2.000000*%
G04 #@! TD*
G04 #@! TA.AperFunction,ComponentPad*
%ADD13C,2.300000*%
G04 #@! TD*
G04 #@! TA.AperFunction,ComponentPad*
%ADD14C,1.998980*%
G04 #@! TD*
G04 #@! TA.AperFunction,ComponentPad*
%ADD15R,1.778000X1.778000*%
G04 #@! TD*
G04 #@! TA.AperFunction,ComponentPad*
%ADD16C,1.778000*%
G04 #@! TD*
G04 #@! TA.AperFunction,ComponentPad*
%ADD17R,1.700000X1.700000*%
G04 #@! TD*
G04 #@! TA.AperFunction,ComponentPad*
%ADD18O,1.700000X1.700000*%
G04 #@! TD*
G04 #@! TA.AperFunction,ViaPad*
%ADD19C,0.600000*%
G04 #@! TD*
G04 #@! TA.AperFunction,Conductor*
%ADD20C,0.250000*%
G04 #@! TD*
G04 #@! TA.AperFunction,Conductor*
%ADD21C,1.000000*%
G04 #@! TD*
G04 APERTURE END LIST*
D10*
G04 #@! TO.P,P5,1*
G04 #@! TO.N,Net-(P5-Pad1)*
X124968000Y-123825000D03*
G04 #@! TD*
G04 #@! TO.P,P7,1*
G04 #@! TO.N,Net-(P7-Pad1)*
X126238000Y-75565000D03*
G04 #@! TD*
D11*
G04 #@! TO.P,P1,1*
G04 #@! TO.N,Net-(P1-Pad1)*
X138938000Y-123825000D03*
G04 #@! TO.P,P1,2*
G04 #@! TO.N,/IOREF*
X141478000Y-123825000D03*
G04 #@! TO.P,P1,3*
G04 #@! TO.N,/Reset*
X144018000Y-123825000D03*
G04 #@! TO.P,P1,4*
G04 #@! TO.N,+3V3*
X146558000Y-123825000D03*
G04 #@! TO.P,P1,5*
G04 #@! TO.N,+5V*
X149098000Y-123825000D03*
G04 #@! TO.P,P1,6*
G04 #@! TO.N,GND*
X151638000Y-123825000D03*
G04 #@! TO.P,P1,7*
X154178000Y-123825000D03*
G04 #@! TO.P,P1,8*
G04 #@! TO.N,/Vin(12V)*
X156718000Y-123825000D03*
G04 #@! TD*
G04 #@! TO.P,P2,1*
G04 #@! TO.N,/A0*
X161798000Y-123825000D03*
G04 #@! TO.P,P2,2*
G04 #@! TO.N,/A1*
X164338000Y-123825000D03*
G04 #@! TO.P,P2,3*
G04 #@! TO.N,/A2*
X166878000Y-123825000D03*
G04 #@! TO.P,P2,4*
G04 #@! TO.N,/A3*
X169418000Y-123825000D03*
G04 #@! TO.P,P2,5*
G04 #@! TO.N,/A4(SDA)*
X171958000Y-123825000D03*
G04 #@! TO.P,P2,6*
G04 #@! TO.N,/A5(SCL)*
X174498000Y-123825000D03*
G04 #@! TD*
G04 #@! TO.P,P3,1*
G04 #@! TO.N,/A5(SCL)*
X129794000Y-75565000D03*
G04 #@! TO.P,P3,2*
G04 #@! TO.N,/A4(SDA)*
X132334000Y-75565000D03*
G04 #@! TO.P,P3,3*
G04 #@! TO.N,/AREF*
X134874000Y-75565000D03*
G04 #@! TO.P,P3,4*
G04 #@! TO.N,GND*
X137414000Y-75565000D03*
G04 #@! TO.P,P3,5*
G04 #@! TO.N,/13(SCK)*
X139954000Y-75565000D03*
G04 #@! TO.P,P3,6*
G04 #@! TO.N,/12(MISO)*
X142494000Y-75565000D03*
G04 #@! TO.P,P3,7*
G04 #@! TO.N,/11(\002A\002A/MOSI)*
X145034000Y-75565000D03*
G04 #@! TO.P,P3,8*
G04 #@! TO.N,/10(\002A\002A/SS)*
X147574000Y-75565000D03*
G04 #@! TO.P,P3,9*
G04 #@! TO.N,/9(\002A\002A)*
X150114000Y-75565000D03*
G04 #@! TO.P,P3,10*
G04 #@! TO.N,/8*
X152654000Y-75565000D03*
G04 #@! TD*
G04 #@! TO.P,P4,1*
G04 #@! TO.N,/7*
X156718000Y-75565000D03*
G04 #@! TO.P,P4,2*
G04 #@! TO.N,/6(\002A\002A)*
X159258000Y-75565000D03*
G04 #@! TO.P,P4,3*
G04 #@! TO.N,/5(\002A\002A)*
X161798000Y-75565000D03*
G04 #@! TO.P,P4,4*
G04 #@! TO.N,/4*
X164338000Y-75565000D03*
G04 #@! TO.P,P4,5*
G04 #@! TO.N,/3(\002A\002A)*
X166878000Y-75565000D03*
G04 #@! TO.P,P4,6*
G04 #@! TO.N,/2*
X169418000Y-75565000D03*
G04 #@! TO.P,P4,7*
G04 #@! TO.N,/1(Tx)*
X171958000Y-75565000D03*
G04 #@! TO.P,P4,8*
G04 #@! TO.N,/0(Rx)*
X174498000Y-75565000D03*
G04 #@! TD*
D12*
G04 #@! TO.P,J1,1*
G04 #@! TO.N,Net-(J1-Pad1)*
X134900000Y-103750000D03*
G04 #@! TO.P,J1,2*
G04 #@! TO.N,Net-(J1-Pad2)*
X134900000Y-100250000D03*
G04 #@! TD*
G04 #@! TO.P,J3,1*
G04 #@! TO.N,Net-(J2-Pad4)*
X134900000Y-110750000D03*
G04 #@! TO.P,J3,2*
G04 #@! TO.N,Net-(J2-Pad3)*
X134900000Y-107250000D03*
G04 #@! TD*
G04 #@! TO.P,J5,2*
G04 #@! TO.N,Net-(J4-Pad3)*
X134900000Y-114250000D03*
G04 #@! TO.P,J5,1*
G04 #@! TO.N,Net-(J4-Pad4)*
X134900000Y-117750000D03*
G04 #@! TD*
G04 #@! TO.P,K1,1*
G04 #@! TO.N,Net-(D1-Pad1)*
X151408000Y-81435000D03*
G04 #@! TO.P,K1,2*
G04 #@! TO.N,Net-(D1-Pad2)*
X148868000Y-81435000D03*
D13*
G04 #@! TO.P,K1,5*
G04 #@! TO.N,Net-(J1-Pad1)*
X138708000Y-81435000D03*
G04 #@! TO.P,K1,6*
G04 #@! TO.N,Net-(J1-Pad2)*
X133628000Y-81435000D03*
G04 #@! TD*
D14*
G04 #@! TO.P,Q1,*
G04 #@! TO.N,*
X153099700Y-97365000D03*
D15*
G04 #@! TO.P,Q1,1*
G04 #@! TO.N,Net-(J2-Pad2)*
X158474340Y-99803400D03*
D16*
G04 #@! TO.P,Q1,3*
G04 #@! TO.N,GND*
X158474340Y-94723400D03*
G04 #@! TO.P,Q1,2*
G04 #@! TO.N,Net-(J2-Pad5)*
X158474340Y-97263400D03*
G04 #@! TD*
G04 #@! TO.P,Q4,2*
G04 #@! TO.N,Net-(J4-Pad5)*
X158474340Y-113263400D03*
G04 #@! TO.P,Q4,3*
G04 #@! TO.N,GND*
X158474340Y-110723400D03*
D15*
G04 #@! TO.P,Q4,1*
G04 #@! TO.N,Net-(J4-Pad2)*
X158474340Y-115803400D03*
D14*
G04 #@! TO.P,Q4,*
G04 #@! TO.N,*
X153099700Y-113365000D03*
G04 #@! TD*
D17*
G04 #@! TO.P,J2,1*
G04 #@! TO.N,GND*
X148000000Y-107000000D03*
D18*
G04 #@! TO.P,J2,2*
G04 #@! TO.N,Net-(J2-Pad2)*
X145460000Y-107000000D03*
G04 #@! TO.P,J2,3*
G04 #@! TO.N,Net-(J2-Pad3)*
X148000000Y-104460000D03*
G04 #@! TO.P,J2,4*
G04 #@! TO.N,Net-(J2-Pad4)*
X145460000Y-104460000D03*
G04 #@! TO.P,J2,5*
G04 #@! TO.N,Net-(J2-Pad5)*
X148000000Y-101920000D03*
G04 #@! TO.P,J2,6*
G04 #@! TO.N,/Vin(12V)*
X145460000Y-101920000D03*
G04 #@! TD*
G04 #@! TO.P,J4,6*
G04 #@! TO.N,/Vin(12V)*
X145460000Y-113520000D03*
G04 #@! TO.P,J4,5*
G04 #@! TO.N,Net-(J4-Pad5)*
X148000000Y-113520000D03*
G04 #@! TO.P,J4,4*
G04 #@! TO.N,Net-(J4-Pad4)*
X145460000Y-116060000D03*
G04 #@! TO.P,J4,3*
G04 #@! TO.N,Net-(J4-Pad3)*
X148000000Y-116060000D03*
G04 #@! TO.P,J4,2*
G04 #@! TO.N,Net-(J4-Pad2)*
X145460000Y-118600000D03*
D17*
G04 #@! TO.P,J4,1*
G04 #@! TO.N,GND*
X148000000Y-118600000D03*
G04 #@! TD*
D19*
G04 #@! TO.N,GND*
X130998000Y-81365000D03*
X135998000Y-81365000D03*
X135998000Y-86365000D03*
X135998000Y-91365000D03*
X128998000Y-81365000D03*
X133498000Y-78865000D03*
X130998000Y-78865000D03*
X128998000Y-78865000D03*
X128998000Y-83865000D03*
X135998000Y-83865000D03*
X135998000Y-88865000D03*
X135998000Y-93865000D03*
X128998000Y-91365000D03*
X128998000Y-88865000D03*
X128998000Y-93865000D03*
X128998000Y-121365000D03*
X128998000Y-118865000D03*
X130998000Y-118865000D03*
X130998000Y-121365000D03*
X130998000Y-123865000D03*
X128998000Y-123865000D03*
X133498000Y-123865000D03*
X133498000Y-121365000D03*
X133498000Y-118865000D03*
X135998000Y-121365000D03*
X135998000Y-123865000D03*
X138498000Y-121365000D03*
X155998000Y-91365000D03*
X158498000Y-103865000D03*
X160998000Y-103865000D03*
X158498000Y-106365000D03*
X155998000Y-106365000D03*
X158498000Y-108865000D03*
X158498000Y-118865000D03*
X155998000Y-118865000D03*
X128998000Y-86365000D03*
X138498000Y-78865000D03*
X135998000Y-96365000D03*
X130998000Y-106365000D03*
X130998000Y-83865000D03*
X130998000Y-86365000D03*
X130998000Y-88865000D03*
X130998000Y-91365000D03*
X130998000Y-93865000D03*
X130998000Y-96365000D03*
X128998000Y-96365000D03*
X135998000Y-78865000D03*
X135998000Y-98865000D03*
X130998000Y-98865000D03*
X128998000Y-98865000D03*
X128998000Y-101365000D03*
X130998000Y-101365000D03*
X130998000Y-103865000D03*
X128998000Y-103865000D03*
X128998000Y-106365000D03*
X128998000Y-108865000D03*
X130998000Y-108865000D03*
X128998000Y-116365000D03*
X128998000Y-113865000D03*
X128998000Y-111365000D03*
X130998000Y-111365000D03*
X130998000Y-113865000D03*
X130998000Y-116365000D03*
X133498000Y-116365000D03*
X133498000Y-111365000D03*
X133498000Y-108865000D03*
X133498000Y-106365000D03*
X133498000Y-101365000D03*
X138498000Y-118865000D03*
X140998000Y-121365000D03*
X140998000Y-78865000D03*
X140998000Y-81365000D03*
X140998000Y-83865000D03*
X140998000Y-86365000D03*
X140998000Y-88865000D03*
X140998000Y-91365000D03*
X140998000Y-93865000D03*
X140998000Y-96365000D03*
X143498000Y-78865000D03*
X143498000Y-81365000D03*
X143498000Y-83865000D03*
X143498000Y-86365000D03*
X143498000Y-88865000D03*
X143498000Y-91365000D03*
X143498000Y-93865000D03*
X143498000Y-96365000D03*
X155998000Y-108865000D03*
X155998000Y-103865000D03*
X160998000Y-106365000D03*
X163498000Y-106365000D03*
X153498000Y-106365000D03*
X153498000Y-108865000D03*
X145998000Y-88865000D03*
X145998000Y-91365000D03*
X145998000Y-93865000D03*
X148498000Y-88865000D03*
X153498000Y-93865000D03*
X155998000Y-93865000D03*
X155998000Y-96365000D03*
X158498000Y-91365000D03*
X160998000Y-96365000D03*
X160998000Y-98865000D03*
X163498000Y-98865000D03*
X163498000Y-96365000D03*
X165998000Y-98865000D03*
X153498000Y-118865000D03*
X158498000Y-123865000D03*
X166498000Y-121365000D03*
X168998000Y-121365000D03*
X168998000Y-119365000D03*
X166498000Y-119365000D03*
X167498000Y-103865000D03*
X169498000Y-103865000D03*
X169498000Y-81365000D03*
X169498000Y-78865000D03*
X145998000Y-78865000D03*
X148498000Y-78865000D03*
X150998000Y-78865000D03*
X153498000Y-78865000D03*
X155998000Y-78865000D03*
X151498000Y-83865000D03*
X151998000Y-86365000D03*
X151998000Y-88865000D03*
X150998000Y-91365000D03*
X149498000Y-93365000D03*
X149498000Y-95865000D03*
X150498000Y-106365000D03*
X151998000Y-116365000D03*
X155498000Y-114365000D03*
X160998000Y-111865000D03*
X163998000Y-111865000D03*
X160998000Y-114865000D03*
X164498000Y-115865000D03*
X132998000Y-113865000D03*
X146498000Y-81365000D03*
X167998000Y-91365000D03*
X159998000Y-92865000D03*
X157498000Y-101865000D03*
X151998000Y-99865000D03*
G04 #@! TO.N,/5(\002A\002A)*
X167298000Y-107385000D03*
G04 #@! TO.N,/3(\002A\002A)*
X167248000Y-93205000D03*
G04 #@! TD*
D20*
G04 #@! TO.N,/5(\002A\002A)*
X161798000Y-75565000D02*
X161798000Y-101885000D01*
X161798000Y-101885000D02*
X167298000Y-107385000D01*
G04 #@! TO.N,/3(\002A\002A)*
X166878000Y-75565000D02*
X166878000Y-92835000D01*
X166878000Y-92835000D02*
X167248000Y-93205000D01*
D21*
G04 #@! TO.N,/Vin(12V)*
X156718000Y-123825000D02*
X156718000Y-123065000D01*
X156718000Y-123065000D02*
X154918000Y-121265000D01*
X154918000Y-121265000D02*
X143428000Y-121265000D01*
X143428000Y-121265000D02*
X141748000Y-119585000D01*
X141748000Y-119585000D02*
X141748000Y-115285000D01*
X143513000Y-113520000D02*
X145460000Y-113520000D01*
X141748000Y-115285000D02*
X143513000Y-113520000D01*
X145460000Y-101920000D02*
X143813000Y-101920000D01*
X143813000Y-101920000D02*
X141718000Y-104015000D01*
X141718000Y-111725000D02*
X143513000Y-113520000D01*
X141718000Y-104015000D02*
X141718000Y-111725000D01*
G04 #@! TO.N,Net-(J2-Pad3)*
X137603000Y-107250000D02*
X139265000Y-105588000D01*
X134900000Y-107250000D02*
X137603000Y-107250000D01*
X149443000Y-104460000D02*
X148000000Y-104460000D01*
X150668000Y-103235000D02*
X149443000Y-104460000D01*
X139265000Y-105588000D02*
X139265000Y-102885000D01*
X149178000Y-98975000D02*
X150668000Y-100465000D01*
X150668000Y-100465000D02*
X150668000Y-103235000D01*
X139265000Y-102885000D02*
X143175000Y-98975000D01*
X143175000Y-98975000D02*
X149178000Y-98975000D01*
G04 #@! TO.N,Net-(J4-Pad5)*
X148000000Y-113520000D02*
X149873000Y-113520000D01*
X149873000Y-113520000D02*
X152158000Y-111235000D01*
X152158000Y-111235000D02*
X154568000Y-111235000D01*
X156596400Y-113263400D02*
X158474340Y-113263400D01*
X154568000Y-111235000D02*
X156596400Y-113263400D01*
G04 #@! TD*
D20*
G04 #@! TO.N,GND*
G36*
X176548001Y-74564973D02*
X176548000Y-77415000D01*
X170542321Y-77415000D01*
X170498000Y-77406184D01*
X170453679Y-77415000D01*
X170322419Y-77441109D01*
X170173568Y-77540568D01*
X170074109Y-77689419D01*
X170039184Y-77865000D01*
X170048001Y-77909326D01*
X170048000Y-121320679D01*
X170039184Y-121365000D01*
X170074109Y-121540581D01*
X170173568Y-121689432D01*
X170322419Y-121788891D01*
X170498000Y-121823816D01*
X170542321Y-121815000D01*
X176548001Y-121815000D01*
X176548000Y-125915000D01*
X126212088Y-125915000D01*
X126331456Y-125865556D01*
X127008556Y-125188456D01*
X127375000Y-124303782D01*
X127375000Y-123550613D01*
X137699400Y-123550613D01*
X137699400Y-124099388D01*
X137771265Y-124460678D01*
X138045021Y-124870380D01*
X138454723Y-125144135D01*
X138938000Y-125240265D01*
X139421278Y-125144135D01*
X139830980Y-124870380D01*
X140104735Y-124460677D01*
X140176600Y-124099387D01*
X140176600Y-123550613D01*
X140239400Y-123550613D01*
X140239400Y-124099388D01*
X140311265Y-124460678D01*
X140585021Y-124870380D01*
X140994723Y-125144135D01*
X141478000Y-125240265D01*
X141961278Y-125144135D01*
X142370980Y-124870380D01*
X142644735Y-124460677D01*
X142716600Y-124099387D01*
X142716600Y-123550613D01*
X142779400Y-123550613D01*
X142779400Y-124099388D01*
X142851265Y-124460678D01*
X143125021Y-124870380D01*
X143534723Y-125144135D01*
X144018000Y-125240265D01*
X144501278Y-125144135D01*
X144910980Y-124870380D01*
X145184735Y-124460677D01*
X145256600Y-124099387D01*
X145256600Y-123550613D01*
X145319400Y-123550613D01*
X145319400Y-124099388D01*
X145391265Y-124460678D01*
X145665021Y-124870380D01*
X146074723Y-125144135D01*
X146558000Y-125240265D01*
X147041278Y-125144135D01*
X147450980Y-124870380D01*
X147724735Y-124460677D01*
X147796600Y-124099387D01*
X147796600Y-123550613D01*
X147859400Y-123550613D01*
X147859400Y-124099388D01*
X147931265Y-124460678D01*
X148205021Y-124870380D01*
X148614723Y-125144135D01*
X149098000Y-125240265D01*
X149581278Y-125144135D01*
X149990980Y-124870380D01*
X150264735Y-124460677D01*
X150327663Y-124144313D01*
X150409001Y-124144313D01*
X150566428Y-124601925D01*
X150886992Y-124964459D01*
X151321769Y-125174950D01*
X151513000Y-125115406D01*
X151513000Y-123950000D01*
X151763000Y-123950000D01*
X151763000Y-125115406D01*
X151954231Y-125174950D01*
X152389008Y-124964459D01*
X152709572Y-124601925D01*
X152866999Y-124144313D01*
X152949001Y-124144313D01*
X153106428Y-124601925D01*
X153426992Y-124964459D01*
X153861769Y-125174950D01*
X154053000Y-125115406D01*
X154053000Y-123950000D01*
X154303000Y-123950000D01*
X154303000Y-125115406D01*
X154494231Y-125174950D01*
X154929008Y-124964459D01*
X155249572Y-124601925D01*
X155406999Y-124144313D01*
X155324229Y-123950000D01*
X154303000Y-123950000D01*
X154053000Y-123950000D01*
X153031771Y-123950000D01*
X152949001Y-124144313D01*
X152866999Y-124144313D01*
X152784229Y-123950000D01*
X151763000Y-123950000D01*
X151513000Y-123950000D01*
X150491771Y-123950000D01*
X150409001Y-124144313D01*
X150327663Y-124144313D01*
X150336600Y-124099387D01*
X150336600Y-123550612D01*
X150327664Y-123505687D01*
X150409001Y-123505687D01*
X150491771Y-123700000D01*
X151513000Y-123700000D01*
X151513000Y-122534594D01*
X151763000Y-122534594D01*
X151763000Y-123700000D01*
X152784229Y-123700000D01*
X152866999Y-123505687D01*
X152949001Y-123505687D01*
X153031771Y-123700000D01*
X154053000Y-123700000D01*
X154053000Y-122534594D01*
X154303000Y-122534594D01*
X154303000Y-123700000D01*
X155324229Y-123700000D01*
X155406999Y-123505687D01*
X155249572Y-123048075D01*
X154929008Y-122685541D01*
X154494231Y-122475050D01*
X154303000Y-122534594D01*
X154053000Y-122534594D01*
X153861769Y-122475050D01*
X153426992Y-122685541D01*
X153106428Y-123048075D01*
X152949001Y-123505687D01*
X152866999Y-123505687D01*
X152709572Y-123048075D01*
X152389008Y-122685541D01*
X151954231Y-122475050D01*
X151763000Y-122534594D01*
X151513000Y-122534594D01*
X151321769Y-122475050D01*
X150886992Y-122685541D01*
X150566428Y-123048075D01*
X150409001Y-123505687D01*
X150327664Y-123505687D01*
X150264735Y-123189322D01*
X149990980Y-122779620D01*
X149581277Y-122505865D01*
X149098000Y-122409735D01*
X148614722Y-122505865D01*
X148205020Y-122779620D01*
X147931265Y-123189323D01*
X147859400Y-123550613D01*
X147796600Y-123550613D01*
X147796600Y-123550612D01*
X147724735Y-123189322D01*
X147450980Y-122779620D01*
X147041277Y-122505865D01*
X146558000Y-122409735D01*
X146074722Y-122505865D01*
X145665020Y-122779620D01*
X145391265Y-123189323D01*
X145319400Y-123550613D01*
X145256600Y-123550613D01*
X145256600Y-123550612D01*
X145184735Y-123189322D01*
X144910980Y-122779620D01*
X144501277Y-122505865D01*
X144018000Y-122409735D01*
X143534722Y-122505865D01*
X143125020Y-122779620D01*
X142851265Y-123189323D01*
X142779400Y-123550613D01*
X142716600Y-123550613D01*
X142716600Y-123550612D01*
X142644735Y-123189322D01*
X142370980Y-122779620D01*
X141961277Y-122505865D01*
X141478000Y-122409735D01*
X140994722Y-122505865D01*
X140585020Y-122779620D01*
X140311265Y-123189323D01*
X140239400Y-123550613D01*
X140176600Y-123550613D01*
X140176600Y-123550612D01*
X140104735Y-123189322D01*
X139830980Y-122779620D01*
X139421277Y-122505865D01*
X138938000Y-122409735D01*
X138454722Y-122505865D01*
X138045020Y-122779620D01*
X137771265Y-123189323D01*
X137699400Y-123550613D01*
X127375000Y-123550613D01*
X127375000Y-123346218D01*
X127008556Y-122461544D01*
X126362012Y-121815000D01*
X127953679Y-121815000D01*
X127998000Y-121823816D01*
X128042321Y-121815000D01*
X128173581Y-121788891D01*
X128322432Y-121689432D01*
X128421891Y-121540581D01*
X128456816Y-121365000D01*
X128448000Y-121320679D01*
X128448000Y-117476495D01*
X133525000Y-117476495D01*
X133525000Y-118023505D01*
X133734331Y-118528875D01*
X134121125Y-118915669D01*
X134626495Y-119125000D01*
X135173505Y-119125000D01*
X135678875Y-118915669D01*
X136065669Y-118528875D01*
X136275000Y-118023505D01*
X136275000Y-117476495D01*
X136065669Y-116971125D01*
X135678875Y-116584331D01*
X135173505Y-116375000D01*
X134626495Y-116375000D01*
X134121125Y-116584331D01*
X133734331Y-116971125D01*
X133525000Y-117476495D01*
X128448000Y-117476495D01*
X128448000Y-113976495D01*
X133525000Y-113976495D01*
X133525000Y-114523505D01*
X133734331Y-115028875D01*
X134121125Y-115415669D01*
X134626495Y-115625000D01*
X135173505Y-115625000D01*
X135678875Y-115415669D01*
X136065669Y-115028875D01*
X136275000Y-114523505D01*
X136275000Y-113976495D01*
X136065669Y-113471125D01*
X135678875Y-113084331D01*
X135173505Y-112875000D01*
X134626495Y-112875000D01*
X134121125Y-113084331D01*
X133734331Y-113471125D01*
X133525000Y-113976495D01*
X128448000Y-113976495D01*
X128448000Y-110476495D01*
X133525000Y-110476495D01*
X133525000Y-111023505D01*
X133734331Y-111528875D01*
X134121125Y-111915669D01*
X134626495Y-112125000D01*
X135173505Y-112125000D01*
X135678875Y-111915669D01*
X136065669Y-111528875D01*
X136275000Y-111023505D01*
X136275000Y-110476495D01*
X136065669Y-109971125D01*
X135678875Y-109584331D01*
X135173505Y-109375000D01*
X134626495Y-109375000D01*
X134121125Y-109584331D01*
X133734331Y-109971125D01*
X133525000Y-110476495D01*
X128448000Y-110476495D01*
X128448000Y-106976495D01*
X133525000Y-106976495D01*
X133525000Y-107523505D01*
X133734331Y-108028875D01*
X134121125Y-108415669D01*
X134626495Y-108625000D01*
X135173505Y-108625000D01*
X135678875Y-108415669D01*
X135969544Y-108125000D01*
X137516822Y-108125000D01*
X137603000Y-108142142D01*
X137689178Y-108125000D01*
X137689179Y-108125000D01*
X137944408Y-108074232D01*
X138233840Y-107880840D01*
X138282659Y-107807777D01*
X139822780Y-106267657D01*
X139895840Y-106218840D01*
X140089232Y-105929408D01*
X140140000Y-105674179D01*
X140140000Y-105674178D01*
X140157142Y-105588000D01*
X140140000Y-105501822D01*
X140140000Y-104015000D01*
X140825858Y-104015000D01*
X140843000Y-104101178D01*
X140843001Y-111638817D01*
X140825858Y-111725000D01*
X140878672Y-111990510D01*
X140893769Y-112066408D01*
X141087161Y-112355840D01*
X141160221Y-112404657D01*
X142275564Y-113520000D01*
X141190221Y-114605343D01*
X141117161Y-114654160D01*
X141068344Y-114727220D01*
X140923769Y-114943592D01*
X140855858Y-115285000D01*
X140873001Y-115371183D01*
X140873000Y-119498822D01*
X140855858Y-119585000D01*
X140873000Y-119671178D01*
X140923768Y-119926407D01*
X141117160Y-120215840D01*
X141190223Y-120264659D01*
X142748343Y-121822780D01*
X142797160Y-121895840D01*
X143086592Y-122089232D01*
X143428000Y-122157142D01*
X143514179Y-122140000D01*
X154555564Y-122140000D01*
X155572743Y-123157179D01*
X155551265Y-123189323D01*
X155479400Y-123550613D01*
X155479400Y-124099388D01*
X155551265Y-124460678D01*
X155825021Y-124870380D01*
X156234723Y-125144135D01*
X156718000Y-125240265D01*
X157201278Y-125144135D01*
X157610980Y-124870380D01*
X157884735Y-124460677D01*
X157956600Y-124099387D01*
X157956600Y-123550613D01*
X160559400Y-123550613D01*
X160559400Y-124099388D01*
X160631265Y-124460678D01*
X160905021Y-124870380D01*
X161314723Y-125144135D01*
X161798000Y-125240265D01*
X162281278Y-125144135D01*
X162690980Y-124870380D01*
X162964735Y-124460677D01*
X163036600Y-124099387D01*
X163036600Y-123550613D01*
X163099400Y-123550613D01*
X163099400Y-124099388D01*
X163171265Y-124460678D01*
X163445021Y-124870380D01*
X163854723Y-125144135D01*
X164338000Y-125240265D01*
X164821278Y-125144135D01*
X165230980Y-124870380D01*
X165504735Y-124460677D01*
X165576600Y-124099387D01*
X165576600Y-123550613D01*
X165639400Y-123550613D01*
X165639400Y-124099388D01*
X165711265Y-124460678D01*
X165985021Y-124870380D01*
X166394723Y-125144135D01*
X166878000Y-125240265D01*
X167361278Y-125144135D01*
X167770980Y-124870380D01*
X168044735Y-124460677D01*
X168116600Y-124099387D01*
X168116600Y-123550613D01*
X168179400Y-123550613D01*
X168179400Y-124099388D01*
X168251265Y-124460678D01*
X168525021Y-124870380D01*
X168934723Y-125144135D01*
X169418000Y-125240265D01*
X169901278Y-125144135D01*
X170310980Y-124870380D01*
X170584735Y-124460677D01*
X170656600Y-124099387D01*
X170656600Y-123550613D01*
X170719400Y-123550613D01*
X170719400Y-124099388D01*
X170791265Y-124460678D01*
X171065021Y-124870380D01*
X171474723Y-125144135D01*
X171958000Y-125240265D01*
X172441278Y-125144135D01*
X172850980Y-124870380D01*
X173124735Y-124460677D01*
X173196600Y-124099387D01*
X173196600Y-123550613D01*
X173259400Y-123550613D01*
X173259400Y-124099388D01*
X173331265Y-124460678D01*
X173605021Y-124870380D01*
X174014723Y-125144135D01*
X174498000Y-125240265D01*
X174981278Y-125144135D01*
X175390980Y-124870380D01*
X175664735Y-124460677D01*
X175736600Y-124099387D01*
X175736600Y-123550612D01*
X175664735Y-123189322D01*
X175390980Y-122779620D01*
X174981277Y-122505865D01*
X174498000Y-122409735D01*
X174014722Y-122505865D01*
X173605020Y-122779620D01*
X173331265Y-123189323D01*
X173259400Y-123550613D01*
X173196600Y-123550613D01*
X173196600Y-123550612D01*
X173124735Y-123189322D01*
X172850980Y-122779620D01*
X172441277Y-122505865D01*
X171958000Y-122409735D01*
X171474722Y-122505865D01*
X171065020Y-122779620D01*
X170791265Y-123189323D01*
X170719400Y-123550613D01*
X170656600Y-123550613D01*
X170656600Y-123550612D01*
X170584735Y-123189322D01*
X170310980Y-122779620D01*
X169901277Y-122505865D01*
X169418000Y-122409735D01*
X168934722Y-122505865D01*
X168525020Y-122779620D01*
X168251265Y-123189323D01*
X168179400Y-123550613D01*
X168116600Y-123550613D01*
X168116600Y-123550612D01*
X168044735Y-123189322D01*
X167770980Y-122779620D01*
X167361277Y-122505865D01*
X166878000Y-122409735D01*
X166394722Y-122505865D01*
X165985020Y-122779620D01*
X165711265Y-123189323D01*
X165639400Y-123550613D01*
X165576600Y-123550613D01*
X165576600Y-123550612D01*
X165504735Y-123189322D01*
X165230980Y-122779620D01*
X164821277Y-122505865D01*
X164338000Y-122409735D01*
X163854722Y-122505865D01*
X163445020Y-122779620D01*
X163171265Y-123189323D01*
X163099400Y-123550613D01*
X163036600Y-123550613D01*
X163036600Y-123550612D01*
X162964735Y-123189322D01*
X162690980Y-122779620D01*
X162281277Y-122505865D01*
X161798000Y-122409735D01*
X161314722Y-122505865D01*
X160905020Y-122779620D01*
X160631265Y-123189323D01*
X160559400Y-123550613D01*
X157956600Y-123550613D01*
X157956600Y-123550612D01*
X157884735Y-123189322D01*
X157610980Y-122779620D01*
X157544547Y-122735231D01*
X157542232Y-122723592D01*
X157348840Y-122434160D01*
X157275777Y-122385341D01*
X155597659Y-120707223D01*
X155548840Y-120634160D01*
X155259408Y-120440768D01*
X155004179Y-120390000D01*
X155004178Y-120390000D01*
X154918000Y-120372858D01*
X154831822Y-120390000D01*
X143790437Y-120390000D01*
X142623000Y-119222564D01*
X142623000Y-118600000D01*
X144211001Y-118600000D01*
X144306075Y-119077971D01*
X144576824Y-119483176D01*
X144982029Y-119753925D01*
X145339348Y-119825000D01*
X145580652Y-119825000D01*
X145937971Y-119753925D01*
X146343176Y-119483176D01*
X146613925Y-119077971D01*
X146665487Y-118818750D01*
X146775000Y-118818750D01*
X146775000Y-119524592D01*
X146832090Y-119662421D01*
X146937580Y-119767910D01*
X147075408Y-119825000D01*
X147781250Y-119825000D01*
X147875000Y-119731250D01*
X147875000Y-118725000D01*
X148125000Y-118725000D01*
X148125000Y-119731250D01*
X148218750Y-119825000D01*
X148924592Y-119825000D01*
X149062420Y-119767910D01*
X149167910Y-119662421D01*
X149225000Y-119524592D01*
X149225000Y-118818750D01*
X149131250Y-118725000D01*
X148125000Y-118725000D01*
X147875000Y-118725000D01*
X146868750Y-118725000D01*
X146775000Y-118818750D01*
X146665487Y-118818750D01*
X146708999Y-118600000D01*
X146613925Y-118122029D01*
X146343176Y-117716824D01*
X146281193Y-117675408D01*
X146775000Y-117675408D01*
X146775000Y-118381250D01*
X146868750Y-118475000D01*
X147875000Y-118475000D01*
X147875000Y-117468750D01*
X148125000Y-117468750D01*
X148125000Y-118475000D01*
X149131250Y-118475000D01*
X149225000Y-118381250D01*
X149225000Y-117675408D01*
X149167910Y-117537579D01*
X149062420Y-117432090D01*
X148924592Y-117375000D01*
X148218750Y-117375000D01*
X148125000Y-117468750D01*
X147875000Y-117468750D01*
X147781250Y-117375000D01*
X147075408Y-117375000D01*
X146937580Y-117432090D01*
X146832090Y-117537579D01*
X146775000Y-117675408D01*
X146281193Y-117675408D01*
X145937971Y-117446075D01*
X145580652Y-117375000D01*
X145339348Y-117375000D01*
X144982029Y-117446075D01*
X144576824Y-117716824D01*
X144306075Y-118122029D01*
X144211001Y-118600000D01*
X142623000Y-118600000D01*
X142623000Y-116060000D01*
X144211001Y-116060000D01*
X144306075Y-116537971D01*
X144576824Y-116943176D01*
X144982029Y-117213925D01*
X145339348Y-117285000D01*
X145580652Y-117285000D01*
X145937971Y-117213925D01*
X146343176Y-116943176D01*
X146613925Y-116537971D01*
X146708999Y-116060000D01*
X146751001Y-116060000D01*
X146846075Y-116537971D01*
X147116824Y-116943176D01*
X147522029Y-117213925D01*
X147879348Y-117285000D01*
X148120652Y-117285000D01*
X148477971Y-117213925D01*
X148883176Y-116943176D01*
X149153925Y-116537971D01*
X149248999Y-116060000D01*
X149153925Y-115582029D01*
X148883176Y-115176824D01*
X148490431Y-114914400D01*
X157202994Y-114914400D01*
X157202994Y-116692400D01*
X157232098Y-116838717D01*
X157314981Y-116962759D01*
X157439023Y-117045642D01*
X157585340Y-117074746D01*
X159363340Y-117074746D01*
X159509657Y-117045642D01*
X159633699Y-116962759D01*
X159716582Y-116838717D01*
X159745686Y-116692400D01*
X159745686Y-114914400D01*
X159716582Y-114768083D01*
X159633699Y-114644041D01*
X159509657Y-114561158D01*
X159363340Y-114532054D01*
X157585340Y-114532054D01*
X157439023Y-114561158D01*
X157314981Y-114644041D01*
X157232098Y-114768083D01*
X157202994Y-114914400D01*
X148490431Y-114914400D01*
X148477971Y-114906075D01*
X148120652Y-114835000D01*
X147879348Y-114835000D01*
X147522029Y-114906075D01*
X147116824Y-115176824D01*
X146846075Y-115582029D01*
X146751001Y-116060000D01*
X146708999Y-116060000D01*
X146613925Y-115582029D01*
X146343176Y-115176824D01*
X145937971Y-114906075D01*
X145580652Y-114835000D01*
X145339348Y-114835000D01*
X144982029Y-114906075D01*
X144576824Y-115176824D01*
X144306075Y-115582029D01*
X144211001Y-116060000D01*
X142623000Y-116060000D01*
X142623000Y-115647436D01*
X143875437Y-114395000D01*
X144571361Y-114395000D01*
X144576824Y-114403176D01*
X144982029Y-114673925D01*
X145339348Y-114745000D01*
X145580652Y-114745000D01*
X145937971Y-114673925D01*
X146343176Y-114403176D01*
X146613925Y-113997971D01*
X146708999Y-113520000D01*
X146751001Y-113520000D01*
X146846075Y-113997971D01*
X147116824Y-114403176D01*
X147522029Y-114673925D01*
X147879348Y-114745000D01*
X148120652Y-114745000D01*
X148477971Y-114673925D01*
X148883176Y-114403176D01*
X148888639Y-114395000D01*
X149786822Y-114395000D01*
X149873000Y-114412142D01*
X149959178Y-114395000D01*
X149959179Y-114395000D01*
X150214408Y-114344232D01*
X150503840Y-114150840D01*
X150552659Y-114077777D01*
X151856994Y-112773442D01*
X151725210Y-113091597D01*
X151725210Y-113638403D01*
X151934464Y-114143586D01*
X152321114Y-114530236D01*
X152826297Y-114739490D01*
X153373103Y-114739490D01*
X153878286Y-114530236D01*
X154264936Y-114143586D01*
X154474190Y-113638403D01*
X154474190Y-113091597D01*
X154264936Y-112586414D01*
X153878286Y-112199764D01*
X153661577Y-112110000D01*
X154205564Y-112110000D01*
X155916743Y-113821180D01*
X155965560Y-113894240D01*
X156120805Y-113997971D01*
X156254992Y-114087632D01*
X156596400Y-114155542D01*
X156682579Y-114138400D01*
X157561775Y-114138400D01*
X157758342Y-114334967D01*
X158222915Y-114527400D01*
X158725765Y-114527400D01*
X159190338Y-114334967D01*
X159545907Y-113979398D01*
X159738340Y-113514825D01*
X159738340Y-113011975D01*
X159545907Y-112547402D01*
X159190338Y-112191833D01*
X158725765Y-111999400D01*
X158303818Y-111999400D01*
X158798457Y-111970741D01*
X159127158Y-111834589D01*
X159226318Y-111652154D01*
X158474340Y-110900177D01*
X157722362Y-111652154D01*
X157821522Y-111834589D01*
X158295221Y-111999400D01*
X158222915Y-111999400D01*
X157758342Y-112191833D01*
X157561775Y-112388400D01*
X156958837Y-112388400D01*
X155247659Y-110677223D01*
X155198840Y-110604160D01*
X155111061Y-110545508D01*
X157197913Y-110545508D01*
X157226999Y-111047517D01*
X157363151Y-111376218D01*
X157545586Y-111475378D01*
X158297563Y-110723400D01*
X158651117Y-110723400D01*
X159403094Y-111475378D01*
X159585529Y-111376218D01*
X159750767Y-110901292D01*
X159721681Y-110399283D01*
X159585529Y-110070582D01*
X159403094Y-109971422D01*
X158651117Y-110723400D01*
X158297563Y-110723400D01*
X157545586Y-109971422D01*
X157363151Y-110070582D01*
X157197913Y-110545508D01*
X155111061Y-110545508D01*
X154909408Y-110410768D01*
X154654179Y-110360000D01*
X154654178Y-110360000D01*
X154568000Y-110342858D01*
X154481822Y-110360000D01*
X152244178Y-110360000D01*
X152158000Y-110342858D01*
X152071822Y-110360000D01*
X152071821Y-110360000D01*
X151816592Y-110410768D01*
X151527160Y-110604160D01*
X151478343Y-110677220D01*
X149510564Y-112645000D01*
X148888639Y-112645000D01*
X148883176Y-112636824D01*
X148477971Y-112366075D01*
X148120652Y-112295000D01*
X147879348Y-112295000D01*
X147522029Y-112366075D01*
X147116824Y-112636824D01*
X146846075Y-113042029D01*
X146751001Y-113520000D01*
X146708999Y-113520000D01*
X146613925Y-113042029D01*
X146343176Y-112636824D01*
X145937971Y-112366075D01*
X145580652Y-112295000D01*
X145339348Y-112295000D01*
X144982029Y-112366075D01*
X144576824Y-112636824D01*
X144571361Y-112645000D01*
X143875436Y-112645000D01*
X142593000Y-111362564D01*
X142593000Y-109794646D01*
X157722362Y-109794646D01*
X158474340Y-110546623D01*
X159226318Y-109794646D01*
X159127158Y-109612211D01*
X158652232Y-109446973D01*
X158150223Y-109476059D01*
X157821522Y-109612211D01*
X157722362Y-109794646D01*
X142593000Y-109794646D01*
X142593000Y-107000000D01*
X144211001Y-107000000D01*
X144306075Y-107477971D01*
X144576824Y-107883176D01*
X144982029Y-108153925D01*
X145339348Y-108225000D01*
X145580652Y-108225000D01*
X145937971Y-108153925D01*
X146343176Y-107883176D01*
X146613925Y-107477971D01*
X146665487Y-107218750D01*
X146775000Y-107218750D01*
X146775000Y-107924592D01*
X146832090Y-108062421D01*
X146937580Y-108167910D01*
X147075408Y-108225000D01*
X147781250Y-108225000D01*
X147875000Y-108131250D01*
X147875000Y-107125000D01*
X148125000Y-107125000D01*
X148125000Y-108131250D01*
X148218750Y-108225000D01*
X148924592Y-108225000D01*
X149062420Y-108167910D01*
X149167910Y-108062421D01*
X149225000Y-107924592D01*
X149225000Y-107218750D01*
X149131250Y-107125000D01*
X148125000Y-107125000D01*
X147875000Y-107125000D01*
X146868750Y-107125000D01*
X146775000Y-107218750D01*
X146665487Y-107218750D01*
X146708999Y-107000000D01*
X146613925Y-106522029D01*
X146343176Y-106116824D01*
X146281193Y-106075408D01*
X146775000Y-106075408D01*
X146775000Y-106781250D01*
X146868750Y-106875000D01*
X147875000Y-106875000D01*
X147875000Y-105868750D01*
X148125000Y-105868750D01*
X148125000Y-106875000D01*
X149131250Y-106875000D01*
X149225000Y-106781250D01*
X149225000Y-106075408D01*
X149167910Y-105937579D01*
X149062420Y-105832090D01*
X148924592Y-105775000D01*
X148218750Y-105775000D01*
X148125000Y-105868750D01*
X147875000Y-105868750D01*
X147781250Y-105775000D01*
X147075408Y-105775000D01*
X146937580Y-105832090D01*
X146832090Y-105937579D01*
X146775000Y-106075408D01*
X146281193Y-106075408D01*
X145937971Y-105846075D01*
X145580652Y-105775000D01*
X145339348Y-105775000D01*
X144982029Y-105846075D01*
X144576824Y-106116824D01*
X144306075Y-106522029D01*
X144211001Y-107000000D01*
X142593000Y-107000000D01*
X142593000Y-104460000D01*
X144211001Y-104460000D01*
X144306075Y-104937971D01*
X144576824Y-105343176D01*
X144982029Y-105613925D01*
X145339348Y-105685000D01*
X145580652Y-105685000D01*
X145937971Y-105613925D01*
X146343176Y-105343176D01*
X146613925Y-104937971D01*
X146708999Y-104460000D01*
X146613925Y-103982029D01*
X146343176Y-103576824D01*
X145937971Y-103306075D01*
X145580652Y-103235000D01*
X145339348Y-103235000D01*
X144982029Y-103306075D01*
X144576824Y-103576824D01*
X144306075Y-103982029D01*
X144211001Y-104460000D01*
X142593000Y-104460000D01*
X142593000Y-104377436D01*
X144175436Y-102795000D01*
X144571361Y-102795000D01*
X144576824Y-102803176D01*
X144982029Y-103073925D01*
X145339348Y-103145000D01*
X145580652Y-103145000D01*
X145937971Y-103073925D01*
X146343176Y-102803176D01*
X146613925Y-102397971D01*
X146708999Y-101920000D01*
X146751001Y-101920000D01*
X146846075Y-102397971D01*
X147116824Y-102803176D01*
X147522029Y-103073925D01*
X147879348Y-103145000D01*
X148120652Y-103145000D01*
X148477971Y-103073925D01*
X148883176Y-102803176D01*
X149153925Y-102397971D01*
X149248999Y-101920000D01*
X149153925Y-101442029D01*
X148883176Y-101036824D01*
X148477971Y-100766075D01*
X148120652Y-100695000D01*
X147879348Y-100695000D01*
X147522029Y-100766075D01*
X147116824Y-101036824D01*
X146846075Y-101442029D01*
X146751001Y-101920000D01*
X146708999Y-101920000D01*
X146613925Y-101442029D01*
X146343176Y-101036824D01*
X145937971Y-100766075D01*
X145580652Y-100695000D01*
X145339348Y-100695000D01*
X144982029Y-100766075D01*
X144576824Y-101036824D01*
X144571361Y-101045000D01*
X143899177Y-101045000D01*
X143812999Y-101027858D01*
X143726821Y-101045000D01*
X143471592Y-101095768D01*
X143182160Y-101289160D01*
X143133341Y-101362223D01*
X141160223Y-103335341D01*
X141087160Y-103384160D01*
X140893768Y-103673593D01*
X140843000Y-103928821D01*
X140825858Y-104015000D01*
X140140000Y-104015000D01*
X140140000Y-103247436D01*
X143537437Y-99850000D01*
X148815564Y-99850000D01*
X149793000Y-100827437D01*
X149793001Y-102872562D01*
X149080564Y-103585000D01*
X148888639Y-103585000D01*
X148883176Y-103576824D01*
X148477971Y-103306075D01*
X148120652Y-103235000D01*
X147879348Y-103235000D01*
X147522029Y-103306075D01*
X147116824Y-103576824D01*
X146846075Y-103982029D01*
X146751001Y-104460000D01*
X146846075Y-104937971D01*
X147116824Y-105343176D01*
X147522029Y-105613925D01*
X147879348Y-105685000D01*
X148120652Y-105685000D01*
X148477971Y-105613925D01*
X148883176Y-105343176D01*
X148888639Y-105335000D01*
X149356822Y-105335000D01*
X149443000Y-105352142D01*
X149529178Y-105335000D01*
X149529179Y-105335000D01*
X149784408Y-105284232D01*
X150073840Y-105090840D01*
X150122659Y-105017777D01*
X151225780Y-103914657D01*
X151298840Y-103865840D01*
X151492232Y-103576408D01*
X151543000Y-103321179D01*
X151560142Y-103235000D01*
X151543000Y-103148821D01*
X151543000Y-100551177D01*
X151560142Y-100464999D01*
X151543000Y-100378821D01*
X151492232Y-100123592D01*
X151298840Y-99834160D01*
X151225780Y-99785343D01*
X150354837Y-98914400D01*
X157202994Y-98914400D01*
X157202994Y-100692400D01*
X157232098Y-100838717D01*
X157314981Y-100962759D01*
X157439023Y-101045642D01*
X157585340Y-101074746D01*
X159363340Y-101074746D01*
X159509657Y-101045642D01*
X159633699Y-100962759D01*
X159716582Y-100838717D01*
X159745686Y-100692400D01*
X159745686Y-98914400D01*
X159716582Y-98768083D01*
X159633699Y-98644041D01*
X159509657Y-98561158D01*
X159363340Y-98532054D01*
X157585340Y-98532054D01*
X157439023Y-98561158D01*
X157314981Y-98644041D01*
X157232098Y-98768083D01*
X157202994Y-98914400D01*
X150354837Y-98914400D01*
X149857659Y-98417223D01*
X149808840Y-98344160D01*
X149519408Y-98150768D01*
X149264179Y-98100000D01*
X149264178Y-98100000D01*
X149178000Y-98082858D01*
X149091822Y-98100000D01*
X143261177Y-98100000D01*
X143174999Y-98082858D01*
X143088821Y-98100000D01*
X142833592Y-98150768D01*
X142544160Y-98344160D01*
X142495343Y-98417220D01*
X138707221Y-102205343D01*
X138634161Y-102254160D01*
X138585344Y-102327220D01*
X138440769Y-102543592D01*
X138372858Y-102885000D01*
X138390001Y-102971182D01*
X138390000Y-105225563D01*
X137240564Y-106375000D01*
X135969544Y-106375000D01*
X135678875Y-106084331D01*
X135173505Y-105875000D01*
X134626495Y-105875000D01*
X134121125Y-106084331D01*
X133734331Y-106471125D01*
X133525000Y-106976495D01*
X128448000Y-106976495D01*
X128448000Y-103476495D01*
X133525000Y-103476495D01*
X133525000Y-104023505D01*
X133734331Y-104528875D01*
X134121125Y-104915669D01*
X134626495Y-105125000D01*
X135173505Y-105125000D01*
X135678875Y-104915669D01*
X136065669Y-104528875D01*
X136275000Y-104023505D01*
X136275000Y-103476495D01*
X136065669Y-102971125D01*
X135678875Y-102584331D01*
X135173505Y-102375000D01*
X134626495Y-102375000D01*
X134121125Y-102584331D01*
X133734331Y-102971125D01*
X133525000Y-103476495D01*
X128448000Y-103476495D01*
X128448000Y-99976495D01*
X133525000Y-99976495D01*
X133525000Y-100523505D01*
X133734331Y-101028875D01*
X134121125Y-101415669D01*
X134626495Y-101625000D01*
X135173505Y-101625000D01*
X135678875Y-101415669D01*
X136065669Y-101028875D01*
X136275000Y-100523505D01*
X136275000Y-99976495D01*
X136065669Y-99471125D01*
X135678875Y-99084331D01*
X135173505Y-98875000D01*
X134626495Y-98875000D01*
X134121125Y-99084331D01*
X133734331Y-99471125D01*
X133525000Y-99976495D01*
X128448000Y-99976495D01*
X128448000Y-97091597D01*
X151725210Y-97091597D01*
X151725210Y-97638403D01*
X151934464Y-98143586D01*
X152321114Y-98530236D01*
X152826297Y-98739490D01*
X153373103Y-98739490D01*
X153878286Y-98530236D01*
X154264936Y-98143586D01*
X154474190Y-97638403D01*
X154474190Y-97091597D01*
X154441210Y-97011975D01*
X157210340Y-97011975D01*
X157210340Y-97514825D01*
X157402773Y-97979398D01*
X157758342Y-98334967D01*
X158222915Y-98527400D01*
X158725765Y-98527400D01*
X159190338Y-98334967D01*
X159545907Y-97979398D01*
X159738340Y-97514825D01*
X159738340Y-97011975D01*
X159545907Y-96547402D01*
X159190338Y-96191833D01*
X158725765Y-95999400D01*
X158303818Y-95999400D01*
X158798457Y-95970741D01*
X159127158Y-95834589D01*
X159226318Y-95652154D01*
X158474340Y-94900177D01*
X157722362Y-95652154D01*
X157821522Y-95834589D01*
X158295221Y-95999400D01*
X158222915Y-95999400D01*
X157758342Y-96191833D01*
X157402773Y-96547402D01*
X157210340Y-97011975D01*
X154441210Y-97011975D01*
X154264936Y-96586414D01*
X153878286Y-96199764D01*
X153373103Y-95990510D01*
X152826297Y-95990510D01*
X152321114Y-96199764D01*
X151934464Y-96586414D01*
X151725210Y-97091597D01*
X128448000Y-97091597D01*
X128448000Y-94545508D01*
X157197913Y-94545508D01*
X157226999Y-95047517D01*
X157363151Y-95376218D01*
X157545586Y-95475378D01*
X158297563Y-94723400D01*
X158651117Y-94723400D01*
X159403094Y-95475378D01*
X159585529Y-95376218D01*
X159750767Y-94901292D01*
X159721681Y-94399283D01*
X159585529Y-94070582D01*
X159403094Y-93971422D01*
X158651117Y-94723400D01*
X158297563Y-94723400D01*
X157545586Y-93971422D01*
X157363151Y-94070582D01*
X157197913Y-94545508D01*
X128448000Y-94545508D01*
X128448000Y-93794646D01*
X157722362Y-93794646D01*
X158474340Y-94546623D01*
X159226318Y-93794646D01*
X159127158Y-93612211D01*
X158652232Y-93446973D01*
X158150223Y-93476059D01*
X157821522Y-93612211D01*
X157722362Y-93794646D01*
X128448000Y-93794646D01*
X128448000Y-81131659D01*
X132103000Y-81131659D01*
X132103000Y-81738341D01*
X132335167Y-82298843D01*
X132764157Y-82727833D01*
X133324659Y-82960000D01*
X133931341Y-82960000D01*
X134491843Y-82727833D01*
X134920833Y-82298843D01*
X135153000Y-81738341D01*
X135153000Y-81131659D01*
X137183000Y-81131659D01*
X137183000Y-81738341D01*
X137415167Y-82298843D01*
X137844157Y-82727833D01*
X138404659Y-82960000D01*
X139011341Y-82960000D01*
X139571843Y-82727833D01*
X140000833Y-82298843D01*
X140233000Y-81738341D01*
X140233000Y-81161495D01*
X147493000Y-81161495D01*
X147493000Y-81708505D01*
X147702331Y-82213875D01*
X148089125Y-82600669D01*
X148594495Y-82810000D01*
X149141505Y-82810000D01*
X149646875Y-82600669D01*
X150033669Y-82213875D01*
X150138000Y-81961998D01*
X150242331Y-82213875D01*
X150629125Y-82600669D01*
X151134495Y-82810000D01*
X151681505Y-82810000D01*
X152186875Y-82600669D01*
X152573669Y-82213875D01*
X152783000Y-81708505D01*
X152783000Y-81161495D01*
X152573669Y-80656125D01*
X152186875Y-80269331D01*
X151681505Y-80060000D01*
X151134495Y-80060000D01*
X150629125Y-80269331D01*
X150242331Y-80656125D01*
X150138000Y-80908002D01*
X150033669Y-80656125D01*
X149646875Y-80269331D01*
X149141505Y-80060000D01*
X148594495Y-80060000D01*
X148089125Y-80269331D01*
X147702331Y-80656125D01*
X147493000Y-81161495D01*
X140233000Y-81161495D01*
X140233000Y-81131659D01*
X140000833Y-80571157D01*
X139571843Y-80142167D01*
X139011341Y-79910000D01*
X138404659Y-79910000D01*
X137844157Y-80142167D01*
X137415167Y-80571157D01*
X137183000Y-81131659D01*
X135153000Y-81131659D01*
X134920833Y-80571157D01*
X134491843Y-80142167D01*
X133931341Y-79910000D01*
X133324659Y-79910000D01*
X132764157Y-80142167D01*
X132335167Y-80571157D01*
X132103000Y-81131659D01*
X128448000Y-81131659D01*
X128448000Y-78409321D01*
X128456816Y-78365000D01*
X128421891Y-78189419D01*
X128322432Y-78040568D01*
X128173581Y-77941109D01*
X128042321Y-77915000D01*
X127998000Y-77906184D01*
X127953679Y-77915000D01*
X126854392Y-77915000D01*
X127601456Y-77605556D01*
X128278556Y-76928456D01*
X128611935Y-76123608D01*
X128627265Y-76200678D01*
X128901021Y-76610380D01*
X129310723Y-76884135D01*
X129794000Y-76980265D01*
X130277278Y-76884135D01*
X130686980Y-76610380D01*
X130960735Y-76200677D01*
X131032600Y-75839387D01*
X131032600Y-75290613D01*
X131095400Y-75290613D01*
X131095400Y-75839388D01*
X131167265Y-76200678D01*
X131441021Y-76610380D01*
X131850723Y-76884135D01*
X132334000Y-76980265D01*
X132817278Y-76884135D01*
X133226980Y-76610380D01*
X133500735Y-76200677D01*
X133572600Y-75839387D01*
X133572600Y-75290613D01*
X133635400Y-75290613D01*
X133635400Y-75839388D01*
X133707265Y-76200678D01*
X133981021Y-76610380D01*
X134390723Y-76884135D01*
X134874000Y-76980265D01*
X135357278Y-76884135D01*
X135766980Y-76610380D01*
X136040735Y-76200677D01*
X136103663Y-75884313D01*
X136185001Y-75884313D01*
X136342428Y-76341925D01*
X136662992Y-76704459D01*
X137097769Y-76914950D01*
X137289000Y-76855406D01*
X137289000Y-75690000D01*
X137539000Y-75690000D01*
X137539000Y-76855406D01*
X137730231Y-76914950D01*
X138165008Y-76704459D01*
X138485572Y-76341925D01*
X138642999Y-75884313D01*
X138560229Y-75690000D01*
X137539000Y-75690000D01*
X137289000Y-75690000D01*
X136267771Y-75690000D01*
X136185001Y-75884313D01*
X136103663Y-75884313D01*
X136112600Y-75839387D01*
X136112600Y-75290612D01*
X136103664Y-75245687D01*
X136185001Y-75245687D01*
X136267771Y-75440000D01*
X137289000Y-75440000D01*
X137289000Y-74274594D01*
X137539000Y-74274594D01*
X137539000Y-75440000D01*
X138560229Y-75440000D01*
X138623862Y-75290613D01*
X138715400Y-75290613D01*
X138715400Y-75839388D01*
X138787265Y-76200678D01*
X139061021Y-76610380D01*
X139470723Y-76884135D01*
X139954000Y-76980265D01*
X140437278Y-76884135D01*
X140846980Y-76610380D01*
X141120735Y-76200677D01*
X141192600Y-75839387D01*
X141192600Y-75290613D01*
X141255400Y-75290613D01*
X141255400Y-75839388D01*
X141327265Y-76200678D01*
X141601021Y-76610380D01*
X142010723Y-76884135D01*
X142494000Y-76980265D01*
X142977278Y-76884135D01*
X143386980Y-76610380D01*
X143660735Y-76200677D01*
X143732600Y-75839387D01*
X143732600Y-75290613D01*
X143795400Y-75290613D01*
X143795400Y-75839388D01*
X143867265Y-76200678D01*
X144141021Y-76610380D01*
X144550723Y-76884135D01*
X145034000Y-76980265D01*
X145517278Y-76884135D01*
X145926980Y-76610380D01*
X146200735Y-76200677D01*
X146272600Y-75839387D01*
X146272600Y-75290613D01*
X146335400Y-75290613D01*
X146335400Y-75839388D01*
X146407265Y-76200678D01*
X146681021Y-76610380D01*
X147090723Y-76884135D01*
X147574000Y-76980265D01*
X148057278Y-76884135D01*
X148466980Y-76610380D01*
X148740735Y-76200677D01*
X148812600Y-75839387D01*
X148812600Y-75290613D01*
X148875400Y-75290613D01*
X148875400Y-75839388D01*
X148947265Y-76200678D01*
X149221021Y-76610380D01*
X149630723Y-76884135D01*
X150114000Y-76980265D01*
X150597278Y-76884135D01*
X151006980Y-76610380D01*
X151280735Y-76200677D01*
X151352600Y-75839387D01*
X151352600Y-75290613D01*
X151415400Y-75290613D01*
X151415400Y-75839388D01*
X151487265Y-76200678D01*
X151761021Y-76610380D01*
X152170723Y-76884135D01*
X152654000Y-76980265D01*
X153137278Y-76884135D01*
X153546980Y-76610380D01*
X153820735Y-76200677D01*
X153892600Y-75839387D01*
X153892600Y-75290613D01*
X155479400Y-75290613D01*
X155479400Y-75839388D01*
X155551265Y-76200678D01*
X155825021Y-76610380D01*
X156234723Y-76884135D01*
X156718000Y-76980265D01*
X157201278Y-76884135D01*
X157610980Y-76610380D01*
X157884735Y-76200677D01*
X157956600Y-75839387D01*
X157956600Y-75290613D01*
X158019400Y-75290613D01*
X158019400Y-75839388D01*
X158091265Y-76200678D01*
X158365021Y-76610380D01*
X158774723Y-76884135D01*
X159258000Y-76980265D01*
X159741278Y-76884135D01*
X160150980Y-76610380D01*
X160424735Y-76200677D01*
X160496600Y-75839387D01*
X160496600Y-75290613D01*
X160559400Y-75290613D01*
X160559400Y-75839388D01*
X160631265Y-76200678D01*
X160905021Y-76610380D01*
X161298000Y-76872961D01*
X161298001Y-101835754D01*
X161288205Y-101885000D01*
X161327012Y-102080090D01*
X161437521Y-102245480D01*
X161479269Y-102273375D01*
X166623000Y-107417107D01*
X166623000Y-107519266D01*
X166725763Y-107767357D01*
X166915643Y-107957237D01*
X167163734Y-108060000D01*
X167432266Y-108060000D01*
X167680357Y-107957237D01*
X167870237Y-107767357D01*
X167973000Y-107519266D01*
X167973000Y-107250734D01*
X167870237Y-107002643D01*
X167680357Y-106812763D01*
X167432266Y-106710000D01*
X167330107Y-106710000D01*
X162298000Y-101677894D01*
X162298000Y-76872962D01*
X162690980Y-76610380D01*
X162964735Y-76200677D01*
X163036600Y-75839387D01*
X163036600Y-75290613D01*
X163099400Y-75290613D01*
X163099400Y-75839388D01*
X163171265Y-76200678D01*
X163445021Y-76610380D01*
X163854723Y-76884135D01*
X164338000Y-76980265D01*
X164821278Y-76884135D01*
X165230980Y-76610380D01*
X165504735Y-76200677D01*
X165576600Y-75839387D01*
X165576600Y-75290613D01*
X165639400Y-75290613D01*
X165639400Y-75839388D01*
X165711265Y-76200678D01*
X165985021Y-76610380D01*
X166378000Y-76872961D01*
X166378001Y-92785754D01*
X166368205Y-92835000D01*
X166378403Y-92886266D01*
X166407012Y-93030090D01*
X166517521Y-93195480D01*
X166559268Y-93223374D01*
X166573000Y-93237106D01*
X166573000Y-93339266D01*
X166675763Y-93587357D01*
X166865643Y-93777237D01*
X167113734Y-93880000D01*
X167382266Y-93880000D01*
X167630357Y-93777237D01*
X167820237Y-93587357D01*
X167923000Y-93339266D01*
X167923000Y-93070734D01*
X167820237Y-92822643D01*
X167630357Y-92632763D01*
X167382266Y-92530000D01*
X167378000Y-92530000D01*
X167378000Y-76872962D01*
X167770980Y-76610380D01*
X168044735Y-76200677D01*
X168116600Y-75839387D01*
X168116600Y-75290613D01*
X168179400Y-75290613D01*
X168179400Y-75839388D01*
X168251265Y-76200678D01*
X168525021Y-76610380D01*
X168934723Y-76884135D01*
X169418000Y-76980265D01*
X169901278Y-76884135D01*
X170310980Y-76610380D01*
X170584735Y-76200677D01*
X170656600Y-75839387D01*
X170656600Y-75290613D01*
X170719400Y-75290613D01*
X170719400Y-75839388D01*
X170791265Y-76200678D01*
X171065021Y-76610380D01*
X171474723Y-76884135D01*
X171958000Y-76980265D01*
X172441278Y-76884135D01*
X172850980Y-76610380D01*
X173124735Y-76200677D01*
X173196600Y-75839387D01*
X173196600Y-75290613D01*
X173259400Y-75290613D01*
X173259400Y-75839388D01*
X173331265Y-76200678D01*
X173605021Y-76610380D01*
X174014723Y-76884135D01*
X174498000Y-76980265D01*
X174981278Y-76884135D01*
X175390980Y-76610380D01*
X175664735Y-76200677D01*
X175736600Y-75839387D01*
X175736600Y-75290612D01*
X175664735Y-74929322D01*
X175390980Y-74519620D01*
X174981277Y-74245865D01*
X174498000Y-74149735D01*
X174014722Y-74245865D01*
X173605020Y-74519620D01*
X173331265Y-74929323D01*
X173259400Y-75290613D01*
X173196600Y-75290613D01*
X173196600Y-75290612D01*
X173124735Y-74929322D01*
X172850980Y-74519620D01*
X172441277Y-74245865D01*
X171958000Y-74149735D01*
X171474722Y-74245865D01*
X171065020Y-74519620D01*
X170791265Y-74929323D01*
X170719400Y-75290613D01*
X170656600Y-75290613D01*
X170656600Y-75290612D01*
X170584735Y-74929322D01*
X170310980Y-74519620D01*
X169901277Y-74245865D01*
X169418000Y-74149735D01*
X168934722Y-74245865D01*
X168525020Y-74519620D01*
X168251265Y-74929323D01*
X168179400Y-75290613D01*
X168116600Y-75290613D01*
X168116600Y-75290612D01*
X168044735Y-74929322D01*
X167770980Y-74519620D01*
X167361277Y-74245865D01*
X166878000Y-74149735D01*
X166394722Y-74245865D01*
X165985020Y-74519620D01*
X165711265Y-74929323D01*
X165639400Y-75290613D01*
X165576600Y-75290613D01*
X165576600Y-75290612D01*
X165504735Y-74929322D01*
X165230980Y-74519620D01*
X164821277Y-74245865D01*
X164338000Y-74149735D01*
X163854722Y-74245865D01*
X163445020Y-74519620D01*
X163171265Y-74929323D01*
X163099400Y-75290613D01*
X163036600Y-75290613D01*
X163036600Y-75290612D01*
X162964735Y-74929322D01*
X162690980Y-74519620D01*
X162281277Y-74245865D01*
X161798000Y-74149735D01*
X161314722Y-74245865D01*
X160905020Y-74519620D01*
X160631265Y-74929323D01*
X160559400Y-75290613D01*
X160496600Y-75290613D01*
X160496600Y-75290612D01*
X160424735Y-74929322D01*
X160150980Y-74519620D01*
X159741277Y-74245865D01*
X159258000Y-74149735D01*
X158774722Y-74245865D01*
X158365020Y-74519620D01*
X158091265Y-74929323D01*
X158019400Y-75290613D01*
X157956600Y-75290613D01*
X157956600Y-75290612D01*
X157884735Y-74929322D01*
X157610980Y-74519620D01*
X157201277Y-74245865D01*
X156718000Y-74149735D01*
X156234722Y-74245865D01*
X155825020Y-74519620D01*
X155551265Y-74929323D01*
X155479400Y-75290613D01*
X153892600Y-75290613D01*
X153892600Y-75290612D01*
X153820735Y-74929322D01*
X153546980Y-74519620D01*
X153137277Y-74245865D01*
X152654000Y-74149735D01*
X152170722Y-74245865D01*
X151761020Y-74519620D01*
X151487265Y-74929323D01*
X151415400Y-75290613D01*
X151352600Y-75290613D01*
X151352600Y-75290612D01*
X151280735Y-74929322D01*
X151006980Y-74519620D01*
X150597277Y-74245865D01*
X150114000Y-74149735D01*
X149630722Y-74245865D01*
X149221020Y-74519620D01*
X148947265Y-74929323D01*
X148875400Y-75290613D01*
X148812600Y-75290613D01*
X148812600Y-75290612D01*
X148740735Y-74929322D01*
X148466980Y-74519620D01*
X148057277Y-74245865D01*
X147574000Y-74149735D01*
X147090722Y-74245865D01*
X146681020Y-74519620D01*
X146407265Y-74929323D01*
X146335400Y-75290613D01*
X146272600Y-75290613D01*
X146272600Y-75290612D01*
X146200735Y-74929322D01*
X145926980Y-74519620D01*
X145517277Y-74245865D01*
X145034000Y-74149735D01*
X144550722Y-74245865D01*
X144141020Y-74519620D01*
X143867265Y-74929323D01*
X143795400Y-75290613D01*
X143732600Y-75290613D01*
X143732600Y-75290612D01*
X143660735Y-74929322D01*
X143386980Y-74519620D01*
X142977277Y-74245865D01*
X142494000Y-74149735D01*
X142010722Y-74245865D01*
X141601020Y-74519620D01*
X141327265Y-74929323D01*
X141255400Y-75290613D01*
X141192600Y-75290613D01*
X141192600Y-75290612D01*
X141120735Y-74929322D01*
X140846980Y-74519620D01*
X140437277Y-74245865D01*
X139954000Y-74149735D01*
X139470722Y-74245865D01*
X139061020Y-74519620D01*
X138787265Y-74929323D01*
X138715400Y-75290613D01*
X138623862Y-75290613D01*
X138642999Y-75245687D01*
X138485572Y-74788075D01*
X138165008Y-74425541D01*
X137730231Y-74215050D01*
X137539000Y-74274594D01*
X137289000Y-74274594D01*
X137097769Y-74215050D01*
X136662992Y-74425541D01*
X136342428Y-74788075D01*
X136185001Y-75245687D01*
X136103664Y-75245687D01*
X136040735Y-74929322D01*
X135766980Y-74519620D01*
X135357277Y-74245865D01*
X134874000Y-74149735D01*
X134390722Y-74245865D01*
X133981020Y-74519620D01*
X133707265Y-74929323D01*
X133635400Y-75290613D01*
X133572600Y-75290613D01*
X133572600Y-75290612D01*
X133500735Y-74929322D01*
X133226980Y-74519620D01*
X132817277Y-74245865D01*
X132334000Y-74149735D01*
X131850722Y-74245865D01*
X131441020Y-74519620D01*
X131167265Y-74929323D01*
X131095400Y-75290613D01*
X131032600Y-75290613D01*
X131032600Y-75290612D01*
X130960735Y-74929322D01*
X130686980Y-74519620D01*
X130277277Y-74245865D01*
X129794000Y-74149735D01*
X129310722Y-74245865D01*
X128901020Y-74519620D01*
X128627265Y-74929323D01*
X128611935Y-75006392D01*
X128278556Y-74201544D01*
X127601456Y-73524444D01*
X127482088Y-73475000D01*
X175340898Y-73475000D01*
X176548001Y-74564973D01*
X176548001Y-74564973D01*
G37*
X176548001Y-74564973D02*
X176548000Y-77415000D01*
X170542321Y-77415000D01*
X170498000Y-77406184D01*
X170453679Y-77415000D01*
X170322419Y-77441109D01*
X170173568Y-77540568D01*
X170074109Y-77689419D01*
X170039184Y-77865000D01*
X170048001Y-77909326D01*
X170048000Y-121320679D01*
X170039184Y-121365000D01*
X170074109Y-121540581D01*
X170173568Y-121689432D01*
X170322419Y-121788891D01*
X170498000Y-121823816D01*
X170542321Y-121815000D01*
X176548001Y-121815000D01*
X176548000Y-125915000D01*
X126212088Y-125915000D01*
X126331456Y-125865556D01*
X127008556Y-125188456D01*
X127375000Y-124303782D01*
X127375000Y-123550613D01*
X137699400Y-123550613D01*
X137699400Y-124099388D01*
X137771265Y-124460678D01*
X138045021Y-124870380D01*
X138454723Y-125144135D01*
X138938000Y-125240265D01*
X139421278Y-125144135D01*
X139830980Y-124870380D01*
X140104735Y-124460677D01*
X140176600Y-124099387D01*
X140176600Y-123550613D01*
X140239400Y-123550613D01*
X140239400Y-124099388D01*
X140311265Y-124460678D01*
X140585021Y-124870380D01*
X140994723Y-125144135D01*
X141478000Y-125240265D01*
X141961278Y-125144135D01*
X142370980Y-124870380D01*
X142644735Y-124460677D01*
X142716600Y-124099387D01*
X142716600Y-123550613D01*
X142779400Y-123550613D01*
X142779400Y-124099388D01*
X142851265Y-124460678D01*
X143125021Y-124870380D01*
X143534723Y-125144135D01*
X144018000Y-125240265D01*
X144501278Y-125144135D01*
X144910980Y-124870380D01*
X145184735Y-124460677D01*
X145256600Y-124099387D01*
X145256600Y-123550613D01*
X145319400Y-123550613D01*
X145319400Y-124099388D01*
X145391265Y-124460678D01*
X145665021Y-124870380D01*
X146074723Y-125144135D01*
X146558000Y-125240265D01*
X147041278Y-125144135D01*
X147450980Y-124870380D01*
X147724735Y-124460677D01*
X147796600Y-124099387D01*
X147796600Y-123550613D01*
X147859400Y-123550613D01*
X147859400Y-124099388D01*
X147931265Y-124460678D01*
X148205021Y-124870380D01*
X148614723Y-125144135D01*
X149098000Y-125240265D01*
X149581278Y-125144135D01*
X149990980Y-124870380D01*
X150264735Y-124460677D01*
X150327663Y-124144313D01*
X150409001Y-124144313D01*
X150566428Y-124601925D01*
X150886992Y-124964459D01*
X151321769Y-125174950D01*
X151513000Y-125115406D01*
X151513000Y-123950000D01*
X151763000Y-123950000D01*
X151763000Y-125115406D01*
X151954231Y-125174950D01*
X152389008Y-124964459D01*
X152709572Y-124601925D01*
X152866999Y-124144313D01*
X152949001Y-124144313D01*
X153106428Y-124601925D01*
X153426992Y-124964459D01*
X153861769Y-125174950D01*
X154053000Y-125115406D01*
X154053000Y-123950000D01*
X154303000Y-123950000D01*
X154303000Y-125115406D01*
X154494231Y-125174950D01*
X154929008Y-124964459D01*
X155249572Y-124601925D01*
X155406999Y-124144313D01*
X155324229Y-123950000D01*
X154303000Y-123950000D01*
X154053000Y-123950000D01*
X153031771Y-123950000D01*
X152949001Y-124144313D01*
X152866999Y-124144313D01*
X152784229Y-123950000D01*
X151763000Y-123950000D01*
X151513000Y-123950000D01*
X150491771Y-123950000D01*
X150409001Y-124144313D01*
X150327663Y-124144313D01*
X150336600Y-124099387D01*
X150336600Y-123550612D01*
X150327664Y-123505687D01*
X150409001Y-123505687D01*
X150491771Y-123700000D01*
X151513000Y-123700000D01*
X151513000Y-122534594D01*
X151763000Y-122534594D01*
X151763000Y-123700000D01*
X152784229Y-123700000D01*
X152866999Y-123505687D01*
X152949001Y-123505687D01*
X153031771Y-123700000D01*
X154053000Y-123700000D01*
X154053000Y-122534594D01*
X154303000Y-122534594D01*
X154303000Y-123700000D01*
X155324229Y-123700000D01*
X155406999Y-123505687D01*
X155249572Y-123048075D01*
X154929008Y-122685541D01*
X154494231Y-122475050D01*
X154303000Y-122534594D01*
X154053000Y-122534594D01*
X153861769Y-122475050D01*
X153426992Y-122685541D01*
X153106428Y-123048075D01*
X152949001Y-123505687D01*
X152866999Y-123505687D01*
X152709572Y-123048075D01*
X152389008Y-122685541D01*
X151954231Y-122475050D01*
X151763000Y-122534594D01*
X151513000Y-122534594D01*
X151321769Y-122475050D01*
X150886992Y-122685541D01*
X150566428Y-123048075D01*
X150409001Y-123505687D01*
X150327664Y-123505687D01*
X150264735Y-123189322D01*
X149990980Y-122779620D01*
X149581277Y-122505865D01*
X149098000Y-122409735D01*
X148614722Y-122505865D01*
X148205020Y-122779620D01*
X147931265Y-123189323D01*
X147859400Y-123550613D01*
X147796600Y-123550613D01*
X147796600Y-123550612D01*
X147724735Y-123189322D01*
X147450980Y-122779620D01*
X147041277Y-122505865D01*
X146558000Y-122409735D01*
X146074722Y-122505865D01*
X145665020Y-122779620D01*
X145391265Y-123189323D01*
X145319400Y-123550613D01*
X145256600Y-123550613D01*
X145256600Y-123550612D01*
X145184735Y-123189322D01*
X144910980Y-122779620D01*
X144501277Y-122505865D01*
X144018000Y-122409735D01*
X143534722Y-122505865D01*
X143125020Y-122779620D01*
X142851265Y-123189323D01*
X142779400Y-123550613D01*
X142716600Y-123550613D01*
X142716600Y-123550612D01*
X142644735Y-123189322D01*
X142370980Y-122779620D01*
X141961277Y-122505865D01*
X141478000Y-122409735D01*
X140994722Y-122505865D01*
X140585020Y-122779620D01*
X140311265Y-123189323D01*
X140239400Y-123550613D01*
X140176600Y-123550613D01*
X140176600Y-123550612D01*
X140104735Y-123189322D01*
X139830980Y-122779620D01*
X139421277Y-122505865D01*
X138938000Y-122409735D01*
X138454722Y-122505865D01*
X138045020Y-122779620D01*
X137771265Y-123189323D01*
X137699400Y-123550613D01*
X127375000Y-123550613D01*
X127375000Y-123346218D01*
X127008556Y-122461544D01*
X126362012Y-121815000D01*
X127953679Y-121815000D01*
X127998000Y-121823816D01*
X128042321Y-121815000D01*
X128173581Y-121788891D01*
X128322432Y-121689432D01*
X128421891Y-121540581D01*
X128456816Y-121365000D01*
X128448000Y-121320679D01*
X128448000Y-117476495D01*
X133525000Y-117476495D01*
X133525000Y-118023505D01*
X133734331Y-118528875D01*
X134121125Y-118915669D01*
X134626495Y-119125000D01*
X135173505Y-119125000D01*
X135678875Y-118915669D01*
X136065669Y-118528875D01*
X136275000Y-118023505D01*
X136275000Y-117476495D01*
X136065669Y-116971125D01*
X135678875Y-116584331D01*
X135173505Y-116375000D01*
X134626495Y-116375000D01*
X134121125Y-116584331D01*
X133734331Y-116971125D01*
X133525000Y-117476495D01*
X128448000Y-117476495D01*
X128448000Y-113976495D01*
X133525000Y-113976495D01*
X133525000Y-114523505D01*
X133734331Y-115028875D01*
X134121125Y-115415669D01*
X134626495Y-115625000D01*
X135173505Y-115625000D01*
X135678875Y-115415669D01*
X136065669Y-115028875D01*
X136275000Y-114523505D01*
X136275000Y-113976495D01*
X136065669Y-113471125D01*
X135678875Y-113084331D01*
X135173505Y-112875000D01*
X134626495Y-112875000D01*
X134121125Y-113084331D01*
X133734331Y-113471125D01*
X133525000Y-113976495D01*
X128448000Y-113976495D01*
X128448000Y-110476495D01*
X133525000Y-110476495D01*
X133525000Y-111023505D01*
X133734331Y-111528875D01*
X134121125Y-111915669D01*
X134626495Y-112125000D01*
X135173505Y-112125000D01*
X135678875Y-111915669D01*
X136065669Y-111528875D01*
X136275000Y-111023505D01*
X136275000Y-110476495D01*
X136065669Y-109971125D01*
X135678875Y-109584331D01*
X135173505Y-109375000D01*
X134626495Y-109375000D01*
X134121125Y-109584331D01*
X133734331Y-109971125D01*
X133525000Y-110476495D01*
X128448000Y-110476495D01*
X128448000Y-106976495D01*
X133525000Y-106976495D01*
X133525000Y-107523505D01*
X133734331Y-108028875D01*
X134121125Y-108415669D01*
X134626495Y-108625000D01*
X135173505Y-108625000D01*
X135678875Y-108415669D01*
X135969544Y-108125000D01*
X137516822Y-108125000D01*
X137603000Y-108142142D01*
X137689178Y-108125000D01*
X137689179Y-108125000D01*
X137944408Y-108074232D01*
X138233840Y-107880840D01*
X138282659Y-107807777D01*
X139822780Y-106267657D01*
X139895840Y-106218840D01*
X140089232Y-105929408D01*
X140140000Y-105674179D01*
X140140000Y-105674178D01*
X140157142Y-105588000D01*
X140140000Y-105501822D01*
X140140000Y-104015000D01*
X140825858Y-104015000D01*
X140843000Y-104101178D01*
X140843001Y-111638817D01*
X140825858Y-111725000D01*
X140878672Y-111990510D01*
X140893769Y-112066408D01*
X141087161Y-112355840D01*
X141160221Y-112404657D01*
X142275564Y-113520000D01*
X141190221Y-114605343D01*
X141117161Y-114654160D01*
X141068344Y-114727220D01*
X140923769Y-114943592D01*
X140855858Y-115285000D01*
X140873001Y-115371183D01*
X140873000Y-119498822D01*
X140855858Y-119585000D01*
X140873000Y-119671178D01*
X140923768Y-119926407D01*
X141117160Y-120215840D01*
X141190223Y-120264659D01*
X142748343Y-121822780D01*
X142797160Y-121895840D01*
X143086592Y-122089232D01*
X143428000Y-122157142D01*
X143514179Y-122140000D01*
X154555564Y-122140000D01*
X155572743Y-123157179D01*
X155551265Y-123189323D01*
X155479400Y-123550613D01*
X155479400Y-124099388D01*
X155551265Y-124460678D01*
X155825021Y-124870380D01*
X156234723Y-125144135D01*
X156718000Y-125240265D01*
X157201278Y-125144135D01*
X157610980Y-124870380D01*
X157884735Y-124460677D01*
X157956600Y-124099387D01*
X157956600Y-123550613D01*
X160559400Y-123550613D01*
X160559400Y-124099388D01*
X160631265Y-124460678D01*
X160905021Y-124870380D01*
X161314723Y-125144135D01*
X161798000Y-125240265D01*
X162281278Y-125144135D01*
X162690980Y-124870380D01*
X162964735Y-124460677D01*
X163036600Y-124099387D01*
X163036600Y-123550613D01*
X163099400Y-123550613D01*
X163099400Y-124099388D01*
X163171265Y-124460678D01*
X163445021Y-124870380D01*
X163854723Y-125144135D01*
X164338000Y-125240265D01*
X164821278Y-125144135D01*
X165230980Y-124870380D01*
X165504735Y-124460677D01*
X165576600Y-124099387D01*
X165576600Y-123550613D01*
X165639400Y-123550613D01*
X165639400Y-124099388D01*
X165711265Y-124460678D01*
X165985021Y-124870380D01*
X166394723Y-125144135D01*
X166878000Y-125240265D01*
X167361278Y-125144135D01*
X167770980Y-124870380D01*
X168044735Y-124460677D01*
X168116600Y-124099387D01*
X168116600Y-123550613D01*
X168179400Y-123550613D01*
X168179400Y-124099388D01*
X168251265Y-124460678D01*
X168525021Y-124870380D01*
X168934723Y-125144135D01*
X169418000Y-125240265D01*
X169901278Y-125144135D01*
X170310980Y-124870380D01*
X170584735Y-124460677D01*
X170656600Y-124099387D01*
X170656600Y-123550613D01*
X170719400Y-123550613D01*
X170719400Y-124099388D01*
X170791265Y-124460678D01*
X171065021Y-124870380D01*
X171474723Y-125144135D01*
X171958000Y-125240265D01*
X172441278Y-125144135D01*
X172850980Y-124870380D01*
X173124735Y-124460677D01*
X173196600Y-124099387D01*
X173196600Y-123550613D01*
X173259400Y-123550613D01*
X173259400Y-124099388D01*
X173331265Y-124460678D01*
X173605021Y-124870380D01*
X174014723Y-125144135D01*
X174498000Y-125240265D01*
X174981278Y-125144135D01*
X175390980Y-124870380D01*
X175664735Y-124460677D01*
X175736600Y-124099387D01*
X175736600Y-123550612D01*
X175664735Y-123189322D01*
X175390980Y-122779620D01*
X174981277Y-122505865D01*
X174498000Y-122409735D01*
X174014722Y-122505865D01*
X173605020Y-122779620D01*
X173331265Y-123189323D01*
X173259400Y-123550613D01*
X173196600Y-123550613D01*
X173196600Y-123550612D01*
X173124735Y-123189322D01*
X172850980Y-122779620D01*
X172441277Y-122505865D01*
X171958000Y-122409735D01*
X171474722Y-122505865D01*
X171065020Y-122779620D01*
X170791265Y-123189323D01*
X170719400Y-123550613D01*
X170656600Y-123550613D01*
X170656600Y-123550612D01*
X170584735Y-123189322D01*
X170310980Y-122779620D01*
X169901277Y-122505865D01*
X169418000Y-122409735D01*
X168934722Y-122505865D01*
X168525020Y-122779620D01*
X168251265Y-123189323D01*
X168179400Y-123550613D01*
X168116600Y-123550613D01*
X168116600Y-123550612D01*
X168044735Y-123189322D01*
X167770980Y-122779620D01*
X167361277Y-122505865D01*
X166878000Y-122409735D01*
X166394722Y-122505865D01*
X165985020Y-122779620D01*
X165711265Y-123189323D01*
X165639400Y-123550613D01*
X165576600Y-123550613D01*
X165576600Y-123550612D01*
X165504735Y-123189322D01*
X165230980Y-122779620D01*
X164821277Y-122505865D01*
X164338000Y-122409735D01*
X163854722Y-122505865D01*
X163445020Y-122779620D01*
X163171265Y-123189323D01*
X163099400Y-123550613D01*
X163036600Y-123550613D01*
X163036600Y-123550612D01*
X162964735Y-123189322D01*
X162690980Y-122779620D01*
X162281277Y-122505865D01*
X161798000Y-122409735D01*
X161314722Y-122505865D01*
X160905020Y-122779620D01*
X160631265Y-123189323D01*
X160559400Y-123550613D01*
X157956600Y-123550613D01*
X157956600Y-123550612D01*
X157884735Y-123189322D01*
X157610980Y-122779620D01*
X157544547Y-122735231D01*
X157542232Y-122723592D01*
X157348840Y-122434160D01*
X157275777Y-122385341D01*
X155597659Y-120707223D01*
X155548840Y-120634160D01*
X155259408Y-120440768D01*
X155004179Y-120390000D01*
X155004178Y-120390000D01*
X154918000Y-120372858D01*
X154831822Y-120390000D01*
X143790437Y-120390000D01*
X142623000Y-119222564D01*
X142623000Y-118600000D01*
X144211001Y-118600000D01*
X144306075Y-119077971D01*
X144576824Y-119483176D01*
X144982029Y-119753925D01*
X145339348Y-119825000D01*
X145580652Y-119825000D01*
X145937971Y-119753925D01*
X146343176Y-119483176D01*
X146613925Y-119077971D01*
X146665487Y-118818750D01*
X146775000Y-118818750D01*
X146775000Y-119524592D01*
X146832090Y-119662421D01*
X146937580Y-119767910D01*
X147075408Y-119825000D01*
X147781250Y-119825000D01*
X147875000Y-119731250D01*
X147875000Y-118725000D01*
X148125000Y-118725000D01*
X148125000Y-119731250D01*
X148218750Y-119825000D01*
X148924592Y-119825000D01*
X149062420Y-119767910D01*
X149167910Y-119662421D01*
X149225000Y-119524592D01*
X149225000Y-118818750D01*
X149131250Y-118725000D01*
X148125000Y-118725000D01*
X147875000Y-118725000D01*
X146868750Y-118725000D01*
X146775000Y-118818750D01*
X146665487Y-118818750D01*
X146708999Y-118600000D01*
X146613925Y-118122029D01*
X146343176Y-117716824D01*
X146281193Y-117675408D01*
X146775000Y-117675408D01*
X146775000Y-118381250D01*
X146868750Y-118475000D01*
X147875000Y-118475000D01*
X147875000Y-117468750D01*
X148125000Y-117468750D01*
X148125000Y-118475000D01*
X149131250Y-118475000D01*
X149225000Y-118381250D01*
X149225000Y-117675408D01*
X149167910Y-117537579D01*
X149062420Y-117432090D01*
X148924592Y-117375000D01*
X148218750Y-117375000D01*
X148125000Y-117468750D01*
X147875000Y-117468750D01*
X147781250Y-117375000D01*
X147075408Y-117375000D01*
X146937580Y-117432090D01*
X146832090Y-117537579D01*
X146775000Y-117675408D01*
X146281193Y-117675408D01*
X145937971Y-117446075D01*
X145580652Y-117375000D01*
X145339348Y-117375000D01*
X144982029Y-117446075D01*
X144576824Y-117716824D01*
X144306075Y-118122029D01*
X144211001Y-118600000D01*
X142623000Y-118600000D01*
X142623000Y-116060000D01*
X144211001Y-116060000D01*
X144306075Y-116537971D01*
X144576824Y-116943176D01*
X144982029Y-117213925D01*
X145339348Y-117285000D01*
X145580652Y-117285000D01*
X145937971Y-117213925D01*
X146343176Y-116943176D01*
X146613925Y-116537971D01*
X146708999Y-116060000D01*
X146751001Y-116060000D01*
X146846075Y-116537971D01*
X147116824Y-116943176D01*
X147522029Y-117213925D01*
X147879348Y-117285000D01*
X148120652Y-117285000D01*
X148477971Y-117213925D01*
X148883176Y-116943176D01*
X149153925Y-116537971D01*
X149248999Y-116060000D01*
X149153925Y-115582029D01*
X148883176Y-115176824D01*
X148490431Y-114914400D01*
X157202994Y-114914400D01*
X157202994Y-116692400D01*
X157232098Y-116838717D01*
X157314981Y-116962759D01*
X157439023Y-117045642D01*
X157585340Y-117074746D01*
X159363340Y-117074746D01*
X159509657Y-117045642D01*
X159633699Y-116962759D01*
X159716582Y-116838717D01*
X159745686Y-116692400D01*
X159745686Y-114914400D01*
X159716582Y-114768083D01*
X159633699Y-114644041D01*
X159509657Y-114561158D01*
X159363340Y-114532054D01*
X157585340Y-114532054D01*
X157439023Y-114561158D01*
X157314981Y-114644041D01*
X157232098Y-114768083D01*
X157202994Y-114914400D01*
X148490431Y-114914400D01*
X148477971Y-114906075D01*
X148120652Y-114835000D01*
X147879348Y-114835000D01*
X147522029Y-114906075D01*
X147116824Y-115176824D01*
X146846075Y-115582029D01*
X146751001Y-116060000D01*
X146708999Y-116060000D01*
X146613925Y-115582029D01*
X146343176Y-115176824D01*
X145937971Y-114906075D01*
X145580652Y-114835000D01*
X145339348Y-114835000D01*
X144982029Y-114906075D01*
X144576824Y-115176824D01*
X144306075Y-115582029D01*
X144211001Y-116060000D01*
X142623000Y-116060000D01*
X142623000Y-115647436D01*
X143875437Y-114395000D01*
X144571361Y-114395000D01*
X144576824Y-114403176D01*
X144982029Y-114673925D01*
X145339348Y-114745000D01*
X145580652Y-114745000D01*
X145937971Y-114673925D01*
X146343176Y-114403176D01*
X146613925Y-113997971D01*
X146708999Y-113520000D01*
X146751001Y-113520000D01*
X146846075Y-113997971D01*
X147116824Y-114403176D01*
X147522029Y-114673925D01*
X147879348Y-114745000D01*
X148120652Y-114745000D01*
X148477971Y-114673925D01*
X148883176Y-114403176D01*
X148888639Y-114395000D01*
X149786822Y-114395000D01*
X149873000Y-114412142D01*
X149959178Y-114395000D01*
X149959179Y-114395000D01*
X150214408Y-114344232D01*
X150503840Y-114150840D01*
X150552659Y-114077777D01*
X151856994Y-112773442D01*
X151725210Y-113091597D01*
X151725210Y-113638403D01*
X151934464Y-114143586D01*
X152321114Y-114530236D01*
X152826297Y-114739490D01*
X153373103Y-114739490D01*
X153878286Y-114530236D01*
X154264936Y-114143586D01*
X154474190Y-113638403D01*
X154474190Y-113091597D01*
X154264936Y-112586414D01*
X153878286Y-112199764D01*
X153661577Y-112110000D01*
X154205564Y-112110000D01*
X155916743Y-113821180D01*
X155965560Y-113894240D01*
X156120805Y-113997971D01*
X156254992Y-114087632D01*
X156596400Y-114155542D01*
X156682579Y-114138400D01*
X157561775Y-114138400D01*
X157758342Y-114334967D01*
X158222915Y-114527400D01*
X158725765Y-114527400D01*
X159190338Y-114334967D01*
X159545907Y-113979398D01*
X159738340Y-113514825D01*
X159738340Y-113011975D01*
X159545907Y-112547402D01*
X159190338Y-112191833D01*
X158725765Y-111999400D01*
X158303818Y-111999400D01*
X158798457Y-111970741D01*
X159127158Y-111834589D01*
X159226318Y-111652154D01*
X158474340Y-110900177D01*
X157722362Y-111652154D01*
X157821522Y-111834589D01*
X158295221Y-111999400D01*
X158222915Y-111999400D01*
X157758342Y-112191833D01*
X157561775Y-112388400D01*
X156958837Y-112388400D01*
X155247659Y-110677223D01*
X155198840Y-110604160D01*
X155111061Y-110545508D01*
X157197913Y-110545508D01*
X157226999Y-111047517D01*
X157363151Y-111376218D01*
X157545586Y-111475378D01*
X158297563Y-110723400D01*
X158651117Y-110723400D01*
X159403094Y-111475378D01*
X159585529Y-111376218D01*
X159750767Y-110901292D01*
X159721681Y-110399283D01*
X159585529Y-110070582D01*
X159403094Y-109971422D01*
X158651117Y-110723400D01*
X158297563Y-110723400D01*
X157545586Y-109971422D01*
X157363151Y-110070582D01*
X157197913Y-110545508D01*
X155111061Y-110545508D01*
X154909408Y-110410768D01*
X154654179Y-110360000D01*
X154654178Y-110360000D01*
X154568000Y-110342858D01*
X154481822Y-110360000D01*
X152244178Y-110360000D01*
X152158000Y-110342858D01*
X152071822Y-110360000D01*
X152071821Y-110360000D01*
X151816592Y-110410768D01*
X151527160Y-110604160D01*
X151478343Y-110677220D01*
X149510564Y-112645000D01*
X148888639Y-112645000D01*
X148883176Y-112636824D01*
X148477971Y-112366075D01*
X148120652Y-112295000D01*
X147879348Y-112295000D01*
X147522029Y-112366075D01*
X147116824Y-112636824D01*
X146846075Y-113042029D01*
X146751001Y-113520000D01*
X146708999Y-113520000D01*
X146613925Y-113042029D01*
X146343176Y-112636824D01*
X145937971Y-112366075D01*
X145580652Y-112295000D01*
X145339348Y-112295000D01*
X144982029Y-112366075D01*
X144576824Y-112636824D01*
X144571361Y-112645000D01*
X143875436Y-112645000D01*
X142593000Y-111362564D01*
X142593000Y-109794646D01*
X157722362Y-109794646D01*
X158474340Y-110546623D01*
X159226318Y-109794646D01*
X159127158Y-109612211D01*
X158652232Y-109446973D01*
X158150223Y-109476059D01*
X157821522Y-109612211D01*
X157722362Y-109794646D01*
X142593000Y-109794646D01*
X142593000Y-107000000D01*
X144211001Y-107000000D01*
X144306075Y-107477971D01*
X144576824Y-107883176D01*
X144982029Y-108153925D01*
X145339348Y-108225000D01*
X145580652Y-108225000D01*
X145937971Y-108153925D01*
X146343176Y-107883176D01*
X146613925Y-107477971D01*
X146665487Y-107218750D01*
X146775000Y-107218750D01*
X146775000Y-107924592D01*
X146832090Y-108062421D01*
X146937580Y-108167910D01*
X147075408Y-108225000D01*
X147781250Y-108225000D01*
X147875000Y-108131250D01*
X147875000Y-107125000D01*
X148125000Y-107125000D01*
X148125000Y-108131250D01*
X148218750Y-108225000D01*
X148924592Y-108225000D01*
X149062420Y-108167910D01*
X149167910Y-108062421D01*
X149225000Y-107924592D01*
X149225000Y-107218750D01*
X149131250Y-107125000D01*
X148125000Y-107125000D01*
X147875000Y-107125000D01*
X146868750Y-107125000D01*
X146775000Y-107218750D01*
X146665487Y-107218750D01*
X146708999Y-107000000D01*
X146613925Y-106522029D01*
X146343176Y-106116824D01*
X146281193Y-106075408D01*
X146775000Y-106075408D01*
X146775000Y-106781250D01*
X146868750Y-106875000D01*
X147875000Y-106875000D01*
X147875000Y-105868750D01*
X148125000Y-105868750D01*
X148125000Y-106875000D01*
X149131250Y-106875000D01*
X149225000Y-106781250D01*
X149225000Y-106075408D01*
X149167910Y-105937579D01*
X149062420Y-105832090D01*
X148924592Y-105775000D01*
X148218750Y-105775000D01*
X148125000Y-105868750D01*
X147875000Y-105868750D01*
X147781250Y-105775000D01*
X147075408Y-105775000D01*
X146937580Y-105832090D01*
X146832090Y-105937579D01*
X146775000Y-106075408D01*
X146281193Y-106075408D01*
X145937971Y-105846075D01*
X145580652Y-105775000D01*
X145339348Y-105775000D01*
X144982029Y-105846075D01*
X144576824Y-106116824D01*
X144306075Y-106522029D01*
X144211001Y-107000000D01*
X142593000Y-107000000D01*
X142593000Y-104460000D01*
X144211001Y-104460000D01*
X144306075Y-104937971D01*
X144576824Y-105343176D01*
X144982029Y-105613925D01*
X145339348Y-105685000D01*
X145580652Y-105685000D01*
X145937971Y-105613925D01*
X146343176Y-105343176D01*
X146613925Y-104937971D01*
X146708999Y-104460000D01*
X146613925Y-103982029D01*
X146343176Y-103576824D01*
X145937971Y-103306075D01*
X145580652Y-103235000D01*
X145339348Y-103235000D01*
X144982029Y-103306075D01*
X144576824Y-103576824D01*
X144306075Y-103982029D01*
X144211001Y-104460000D01*
X142593000Y-104460000D01*
X142593000Y-104377436D01*
X144175436Y-102795000D01*
X144571361Y-102795000D01*
X144576824Y-102803176D01*
X144982029Y-103073925D01*
X145339348Y-103145000D01*
X145580652Y-103145000D01*
X145937971Y-103073925D01*
X146343176Y-102803176D01*
X146613925Y-102397971D01*
X146708999Y-101920000D01*
X146751001Y-101920000D01*
X146846075Y-102397971D01*
X147116824Y-102803176D01*
X147522029Y-103073925D01*
X147879348Y-103145000D01*
X148120652Y-103145000D01*
X148477971Y-103073925D01*
X148883176Y-102803176D01*
X149153925Y-102397971D01*
X149248999Y-101920000D01*
X149153925Y-101442029D01*
X148883176Y-101036824D01*
X148477971Y-100766075D01*
X148120652Y-100695000D01*
X147879348Y-100695000D01*
X147522029Y-100766075D01*
X147116824Y-101036824D01*
X146846075Y-101442029D01*
X146751001Y-101920000D01*
X146708999Y-101920000D01*
X146613925Y-101442029D01*
X146343176Y-101036824D01*
X145937971Y-100766075D01*
X145580652Y-100695000D01*
X145339348Y-100695000D01*
X144982029Y-100766075D01*
X144576824Y-101036824D01*
X144571361Y-101045000D01*
X143899177Y-101045000D01*
X143812999Y-101027858D01*
X143726821Y-101045000D01*
X143471592Y-101095768D01*
X143182160Y-101289160D01*
X143133341Y-101362223D01*
X141160223Y-103335341D01*
X141087160Y-103384160D01*
X140893768Y-103673593D01*
X140843000Y-103928821D01*
X140825858Y-104015000D01*
X140140000Y-104015000D01*
X140140000Y-103247436D01*
X143537437Y-99850000D01*
X148815564Y-99850000D01*
X149793000Y-100827437D01*
X149793001Y-102872562D01*
X149080564Y-103585000D01*
X148888639Y-103585000D01*
X148883176Y-103576824D01*
X148477971Y-103306075D01*
X148120652Y-103235000D01*
X147879348Y-103235000D01*
X147522029Y-103306075D01*
X147116824Y-103576824D01*
X146846075Y-103982029D01*
X146751001Y-104460000D01*
X146846075Y-104937971D01*
X147116824Y-105343176D01*
X147522029Y-105613925D01*
X147879348Y-105685000D01*
X148120652Y-105685000D01*
X148477971Y-105613925D01*
X148883176Y-105343176D01*
X148888639Y-105335000D01*
X149356822Y-105335000D01*
X149443000Y-105352142D01*
X149529178Y-105335000D01*
X149529179Y-105335000D01*
X149784408Y-105284232D01*
X150073840Y-105090840D01*
X150122659Y-105017777D01*
X151225780Y-103914657D01*
X151298840Y-103865840D01*
X151492232Y-103576408D01*
X151543000Y-103321179D01*
X151560142Y-103235000D01*
X151543000Y-103148821D01*
X151543000Y-100551177D01*
X151560142Y-100464999D01*
X151543000Y-100378821D01*
X151492232Y-100123592D01*
X151298840Y-99834160D01*
X151225780Y-99785343D01*
X150354837Y-98914400D01*
X157202994Y-98914400D01*
X157202994Y-100692400D01*
X157232098Y-100838717D01*
X157314981Y-100962759D01*
X157439023Y-101045642D01*
X157585340Y-101074746D01*
X159363340Y-101074746D01*
X159509657Y-101045642D01*
X159633699Y-100962759D01*
X159716582Y-100838717D01*
X159745686Y-100692400D01*
X159745686Y-98914400D01*
X159716582Y-98768083D01*
X159633699Y-98644041D01*
X159509657Y-98561158D01*
X159363340Y-98532054D01*
X157585340Y-98532054D01*
X157439023Y-98561158D01*
X157314981Y-98644041D01*
X157232098Y-98768083D01*
X157202994Y-98914400D01*
X150354837Y-98914400D01*
X149857659Y-98417223D01*
X149808840Y-98344160D01*
X149519408Y-98150768D01*
X149264179Y-98100000D01*
X149264178Y-98100000D01*
X149178000Y-98082858D01*
X149091822Y-98100000D01*
X143261177Y-98100000D01*
X143174999Y-98082858D01*
X143088821Y-98100000D01*
X142833592Y-98150768D01*
X142544160Y-98344160D01*
X142495343Y-98417220D01*
X138707221Y-102205343D01*
X138634161Y-102254160D01*
X138585344Y-102327220D01*
X138440769Y-102543592D01*
X138372858Y-102885000D01*
X138390001Y-102971182D01*
X138390000Y-105225563D01*
X137240564Y-106375000D01*
X135969544Y-106375000D01*
X135678875Y-106084331D01*
X135173505Y-105875000D01*
X134626495Y-105875000D01*
X134121125Y-106084331D01*
X133734331Y-106471125D01*
X133525000Y-106976495D01*
X128448000Y-106976495D01*
X128448000Y-103476495D01*
X133525000Y-103476495D01*
X133525000Y-104023505D01*
X133734331Y-104528875D01*
X134121125Y-104915669D01*
X134626495Y-105125000D01*
X135173505Y-105125000D01*
X135678875Y-104915669D01*
X136065669Y-104528875D01*
X136275000Y-104023505D01*
X136275000Y-103476495D01*
X136065669Y-102971125D01*
X135678875Y-102584331D01*
X135173505Y-102375000D01*
X134626495Y-102375000D01*
X134121125Y-102584331D01*
X133734331Y-102971125D01*
X133525000Y-103476495D01*
X128448000Y-103476495D01*
X128448000Y-99976495D01*
X133525000Y-99976495D01*
X133525000Y-100523505D01*
X133734331Y-101028875D01*
X134121125Y-101415669D01*
X134626495Y-101625000D01*
X135173505Y-101625000D01*
X135678875Y-101415669D01*
X136065669Y-101028875D01*
X136275000Y-100523505D01*
X136275000Y-99976495D01*
X136065669Y-99471125D01*
X135678875Y-99084331D01*
X135173505Y-98875000D01*
X134626495Y-98875000D01*
X134121125Y-99084331D01*
X133734331Y-99471125D01*
X133525000Y-99976495D01*
X128448000Y-99976495D01*
X128448000Y-97091597D01*
X151725210Y-97091597D01*
X151725210Y-97638403D01*
X151934464Y-98143586D01*
X152321114Y-98530236D01*
X152826297Y-98739490D01*
X153373103Y-98739490D01*
X153878286Y-98530236D01*
X154264936Y-98143586D01*
X154474190Y-97638403D01*
X154474190Y-97091597D01*
X154441210Y-97011975D01*
X157210340Y-97011975D01*
X157210340Y-97514825D01*
X157402773Y-97979398D01*
X157758342Y-98334967D01*
X158222915Y-98527400D01*
X158725765Y-98527400D01*
X159190338Y-98334967D01*
X159545907Y-97979398D01*
X159738340Y-97514825D01*
X159738340Y-97011975D01*
X159545907Y-96547402D01*
X159190338Y-96191833D01*
X158725765Y-95999400D01*
X158303818Y-95999400D01*
X158798457Y-95970741D01*
X159127158Y-95834589D01*
X159226318Y-95652154D01*
X158474340Y-94900177D01*
X157722362Y-95652154D01*
X157821522Y-95834589D01*
X158295221Y-95999400D01*
X158222915Y-95999400D01*
X157758342Y-96191833D01*
X157402773Y-96547402D01*
X157210340Y-97011975D01*
X154441210Y-97011975D01*
X154264936Y-96586414D01*
X153878286Y-96199764D01*
X153373103Y-95990510D01*
X152826297Y-95990510D01*
X152321114Y-96199764D01*
X151934464Y-96586414D01*
X151725210Y-97091597D01*
X128448000Y-97091597D01*
X128448000Y-94545508D01*
X157197913Y-94545508D01*
X157226999Y-95047517D01*
X157363151Y-95376218D01*
X157545586Y-95475378D01*
X158297563Y-94723400D01*
X158651117Y-94723400D01*
X159403094Y-95475378D01*
X159585529Y-95376218D01*
X159750767Y-94901292D01*
X159721681Y-94399283D01*
X159585529Y-94070582D01*
X159403094Y-93971422D01*
X158651117Y-94723400D01*
X158297563Y-94723400D01*
X157545586Y-93971422D01*
X157363151Y-94070582D01*
X157197913Y-94545508D01*
X128448000Y-94545508D01*
X128448000Y-93794646D01*
X157722362Y-93794646D01*
X158474340Y-94546623D01*
X159226318Y-93794646D01*
X159127158Y-93612211D01*
X158652232Y-93446973D01*
X158150223Y-93476059D01*
X157821522Y-93612211D01*
X157722362Y-93794646D01*
X128448000Y-93794646D01*
X128448000Y-81131659D01*
X132103000Y-81131659D01*
X132103000Y-81738341D01*
X132335167Y-82298843D01*
X132764157Y-82727833D01*
X133324659Y-82960000D01*
X133931341Y-82960000D01*
X134491843Y-82727833D01*
X134920833Y-82298843D01*
X135153000Y-81738341D01*
X135153000Y-81131659D01*
X137183000Y-81131659D01*
X137183000Y-81738341D01*
X137415167Y-82298843D01*
X137844157Y-82727833D01*
X138404659Y-82960000D01*
X139011341Y-82960000D01*
X139571843Y-82727833D01*
X140000833Y-82298843D01*
X140233000Y-81738341D01*
X140233000Y-81161495D01*
X147493000Y-81161495D01*
X147493000Y-81708505D01*
X147702331Y-82213875D01*
X148089125Y-82600669D01*
X148594495Y-82810000D01*
X149141505Y-82810000D01*
X149646875Y-82600669D01*
X150033669Y-82213875D01*
X150138000Y-81961998D01*
X150242331Y-82213875D01*
X150629125Y-82600669D01*
X151134495Y-82810000D01*
X151681505Y-82810000D01*
X152186875Y-82600669D01*
X152573669Y-82213875D01*
X152783000Y-81708505D01*
X152783000Y-81161495D01*
X152573669Y-80656125D01*
X152186875Y-80269331D01*
X151681505Y-80060000D01*
X151134495Y-80060000D01*
X150629125Y-80269331D01*
X150242331Y-80656125D01*
X150138000Y-80908002D01*
X150033669Y-80656125D01*
X149646875Y-80269331D01*
X149141505Y-80060000D01*
X148594495Y-80060000D01*
X148089125Y-80269331D01*
X147702331Y-80656125D01*
X147493000Y-81161495D01*
X140233000Y-81161495D01*
X140233000Y-81131659D01*
X140000833Y-80571157D01*
X139571843Y-80142167D01*
X139011341Y-79910000D01*
X138404659Y-79910000D01*
X137844157Y-80142167D01*
X137415167Y-80571157D01*
X137183000Y-81131659D01*
X135153000Y-81131659D01*
X134920833Y-80571157D01*
X134491843Y-80142167D01*
X133931341Y-79910000D01*
X133324659Y-79910000D01*
X132764157Y-80142167D01*
X132335167Y-80571157D01*
X132103000Y-81131659D01*
X128448000Y-81131659D01*
X128448000Y-78409321D01*
X128456816Y-78365000D01*
X128421891Y-78189419D01*
X128322432Y-78040568D01*
X128173581Y-77941109D01*
X128042321Y-77915000D01*
X127998000Y-77906184D01*
X127953679Y-77915000D01*
X126854392Y-77915000D01*
X127601456Y-77605556D01*
X128278556Y-76928456D01*
X128611935Y-76123608D01*
X128627265Y-76200678D01*
X128901021Y-76610380D01*
X129310723Y-76884135D01*
X129794000Y-76980265D01*
X130277278Y-76884135D01*
X130686980Y-76610380D01*
X130960735Y-76200677D01*
X131032600Y-75839387D01*
X131032600Y-75290613D01*
X131095400Y-75290613D01*
X131095400Y-75839388D01*
X131167265Y-76200678D01*
X131441021Y-76610380D01*
X131850723Y-76884135D01*
X132334000Y-76980265D01*
X132817278Y-76884135D01*
X133226980Y-76610380D01*
X133500735Y-76200677D01*
X133572600Y-75839387D01*
X133572600Y-75290613D01*
X133635400Y-75290613D01*
X133635400Y-75839388D01*
X133707265Y-76200678D01*
X133981021Y-76610380D01*
X134390723Y-76884135D01*
X134874000Y-76980265D01*
X135357278Y-76884135D01*
X135766980Y-76610380D01*
X136040735Y-76200677D01*
X136103663Y-75884313D01*
X136185001Y-75884313D01*
X136342428Y-76341925D01*
X136662992Y-76704459D01*
X137097769Y-76914950D01*
X137289000Y-76855406D01*
X137289000Y-75690000D01*
X137539000Y-75690000D01*
X137539000Y-76855406D01*
X137730231Y-76914950D01*
X138165008Y-76704459D01*
X138485572Y-76341925D01*
X138642999Y-75884313D01*
X138560229Y-75690000D01*
X137539000Y-75690000D01*
X137289000Y-75690000D01*
X136267771Y-75690000D01*
X136185001Y-75884313D01*
X136103663Y-75884313D01*
X136112600Y-75839387D01*
X136112600Y-75290612D01*
X136103664Y-75245687D01*
X136185001Y-75245687D01*
X136267771Y-75440000D01*
X137289000Y-75440000D01*
X137289000Y-74274594D01*
X137539000Y-74274594D01*
X137539000Y-75440000D01*
X138560229Y-75440000D01*
X138623862Y-75290613D01*
X138715400Y-75290613D01*
X138715400Y-75839388D01*
X138787265Y-76200678D01*
X139061021Y-76610380D01*
X139470723Y-76884135D01*
X139954000Y-76980265D01*
X140437278Y-76884135D01*
X140846980Y-76610380D01*
X141120735Y-76200677D01*
X141192600Y-75839387D01*
X141192600Y-75290613D01*
X141255400Y-75290613D01*
X141255400Y-75839388D01*
X141327265Y-76200678D01*
X141601021Y-76610380D01*
X142010723Y-76884135D01*
X142494000Y-76980265D01*
X142977278Y-76884135D01*
X143386980Y-76610380D01*
X143660735Y-76200677D01*
X143732600Y-75839387D01*
X143732600Y-75290613D01*
X143795400Y-75290613D01*
X143795400Y-75839388D01*
X143867265Y-76200678D01*
X144141021Y-76610380D01*
X144550723Y-76884135D01*
X145034000Y-76980265D01*
X145517278Y-76884135D01*
X145926980Y-76610380D01*
X146200735Y-76200677D01*
X146272600Y-75839387D01*
X146272600Y-75290613D01*
X146335400Y-75290613D01*
X146335400Y-75839388D01*
X146407265Y-76200678D01*
X146681021Y-76610380D01*
X147090723Y-76884135D01*
X147574000Y-76980265D01*
X148057278Y-76884135D01*
X148466980Y-76610380D01*
X148740735Y-76200677D01*
X148812600Y-75839387D01*
X148812600Y-75290613D01*
X148875400Y-75290613D01*
X148875400Y-75839388D01*
X148947265Y-76200678D01*
X149221021Y-76610380D01*
X149630723Y-76884135D01*
X150114000Y-76980265D01*
X150597278Y-76884135D01*
X151006980Y-76610380D01*
X151280735Y-76200677D01*
X151352600Y-75839387D01*
X151352600Y-75290613D01*
X151415400Y-75290613D01*
X151415400Y-75839388D01*
X151487265Y-76200678D01*
X151761021Y-76610380D01*
X152170723Y-76884135D01*
X152654000Y-76980265D01*
X153137278Y-76884135D01*
X153546980Y-76610380D01*
X153820735Y-76200677D01*
X153892600Y-75839387D01*
X153892600Y-75290613D01*
X155479400Y-75290613D01*
X155479400Y-75839388D01*
X155551265Y-76200678D01*
X155825021Y-76610380D01*
X156234723Y-76884135D01*
X156718000Y-76980265D01*
X157201278Y-76884135D01*
X157610980Y-76610380D01*
X157884735Y-76200677D01*
X157956600Y-75839387D01*
X157956600Y-75290613D01*
X158019400Y-75290613D01*
X158019400Y-75839388D01*
X158091265Y-76200678D01*
X158365021Y-76610380D01*
X158774723Y-76884135D01*
X159258000Y-76980265D01*
X159741278Y-76884135D01*
X160150980Y-76610380D01*
X160424735Y-76200677D01*
X160496600Y-75839387D01*
X160496600Y-75290613D01*
X160559400Y-75290613D01*
X160559400Y-75839388D01*
X160631265Y-76200678D01*
X160905021Y-76610380D01*
X161298000Y-76872961D01*
X161298001Y-101835754D01*
X161288205Y-101885000D01*
X161327012Y-102080090D01*
X161437521Y-102245480D01*
X161479269Y-102273375D01*
X166623000Y-107417107D01*
X166623000Y-107519266D01*
X166725763Y-107767357D01*
X166915643Y-107957237D01*
X167163734Y-108060000D01*
X167432266Y-108060000D01*
X167680357Y-107957237D01*
X167870237Y-107767357D01*
X167973000Y-107519266D01*
X167973000Y-107250734D01*
X167870237Y-107002643D01*
X167680357Y-106812763D01*
X167432266Y-106710000D01*
X167330107Y-106710000D01*
X162298000Y-101677894D01*
X162298000Y-76872962D01*
X162690980Y-76610380D01*
X162964735Y-76200677D01*
X163036600Y-75839387D01*
X163036600Y-75290613D01*
X163099400Y-75290613D01*
X163099400Y-75839388D01*
X163171265Y-76200678D01*
X163445021Y-76610380D01*
X163854723Y-76884135D01*
X164338000Y-76980265D01*
X164821278Y-76884135D01*
X165230980Y-76610380D01*
X165504735Y-76200677D01*
X165576600Y-75839387D01*
X165576600Y-75290613D01*
X165639400Y-75290613D01*
X165639400Y-75839388D01*
X165711265Y-76200678D01*
X165985021Y-76610380D01*
X166378000Y-76872961D01*
X166378001Y-92785754D01*
X166368205Y-92835000D01*
X166378403Y-92886266D01*
X166407012Y-93030090D01*
X166517521Y-93195480D01*
X166559268Y-93223374D01*
X166573000Y-93237106D01*
X166573000Y-93339266D01*
X166675763Y-93587357D01*
X166865643Y-93777237D01*
X167113734Y-93880000D01*
X167382266Y-93880000D01*
X167630357Y-93777237D01*
X167820237Y-93587357D01*
X167923000Y-93339266D01*
X167923000Y-93070734D01*
X167820237Y-92822643D01*
X167630357Y-92632763D01*
X167382266Y-92530000D01*
X167378000Y-92530000D01*
X167378000Y-76872962D01*
X167770980Y-76610380D01*
X168044735Y-76200677D01*
X168116600Y-75839387D01*
X168116600Y-75290613D01*
X168179400Y-75290613D01*
X168179400Y-75839388D01*
X168251265Y-76200678D01*
X168525021Y-76610380D01*
X168934723Y-76884135D01*
X169418000Y-76980265D01*
X169901278Y-76884135D01*
X170310980Y-76610380D01*
X170584735Y-76200677D01*
X170656600Y-75839387D01*
X170656600Y-75290613D01*
X170719400Y-75290613D01*
X170719400Y-75839388D01*
X170791265Y-76200678D01*
X171065021Y-76610380D01*
X171474723Y-76884135D01*
X171958000Y-76980265D01*
X172441278Y-76884135D01*
X172850980Y-76610380D01*
X173124735Y-76200677D01*
X173196600Y-75839387D01*
X173196600Y-75290613D01*
X173259400Y-75290613D01*
X173259400Y-75839388D01*
X173331265Y-76200678D01*
X173605021Y-76610380D01*
X174014723Y-76884135D01*
X174498000Y-76980265D01*
X174981278Y-76884135D01*
X175390980Y-76610380D01*
X175664735Y-76200677D01*
X175736600Y-75839387D01*
X175736600Y-75290612D01*
X175664735Y-74929322D01*
X175390980Y-74519620D01*
X174981277Y-74245865D01*
X174498000Y-74149735D01*
X174014722Y-74245865D01*
X173605020Y-74519620D01*
X173331265Y-74929323D01*
X173259400Y-75290613D01*
X173196600Y-75290613D01*
X173196600Y-75290612D01*
X173124735Y-74929322D01*
X172850980Y-74519620D01*
X172441277Y-74245865D01*
X171958000Y-74149735D01*
X171474722Y-74245865D01*
X171065020Y-74519620D01*
X170791265Y-74929323D01*
X170719400Y-75290613D01*
X170656600Y-75290613D01*
X170656600Y-75290612D01*
X170584735Y-74929322D01*
X170310980Y-74519620D01*
X169901277Y-74245865D01*
X169418000Y-74149735D01*
X168934722Y-74245865D01*
X168525020Y-74519620D01*
X168251265Y-74929323D01*
X168179400Y-75290613D01*
X168116600Y-75290613D01*
X168116600Y-75290612D01*
X168044735Y-74929322D01*
X167770980Y-74519620D01*
X167361277Y-74245865D01*
X166878000Y-74149735D01*
X166394722Y-74245865D01*
X165985020Y-74519620D01*
X165711265Y-74929323D01*
X165639400Y-75290613D01*
X165576600Y-75290613D01*
X165576600Y-75290612D01*
X165504735Y-74929322D01*
X165230980Y-74519620D01*
X164821277Y-74245865D01*
X164338000Y-74149735D01*
X163854722Y-74245865D01*
X163445020Y-74519620D01*
X163171265Y-74929323D01*
X163099400Y-75290613D01*
X163036600Y-75290613D01*
X163036600Y-75290612D01*
X162964735Y-74929322D01*
X162690980Y-74519620D01*
X162281277Y-74245865D01*
X161798000Y-74149735D01*
X161314722Y-74245865D01*
X160905020Y-74519620D01*
X160631265Y-74929323D01*
X160559400Y-75290613D01*
X160496600Y-75290613D01*
X160496600Y-75290612D01*
X160424735Y-74929322D01*
X160150980Y-74519620D01*
X159741277Y-74245865D01*
X159258000Y-74149735D01*
X158774722Y-74245865D01*
X158365020Y-74519620D01*
X158091265Y-74929323D01*
X158019400Y-75290613D01*
X157956600Y-75290613D01*
X157956600Y-75290612D01*
X157884735Y-74929322D01*
X157610980Y-74519620D01*
X157201277Y-74245865D01*
X156718000Y-74149735D01*
X156234722Y-74245865D01*
X155825020Y-74519620D01*
X155551265Y-74929323D01*
X155479400Y-75290613D01*
X153892600Y-75290613D01*
X153892600Y-75290612D01*
X153820735Y-74929322D01*
X153546980Y-74519620D01*
X153137277Y-74245865D01*
X152654000Y-74149735D01*
X152170722Y-74245865D01*
X151761020Y-74519620D01*
X151487265Y-74929323D01*
X151415400Y-75290613D01*
X151352600Y-75290613D01*
X151352600Y-75290612D01*
X151280735Y-74929322D01*
X151006980Y-74519620D01*
X150597277Y-74245865D01*
X150114000Y-74149735D01*
X149630722Y-74245865D01*
X149221020Y-74519620D01*
X148947265Y-74929323D01*
X148875400Y-75290613D01*
X148812600Y-75290613D01*
X148812600Y-75290612D01*
X148740735Y-74929322D01*
X148466980Y-74519620D01*
X148057277Y-74245865D01*
X147574000Y-74149735D01*
X147090722Y-74245865D01*
X146681020Y-74519620D01*
X146407265Y-74929323D01*
X146335400Y-75290613D01*
X146272600Y-75290613D01*
X146272600Y-75290612D01*
X146200735Y-74929322D01*
X145926980Y-74519620D01*
X145517277Y-74245865D01*
X145034000Y-74149735D01*
X144550722Y-74245865D01*
X144141020Y-74519620D01*
X143867265Y-74929323D01*
X143795400Y-75290613D01*
X143732600Y-75290613D01*
X143732600Y-75290612D01*
X143660735Y-74929322D01*
X143386980Y-74519620D01*
X142977277Y-74245865D01*
X142494000Y-74149735D01*
X142010722Y-74245865D01*
X141601020Y-74519620D01*
X141327265Y-74929323D01*
X141255400Y-75290613D01*
X141192600Y-75290613D01*
X141192600Y-75290612D01*
X141120735Y-74929322D01*
X140846980Y-74519620D01*
X140437277Y-74245865D01*
X139954000Y-74149735D01*
X139470722Y-74245865D01*
X139061020Y-74519620D01*
X138787265Y-74929323D01*
X138715400Y-75290613D01*
X138623862Y-75290613D01*
X138642999Y-75245687D01*
X138485572Y-74788075D01*
X138165008Y-74425541D01*
X137730231Y-74215050D01*
X137539000Y-74274594D01*
X137289000Y-74274594D01*
X137097769Y-74215050D01*
X136662992Y-74425541D01*
X136342428Y-74788075D01*
X136185001Y-75245687D01*
X136103664Y-75245687D01*
X136040735Y-74929322D01*
X135766980Y-74519620D01*
X135357277Y-74245865D01*
X134874000Y-74149735D01*
X134390722Y-74245865D01*
X133981020Y-74519620D01*
X133707265Y-74929323D01*
X133635400Y-75290613D01*
X133572600Y-75290613D01*
X133572600Y-75290612D01*
X133500735Y-74929322D01*
X133226980Y-74519620D01*
X132817277Y-74245865D01*
X132334000Y-74149735D01*
X131850722Y-74245865D01*
X131441020Y-74519620D01*
X131167265Y-74929323D01*
X131095400Y-75290613D01*
X131032600Y-75290613D01*
X131032600Y-75290612D01*
X130960735Y-74929322D01*
X130686980Y-74519620D01*
X130277277Y-74245865D01*
X129794000Y-74149735D01*
X129310722Y-74245865D01*
X128901020Y-74519620D01*
X128627265Y-74929323D01*
X128611935Y-75006392D01*
X128278556Y-74201544D01*
X127601456Y-73524444D01*
X127482088Y-73475000D01*
X175340898Y-73475000D01*
X176548001Y-74564973D01*
G04 #@! TD*
M02*
