G04 #@! TF.GenerationSoftware,KiCad,Pcbnew,5.0.2+dfsg1-1*
G04 #@! TF.CreationDate,2019-06-09T15:00:16+09:00*
G04 #@! TF.ProjectId,portal_shield_for_arduino,706f7274-616c-45f7-9368-69656c645f66,rev?*
G04 #@! TF.SameCoordinates,Original*
G04 #@! TF.FileFunction,Soldermask,Bot*
G04 #@! TF.FilePolarity,Negative*
%FSLAX46Y46*%
G04 Gerber Fmt 4.6, Leading zero omitted, Abs format (unit mm)*
G04 Created by KiCad (PCBNEW 5.0.2+dfsg1-1) date Sun 09 Jun 2019 03:00:16 PM KST*
%MOMM*%
%LPD*%
G01*
G04 APERTURE LIST*
%ADD10C,0.100000*%
G04 APERTURE END LIST*
D10*
G36*
X125560712Y-121871088D02*
X125930510Y-122024263D01*
X125930513Y-122024265D01*
X126263325Y-122246643D01*
X126546357Y-122529675D01*
X126730204Y-122804822D01*
X126768737Y-122862490D01*
X126921912Y-123232288D01*
X127000000Y-123624864D01*
X127000000Y-124025136D01*
X126921912Y-124417712D01*
X126768737Y-124787510D01*
X126768735Y-124787513D01*
X126546357Y-125120325D01*
X126263325Y-125403357D01*
X125930513Y-125625735D01*
X125930510Y-125625737D01*
X125560712Y-125778912D01*
X125168136Y-125857000D01*
X124767864Y-125857000D01*
X124375288Y-125778912D01*
X124005490Y-125625737D01*
X124005487Y-125625735D01*
X123672675Y-125403357D01*
X123389643Y-125120325D01*
X123167265Y-124787513D01*
X123167263Y-124787510D01*
X123014088Y-124417712D01*
X122936000Y-124025136D01*
X122936000Y-123624864D01*
X123014088Y-123232288D01*
X123167263Y-122862490D01*
X123205796Y-122804822D01*
X123389643Y-122529675D01*
X123672675Y-122246643D01*
X124005487Y-122024265D01*
X124005490Y-122024263D01*
X124375288Y-121871088D01*
X124767864Y-121793000D01*
X125168136Y-121793000D01*
X125560712Y-121871088D01*
X125560712Y-121871088D01*
G37*
G36*
X139107294Y-122821496D02*
X139227726Y-122858029D01*
X139270087Y-122870879D01*
X139420112Y-122951068D01*
X139551612Y-123058988D01*
X139659532Y-123190488D01*
X139739721Y-123340512D01*
X139752571Y-123382873D01*
X139789104Y-123503305D01*
X139789104Y-123503307D01*
X139801600Y-123630179D01*
X139801600Y-124019820D01*
X139801076Y-124025136D01*
X139789104Y-124146694D01*
X139752571Y-124267128D01*
X139739721Y-124309488D01*
X139659532Y-124459512D01*
X139551612Y-124591012D01*
X139420112Y-124698932D01*
X139270088Y-124779121D01*
X139242433Y-124787510D01*
X139107295Y-124828504D01*
X138994432Y-124839620D01*
X138938001Y-124845178D01*
X138938000Y-124845178D01*
X138768706Y-124828504D01*
X138633568Y-124787510D01*
X138605913Y-124779121D01*
X138455889Y-124698932D01*
X138365946Y-124625117D01*
X138324388Y-124591012D01*
X138216469Y-124459512D01*
X138194127Y-124417713D01*
X138136279Y-124309488D01*
X138123429Y-124267127D01*
X138086896Y-124146695D01*
X138078565Y-124062112D01*
X138074400Y-124019821D01*
X138074400Y-123630180D01*
X138086896Y-123503308D01*
X138086896Y-123503306D01*
X138136278Y-123340517D01*
X138136279Y-123340513D01*
X138216468Y-123190488D01*
X138324388Y-123058988D01*
X138455888Y-122951068D01*
X138605912Y-122870879D01*
X138648273Y-122858029D01*
X138768705Y-122821496D01*
X138881568Y-122810380D01*
X138937999Y-122804822D01*
X138938000Y-122804822D01*
X139107294Y-122821496D01*
X139107294Y-122821496D01*
G37*
G36*
X174667294Y-122821496D02*
X174787726Y-122858029D01*
X174830087Y-122870879D01*
X174980112Y-122951068D01*
X175111612Y-123058988D01*
X175219532Y-123190488D01*
X175299721Y-123340512D01*
X175312571Y-123382873D01*
X175349104Y-123503305D01*
X175349104Y-123503307D01*
X175361600Y-123630179D01*
X175361600Y-124019820D01*
X175361076Y-124025136D01*
X175349104Y-124146694D01*
X175312571Y-124267128D01*
X175299721Y-124309488D01*
X175219532Y-124459512D01*
X175111612Y-124591012D01*
X174980112Y-124698932D01*
X174830088Y-124779121D01*
X174802433Y-124787510D01*
X174667295Y-124828504D01*
X174554432Y-124839620D01*
X174498001Y-124845178D01*
X174498000Y-124845178D01*
X174328706Y-124828504D01*
X174193568Y-124787510D01*
X174165913Y-124779121D01*
X174015889Y-124698932D01*
X173925946Y-124625117D01*
X173884388Y-124591012D01*
X173776469Y-124459512D01*
X173754127Y-124417713D01*
X173696279Y-124309488D01*
X173683429Y-124267127D01*
X173646896Y-124146695D01*
X173638565Y-124062112D01*
X173634400Y-124019821D01*
X173634400Y-123630180D01*
X173646896Y-123503308D01*
X173646896Y-123503306D01*
X173696278Y-123340517D01*
X173696279Y-123340513D01*
X173776468Y-123190488D01*
X173884388Y-123058988D01*
X174015888Y-122951068D01*
X174165912Y-122870879D01*
X174208273Y-122858029D01*
X174328705Y-122821496D01*
X174441568Y-122810380D01*
X174497999Y-122804822D01*
X174498000Y-122804822D01*
X174667294Y-122821496D01*
X174667294Y-122821496D01*
G37*
G36*
X172127294Y-122821496D02*
X172247726Y-122858029D01*
X172290087Y-122870879D01*
X172440112Y-122951068D01*
X172571612Y-123058988D01*
X172679532Y-123190488D01*
X172759721Y-123340512D01*
X172772571Y-123382873D01*
X172809104Y-123503305D01*
X172809104Y-123503307D01*
X172821600Y-123630179D01*
X172821600Y-124019820D01*
X172821076Y-124025136D01*
X172809104Y-124146694D01*
X172772571Y-124267128D01*
X172759721Y-124309488D01*
X172679532Y-124459512D01*
X172571612Y-124591012D01*
X172440112Y-124698932D01*
X172290088Y-124779121D01*
X172262433Y-124787510D01*
X172127295Y-124828504D01*
X172014432Y-124839620D01*
X171958001Y-124845178D01*
X171958000Y-124845178D01*
X171788706Y-124828504D01*
X171653568Y-124787510D01*
X171625913Y-124779121D01*
X171475889Y-124698932D01*
X171385946Y-124625117D01*
X171344388Y-124591012D01*
X171236469Y-124459512D01*
X171214127Y-124417713D01*
X171156279Y-124309488D01*
X171143429Y-124267127D01*
X171106896Y-124146695D01*
X171098565Y-124062112D01*
X171094400Y-124019821D01*
X171094400Y-123630180D01*
X171106896Y-123503308D01*
X171106896Y-123503306D01*
X171156278Y-123340517D01*
X171156279Y-123340513D01*
X171236468Y-123190488D01*
X171344388Y-123058988D01*
X171475888Y-122951068D01*
X171625912Y-122870879D01*
X171668273Y-122858029D01*
X171788705Y-122821496D01*
X171901568Y-122810380D01*
X171957999Y-122804822D01*
X171958000Y-122804822D01*
X172127294Y-122821496D01*
X172127294Y-122821496D01*
G37*
G36*
X169587294Y-122821496D02*
X169707726Y-122858029D01*
X169750087Y-122870879D01*
X169900112Y-122951068D01*
X170031612Y-123058988D01*
X170139532Y-123190488D01*
X170219721Y-123340512D01*
X170232571Y-123382873D01*
X170269104Y-123503305D01*
X170269104Y-123503307D01*
X170281600Y-123630179D01*
X170281600Y-124019820D01*
X170281076Y-124025136D01*
X170269104Y-124146694D01*
X170232571Y-124267128D01*
X170219721Y-124309488D01*
X170139532Y-124459512D01*
X170031612Y-124591012D01*
X169900112Y-124698932D01*
X169750088Y-124779121D01*
X169722433Y-124787510D01*
X169587295Y-124828504D01*
X169474432Y-124839620D01*
X169418001Y-124845178D01*
X169418000Y-124845178D01*
X169248706Y-124828504D01*
X169113568Y-124787510D01*
X169085913Y-124779121D01*
X168935889Y-124698932D01*
X168845946Y-124625117D01*
X168804388Y-124591012D01*
X168696469Y-124459512D01*
X168674127Y-124417713D01*
X168616279Y-124309488D01*
X168603429Y-124267127D01*
X168566896Y-124146695D01*
X168558565Y-124062112D01*
X168554400Y-124019821D01*
X168554400Y-123630180D01*
X168566896Y-123503308D01*
X168566896Y-123503306D01*
X168616278Y-123340517D01*
X168616279Y-123340513D01*
X168696468Y-123190488D01*
X168804388Y-123058988D01*
X168935888Y-122951068D01*
X169085912Y-122870879D01*
X169128273Y-122858029D01*
X169248705Y-122821496D01*
X169361568Y-122810380D01*
X169417999Y-122804822D01*
X169418000Y-122804822D01*
X169587294Y-122821496D01*
X169587294Y-122821496D01*
G37*
G36*
X167047294Y-122821496D02*
X167167726Y-122858029D01*
X167210087Y-122870879D01*
X167360112Y-122951068D01*
X167491612Y-123058988D01*
X167599532Y-123190488D01*
X167679721Y-123340512D01*
X167692571Y-123382873D01*
X167729104Y-123503305D01*
X167729104Y-123503307D01*
X167741600Y-123630179D01*
X167741600Y-124019820D01*
X167741076Y-124025136D01*
X167729104Y-124146694D01*
X167692571Y-124267128D01*
X167679721Y-124309488D01*
X167599532Y-124459512D01*
X167491612Y-124591012D01*
X167360112Y-124698932D01*
X167210088Y-124779121D01*
X167182433Y-124787510D01*
X167047295Y-124828504D01*
X166934432Y-124839620D01*
X166878001Y-124845178D01*
X166878000Y-124845178D01*
X166708706Y-124828504D01*
X166573568Y-124787510D01*
X166545913Y-124779121D01*
X166395889Y-124698932D01*
X166305946Y-124625117D01*
X166264388Y-124591012D01*
X166156469Y-124459512D01*
X166134127Y-124417713D01*
X166076279Y-124309488D01*
X166063429Y-124267127D01*
X166026896Y-124146695D01*
X166018565Y-124062112D01*
X166014400Y-124019821D01*
X166014400Y-123630180D01*
X166026896Y-123503308D01*
X166026896Y-123503306D01*
X166076278Y-123340517D01*
X166076279Y-123340513D01*
X166156468Y-123190488D01*
X166264388Y-123058988D01*
X166395888Y-122951068D01*
X166545912Y-122870879D01*
X166588273Y-122858029D01*
X166708705Y-122821496D01*
X166821568Y-122810380D01*
X166877999Y-122804822D01*
X166878000Y-122804822D01*
X167047294Y-122821496D01*
X167047294Y-122821496D01*
G37*
G36*
X164507294Y-122821496D02*
X164627726Y-122858029D01*
X164670087Y-122870879D01*
X164820112Y-122951068D01*
X164951612Y-123058988D01*
X165059532Y-123190488D01*
X165139721Y-123340512D01*
X165152571Y-123382873D01*
X165189104Y-123503305D01*
X165189104Y-123503307D01*
X165201600Y-123630179D01*
X165201600Y-124019820D01*
X165201076Y-124025136D01*
X165189104Y-124146694D01*
X165152571Y-124267128D01*
X165139721Y-124309488D01*
X165059532Y-124459512D01*
X164951612Y-124591012D01*
X164820112Y-124698932D01*
X164670088Y-124779121D01*
X164642433Y-124787510D01*
X164507295Y-124828504D01*
X164394432Y-124839620D01*
X164338001Y-124845178D01*
X164338000Y-124845178D01*
X164168706Y-124828504D01*
X164033568Y-124787510D01*
X164005913Y-124779121D01*
X163855889Y-124698932D01*
X163765946Y-124625117D01*
X163724388Y-124591012D01*
X163616469Y-124459512D01*
X163594127Y-124417713D01*
X163536279Y-124309488D01*
X163523429Y-124267127D01*
X163486896Y-124146695D01*
X163478565Y-124062112D01*
X163474400Y-124019821D01*
X163474400Y-123630180D01*
X163486896Y-123503308D01*
X163486896Y-123503306D01*
X163536278Y-123340517D01*
X163536279Y-123340513D01*
X163616468Y-123190488D01*
X163724388Y-123058988D01*
X163855888Y-122951068D01*
X164005912Y-122870879D01*
X164048273Y-122858029D01*
X164168705Y-122821496D01*
X164281568Y-122810380D01*
X164337999Y-122804822D01*
X164338000Y-122804822D01*
X164507294Y-122821496D01*
X164507294Y-122821496D01*
G37*
G36*
X161967294Y-122821496D02*
X162087726Y-122858029D01*
X162130087Y-122870879D01*
X162280112Y-122951068D01*
X162411612Y-123058988D01*
X162519532Y-123190488D01*
X162599721Y-123340512D01*
X162612571Y-123382873D01*
X162649104Y-123503305D01*
X162649104Y-123503307D01*
X162661600Y-123630179D01*
X162661600Y-124019820D01*
X162661076Y-124025136D01*
X162649104Y-124146694D01*
X162612571Y-124267128D01*
X162599721Y-124309488D01*
X162519532Y-124459512D01*
X162411612Y-124591012D01*
X162280112Y-124698932D01*
X162130088Y-124779121D01*
X162102433Y-124787510D01*
X161967295Y-124828504D01*
X161854432Y-124839620D01*
X161798001Y-124845178D01*
X161798000Y-124845178D01*
X161628706Y-124828504D01*
X161493568Y-124787510D01*
X161465913Y-124779121D01*
X161315889Y-124698932D01*
X161225946Y-124625117D01*
X161184388Y-124591012D01*
X161076469Y-124459512D01*
X161054127Y-124417713D01*
X160996279Y-124309488D01*
X160983429Y-124267127D01*
X160946896Y-124146695D01*
X160938565Y-124062112D01*
X160934400Y-124019821D01*
X160934400Y-123630180D01*
X160946896Y-123503308D01*
X160946896Y-123503306D01*
X160996278Y-123340517D01*
X160996279Y-123340513D01*
X161076468Y-123190488D01*
X161184388Y-123058988D01*
X161315888Y-122951068D01*
X161465912Y-122870879D01*
X161508273Y-122858029D01*
X161628705Y-122821496D01*
X161741568Y-122810380D01*
X161797999Y-122804822D01*
X161798000Y-122804822D01*
X161967294Y-122821496D01*
X161967294Y-122821496D01*
G37*
G36*
X156887294Y-122821496D02*
X157007726Y-122858029D01*
X157050087Y-122870879D01*
X157200112Y-122951068D01*
X157331612Y-123058988D01*
X157439532Y-123190488D01*
X157519721Y-123340512D01*
X157532571Y-123382873D01*
X157569104Y-123503305D01*
X157569104Y-123503307D01*
X157581600Y-123630179D01*
X157581600Y-124019820D01*
X157581076Y-124025136D01*
X157569104Y-124146694D01*
X157532571Y-124267128D01*
X157519721Y-124309488D01*
X157439532Y-124459512D01*
X157331612Y-124591012D01*
X157200112Y-124698932D01*
X157050088Y-124779121D01*
X157022433Y-124787510D01*
X156887295Y-124828504D01*
X156774432Y-124839620D01*
X156718001Y-124845178D01*
X156718000Y-124845178D01*
X156548706Y-124828504D01*
X156413568Y-124787510D01*
X156385913Y-124779121D01*
X156235889Y-124698932D01*
X156145946Y-124625117D01*
X156104388Y-124591012D01*
X155996469Y-124459512D01*
X155974127Y-124417713D01*
X155916279Y-124309488D01*
X155903429Y-124267127D01*
X155866896Y-124146695D01*
X155858565Y-124062112D01*
X155854400Y-124019821D01*
X155854400Y-123630180D01*
X155866896Y-123503308D01*
X155866896Y-123503306D01*
X155916278Y-123340517D01*
X155916279Y-123340513D01*
X155996468Y-123190488D01*
X156104388Y-123058988D01*
X156235888Y-122951068D01*
X156385912Y-122870879D01*
X156428273Y-122858029D01*
X156548705Y-122821496D01*
X156661568Y-122810380D01*
X156717999Y-122804822D01*
X156718000Y-122804822D01*
X156887294Y-122821496D01*
X156887294Y-122821496D01*
G37*
G36*
X154347294Y-122821496D02*
X154467726Y-122858029D01*
X154510087Y-122870879D01*
X154660112Y-122951068D01*
X154791612Y-123058988D01*
X154899532Y-123190488D01*
X154979721Y-123340512D01*
X154992571Y-123382873D01*
X155029104Y-123503305D01*
X155029104Y-123503307D01*
X155041600Y-123630179D01*
X155041600Y-124019820D01*
X155041076Y-124025136D01*
X155029104Y-124146694D01*
X154992571Y-124267128D01*
X154979721Y-124309488D01*
X154899532Y-124459512D01*
X154791612Y-124591012D01*
X154660112Y-124698932D01*
X154510088Y-124779121D01*
X154482433Y-124787510D01*
X154347295Y-124828504D01*
X154234432Y-124839620D01*
X154178001Y-124845178D01*
X154178000Y-124845178D01*
X154008706Y-124828504D01*
X153873568Y-124787510D01*
X153845913Y-124779121D01*
X153695889Y-124698932D01*
X153605946Y-124625117D01*
X153564388Y-124591012D01*
X153456469Y-124459512D01*
X153434127Y-124417713D01*
X153376279Y-124309488D01*
X153363429Y-124267127D01*
X153326896Y-124146695D01*
X153318565Y-124062112D01*
X153314400Y-124019821D01*
X153314400Y-123630180D01*
X153326896Y-123503308D01*
X153326896Y-123503306D01*
X153376278Y-123340517D01*
X153376279Y-123340513D01*
X153456468Y-123190488D01*
X153564388Y-123058988D01*
X153695888Y-122951068D01*
X153845912Y-122870879D01*
X153888273Y-122858029D01*
X154008705Y-122821496D01*
X154121568Y-122810380D01*
X154177999Y-122804822D01*
X154178000Y-122804822D01*
X154347294Y-122821496D01*
X154347294Y-122821496D01*
G37*
G36*
X151807294Y-122821496D02*
X151927726Y-122858029D01*
X151970087Y-122870879D01*
X152120112Y-122951068D01*
X152251612Y-123058988D01*
X152359532Y-123190488D01*
X152439721Y-123340512D01*
X152452571Y-123382873D01*
X152489104Y-123503305D01*
X152489104Y-123503307D01*
X152501600Y-123630179D01*
X152501600Y-124019820D01*
X152501076Y-124025136D01*
X152489104Y-124146694D01*
X152452571Y-124267128D01*
X152439721Y-124309488D01*
X152359532Y-124459512D01*
X152251612Y-124591012D01*
X152120112Y-124698932D01*
X151970088Y-124779121D01*
X151942433Y-124787510D01*
X151807295Y-124828504D01*
X151694432Y-124839620D01*
X151638001Y-124845178D01*
X151638000Y-124845178D01*
X151468706Y-124828504D01*
X151333568Y-124787510D01*
X151305913Y-124779121D01*
X151155889Y-124698932D01*
X151065946Y-124625117D01*
X151024388Y-124591012D01*
X150916469Y-124459512D01*
X150894127Y-124417713D01*
X150836279Y-124309488D01*
X150823429Y-124267127D01*
X150786896Y-124146695D01*
X150778565Y-124062112D01*
X150774400Y-124019821D01*
X150774400Y-123630180D01*
X150786896Y-123503308D01*
X150786896Y-123503306D01*
X150836278Y-123340517D01*
X150836279Y-123340513D01*
X150916468Y-123190488D01*
X151024388Y-123058988D01*
X151155888Y-122951068D01*
X151305912Y-122870879D01*
X151348273Y-122858029D01*
X151468705Y-122821496D01*
X151581568Y-122810380D01*
X151637999Y-122804822D01*
X151638000Y-122804822D01*
X151807294Y-122821496D01*
X151807294Y-122821496D01*
G37*
G36*
X149267294Y-122821496D02*
X149387726Y-122858029D01*
X149430087Y-122870879D01*
X149580112Y-122951068D01*
X149711612Y-123058988D01*
X149819532Y-123190488D01*
X149899721Y-123340512D01*
X149912571Y-123382873D01*
X149949104Y-123503305D01*
X149949104Y-123503307D01*
X149961600Y-123630179D01*
X149961600Y-124019820D01*
X149961076Y-124025136D01*
X149949104Y-124146694D01*
X149912571Y-124267128D01*
X149899721Y-124309488D01*
X149819532Y-124459512D01*
X149711612Y-124591012D01*
X149580112Y-124698932D01*
X149430088Y-124779121D01*
X149402433Y-124787510D01*
X149267295Y-124828504D01*
X149154432Y-124839620D01*
X149098001Y-124845178D01*
X149098000Y-124845178D01*
X148928706Y-124828504D01*
X148793568Y-124787510D01*
X148765913Y-124779121D01*
X148615889Y-124698932D01*
X148525946Y-124625117D01*
X148484388Y-124591012D01*
X148376469Y-124459512D01*
X148354127Y-124417713D01*
X148296279Y-124309488D01*
X148283429Y-124267127D01*
X148246896Y-124146695D01*
X148238565Y-124062112D01*
X148234400Y-124019821D01*
X148234400Y-123630180D01*
X148246896Y-123503308D01*
X148246896Y-123503306D01*
X148296278Y-123340517D01*
X148296279Y-123340513D01*
X148376468Y-123190488D01*
X148484388Y-123058988D01*
X148615888Y-122951068D01*
X148765912Y-122870879D01*
X148808273Y-122858029D01*
X148928705Y-122821496D01*
X149041568Y-122810380D01*
X149097999Y-122804822D01*
X149098000Y-122804822D01*
X149267294Y-122821496D01*
X149267294Y-122821496D01*
G37*
G36*
X146727294Y-122821496D02*
X146847726Y-122858029D01*
X146890087Y-122870879D01*
X147040112Y-122951068D01*
X147171612Y-123058988D01*
X147279532Y-123190488D01*
X147359721Y-123340512D01*
X147372571Y-123382873D01*
X147409104Y-123503305D01*
X147409104Y-123503307D01*
X147421600Y-123630179D01*
X147421600Y-124019820D01*
X147421076Y-124025136D01*
X147409104Y-124146694D01*
X147372571Y-124267128D01*
X147359721Y-124309488D01*
X147279532Y-124459512D01*
X147171612Y-124591012D01*
X147040112Y-124698932D01*
X146890088Y-124779121D01*
X146862433Y-124787510D01*
X146727295Y-124828504D01*
X146614432Y-124839620D01*
X146558001Y-124845178D01*
X146558000Y-124845178D01*
X146388706Y-124828504D01*
X146253568Y-124787510D01*
X146225913Y-124779121D01*
X146075889Y-124698932D01*
X145985946Y-124625117D01*
X145944388Y-124591012D01*
X145836469Y-124459512D01*
X145814127Y-124417713D01*
X145756279Y-124309488D01*
X145743429Y-124267127D01*
X145706896Y-124146695D01*
X145698565Y-124062112D01*
X145694400Y-124019821D01*
X145694400Y-123630180D01*
X145706896Y-123503308D01*
X145706896Y-123503306D01*
X145756278Y-123340517D01*
X145756279Y-123340513D01*
X145836468Y-123190488D01*
X145944388Y-123058988D01*
X146075888Y-122951068D01*
X146225912Y-122870879D01*
X146268273Y-122858029D01*
X146388705Y-122821496D01*
X146501568Y-122810380D01*
X146557999Y-122804822D01*
X146558000Y-122804822D01*
X146727294Y-122821496D01*
X146727294Y-122821496D01*
G37*
G36*
X144187294Y-122821496D02*
X144307726Y-122858029D01*
X144350087Y-122870879D01*
X144500112Y-122951068D01*
X144631612Y-123058988D01*
X144739532Y-123190488D01*
X144819721Y-123340512D01*
X144832571Y-123382873D01*
X144869104Y-123503305D01*
X144869104Y-123503307D01*
X144881600Y-123630179D01*
X144881600Y-124019820D01*
X144881076Y-124025136D01*
X144869104Y-124146694D01*
X144832571Y-124267128D01*
X144819721Y-124309488D01*
X144739532Y-124459512D01*
X144631612Y-124591012D01*
X144500112Y-124698932D01*
X144350088Y-124779121D01*
X144322433Y-124787510D01*
X144187295Y-124828504D01*
X144074432Y-124839620D01*
X144018001Y-124845178D01*
X144018000Y-124845178D01*
X143848706Y-124828504D01*
X143713568Y-124787510D01*
X143685913Y-124779121D01*
X143535889Y-124698932D01*
X143445946Y-124625117D01*
X143404388Y-124591012D01*
X143296469Y-124459512D01*
X143274127Y-124417713D01*
X143216279Y-124309488D01*
X143203429Y-124267127D01*
X143166896Y-124146695D01*
X143158565Y-124062112D01*
X143154400Y-124019821D01*
X143154400Y-123630180D01*
X143166896Y-123503308D01*
X143166896Y-123503306D01*
X143216278Y-123340517D01*
X143216279Y-123340513D01*
X143296468Y-123190488D01*
X143404388Y-123058988D01*
X143535888Y-122951068D01*
X143685912Y-122870879D01*
X143728273Y-122858029D01*
X143848705Y-122821496D01*
X143961568Y-122810380D01*
X144017999Y-122804822D01*
X144018000Y-122804822D01*
X144187294Y-122821496D01*
X144187294Y-122821496D01*
G37*
G36*
X141647294Y-122821496D02*
X141767726Y-122858029D01*
X141810087Y-122870879D01*
X141960112Y-122951068D01*
X142091612Y-123058988D01*
X142199532Y-123190488D01*
X142279721Y-123340512D01*
X142292571Y-123382873D01*
X142329104Y-123503305D01*
X142329104Y-123503307D01*
X142341600Y-123630179D01*
X142341600Y-124019820D01*
X142341076Y-124025136D01*
X142329104Y-124146694D01*
X142292571Y-124267128D01*
X142279721Y-124309488D01*
X142199532Y-124459512D01*
X142091612Y-124591012D01*
X141960112Y-124698932D01*
X141810088Y-124779121D01*
X141782433Y-124787510D01*
X141647295Y-124828504D01*
X141534432Y-124839620D01*
X141478001Y-124845178D01*
X141478000Y-124845178D01*
X141308706Y-124828504D01*
X141173568Y-124787510D01*
X141145913Y-124779121D01*
X140995889Y-124698932D01*
X140905946Y-124625117D01*
X140864388Y-124591012D01*
X140756469Y-124459512D01*
X140734127Y-124417713D01*
X140676279Y-124309488D01*
X140663429Y-124267127D01*
X140626896Y-124146695D01*
X140618565Y-124062112D01*
X140614400Y-124019821D01*
X140614400Y-123630180D01*
X140626896Y-123503308D01*
X140626896Y-123503306D01*
X140676278Y-123340517D01*
X140676279Y-123340513D01*
X140756468Y-123190488D01*
X140864388Y-123058988D01*
X140995888Y-122951068D01*
X141145912Y-122870879D01*
X141188273Y-122858029D01*
X141308705Y-122821496D01*
X141421568Y-122810380D01*
X141477999Y-122804822D01*
X141478000Y-122804822D01*
X141647294Y-122821496D01*
X141647294Y-122821496D01*
G37*
G36*
X127573770Y-115830372D02*
X127689689Y-115853429D01*
X127871678Y-115928811D01*
X128035463Y-116038249D01*
X128174751Y-116177537D01*
X128284189Y-116341322D01*
X128359571Y-116523311D01*
X128382628Y-116639230D01*
X128393205Y-116692400D01*
X128398000Y-116716509D01*
X128398000Y-116913491D01*
X128359571Y-117106689D01*
X128284189Y-117288678D01*
X128174751Y-117452463D01*
X128035463Y-117591751D01*
X127871678Y-117701189D01*
X127689689Y-117776571D01*
X127573770Y-117799628D01*
X127496493Y-117815000D01*
X127299507Y-117815000D01*
X127222230Y-117799628D01*
X127106311Y-117776571D01*
X126924322Y-117701189D01*
X126760537Y-117591751D01*
X126621249Y-117452463D01*
X126511811Y-117288678D01*
X126436429Y-117106689D01*
X126398000Y-116913491D01*
X126398000Y-116716509D01*
X126402796Y-116692400D01*
X126413372Y-116639230D01*
X126436429Y-116523311D01*
X126511811Y-116341322D01*
X126621249Y-116177537D01*
X126760537Y-116038249D01*
X126924322Y-115928811D01*
X127106311Y-115853429D01*
X127222230Y-115830372D01*
X127299507Y-115815000D01*
X127496493Y-115815000D01*
X127573770Y-115830372D01*
X127573770Y-115830372D01*
G37*
G36*
X161961040Y-116692400D02*
X160183040Y-116692400D01*
X160183040Y-114914400D01*
X161961040Y-114914400D01*
X161961040Y-116692400D01*
X161961040Y-116692400D01*
G37*
G36*
X142084630Y-113567299D02*
X142244855Y-113615903D01*
X142392520Y-113694831D01*
X142521949Y-113801051D01*
X142628169Y-113930480D01*
X142707097Y-114078145D01*
X142755701Y-114238370D01*
X142772112Y-114405000D01*
X142755701Y-114571630D01*
X142707097Y-114731855D01*
X142628169Y-114879520D01*
X142521949Y-115008949D01*
X142392520Y-115115169D01*
X142244855Y-115194097D01*
X142084630Y-115242701D01*
X141959752Y-115255000D01*
X141876248Y-115255000D01*
X141751370Y-115242701D01*
X141591145Y-115194097D01*
X141443480Y-115115169D01*
X141314051Y-115008949D01*
X141207831Y-114879520D01*
X141128903Y-114731855D01*
X141080299Y-114571630D01*
X141063888Y-114405000D01*
X141080299Y-114238370D01*
X141128903Y-114078145D01*
X141207831Y-113930480D01*
X141314051Y-113801051D01*
X141443480Y-113694831D01*
X141591145Y-113615903D01*
X141751370Y-113567299D01*
X141876248Y-113555000D01*
X141959752Y-113555000D01*
X142084630Y-113567299D01*
X142084630Y-113567299D01*
G37*
G36*
X147164630Y-113567299D02*
X147324855Y-113615903D01*
X147472520Y-113694831D01*
X147601949Y-113801051D01*
X147708169Y-113930480D01*
X147787097Y-114078145D01*
X147835701Y-114238370D01*
X147852112Y-114405000D01*
X147835701Y-114571630D01*
X147787097Y-114731855D01*
X147708169Y-114879520D01*
X147601949Y-115008949D01*
X147472520Y-115115169D01*
X147324855Y-115194097D01*
X147164630Y-115242701D01*
X147039752Y-115255000D01*
X146956248Y-115255000D01*
X146831370Y-115242701D01*
X146671145Y-115194097D01*
X146523480Y-115115169D01*
X146394051Y-115008949D01*
X146287831Y-114879520D01*
X146208903Y-114731855D01*
X146160299Y-114571630D01*
X146143888Y-114405000D01*
X146160299Y-114238370D01*
X146208903Y-114078145D01*
X146287831Y-113930480D01*
X146394051Y-113801051D01*
X146523480Y-113694831D01*
X146671145Y-113615903D01*
X146831370Y-113567299D01*
X146956248Y-113555000D01*
X147039752Y-113555000D01*
X147164630Y-113567299D01*
X147164630Y-113567299D01*
G37*
G36*
X144624630Y-113567299D02*
X144784855Y-113615903D01*
X144932520Y-113694831D01*
X145061949Y-113801051D01*
X145168169Y-113930480D01*
X145247097Y-114078145D01*
X145295701Y-114238370D01*
X145312112Y-114405000D01*
X145295701Y-114571630D01*
X145247097Y-114731855D01*
X145168169Y-114879520D01*
X145061949Y-115008949D01*
X144932520Y-115115169D01*
X144784855Y-115194097D01*
X144624630Y-115242701D01*
X144499752Y-115255000D01*
X144416248Y-115255000D01*
X144291370Y-115242701D01*
X144131145Y-115194097D01*
X143983480Y-115115169D01*
X143854051Y-115008949D01*
X143747831Y-114879520D01*
X143668903Y-114731855D01*
X143620299Y-114571630D01*
X143603888Y-114405000D01*
X143620299Y-114238370D01*
X143668903Y-114078145D01*
X143747831Y-113930480D01*
X143854051Y-113801051D01*
X143983480Y-113694831D01*
X144131145Y-113615903D01*
X144291370Y-113567299D01*
X144416248Y-113555000D01*
X144499752Y-113555000D01*
X144624630Y-113567299D01*
X144624630Y-113567299D01*
G37*
G36*
X155988938Y-112403919D02*
X156170837Y-112479264D01*
X156334541Y-112588648D01*
X156473752Y-112727859D01*
X156583136Y-112891563D01*
X156658481Y-113073462D01*
X156696890Y-113266557D01*
X156696890Y-113463443D01*
X156658481Y-113656538D01*
X156583136Y-113838437D01*
X156473752Y-114002141D01*
X156334541Y-114141352D01*
X156170837Y-114250736D01*
X155988938Y-114326081D01*
X155795843Y-114364490D01*
X155598957Y-114364490D01*
X155405862Y-114326081D01*
X155223963Y-114250736D01*
X155060259Y-114141352D01*
X154921048Y-114002141D01*
X154811664Y-113838437D01*
X154736319Y-113656538D01*
X154697910Y-113463443D01*
X154697910Y-113266557D01*
X154736319Y-113073462D01*
X154811664Y-112891563D01*
X154921048Y-112727859D01*
X155060259Y-112588648D01*
X155223963Y-112479264D01*
X155405862Y-112403919D01*
X155598957Y-112365510D01*
X155795843Y-112365510D01*
X155988938Y-112403919D01*
X155988938Y-112403919D01*
G37*
G36*
X127573770Y-112330372D02*
X127689689Y-112353429D01*
X127871678Y-112428811D01*
X128035463Y-112538249D01*
X128174751Y-112677537D01*
X128284189Y-112841322D01*
X128359571Y-113023311D01*
X128382628Y-113139230D01*
X128398000Y-113216507D01*
X128398000Y-113413493D01*
X128388064Y-113463443D01*
X128359571Y-113606689D01*
X128284189Y-113788678D01*
X128174751Y-113952463D01*
X128035463Y-114091751D01*
X127871678Y-114201189D01*
X127689689Y-114276571D01*
X127573770Y-114299628D01*
X127496493Y-114315000D01*
X127299507Y-114315000D01*
X127222230Y-114299628D01*
X127106311Y-114276571D01*
X126924322Y-114201189D01*
X126760537Y-114091751D01*
X126621249Y-113952463D01*
X126511811Y-113788678D01*
X126436429Y-113606689D01*
X126407936Y-113463443D01*
X126398000Y-113413493D01*
X126398000Y-113216507D01*
X126413372Y-113139230D01*
X126436429Y-113023311D01*
X126511811Y-112841322D01*
X126621249Y-112677537D01*
X126760537Y-112538249D01*
X126924322Y-112428811D01*
X127106311Y-112353429D01*
X127222230Y-112330372D01*
X127299507Y-112315000D01*
X127496493Y-112315000D01*
X127573770Y-112330372D01*
X127573770Y-112330372D01*
G37*
G36*
X161331352Y-112408564D02*
X161493138Y-112475578D01*
X161638747Y-112572871D01*
X161762569Y-112696693D01*
X161859862Y-112842302D01*
X161926876Y-113004088D01*
X161961040Y-113175841D01*
X161961040Y-113350959D01*
X161926876Y-113522712D01*
X161859862Y-113684498D01*
X161762569Y-113830107D01*
X161638747Y-113953929D01*
X161493138Y-114051222D01*
X161331352Y-114118236D01*
X161159599Y-114152400D01*
X160984481Y-114152400D01*
X160812728Y-114118236D01*
X160650942Y-114051222D01*
X160505333Y-113953929D01*
X160381511Y-113830107D01*
X160284218Y-113684498D01*
X160217204Y-113522712D01*
X160183040Y-113350959D01*
X160183040Y-113175841D01*
X160217204Y-113004088D01*
X160284218Y-112842302D01*
X160381511Y-112696693D01*
X160505333Y-112572871D01*
X160650942Y-112475578D01*
X160812728Y-112408564D01*
X160984481Y-112374400D01*
X161159599Y-112374400D01*
X161331352Y-112408564D01*
X161331352Y-112408564D01*
G37*
G36*
X144624630Y-111027299D02*
X144784855Y-111075903D01*
X144932520Y-111154831D01*
X145061949Y-111261051D01*
X145168169Y-111390480D01*
X145247097Y-111538145D01*
X145295701Y-111698370D01*
X145312112Y-111865000D01*
X145295701Y-112031630D01*
X145247097Y-112191855D01*
X145168169Y-112339520D01*
X145061949Y-112468949D01*
X144932520Y-112575169D01*
X144784855Y-112654097D01*
X144624630Y-112702701D01*
X144499752Y-112715000D01*
X144416248Y-112715000D01*
X144291370Y-112702701D01*
X144131145Y-112654097D01*
X143983480Y-112575169D01*
X143854051Y-112468949D01*
X143747831Y-112339520D01*
X143668903Y-112191855D01*
X143620299Y-112031630D01*
X143603888Y-111865000D01*
X143620299Y-111698370D01*
X143668903Y-111538145D01*
X143747831Y-111390480D01*
X143854051Y-111261051D01*
X143983480Y-111154831D01*
X144131145Y-111075903D01*
X144291370Y-111027299D01*
X144416248Y-111015000D01*
X144499752Y-111015000D01*
X144624630Y-111027299D01*
X144624630Y-111027299D01*
G37*
G36*
X142084630Y-111027299D02*
X142244855Y-111075903D01*
X142392520Y-111154831D01*
X142521949Y-111261051D01*
X142628169Y-111390480D01*
X142707097Y-111538145D01*
X142755701Y-111698370D01*
X142772112Y-111865000D01*
X142755701Y-112031630D01*
X142707097Y-112191855D01*
X142628169Y-112339520D01*
X142521949Y-112468949D01*
X142392520Y-112575169D01*
X142244855Y-112654097D01*
X142084630Y-112702701D01*
X141959752Y-112715000D01*
X141876248Y-112715000D01*
X141751370Y-112702701D01*
X141591145Y-112654097D01*
X141443480Y-112575169D01*
X141314051Y-112468949D01*
X141207831Y-112339520D01*
X141128903Y-112191855D01*
X141080299Y-112031630D01*
X141063888Y-111865000D01*
X141080299Y-111698370D01*
X141128903Y-111538145D01*
X141207831Y-111390480D01*
X141314051Y-111261051D01*
X141443480Y-111154831D01*
X141591145Y-111075903D01*
X141751370Y-111027299D01*
X141876248Y-111015000D01*
X141959752Y-111015000D01*
X142084630Y-111027299D01*
X142084630Y-111027299D01*
G37*
G36*
X147848000Y-112715000D02*
X146148000Y-112715000D01*
X146148000Y-111015000D01*
X147848000Y-111015000D01*
X147848000Y-112715000D01*
X147848000Y-112715000D01*
G37*
G36*
X161331352Y-109868564D02*
X161493138Y-109935578D01*
X161638747Y-110032871D01*
X161762569Y-110156693D01*
X161859862Y-110302302D01*
X161926876Y-110464088D01*
X161961040Y-110635841D01*
X161961040Y-110810959D01*
X161926876Y-110982712D01*
X161859862Y-111144498D01*
X161762569Y-111290107D01*
X161638747Y-111413929D01*
X161493138Y-111511222D01*
X161331352Y-111578236D01*
X161159599Y-111612400D01*
X160984481Y-111612400D01*
X160812728Y-111578236D01*
X160650942Y-111511222D01*
X160505333Y-111413929D01*
X160381511Y-111290107D01*
X160284218Y-111144498D01*
X160217204Y-110982712D01*
X160183040Y-110810959D01*
X160183040Y-110635841D01*
X160217204Y-110464088D01*
X160284218Y-110302302D01*
X160381511Y-110156693D01*
X160505333Y-110032871D01*
X160650942Y-109935578D01*
X160812728Y-109868564D01*
X160984481Y-109834400D01*
X161159599Y-109834400D01*
X161331352Y-109868564D01*
X161331352Y-109868564D01*
G37*
G36*
X127573770Y-108830372D02*
X127689689Y-108853429D01*
X127871678Y-108928811D01*
X128035463Y-109038249D01*
X128174751Y-109177537D01*
X128284189Y-109341322D01*
X128359571Y-109523311D01*
X128382628Y-109639230D01*
X128398000Y-109716507D01*
X128398000Y-109913493D01*
X128382628Y-109990770D01*
X128359571Y-110106689D01*
X128284189Y-110288678D01*
X128174751Y-110452463D01*
X128035463Y-110591751D01*
X127871678Y-110701189D01*
X127689689Y-110776571D01*
X127573770Y-110799628D01*
X127496493Y-110815000D01*
X127299507Y-110815000D01*
X127222230Y-110799628D01*
X127106311Y-110776571D01*
X126924322Y-110701189D01*
X126760537Y-110591751D01*
X126621249Y-110452463D01*
X126511811Y-110288678D01*
X126436429Y-110106689D01*
X126413372Y-109990770D01*
X126398000Y-109913493D01*
X126398000Y-109716507D01*
X126413372Y-109639230D01*
X126436429Y-109523311D01*
X126511811Y-109341322D01*
X126621249Y-109177537D01*
X126760537Y-109038249D01*
X126924322Y-108928811D01*
X127106311Y-108853429D01*
X127222230Y-108830372D01*
X127299507Y-108815000D01*
X127496493Y-108815000D01*
X127573770Y-108830372D01*
X127573770Y-108830372D01*
G37*
G36*
X127573770Y-105330372D02*
X127689689Y-105353429D01*
X127871678Y-105428811D01*
X128035463Y-105538249D01*
X128174751Y-105677537D01*
X128284189Y-105841322D01*
X128359571Y-106023311D01*
X128398000Y-106216509D01*
X128398000Y-106413491D01*
X128359571Y-106606689D01*
X128284189Y-106788678D01*
X128174751Y-106952463D01*
X128035463Y-107091751D01*
X127871678Y-107201189D01*
X127689689Y-107276571D01*
X127573770Y-107299628D01*
X127496493Y-107315000D01*
X127299507Y-107315000D01*
X127222230Y-107299628D01*
X127106311Y-107276571D01*
X126924322Y-107201189D01*
X126760537Y-107091751D01*
X126621249Y-106952463D01*
X126511811Y-106788678D01*
X126436429Y-106606689D01*
X126398000Y-106413491D01*
X126398000Y-106216509D01*
X126436429Y-106023311D01*
X126511811Y-105841322D01*
X126621249Y-105677537D01*
X126760537Y-105538249D01*
X126924322Y-105428811D01*
X127106311Y-105353429D01*
X127222230Y-105330372D01*
X127299507Y-105315000D01*
X127496493Y-105315000D01*
X127573770Y-105330372D01*
X127573770Y-105330372D01*
G37*
G36*
X127573770Y-101830372D02*
X127689689Y-101853429D01*
X127871678Y-101928811D01*
X128035463Y-102038249D01*
X128174751Y-102177537D01*
X128284189Y-102341322D01*
X128359571Y-102523311D01*
X128398000Y-102716509D01*
X128398000Y-102913491D01*
X128359571Y-103106689D01*
X128284189Y-103288678D01*
X128174751Y-103452463D01*
X128035463Y-103591751D01*
X127871678Y-103701189D01*
X127689689Y-103776571D01*
X127573770Y-103799628D01*
X127496493Y-103815000D01*
X127299507Y-103815000D01*
X127222230Y-103799628D01*
X127106311Y-103776571D01*
X126924322Y-103701189D01*
X126760537Y-103591751D01*
X126621249Y-103452463D01*
X126511811Y-103288678D01*
X126436429Y-103106689D01*
X126398000Y-102913491D01*
X126398000Y-102716509D01*
X126436429Y-102523311D01*
X126511811Y-102341322D01*
X126621249Y-102177537D01*
X126760537Y-102038249D01*
X126924322Y-101928811D01*
X127106311Y-101853429D01*
X127222230Y-101830372D01*
X127299507Y-101815000D01*
X127496493Y-101815000D01*
X127573770Y-101830372D01*
X127573770Y-101830372D01*
G37*
G36*
X161961040Y-100692400D02*
X160183040Y-100692400D01*
X160183040Y-98914400D01*
X161961040Y-98914400D01*
X161961040Y-100692400D01*
X161961040Y-100692400D01*
G37*
G36*
X127552195Y-98326080D02*
X127689689Y-98353429D01*
X127871678Y-98428811D01*
X128035463Y-98538249D01*
X128174751Y-98677537D01*
X128284189Y-98841322D01*
X128359571Y-99023311D01*
X128398000Y-99216509D01*
X128398000Y-99413491D01*
X128359571Y-99606689D01*
X128284189Y-99788678D01*
X128174751Y-99952463D01*
X128035463Y-100091751D01*
X127871678Y-100201189D01*
X127689689Y-100276571D01*
X127573770Y-100299628D01*
X127496493Y-100315000D01*
X127299507Y-100315000D01*
X127222230Y-100299628D01*
X127106311Y-100276571D01*
X126924322Y-100201189D01*
X126760537Y-100091751D01*
X126621249Y-99952463D01*
X126511811Y-99788678D01*
X126436429Y-99606689D01*
X126398000Y-99413491D01*
X126398000Y-99216509D01*
X126436429Y-99023311D01*
X126511811Y-98841322D01*
X126621249Y-98677537D01*
X126760537Y-98538249D01*
X126924322Y-98428811D01*
X127106311Y-98353429D01*
X127243805Y-98326080D01*
X127299507Y-98315000D01*
X127496493Y-98315000D01*
X127552195Y-98326080D01*
X127552195Y-98326080D01*
G37*
G36*
X142084630Y-97567299D02*
X142244855Y-97615903D01*
X142392520Y-97694831D01*
X142521949Y-97801051D01*
X142628169Y-97930480D01*
X142707097Y-98078145D01*
X142755701Y-98238370D01*
X142772112Y-98405000D01*
X142755701Y-98571630D01*
X142707097Y-98731855D01*
X142628169Y-98879520D01*
X142521949Y-99008949D01*
X142392520Y-99115169D01*
X142244855Y-99194097D01*
X142084630Y-99242701D01*
X141959752Y-99255000D01*
X141876248Y-99255000D01*
X141751370Y-99242701D01*
X141591145Y-99194097D01*
X141443480Y-99115169D01*
X141314051Y-99008949D01*
X141207831Y-98879520D01*
X141128903Y-98731855D01*
X141080299Y-98571630D01*
X141063888Y-98405000D01*
X141080299Y-98238370D01*
X141128903Y-98078145D01*
X141207831Y-97930480D01*
X141314051Y-97801051D01*
X141443480Y-97694831D01*
X141591145Y-97615903D01*
X141751370Y-97567299D01*
X141876248Y-97555000D01*
X141959752Y-97555000D01*
X142084630Y-97567299D01*
X142084630Y-97567299D01*
G37*
G36*
X147164630Y-97567299D02*
X147324855Y-97615903D01*
X147472520Y-97694831D01*
X147601949Y-97801051D01*
X147708169Y-97930480D01*
X147787097Y-98078145D01*
X147835701Y-98238370D01*
X147852112Y-98405000D01*
X147835701Y-98571630D01*
X147787097Y-98731855D01*
X147708169Y-98879520D01*
X147601949Y-99008949D01*
X147472520Y-99115169D01*
X147324855Y-99194097D01*
X147164630Y-99242701D01*
X147039752Y-99255000D01*
X146956248Y-99255000D01*
X146831370Y-99242701D01*
X146671145Y-99194097D01*
X146523480Y-99115169D01*
X146394051Y-99008949D01*
X146287831Y-98879520D01*
X146208903Y-98731855D01*
X146160299Y-98571630D01*
X146143888Y-98405000D01*
X146160299Y-98238370D01*
X146208903Y-98078145D01*
X146287831Y-97930480D01*
X146394051Y-97801051D01*
X146523480Y-97694831D01*
X146671145Y-97615903D01*
X146831370Y-97567299D01*
X146956248Y-97555000D01*
X147039752Y-97555000D01*
X147164630Y-97567299D01*
X147164630Y-97567299D01*
G37*
G36*
X144624630Y-97567299D02*
X144784855Y-97615903D01*
X144932520Y-97694831D01*
X145061949Y-97801051D01*
X145168169Y-97930480D01*
X145247097Y-98078145D01*
X145295701Y-98238370D01*
X145312112Y-98405000D01*
X145295701Y-98571630D01*
X145247097Y-98731855D01*
X145168169Y-98879520D01*
X145061949Y-99008949D01*
X144932520Y-99115169D01*
X144784855Y-99194097D01*
X144624630Y-99242701D01*
X144499752Y-99255000D01*
X144416248Y-99255000D01*
X144291370Y-99242701D01*
X144131145Y-99194097D01*
X143983480Y-99115169D01*
X143854051Y-99008949D01*
X143747831Y-98879520D01*
X143668903Y-98731855D01*
X143620299Y-98571630D01*
X143603888Y-98405000D01*
X143620299Y-98238370D01*
X143668903Y-98078145D01*
X143747831Y-97930480D01*
X143854051Y-97801051D01*
X143983480Y-97694831D01*
X144131145Y-97615903D01*
X144291370Y-97567299D01*
X144416248Y-97555000D01*
X144499752Y-97555000D01*
X144624630Y-97567299D01*
X144624630Y-97567299D01*
G37*
G36*
X155988938Y-96403919D02*
X156170837Y-96479264D01*
X156334541Y-96588648D01*
X156473752Y-96727859D01*
X156583136Y-96891563D01*
X156658481Y-97073462D01*
X156696890Y-97266557D01*
X156696890Y-97463443D01*
X156658481Y-97656538D01*
X156583136Y-97838437D01*
X156473752Y-98002141D01*
X156334541Y-98141352D01*
X156170837Y-98250736D01*
X155988938Y-98326081D01*
X155795843Y-98364490D01*
X155598957Y-98364490D01*
X155405862Y-98326081D01*
X155223963Y-98250736D01*
X155060259Y-98141352D01*
X154921048Y-98002141D01*
X154811664Y-97838437D01*
X154736319Y-97656538D01*
X154697910Y-97463443D01*
X154697910Y-97266557D01*
X154736319Y-97073462D01*
X154811664Y-96891563D01*
X154921048Y-96727859D01*
X155060259Y-96588648D01*
X155223963Y-96479264D01*
X155405862Y-96403919D01*
X155598957Y-96365510D01*
X155795843Y-96365510D01*
X155988938Y-96403919D01*
X155988938Y-96403919D01*
G37*
G36*
X161331352Y-96408564D02*
X161493138Y-96475578D01*
X161638747Y-96572871D01*
X161762569Y-96696693D01*
X161859862Y-96842302D01*
X161926876Y-97004088D01*
X161961040Y-97175841D01*
X161961040Y-97350959D01*
X161926876Y-97522712D01*
X161859862Y-97684498D01*
X161762569Y-97830107D01*
X161638747Y-97953929D01*
X161493138Y-98051222D01*
X161331352Y-98118236D01*
X161159599Y-98152400D01*
X160984481Y-98152400D01*
X160812728Y-98118236D01*
X160650942Y-98051222D01*
X160505333Y-97953929D01*
X160381511Y-97830107D01*
X160284218Y-97684498D01*
X160217204Y-97522712D01*
X160183040Y-97350959D01*
X160183040Y-97175841D01*
X160217204Y-97004088D01*
X160284218Y-96842302D01*
X160381511Y-96696693D01*
X160505333Y-96572871D01*
X160650942Y-96475578D01*
X160812728Y-96408564D01*
X160984481Y-96374400D01*
X161159599Y-96374400D01*
X161331352Y-96408564D01*
X161331352Y-96408564D01*
G37*
G36*
X142084630Y-95027299D02*
X142244855Y-95075903D01*
X142392520Y-95154831D01*
X142521949Y-95261051D01*
X142628169Y-95390480D01*
X142707097Y-95538145D01*
X142755701Y-95698370D01*
X142772112Y-95865000D01*
X142755701Y-96031630D01*
X142707097Y-96191855D01*
X142628169Y-96339520D01*
X142521949Y-96468949D01*
X142392520Y-96575169D01*
X142244855Y-96654097D01*
X142084630Y-96702701D01*
X141959752Y-96715000D01*
X141876248Y-96715000D01*
X141751370Y-96702701D01*
X141591145Y-96654097D01*
X141443480Y-96575169D01*
X141314051Y-96468949D01*
X141207831Y-96339520D01*
X141128903Y-96191855D01*
X141080299Y-96031630D01*
X141063888Y-95865000D01*
X141080299Y-95698370D01*
X141128903Y-95538145D01*
X141207831Y-95390480D01*
X141314051Y-95261051D01*
X141443480Y-95154831D01*
X141591145Y-95075903D01*
X141751370Y-95027299D01*
X141876248Y-95015000D01*
X141959752Y-95015000D01*
X142084630Y-95027299D01*
X142084630Y-95027299D01*
G37*
G36*
X144624630Y-95027299D02*
X144784855Y-95075903D01*
X144932520Y-95154831D01*
X145061949Y-95261051D01*
X145168169Y-95390480D01*
X145247097Y-95538145D01*
X145295701Y-95698370D01*
X145312112Y-95865000D01*
X145295701Y-96031630D01*
X145247097Y-96191855D01*
X145168169Y-96339520D01*
X145061949Y-96468949D01*
X144932520Y-96575169D01*
X144784855Y-96654097D01*
X144624630Y-96702701D01*
X144499752Y-96715000D01*
X144416248Y-96715000D01*
X144291370Y-96702701D01*
X144131145Y-96654097D01*
X143983480Y-96575169D01*
X143854051Y-96468949D01*
X143747831Y-96339520D01*
X143668903Y-96191855D01*
X143620299Y-96031630D01*
X143603888Y-95865000D01*
X143620299Y-95698370D01*
X143668903Y-95538145D01*
X143747831Y-95390480D01*
X143854051Y-95261051D01*
X143983480Y-95154831D01*
X144131145Y-95075903D01*
X144291370Y-95027299D01*
X144416248Y-95015000D01*
X144499752Y-95015000D01*
X144624630Y-95027299D01*
X144624630Y-95027299D01*
G37*
G36*
X147848000Y-96715000D02*
X146148000Y-96715000D01*
X146148000Y-95015000D01*
X147848000Y-95015000D01*
X147848000Y-96715000D01*
X147848000Y-96715000D01*
G37*
G36*
X161331352Y-93868564D02*
X161493138Y-93935578D01*
X161638747Y-94032871D01*
X161762569Y-94156693D01*
X161859862Y-94302302D01*
X161926876Y-94464088D01*
X161961040Y-94635841D01*
X161961040Y-94810959D01*
X161926876Y-94982712D01*
X161859862Y-95144498D01*
X161762569Y-95290107D01*
X161638747Y-95413929D01*
X161493138Y-95511222D01*
X161331352Y-95578236D01*
X161159599Y-95612400D01*
X160984481Y-95612400D01*
X160812728Y-95578236D01*
X160650942Y-95511222D01*
X160505333Y-95413929D01*
X160381511Y-95290107D01*
X160284218Y-95144498D01*
X160217204Y-94982712D01*
X160183040Y-94810959D01*
X160183040Y-94635841D01*
X160217204Y-94464088D01*
X160284218Y-94302302D01*
X160381511Y-94156693D01*
X160505333Y-94032871D01*
X160650942Y-93935578D01*
X160812728Y-93868564D01*
X160984481Y-93834400D01*
X161159599Y-93834400D01*
X161331352Y-93868564D01*
X161331352Y-93868564D01*
G37*
G36*
X130623443Y-83229194D02*
X130832728Y-83315883D01*
X131021085Y-83441739D01*
X131181261Y-83601915D01*
X131307117Y-83790272D01*
X131393806Y-83999557D01*
X131438000Y-84221734D01*
X131438000Y-84448266D01*
X131393806Y-84670443D01*
X131307117Y-84879728D01*
X131181261Y-85068085D01*
X131021085Y-85228261D01*
X130832728Y-85354117D01*
X130623443Y-85440806D01*
X130401266Y-85485000D01*
X130174734Y-85485000D01*
X129952557Y-85440806D01*
X129743272Y-85354117D01*
X129554915Y-85228261D01*
X129394739Y-85068085D01*
X129268883Y-84879728D01*
X129182194Y-84670443D01*
X129138000Y-84448266D01*
X129138000Y-84221734D01*
X129182194Y-83999557D01*
X129268883Y-83790272D01*
X129394739Y-83601915D01*
X129554915Y-83441739D01*
X129743272Y-83315883D01*
X129952557Y-83229194D01*
X130174734Y-83185000D01*
X130401266Y-83185000D01*
X130623443Y-83229194D01*
X130623443Y-83229194D01*
G37*
G36*
X125543443Y-83229194D02*
X125752728Y-83315883D01*
X125941085Y-83441739D01*
X126101261Y-83601915D01*
X126227117Y-83790272D01*
X126313806Y-83999557D01*
X126358000Y-84221734D01*
X126358000Y-84448266D01*
X126313806Y-84670443D01*
X126227117Y-84879728D01*
X126101261Y-85068085D01*
X125941085Y-85228261D01*
X125752728Y-85354117D01*
X125543443Y-85440806D01*
X125321266Y-85485000D01*
X125094734Y-85485000D01*
X124872557Y-85440806D01*
X124663272Y-85354117D01*
X124474915Y-85228261D01*
X124314739Y-85068085D01*
X124188883Y-84879728D01*
X124102194Y-84670443D01*
X124058000Y-84448266D01*
X124058000Y-84221734D01*
X124102194Y-83999557D01*
X124188883Y-83790272D01*
X124314739Y-83601915D01*
X124474915Y-83441739D01*
X124663272Y-83315883D01*
X124872557Y-83229194D01*
X125094734Y-83185000D01*
X125321266Y-83185000D01*
X125543443Y-83229194D01*
X125543443Y-83229194D01*
G37*
G36*
X140623770Y-83350372D02*
X140739689Y-83373429D01*
X140921678Y-83448811D01*
X141085463Y-83558249D01*
X141224751Y-83697537D01*
X141334189Y-83861322D01*
X141409571Y-84043311D01*
X141432628Y-84159230D01*
X141448000Y-84236507D01*
X141448000Y-84433493D01*
X141445061Y-84448266D01*
X141409571Y-84626689D01*
X141334189Y-84808678D01*
X141224751Y-84972463D01*
X141085463Y-85111751D01*
X140921678Y-85221189D01*
X140739689Y-85296571D01*
X140623770Y-85319628D01*
X140546493Y-85335000D01*
X140349507Y-85335000D01*
X140272230Y-85319628D01*
X140156311Y-85296571D01*
X139974322Y-85221189D01*
X139810537Y-85111751D01*
X139671249Y-84972463D01*
X139561811Y-84808678D01*
X139486429Y-84626689D01*
X139450939Y-84448266D01*
X139448000Y-84433493D01*
X139448000Y-84236507D01*
X139463372Y-84159230D01*
X139486429Y-84043311D01*
X139561811Y-83861322D01*
X139671249Y-83697537D01*
X139810537Y-83558249D01*
X139974322Y-83448811D01*
X140156311Y-83373429D01*
X140272230Y-83350372D01*
X140349507Y-83335000D01*
X140546493Y-83335000D01*
X140623770Y-83350372D01*
X140623770Y-83350372D01*
G37*
G36*
X143163770Y-83350372D02*
X143279689Y-83373429D01*
X143461678Y-83448811D01*
X143625463Y-83558249D01*
X143764751Y-83697537D01*
X143874189Y-83861322D01*
X143949571Y-84043311D01*
X143972628Y-84159230D01*
X143988000Y-84236507D01*
X143988000Y-84433493D01*
X143985061Y-84448266D01*
X143949571Y-84626689D01*
X143874189Y-84808678D01*
X143764751Y-84972463D01*
X143625463Y-85111751D01*
X143461678Y-85221189D01*
X143279689Y-85296571D01*
X143163770Y-85319628D01*
X143086493Y-85335000D01*
X142889507Y-85335000D01*
X142812230Y-85319628D01*
X142696311Y-85296571D01*
X142514322Y-85221189D01*
X142350537Y-85111751D01*
X142211249Y-84972463D01*
X142101811Y-84808678D01*
X142026429Y-84626689D01*
X141990939Y-84448266D01*
X141988000Y-84433493D01*
X141988000Y-84236507D01*
X142003372Y-84159230D01*
X142026429Y-84043311D01*
X142101811Y-83861322D01*
X142211249Y-83697537D01*
X142350537Y-83558249D01*
X142514322Y-83448811D01*
X142696311Y-83373429D01*
X142812230Y-83350372D01*
X142889507Y-83335000D01*
X143086493Y-83335000D01*
X143163770Y-83350372D01*
X143163770Y-83350372D01*
G37*
G36*
X126830712Y-73611088D02*
X127200510Y-73764263D01*
X127200513Y-73764265D01*
X127533325Y-73986643D01*
X127816357Y-74269675D01*
X128000204Y-74544822D01*
X128038737Y-74602490D01*
X128191912Y-74972288D01*
X128270000Y-75364864D01*
X128270000Y-75765136D01*
X128191912Y-76157712D01*
X128038737Y-76527510D01*
X128038735Y-76527513D01*
X127816357Y-76860325D01*
X127533325Y-77143357D01*
X127200513Y-77365735D01*
X127200510Y-77365737D01*
X126830712Y-77518912D01*
X126438136Y-77597000D01*
X126037864Y-77597000D01*
X125645288Y-77518912D01*
X125275490Y-77365737D01*
X125275487Y-77365735D01*
X124942675Y-77143357D01*
X124659643Y-76860325D01*
X124437265Y-76527513D01*
X124437263Y-76527510D01*
X124284088Y-76157712D01*
X124206000Y-75765136D01*
X124206000Y-75364864D01*
X124284088Y-74972288D01*
X124437263Y-74602490D01*
X124475796Y-74544822D01*
X124659643Y-74269675D01*
X124942675Y-73986643D01*
X125275487Y-73764265D01*
X125275490Y-73764263D01*
X125645288Y-73611088D01*
X126037864Y-73533000D01*
X126438136Y-73533000D01*
X126830712Y-73611088D01*
X126830712Y-73611088D01*
G37*
G36*
X142663294Y-74561496D02*
X142783726Y-74598029D01*
X142826087Y-74610879D01*
X142976112Y-74691068D01*
X143107612Y-74798988D01*
X143215532Y-74930488D01*
X143295721Y-75080512D01*
X143308571Y-75122873D01*
X143345104Y-75243305D01*
X143345104Y-75243307D01*
X143357600Y-75370179D01*
X143357600Y-75759820D01*
X143357076Y-75765136D01*
X143345104Y-75886694D01*
X143308571Y-76007128D01*
X143295721Y-76049488D01*
X143215532Y-76199512D01*
X143107612Y-76331012D01*
X142976112Y-76438932D01*
X142826088Y-76519121D01*
X142798433Y-76527510D01*
X142663295Y-76568504D01*
X142550432Y-76579620D01*
X142494001Y-76585178D01*
X142494000Y-76585178D01*
X142324706Y-76568504D01*
X142189568Y-76527510D01*
X142161913Y-76519121D01*
X142011889Y-76438932D01*
X141921946Y-76365117D01*
X141880388Y-76331012D01*
X141772469Y-76199512D01*
X141750127Y-76157713D01*
X141692279Y-76049488D01*
X141679429Y-76007127D01*
X141642896Y-75886695D01*
X141634565Y-75802112D01*
X141630400Y-75759821D01*
X141630400Y-75370180D01*
X141642896Y-75243308D01*
X141642896Y-75243306D01*
X141692278Y-75080517D01*
X141692279Y-75080513D01*
X141772468Y-74930488D01*
X141880388Y-74798988D01*
X142011888Y-74691068D01*
X142161912Y-74610879D01*
X142204273Y-74598029D01*
X142324705Y-74561496D01*
X142437568Y-74550380D01*
X142493999Y-74544822D01*
X142494000Y-74544822D01*
X142663294Y-74561496D01*
X142663294Y-74561496D01*
G37*
G36*
X140123294Y-74561496D02*
X140243726Y-74598029D01*
X140286087Y-74610879D01*
X140436112Y-74691068D01*
X140567612Y-74798988D01*
X140675532Y-74930488D01*
X140755721Y-75080512D01*
X140768571Y-75122873D01*
X140805104Y-75243305D01*
X140805104Y-75243307D01*
X140817600Y-75370179D01*
X140817600Y-75759820D01*
X140817076Y-75765136D01*
X140805104Y-75886694D01*
X140768571Y-76007128D01*
X140755721Y-76049488D01*
X140675532Y-76199512D01*
X140567612Y-76331012D01*
X140436112Y-76438932D01*
X140286088Y-76519121D01*
X140258433Y-76527510D01*
X140123295Y-76568504D01*
X140010432Y-76579620D01*
X139954001Y-76585178D01*
X139954000Y-76585178D01*
X139784706Y-76568504D01*
X139649568Y-76527510D01*
X139621913Y-76519121D01*
X139471889Y-76438932D01*
X139381946Y-76365117D01*
X139340388Y-76331012D01*
X139232469Y-76199512D01*
X139210127Y-76157713D01*
X139152279Y-76049488D01*
X139139429Y-76007127D01*
X139102896Y-75886695D01*
X139094565Y-75802112D01*
X139090400Y-75759821D01*
X139090400Y-75370180D01*
X139102896Y-75243308D01*
X139102896Y-75243306D01*
X139152278Y-75080517D01*
X139152279Y-75080513D01*
X139232468Y-74930488D01*
X139340388Y-74798988D01*
X139471888Y-74691068D01*
X139621912Y-74610879D01*
X139664273Y-74598029D01*
X139784705Y-74561496D01*
X139897568Y-74550380D01*
X139953999Y-74544822D01*
X139954000Y-74544822D01*
X140123294Y-74561496D01*
X140123294Y-74561496D01*
G37*
G36*
X137583294Y-74561496D02*
X137703726Y-74598029D01*
X137746087Y-74610879D01*
X137896112Y-74691068D01*
X138027612Y-74798988D01*
X138135532Y-74930488D01*
X138215721Y-75080512D01*
X138228571Y-75122873D01*
X138265104Y-75243305D01*
X138265104Y-75243307D01*
X138277600Y-75370179D01*
X138277600Y-75759820D01*
X138277076Y-75765136D01*
X138265104Y-75886694D01*
X138228571Y-76007128D01*
X138215721Y-76049488D01*
X138135532Y-76199512D01*
X138027612Y-76331012D01*
X137896112Y-76438932D01*
X137746088Y-76519121D01*
X137718433Y-76527510D01*
X137583295Y-76568504D01*
X137470432Y-76579620D01*
X137414001Y-76585178D01*
X137414000Y-76585178D01*
X137244706Y-76568504D01*
X137109568Y-76527510D01*
X137081913Y-76519121D01*
X136931889Y-76438932D01*
X136841946Y-76365117D01*
X136800388Y-76331012D01*
X136692469Y-76199512D01*
X136670127Y-76157713D01*
X136612279Y-76049488D01*
X136599429Y-76007127D01*
X136562896Y-75886695D01*
X136554565Y-75802112D01*
X136550400Y-75759821D01*
X136550400Y-75370180D01*
X136562896Y-75243308D01*
X136562896Y-75243306D01*
X136612278Y-75080517D01*
X136612279Y-75080513D01*
X136692468Y-74930488D01*
X136800388Y-74798988D01*
X136931888Y-74691068D01*
X137081912Y-74610879D01*
X137124273Y-74598029D01*
X137244705Y-74561496D01*
X137357568Y-74550380D01*
X137413999Y-74544822D01*
X137414000Y-74544822D01*
X137583294Y-74561496D01*
X137583294Y-74561496D01*
G37*
G36*
X135043294Y-74561496D02*
X135163726Y-74598029D01*
X135206087Y-74610879D01*
X135356112Y-74691068D01*
X135487612Y-74798988D01*
X135595532Y-74930488D01*
X135675721Y-75080512D01*
X135688571Y-75122873D01*
X135725104Y-75243305D01*
X135725104Y-75243307D01*
X135737600Y-75370179D01*
X135737600Y-75759820D01*
X135737076Y-75765136D01*
X135725104Y-75886694D01*
X135688571Y-76007128D01*
X135675721Y-76049488D01*
X135595532Y-76199512D01*
X135487612Y-76331012D01*
X135356112Y-76438932D01*
X135206088Y-76519121D01*
X135178433Y-76527510D01*
X135043295Y-76568504D01*
X134930432Y-76579620D01*
X134874001Y-76585178D01*
X134874000Y-76585178D01*
X134704706Y-76568504D01*
X134569568Y-76527510D01*
X134541913Y-76519121D01*
X134391889Y-76438932D01*
X134301946Y-76365117D01*
X134260388Y-76331012D01*
X134152469Y-76199512D01*
X134130127Y-76157713D01*
X134072279Y-76049488D01*
X134059429Y-76007127D01*
X134022896Y-75886695D01*
X134014565Y-75802112D01*
X134010400Y-75759821D01*
X134010400Y-75370180D01*
X134022896Y-75243308D01*
X134022896Y-75243306D01*
X134072278Y-75080517D01*
X134072279Y-75080513D01*
X134152468Y-74930488D01*
X134260388Y-74798988D01*
X134391888Y-74691068D01*
X134541912Y-74610879D01*
X134584273Y-74598029D01*
X134704705Y-74561496D01*
X134817568Y-74550380D01*
X134873999Y-74544822D01*
X134874000Y-74544822D01*
X135043294Y-74561496D01*
X135043294Y-74561496D01*
G37*
G36*
X132503294Y-74561496D02*
X132623726Y-74598029D01*
X132666087Y-74610879D01*
X132816112Y-74691068D01*
X132947612Y-74798988D01*
X133055532Y-74930488D01*
X133135721Y-75080512D01*
X133148571Y-75122873D01*
X133185104Y-75243305D01*
X133185104Y-75243307D01*
X133197600Y-75370179D01*
X133197600Y-75759820D01*
X133197076Y-75765136D01*
X133185104Y-75886694D01*
X133148571Y-76007128D01*
X133135721Y-76049488D01*
X133055532Y-76199512D01*
X132947612Y-76331012D01*
X132816112Y-76438932D01*
X132666088Y-76519121D01*
X132638433Y-76527510D01*
X132503295Y-76568504D01*
X132390432Y-76579620D01*
X132334001Y-76585178D01*
X132334000Y-76585178D01*
X132164706Y-76568504D01*
X132029568Y-76527510D01*
X132001913Y-76519121D01*
X131851889Y-76438932D01*
X131761946Y-76365117D01*
X131720388Y-76331012D01*
X131612469Y-76199512D01*
X131590127Y-76157713D01*
X131532279Y-76049488D01*
X131519429Y-76007127D01*
X131482896Y-75886695D01*
X131474565Y-75802112D01*
X131470400Y-75759821D01*
X131470400Y-75370180D01*
X131482896Y-75243308D01*
X131482896Y-75243306D01*
X131532278Y-75080517D01*
X131532279Y-75080513D01*
X131612468Y-74930488D01*
X131720388Y-74798988D01*
X131851888Y-74691068D01*
X132001912Y-74610879D01*
X132044273Y-74598029D01*
X132164705Y-74561496D01*
X132277568Y-74550380D01*
X132333999Y-74544822D01*
X132334000Y-74544822D01*
X132503294Y-74561496D01*
X132503294Y-74561496D01*
G37*
G36*
X169587294Y-74561496D02*
X169707726Y-74598029D01*
X169750087Y-74610879D01*
X169900112Y-74691068D01*
X170031612Y-74798988D01*
X170139532Y-74930488D01*
X170219721Y-75080512D01*
X170232571Y-75122873D01*
X170269104Y-75243305D01*
X170269104Y-75243307D01*
X170281600Y-75370179D01*
X170281600Y-75759820D01*
X170281076Y-75765136D01*
X170269104Y-75886694D01*
X170232571Y-76007128D01*
X170219721Y-76049488D01*
X170139532Y-76199512D01*
X170031612Y-76331012D01*
X169900112Y-76438932D01*
X169750088Y-76519121D01*
X169722433Y-76527510D01*
X169587295Y-76568504D01*
X169474432Y-76579620D01*
X169418001Y-76585178D01*
X169418000Y-76585178D01*
X169248706Y-76568504D01*
X169113568Y-76527510D01*
X169085913Y-76519121D01*
X168935889Y-76438932D01*
X168845946Y-76365117D01*
X168804388Y-76331012D01*
X168696469Y-76199512D01*
X168674127Y-76157713D01*
X168616279Y-76049488D01*
X168603429Y-76007127D01*
X168566896Y-75886695D01*
X168558565Y-75802112D01*
X168554400Y-75759821D01*
X168554400Y-75370180D01*
X168566896Y-75243308D01*
X168566896Y-75243306D01*
X168616278Y-75080517D01*
X168616279Y-75080513D01*
X168696468Y-74930488D01*
X168804388Y-74798988D01*
X168935888Y-74691068D01*
X169085912Y-74610879D01*
X169128273Y-74598029D01*
X169248705Y-74561496D01*
X169361568Y-74550380D01*
X169417999Y-74544822D01*
X169418000Y-74544822D01*
X169587294Y-74561496D01*
X169587294Y-74561496D01*
G37*
G36*
X167047294Y-74561496D02*
X167167726Y-74598029D01*
X167210087Y-74610879D01*
X167360112Y-74691068D01*
X167491612Y-74798988D01*
X167599532Y-74930488D01*
X167679721Y-75080512D01*
X167692571Y-75122873D01*
X167729104Y-75243305D01*
X167729104Y-75243307D01*
X167741600Y-75370179D01*
X167741600Y-75759820D01*
X167741076Y-75765136D01*
X167729104Y-75886694D01*
X167692571Y-76007128D01*
X167679721Y-76049488D01*
X167599532Y-76199512D01*
X167491612Y-76331012D01*
X167360112Y-76438932D01*
X167210088Y-76519121D01*
X167182433Y-76527510D01*
X167047295Y-76568504D01*
X166934432Y-76579620D01*
X166878001Y-76585178D01*
X166878000Y-76585178D01*
X166708706Y-76568504D01*
X166573568Y-76527510D01*
X166545913Y-76519121D01*
X166395889Y-76438932D01*
X166305946Y-76365117D01*
X166264388Y-76331012D01*
X166156469Y-76199512D01*
X166134127Y-76157713D01*
X166076279Y-76049488D01*
X166063429Y-76007127D01*
X166026896Y-75886695D01*
X166018565Y-75802112D01*
X166014400Y-75759821D01*
X166014400Y-75370180D01*
X166026896Y-75243308D01*
X166026896Y-75243306D01*
X166076278Y-75080517D01*
X166076279Y-75080513D01*
X166156468Y-74930488D01*
X166264388Y-74798988D01*
X166395888Y-74691068D01*
X166545912Y-74610879D01*
X166588273Y-74598029D01*
X166708705Y-74561496D01*
X166821568Y-74550380D01*
X166877999Y-74544822D01*
X166878000Y-74544822D01*
X167047294Y-74561496D01*
X167047294Y-74561496D01*
G37*
G36*
X164507294Y-74561496D02*
X164627726Y-74598029D01*
X164670087Y-74610879D01*
X164820112Y-74691068D01*
X164951612Y-74798988D01*
X165059532Y-74930488D01*
X165139721Y-75080512D01*
X165152571Y-75122873D01*
X165189104Y-75243305D01*
X165189104Y-75243307D01*
X165201600Y-75370179D01*
X165201600Y-75759820D01*
X165201076Y-75765136D01*
X165189104Y-75886694D01*
X165152571Y-76007128D01*
X165139721Y-76049488D01*
X165059532Y-76199512D01*
X164951612Y-76331012D01*
X164820112Y-76438932D01*
X164670088Y-76519121D01*
X164642433Y-76527510D01*
X164507295Y-76568504D01*
X164394432Y-76579620D01*
X164338001Y-76585178D01*
X164338000Y-76585178D01*
X164168706Y-76568504D01*
X164033568Y-76527510D01*
X164005913Y-76519121D01*
X163855889Y-76438932D01*
X163765946Y-76365117D01*
X163724388Y-76331012D01*
X163616469Y-76199512D01*
X163594127Y-76157713D01*
X163536279Y-76049488D01*
X163523429Y-76007127D01*
X163486896Y-75886695D01*
X163478565Y-75802112D01*
X163474400Y-75759821D01*
X163474400Y-75370180D01*
X163486896Y-75243308D01*
X163486896Y-75243306D01*
X163536278Y-75080517D01*
X163536279Y-75080513D01*
X163616468Y-74930488D01*
X163724388Y-74798988D01*
X163855888Y-74691068D01*
X164005912Y-74610879D01*
X164048273Y-74598029D01*
X164168705Y-74561496D01*
X164281568Y-74550380D01*
X164337999Y-74544822D01*
X164338000Y-74544822D01*
X164507294Y-74561496D01*
X164507294Y-74561496D01*
G37*
G36*
X161967294Y-74561496D02*
X162087726Y-74598029D01*
X162130087Y-74610879D01*
X162280112Y-74691068D01*
X162411612Y-74798988D01*
X162519532Y-74930488D01*
X162599721Y-75080512D01*
X162612571Y-75122873D01*
X162649104Y-75243305D01*
X162649104Y-75243307D01*
X162661600Y-75370179D01*
X162661600Y-75759820D01*
X162661076Y-75765136D01*
X162649104Y-75886694D01*
X162612571Y-76007128D01*
X162599721Y-76049488D01*
X162519532Y-76199512D01*
X162411612Y-76331012D01*
X162280112Y-76438932D01*
X162130088Y-76519121D01*
X162102433Y-76527510D01*
X161967295Y-76568504D01*
X161854432Y-76579620D01*
X161798001Y-76585178D01*
X161798000Y-76585178D01*
X161628706Y-76568504D01*
X161493568Y-76527510D01*
X161465913Y-76519121D01*
X161315889Y-76438932D01*
X161225946Y-76365117D01*
X161184388Y-76331012D01*
X161076469Y-76199512D01*
X161054127Y-76157713D01*
X160996279Y-76049488D01*
X160983429Y-76007127D01*
X160946896Y-75886695D01*
X160938565Y-75802112D01*
X160934400Y-75759821D01*
X160934400Y-75370180D01*
X160946896Y-75243308D01*
X160946896Y-75243306D01*
X160996278Y-75080517D01*
X160996279Y-75080513D01*
X161076468Y-74930488D01*
X161184388Y-74798988D01*
X161315888Y-74691068D01*
X161465912Y-74610879D01*
X161508273Y-74598029D01*
X161628705Y-74561496D01*
X161741568Y-74550380D01*
X161797999Y-74544822D01*
X161798000Y-74544822D01*
X161967294Y-74561496D01*
X161967294Y-74561496D01*
G37*
G36*
X159427294Y-74561496D02*
X159547726Y-74598029D01*
X159590087Y-74610879D01*
X159740112Y-74691068D01*
X159871612Y-74798988D01*
X159979532Y-74930488D01*
X160059721Y-75080512D01*
X160072571Y-75122873D01*
X160109104Y-75243305D01*
X160109104Y-75243307D01*
X160121600Y-75370179D01*
X160121600Y-75759820D01*
X160121076Y-75765136D01*
X160109104Y-75886694D01*
X160072571Y-76007128D01*
X160059721Y-76049488D01*
X159979532Y-76199512D01*
X159871612Y-76331012D01*
X159740112Y-76438932D01*
X159590088Y-76519121D01*
X159562433Y-76527510D01*
X159427295Y-76568504D01*
X159314432Y-76579620D01*
X159258001Y-76585178D01*
X159258000Y-76585178D01*
X159088706Y-76568504D01*
X158953568Y-76527510D01*
X158925913Y-76519121D01*
X158775889Y-76438932D01*
X158685946Y-76365117D01*
X158644388Y-76331012D01*
X158536469Y-76199512D01*
X158514127Y-76157713D01*
X158456279Y-76049488D01*
X158443429Y-76007127D01*
X158406896Y-75886695D01*
X158398565Y-75802112D01*
X158394400Y-75759821D01*
X158394400Y-75370180D01*
X158406896Y-75243308D01*
X158406896Y-75243306D01*
X158456278Y-75080517D01*
X158456279Y-75080513D01*
X158536468Y-74930488D01*
X158644388Y-74798988D01*
X158775888Y-74691068D01*
X158925912Y-74610879D01*
X158968273Y-74598029D01*
X159088705Y-74561496D01*
X159201568Y-74550380D01*
X159257999Y-74544822D01*
X159258000Y-74544822D01*
X159427294Y-74561496D01*
X159427294Y-74561496D01*
G37*
G36*
X156887294Y-74561496D02*
X157007726Y-74598029D01*
X157050087Y-74610879D01*
X157200112Y-74691068D01*
X157331612Y-74798988D01*
X157439532Y-74930488D01*
X157519721Y-75080512D01*
X157532571Y-75122873D01*
X157569104Y-75243305D01*
X157569104Y-75243307D01*
X157581600Y-75370179D01*
X157581600Y-75759820D01*
X157581076Y-75765136D01*
X157569104Y-75886694D01*
X157532571Y-76007128D01*
X157519721Y-76049488D01*
X157439532Y-76199512D01*
X157331612Y-76331012D01*
X157200112Y-76438932D01*
X157050088Y-76519121D01*
X157022433Y-76527510D01*
X156887295Y-76568504D01*
X156774432Y-76579620D01*
X156718001Y-76585178D01*
X156718000Y-76585178D01*
X156548706Y-76568504D01*
X156413568Y-76527510D01*
X156385913Y-76519121D01*
X156235889Y-76438932D01*
X156145946Y-76365117D01*
X156104388Y-76331012D01*
X155996469Y-76199512D01*
X155974127Y-76157713D01*
X155916279Y-76049488D01*
X155903429Y-76007127D01*
X155866896Y-75886695D01*
X155858565Y-75802112D01*
X155854400Y-75759821D01*
X155854400Y-75370180D01*
X155866896Y-75243308D01*
X155866896Y-75243306D01*
X155916278Y-75080517D01*
X155916279Y-75080513D01*
X155996468Y-74930488D01*
X156104388Y-74798988D01*
X156235888Y-74691068D01*
X156385912Y-74610879D01*
X156428273Y-74598029D01*
X156548705Y-74561496D01*
X156661568Y-74550380D01*
X156717999Y-74544822D01*
X156718000Y-74544822D01*
X156887294Y-74561496D01*
X156887294Y-74561496D01*
G37*
G36*
X129963294Y-74561496D02*
X130083726Y-74598029D01*
X130126087Y-74610879D01*
X130276112Y-74691068D01*
X130407612Y-74798988D01*
X130515532Y-74930488D01*
X130595721Y-75080512D01*
X130608571Y-75122873D01*
X130645104Y-75243305D01*
X130645104Y-75243307D01*
X130657600Y-75370179D01*
X130657600Y-75759820D01*
X130657076Y-75765136D01*
X130645104Y-75886694D01*
X130608571Y-76007128D01*
X130595721Y-76049488D01*
X130515532Y-76199512D01*
X130407612Y-76331012D01*
X130276112Y-76438932D01*
X130126088Y-76519121D01*
X130098433Y-76527510D01*
X129963295Y-76568504D01*
X129850432Y-76579620D01*
X129794001Y-76585178D01*
X129794000Y-76585178D01*
X129624706Y-76568504D01*
X129489568Y-76527510D01*
X129461913Y-76519121D01*
X129311889Y-76438932D01*
X129221946Y-76365117D01*
X129180388Y-76331012D01*
X129072469Y-76199512D01*
X129050127Y-76157713D01*
X128992279Y-76049488D01*
X128979429Y-76007127D01*
X128942896Y-75886695D01*
X128934565Y-75802112D01*
X128930400Y-75759821D01*
X128930400Y-75370180D01*
X128942896Y-75243308D01*
X128942896Y-75243306D01*
X128992278Y-75080517D01*
X128992279Y-75080513D01*
X129072468Y-74930488D01*
X129180388Y-74798988D01*
X129311888Y-74691068D01*
X129461912Y-74610879D01*
X129504273Y-74598029D01*
X129624705Y-74561496D01*
X129737568Y-74550380D01*
X129793999Y-74544822D01*
X129794000Y-74544822D01*
X129963294Y-74561496D01*
X129963294Y-74561496D01*
G37*
G36*
X172127294Y-74561496D02*
X172247726Y-74598029D01*
X172290087Y-74610879D01*
X172440112Y-74691068D01*
X172571612Y-74798988D01*
X172679532Y-74930488D01*
X172759721Y-75080512D01*
X172772571Y-75122873D01*
X172809104Y-75243305D01*
X172809104Y-75243307D01*
X172821600Y-75370179D01*
X172821600Y-75759820D01*
X172821076Y-75765136D01*
X172809104Y-75886694D01*
X172772571Y-76007128D01*
X172759721Y-76049488D01*
X172679532Y-76199512D01*
X172571612Y-76331012D01*
X172440112Y-76438932D01*
X172290088Y-76519121D01*
X172262433Y-76527510D01*
X172127295Y-76568504D01*
X172014432Y-76579620D01*
X171958001Y-76585178D01*
X171958000Y-76585178D01*
X171788706Y-76568504D01*
X171653568Y-76527510D01*
X171625913Y-76519121D01*
X171475889Y-76438932D01*
X171385946Y-76365117D01*
X171344388Y-76331012D01*
X171236469Y-76199512D01*
X171214127Y-76157713D01*
X171156279Y-76049488D01*
X171143429Y-76007127D01*
X171106896Y-75886695D01*
X171098565Y-75802112D01*
X171094400Y-75759821D01*
X171094400Y-75370180D01*
X171106896Y-75243308D01*
X171106896Y-75243306D01*
X171156278Y-75080517D01*
X171156279Y-75080513D01*
X171236468Y-74930488D01*
X171344388Y-74798988D01*
X171475888Y-74691068D01*
X171625912Y-74610879D01*
X171668273Y-74598029D01*
X171788705Y-74561496D01*
X171901568Y-74550380D01*
X171957999Y-74544822D01*
X171958000Y-74544822D01*
X172127294Y-74561496D01*
X172127294Y-74561496D01*
G37*
G36*
X152823294Y-74561496D02*
X152943726Y-74598029D01*
X152986087Y-74610879D01*
X153136112Y-74691068D01*
X153267612Y-74798988D01*
X153375532Y-74930488D01*
X153455721Y-75080512D01*
X153468571Y-75122873D01*
X153505104Y-75243305D01*
X153505104Y-75243307D01*
X153517600Y-75370179D01*
X153517600Y-75759820D01*
X153517076Y-75765136D01*
X153505104Y-75886694D01*
X153468571Y-76007128D01*
X153455721Y-76049488D01*
X153375532Y-76199512D01*
X153267612Y-76331012D01*
X153136112Y-76438932D01*
X152986088Y-76519121D01*
X152958433Y-76527510D01*
X152823295Y-76568504D01*
X152710432Y-76579620D01*
X152654001Y-76585178D01*
X152654000Y-76585178D01*
X152484706Y-76568504D01*
X152349568Y-76527510D01*
X152321913Y-76519121D01*
X152171889Y-76438932D01*
X152081946Y-76365117D01*
X152040388Y-76331012D01*
X151932469Y-76199512D01*
X151910127Y-76157713D01*
X151852279Y-76049488D01*
X151839429Y-76007127D01*
X151802896Y-75886695D01*
X151794565Y-75802112D01*
X151790400Y-75759821D01*
X151790400Y-75370180D01*
X151802896Y-75243308D01*
X151802896Y-75243306D01*
X151852278Y-75080517D01*
X151852279Y-75080513D01*
X151932468Y-74930488D01*
X152040388Y-74798988D01*
X152171888Y-74691068D01*
X152321912Y-74610879D01*
X152364273Y-74598029D01*
X152484705Y-74561496D01*
X152597568Y-74550380D01*
X152653999Y-74544822D01*
X152654000Y-74544822D01*
X152823294Y-74561496D01*
X152823294Y-74561496D01*
G37*
G36*
X150283294Y-74561496D02*
X150403726Y-74598029D01*
X150446087Y-74610879D01*
X150596112Y-74691068D01*
X150727612Y-74798988D01*
X150835532Y-74930488D01*
X150915721Y-75080512D01*
X150928571Y-75122873D01*
X150965104Y-75243305D01*
X150965104Y-75243307D01*
X150977600Y-75370179D01*
X150977600Y-75759820D01*
X150977076Y-75765136D01*
X150965104Y-75886694D01*
X150928571Y-76007128D01*
X150915721Y-76049488D01*
X150835532Y-76199512D01*
X150727612Y-76331012D01*
X150596112Y-76438932D01*
X150446088Y-76519121D01*
X150418433Y-76527510D01*
X150283295Y-76568504D01*
X150170432Y-76579620D01*
X150114001Y-76585178D01*
X150114000Y-76585178D01*
X149944706Y-76568504D01*
X149809568Y-76527510D01*
X149781913Y-76519121D01*
X149631889Y-76438932D01*
X149541946Y-76365117D01*
X149500388Y-76331012D01*
X149392469Y-76199512D01*
X149370127Y-76157713D01*
X149312279Y-76049488D01*
X149299429Y-76007127D01*
X149262896Y-75886695D01*
X149254565Y-75802112D01*
X149250400Y-75759821D01*
X149250400Y-75370180D01*
X149262896Y-75243308D01*
X149262896Y-75243306D01*
X149312278Y-75080517D01*
X149312279Y-75080513D01*
X149392468Y-74930488D01*
X149500388Y-74798988D01*
X149631888Y-74691068D01*
X149781912Y-74610879D01*
X149824273Y-74598029D01*
X149944705Y-74561496D01*
X150057568Y-74550380D01*
X150113999Y-74544822D01*
X150114000Y-74544822D01*
X150283294Y-74561496D01*
X150283294Y-74561496D01*
G37*
G36*
X147743294Y-74561496D02*
X147863726Y-74598029D01*
X147906087Y-74610879D01*
X148056112Y-74691068D01*
X148187612Y-74798988D01*
X148295532Y-74930488D01*
X148375721Y-75080512D01*
X148388571Y-75122873D01*
X148425104Y-75243305D01*
X148425104Y-75243307D01*
X148437600Y-75370179D01*
X148437600Y-75759820D01*
X148437076Y-75765136D01*
X148425104Y-75886694D01*
X148388571Y-76007128D01*
X148375721Y-76049488D01*
X148295532Y-76199512D01*
X148187612Y-76331012D01*
X148056112Y-76438932D01*
X147906088Y-76519121D01*
X147878433Y-76527510D01*
X147743295Y-76568504D01*
X147630432Y-76579620D01*
X147574001Y-76585178D01*
X147574000Y-76585178D01*
X147404706Y-76568504D01*
X147269568Y-76527510D01*
X147241913Y-76519121D01*
X147091889Y-76438932D01*
X147001946Y-76365117D01*
X146960388Y-76331012D01*
X146852469Y-76199512D01*
X146830127Y-76157713D01*
X146772279Y-76049488D01*
X146759429Y-76007127D01*
X146722896Y-75886695D01*
X146714565Y-75802112D01*
X146710400Y-75759821D01*
X146710400Y-75370180D01*
X146722896Y-75243308D01*
X146722896Y-75243306D01*
X146772278Y-75080517D01*
X146772279Y-75080513D01*
X146852468Y-74930488D01*
X146960388Y-74798988D01*
X147091888Y-74691068D01*
X147241912Y-74610879D01*
X147284273Y-74598029D01*
X147404705Y-74561496D01*
X147517568Y-74550380D01*
X147573999Y-74544822D01*
X147574000Y-74544822D01*
X147743294Y-74561496D01*
X147743294Y-74561496D01*
G37*
G36*
X145203294Y-74561496D02*
X145323726Y-74598029D01*
X145366087Y-74610879D01*
X145516112Y-74691068D01*
X145647612Y-74798988D01*
X145755532Y-74930488D01*
X145835721Y-75080512D01*
X145848571Y-75122873D01*
X145885104Y-75243305D01*
X145885104Y-75243307D01*
X145897600Y-75370179D01*
X145897600Y-75759820D01*
X145897076Y-75765136D01*
X145885104Y-75886694D01*
X145848571Y-76007128D01*
X145835721Y-76049488D01*
X145755532Y-76199512D01*
X145647612Y-76331012D01*
X145516112Y-76438932D01*
X145366088Y-76519121D01*
X145338433Y-76527510D01*
X145203295Y-76568504D01*
X145090432Y-76579620D01*
X145034001Y-76585178D01*
X145034000Y-76585178D01*
X144864706Y-76568504D01*
X144729568Y-76527510D01*
X144701913Y-76519121D01*
X144551889Y-76438932D01*
X144461946Y-76365117D01*
X144420388Y-76331012D01*
X144312469Y-76199512D01*
X144290127Y-76157713D01*
X144232279Y-76049488D01*
X144219429Y-76007127D01*
X144182896Y-75886695D01*
X144174565Y-75802112D01*
X144170400Y-75759821D01*
X144170400Y-75370180D01*
X144182896Y-75243308D01*
X144182896Y-75243306D01*
X144232278Y-75080517D01*
X144232279Y-75080513D01*
X144312468Y-74930488D01*
X144420388Y-74798988D01*
X144551888Y-74691068D01*
X144701912Y-74610879D01*
X144744273Y-74598029D01*
X144864705Y-74561496D01*
X144977568Y-74550380D01*
X145033999Y-74544822D01*
X145034000Y-74544822D01*
X145203294Y-74561496D01*
X145203294Y-74561496D01*
G37*
G36*
X174667294Y-74561496D02*
X174787726Y-74598029D01*
X174830087Y-74610879D01*
X174980112Y-74691068D01*
X175111612Y-74798988D01*
X175219532Y-74930488D01*
X175299721Y-75080512D01*
X175312571Y-75122873D01*
X175349104Y-75243305D01*
X175349104Y-75243307D01*
X175361600Y-75370179D01*
X175361600Y-75759820D01*
X175361076Y-75765136D01*
X175349104Y-75886694D01*
X175312571Y-76007128D01*
X175299721Y-76049488D01*
X175219532Y-76199512D01*
X175111612Y-76331012D01*
X174980112Y-76438932D01*
X174830088Y-76519121D01*
X174802433Y-76527510D01*
X174667295Y-76568504D01*
X174554432Y-76579620D01*
X174498001Y-76585178D01*
X174498000Y-76585178D01*
X174328706Y-76568504D01*
X174193568Y-76527510D01*
X174165913Y-76519121D01*
X174015889Y-76438932D01*
X173925946Y-76365117D01*
X173884388Y-76331012D01*
X173776469Y-76199512D01*
X173754127Y-76157713D01*
X173696279Y-76049488D01*
X173683429Y-76007127D01*
X173646896Y-75886695D01*
X173638565Y-75802112D01*
X173634400Y-75759821D01*
X173634400Y-75370180D01*
X173646896Y-75243308D01*
X173646896Y-75243306D01*
X173696278Y-75080517D01*
X173696279Y-75080513D01*
X173776468Y-74930488D01*
X173884388Y-74798988D01*
X174015888Y-74691068D01*
X174165912Y-74610879D01*
X174208273Y-74598029D01*
X174328705Y-74561496D01*
X174441568Y-74550380D01*
X174497999Y-74544822D01*
X174498000Y-74544822D01*
X174667294Y-74561496D01*
X174667294Y-74561496D01*
G37*
M02*
