G04 #@! TF.GenerationSoftware,KiCad,Pcbnew,5.0.2+dfsg1-1*
G04 #@! TF.CreationDate,2019-08-13T09:37:24+09:00*
G04 #@! TF.ProjectId,portal_shield_for_arduino,706f7274-616c-45f7-9368-69656c645f66,rev?*
G04 #@! TF.SameCoordinates,Original*
G04 #@! TF.FileFunction,Soldermask,Bot*
G04 #@! TF.FilePolarity,Negative*
%FSLAX46Y46*%
G04 Gerber Fmt 4.6, Leading zero omitted, Abs format (unit mm)*
G04 Created by KiCad (PCBNEW 5.0.2+dfsg1-1) date Tue 13 Aug 2019 09:37:24 AM KST*
%MOMM*%
%LPD*%
G01*
G04 APERTURE LIST*
%ADD10C,0.100000*%
G04 APERTURE END LIST*
D10*
G36*
X125560712Y-121871088D02*
X125930510Y-122024263D01*
X125930513Y-122024265D01*
X126263325Y-122246643D01*
X126546357Y-122529675D01*
X126730204Y-122804822D01*
X126768737Y-122862490D01*
X126921912Y-123232288D01*
X127000000Y-123624864D01*
X127000000Y-124025136D01*
X126921912Y-124417712D01*
X126768737Y-124787510D01*
X126768735Y-124787513D01*
X126546357Y-125120325D01*
X126263325Y-125403357D01*
X125930513Y-125625735D01*
X125930510Y-125625737D01*
X125560712Y-125778912D01*
X125168136Y-125857000D01*
X124767864Y-125857000D01*
X124375288Y-125778912D01*
X124005490Y-125625737D01*
X124005487Y-125625735D01*
X123672675Y-125403357D01*
X123389643Y-125120325D01*
X123167265Y-124787513D01*
X123167263Y-124787510D01*
X123014088Y-124417712D01*
X122936000Y-124025136D01*
X122936000Y-123624864D01*
X123014088Y-123232288D01*
X123167263Y-122862490D01*
X123205796Y-122804822D01*
X123389643Y-122529675D01*
X123672675Y-122246643D01*
X124005487Y-122024265D01*
X124005490Y-122024263D01*
X124375288Y-121871088D01*
X124767864Y-121793000D01*
X125168136Y-121793000D01*
X125560712Y-121871088D01*
X125560712Y-121871088D01*
G37*
G36*
X174667294Y-122821496D02*
X174787726Y-122858029D01*
X174830087Y-122870879D01*
X174980112Y-122951068D01*
X175111612Y-123058988D01*
X175219532Y-123190488D01*
X175299721Y-123340512D01*
X175312571Y-123382873D01*
X175349104Y-123503305D01*
X175349104Y-123503307D01*
X175361600Y-123630179D01*
X175361600Y-124019820D01*
X175361076Y-124025136D01*
X175349104Y-124146694D01*
X175312571Y-124267128D01*
X175299721Y-124309488D01*
X175219532Y-124459512D01*
X175111612Y-124591012D01*
X174980112Y-124698932D01*
X174830088Y-124779121D01*
X174802433Y-124787510D01*
X174667295Y-124828504D01*
X174554432Y-124839620D01*
X174498001Y-124845178D01*
X174498000Y-124845178D01*
X174328706Y-124828504D01*
X174193568Y-124787510D01*
X174165913Y-124779121D01*
X174015889Y-124698932D01*
X173925946Y-124625117D01*
X173884388Y-124591012D01*
X173776469Y-124459512D01*
X173754127Y-124417713D01*
X173696279Y-124309488D01*
X173683429Y-124267127D01*
X173646896Y-124146695D01*
X173638565Y-124062112D01*
X173634400Y-124019821D01*
X173634400Y-123630180D01*
X173646896Y-123503308D01*
X173646896Y-123503306D01*
X173696278Y-123340517D01*
X173696279Y-123340513D01*
X173776468Y-123190488D01*
X173884388Y-123058988D01*
X174015888Y-122951068D01*
X174165912Y-122870879D01*
X174208273Y-122858029D01*
X174328705Y-122821496D01*
X174441568Y-122810380D01*
X174497999Y-122804822D01*
X174498000Y-122804822D01*
X174667294Y-122821496D01*
X174667294Y-122821496D01*
G37*
G36*
X139107294Y-122821496D02*
X139227726Y-122858029D01*
X139270087Y-122870879D01*
X139420112Y-122951068D01*
X139551612Y-123058988D01*
X139659532Y-123190488D01*
X139739721Y-123340512D01*
X139752571Y-123382873D01*
X139789104Y-123503305D01*
X139789104Y-123503307D01*
X139801600Y-123630179D01*
X139801600Y-124019820D01*
X139801076Y-124025136D01*
X139789104Y-124146694D01*
X139752571Y-124267128D01*
X139739721Y-124309488D01*
X139659532Y-124459512D01*
X139551612Y-124591012D01*
X139420112Y-124698932D01*
X139270088Y-124779121D01*
X139242433Y-124787510D01*
X139107295Y-124828504D01*
X138994432Y-124839620D01*
X138938001Y-124845178D01*
X138938000Y-124845178D01*
X138768706Y-124828504D01*
X138633568Y-124787510D01*
X138605913Y-124779121D01*
X138455889Y-124698932D01*
X138365946Y-124625117D01*
X138324388Y-124591012D01*
X138216469Y-124459512D01*
X138194127Y-124417713D01*
X138136279Y-124309488D01*
X138123429Y-124267127D01*
X138086896Y-124146695D01*
X138078565Y-124062112D01*
X138074400Y-124019821D01*
X138074400Y-123630180D01*
X138086896Y-123503308D01*
X138086896Y-123503306D01*
X138136278Y-123340517D01*
X138136279Y-123340513D01*
X138216468Y-123190488D01*
X138324388Y-123058988D01*
X138455888Y-122951068D01*
X138605912Y-122870879D01*
X138648273Y-122858029D01*
X138768705Y-122821496D01*
X138881568Y-122810380D01*
X138937999Y-122804822D01*
X138938000Y-122804822D01*
X139107294Y-122821496D01*
X139107294Y-122821496D01*
G37*
G36*
X141647294Y-122821496D02*
X141767726Y-122858029D01*
X141810087Y-122870879D01*
X141960112Y-122951068D01*
X142091612Y-123058988D01*
X142199532Y-123190488D01*
X142279721Y-123340512D01*
X142292571Y-123382873D01*
X142329104Y-123503305D01*
X142329104Y-123503307D01*
X142341600Y-123630179D01*
X142341600Y-124019820D01*
X142341076Y-124025136D01*
X142329104Y-124146694D01*
X142292571Y-124267128D01*
X142279721Y-124309488D01*
X142199532Y-124459512D01*
X142091612Y-124591012D01*
X141960112Y-124698932D01*
X141810088Y-124779121D01*
X141782433Y-124787510D01*
X141647295Y-124828504D01*
X141534432Y-124839620D01*
X141478001Y-124845178D01*
X141478000Y-124845178D01*
X141308706Y-124828504D01*
X141173568Y-124787510D01*
X141145913Y-124779121D01*
X140995889Y-124698932D01*
X140905946Y-124625117D01*
X140864388Y-124591012D01*
X140756469Y-124459512D01*
X140734127Y-124417713D01*
X140676279Y-124309488D01*
X140663429Y-124267127D01*
X140626896Y-124146695D01*
X140618565Y-124062112D01*
X140614400Y-124019821D01*
X140614400Y-123630180D01*
X140626896Y-123503308D01*
X140626896Y-123503306D01*
X140676278Y-123340517D01*
X140676279Y-123340513D01*
X140756468Y-123190488D01*
X140864388Y-123058988D01*
X140995888Y-122951068D01*
X141145912Y-122870879D01*
X141188273Y-122858029D01*
X141308705Y-122821496D01*
X141421568Y-122810380D01*
X141477999Y-122804822D01*
X141478000Y-122804822D01*
X141647294Y-122821496D01*
X141647294Y-122821496D01*
G37*
G36*
X144187294Y-122821496D02*
X144307726Y-122858029D01*
X144350087Y-122870879D01*
X144500112Y-122951068D01*
X144631612Y-123058988D01*
X144739532Y-123190488D01*
X144819721Y-123340512D01*
X144832571Y-123382873D01*
X144869104Y-123503305D01*
X144869104Y-123503307D01*
X144881600Y-123630179D01*
X144881600Y-124019820D01*
X144881076Y-124025136D01*
X144869104Y-124146694D01*
X144832571Y-124267128D01*
X144819721Y-124309488D01*
X144739532Y-124459512D01*
X144631612Y-124591012D01*
X144500112Y-124698932D01*
X144350088Y-124779121D01*
X144322433Y-124787510D01*
X144187295Y-124828504D01*
X144074432Y-124839620D01*
X144018001Y-124845178D01*
X144018000Y-124845178D01*
X143848706Y-124828504D01*
X143713568Y-124787510D01*
X143685913Y-124779121D01*
X143535889Y-124698932D01*
X143445946Y-124625117D01*
X143404388Y-124591012D01*
X143296469Y-124459512D01*
X143274127Y-124417713D01*
X143216279Y-124309488D01*
X143203429Y-124267127D01*
X143166896Y-124146695D01*
X143158565Y-124062112D01*
X143154400Y-124019821D01*
X143154400Y-123630180D01*
X143166896Y-123503308D01*
X143166896Y-123503306D01*
X143216278Y-123340517D01*
X143216279Y-123340513D01*
X143296468Y-123190488D01*
X143404388Y-123058988D01*
X143535888Y-122951068D01*
X143685912Y-122870879D01*
X143728273Y-122858029D01*
X143848705Y-122821496D01*
X143961568Y-122810380D01*
X144017999Y-122804822D01*
X144018000Y-122804822D01*
X144187294Y-122821496D01*
X144187294Y-122821496D01*
G37*
G36*
X146727294Y-122821496D02*
X146847726Y-122858029D01*
X146890087Y-122870879D01*
X147040112Y-122951068D01*
X147171612Y-123058988D01*
X147279532Y-123190488D01*
X147359721Y-123340512D01*
X147372571Y-123382873D01*
X147409104Y-123503305D01*
X147409104Y-123503307D01*
X147421600Y-123630179D01*
X147421600Y-124019820D01*
X147421076Y-124025136D01*
X147409104Y-124146694D01*
X147372571Y-124267128D01*
X147359721Y-124309488D01*
X147279532Y-124459512D01*
X147171612Y-124591012D01*
X147040112Y-124698932D01*
X146890088Y-124779121D01*
X146862433Y-124787510D01*
X146727295Y-124828504D01*
X146614432Y-124839620D01*
X146558001Y-124845178D01*
X146558000Y-124845178D01*
X146388706Y-124828504D01*
X146253568Y-124787510D01*
X146225913Y-124779121D01*
X146075889Y-124698932D01*
X145985946Y-124625117D01*
X145944388Y-124591012D01*
X145836469Y-124459512D01*
X145814127Y-124417713D01*
X145756279Y-124309488D01*
X145743429Y-124267127D01*
X145706896Y-124146695D01*
X145698565Y-124062112D01*
X145694400Y-124019821D01*
X145694400Y-123630180D01*
X145706896Y-123503308D01*
X145706896Y-123503306D01*
X145756278Y-123340517D01*
X145756279Y-123340513D01*
X145836468Y-123190488D01*
X145944388Y-123058988D01*
X146075888Y-122951068D01*
X146225912Y-122870879D01*
X146268273Y-122858029D01*
X146388705Y-122821496D01*
X146501568Y-122810380D01*
X146557999Y-122804822D01*
X146558000Y-122804822D01*
X146727294Y-122821496D01*
X146727294Y-122821496D01*
G37*
G36*
X149267294Y-122821496D02*
X149387726Y-122858029D01*
X149430087Y-122870879D01*
X149580112Y-122951068D01*
X149711612Y-123058988D01*
X149819532Y-123190488D01*
X149899721Y-123340512D01*
X149912571Y-123382873D01*
X149949104Y-123503305D01*
X149949104Y-123503307D01*
X149961600Y-123630179D01*
X149961600Y-124019820D01*
X149961076Y-124025136D01*
X149949104Y-124146694D01*
X149912571Y-124267128D01*
X149899721Y-124309488D01*
X149819532Y-124459512D01*
X149711612Y-124591012D01*
X149580112Y-124698932D01*
X149430088Y-124779121D01*
X149402433Y-124787510D01*
X149267295Y-124828504D01*
X149154432Y-124839620D01*
X149098001Y-124845178D01*
X149098000Y-124845178D01*
X148928706Y-124828504D01*
X148793568Y-124787510D01*
X148765913Y-124779121D01*
X148615889Y-124698932D01*
X148525946Y-124625117D01*
X148484388Y-124591012D01*
X148376469Y-124459512D01*
X148354127Y-124417713D01*
X148296279Y-124309488D01*
X148283429Y-124267127D01*
X148246896Y-124146695D01*
X148238565Y-124062112D01*
X148234400Y-124019821D01*
X148234400Y-123630180D01*
X148246896Y-123503308D01*
X148246896Y-123503306D01*
X148296278Y-123340517D01*
X148296279Y-123340513D01*
X148376468Y-123190488D01*
X148484388Y-123058988D01*
X148615888Y-122951068D01*
X148765912Y-122870879D01*
X148808273Y-122858029D01*
X148928705Y-122821496D01*
X149041568Y-122810380D01*
X149097999Y-122804822D01*
X149098000Y-122804822D01*
X149267294Y-122821496D01*
X149267294Y-122821496D01*
G37*
G36*
X151807294Y-122821496D02*
X151927726Y-122858029D01*
X151970087Y-122870879D01*
X152120112Y-122951068D01*
X152251612Y-123058988D01*
X152359532Y-123190488D01*
X152439721Y-123340512D01*
X152452571Y-123382873D01*
X152489104Y-123503305D01*
X152489104Y-123503307D01*
X152501600Y-123630179D01*
X152501600Y-124019820D01*
X152501076Y-124025136D01*
X152489104Y-124146694D01*
X152452571Y-124267128D01*
X152439721Y-124309488D01*
X152359532Y-124459512D01*
X152251612Y-124591012D01*
X152120112Y-124698932D01*
X151970088Y-124779121D01*
X151942433Y-124787510D01*
X151807295Y-124828504D01*
X151694432Y-124839620D01*
X151638001Y-124845178D01*
X151638000Y-124845178D01*
X151468706Y-124828504D01*
X151333568Y-124787510D01*
X151305913Y-124779121D01*
X151155889Y-124698932D01*
X151065946Y-124625117D01*
X151024388Y-124591012D01*
X150916469Y-124459512D01*
X150894127Y-124417713D01*
X150836279Y-124309488D01*
X150823429Y-124267127D01*
X150786896Y-124146695D01*
X150778565Y-124062112D01*
X150774400Y-124019821D01*
X150774400Y-123630180D01*
X150786896Y-123503308D01*
X150786896Y-123503306D01*
X150836278Y-123340517D01*
X150836279Y-123340513D01*
X150916468Y-123190488D01*
X151024388Y-123058988D01*
X151155888Y-122951068D01*
X151305912Y-122870879D01*
X151348273Y-122858029D01*
X151468705Y-122821496D01*
X151581568Y-122810380D01*
X151637999Y-122804822D01*
X151638000Y-122804822D01*
X151807294Y-122821496D01*
X151807294Y-122821496D01*
G37*
G36*
X156887294Y-122821496D02*
X157007726Y-122858029D01*
X157050087Y-122870879D01*
X157200112Y-122951068D01*
X157331612Y-123058988D01*
X157439532Y-123190488D01*
X157519721Y-123340512D01*
X157532571Y-123382873D01*
X157569104Y-123503305D01*
X157569104Y-123503307D01*
X157581600Y-123630179D01*
X157581600Y-124019820D01*
X157581076Y-124025136D01*
X157569104Y-124146694D01*
X157532571Y-124267128D01*
X157519721Y-124309488D01*
X157439532Y-124459512D01*
X157331612Y-124591012D01*
X157200112Y-124698932D01*
X157050088Y-124779121D01*
X157022433Y-124787510D01*
X156887295Y-124828504D01*
X156774432Y-124839620D01*
X156718001Y-124845178D01*
X156718000Y-124845178D01*
X156548706Y-124828504D01*
X156413568Y-124787510D01*
X156385913Y-124779121D01*
X156235889Y-124698932D01*
X156145946Y-124625117D01*
X156104388Y-124591012D01*
X155996469Y-124459512D01*
X155974127Y-124417713D01*
X155916279Y-124309488D01*
X155903429Y-124267127D01*
X155866896Y-124146695D01*
X155858565Y-124062112D01*
X155854400Y-124019821D01*
X155854400Y-123630180D01*
X155866896Y-123503308D01*
X155866896Y-123503306D01*
X155916278Y-123340517D01*
X155916279Y-123340513D01*
X155996468Y-123190488D01*
X156104388Y-123058988D01*
X156235888Y-122951068D01*
X156385912Y-122870879D01*
X156428273Y-122858029D01*
X156548705Y-122821496D01*
X156661568Y-122810380D01*
X156717999Y-122804822D01*
X156718000Y-122804822D01*
X156887294Y-122821496D01*
X156887294Y-122821496D01*
G37*
G36*
X161967294Y-122821496D02*
X162087726Y-122858029D01*
X162130087Y-122870879D01*
X162280112Y-122951068D01*
X162411612Y-123058988D01*
X162519532Y-123190488D01*
X162599721Y-123340512D01*
X162612571Y-123382873D01*
X162649104Y-123503305D01*
X162649104Y-123503307D01*
X162661600Y-123630179D01*
X162661600Y-124019820D01*
X162661076Y-124025136D01*
X162649104Y-124146694D01*
X162612571Y-124267128D01*
X162599721Y-124309488D01*
X162519532Y-124459512D01*
X162411612Y-124591012D01*
X162280112Y-124698932D01*
X162130088Y-124779121D01*
X162102433Y-124787510D01*
X161967295Y-124828504D01*
X161854432Y-124839620D01*
X161798001Y-124845178D01*
X161798000Y-124845178D01*
X161628706Y-124828504D01*
X161493568Y-124787510D01*
X161465913Y-124779121D01*
X161315889Y-124698932D01*
X161225946Y-124625117D01*
X161184388Y-124591012D01*
X161076469Y-124459512D01*
X161054127Y-124417713D01*
X160996279Y-124309488D01*
X160983429Y-124267127D01*
X160946896Y-124146695D01*
X160938565Y-124062112D01*
X160934400Y-124019821D01*
X160934400Y-123630180D01*
X160946896Y-123503308D01*
X160946896Y-123503306D01*
X160996278Y-123340517D01*
X160996279Y-123340513D01*
X161076468Y-123190488D01*
X161184388Y-123058988D01*
X161315888Y-122951068D01*
X161465912Y-122870879D01*
X161508273Y-122858029D01*
X161628705Y-122821496D01*
X161741568Y-122810380D01*
X161797999Y-122804822D01*
X161798000Y-122804822D01*
X161967294Y-122821496D01*
X161967294Y-122821496D01*
G37*
G36*
X164507294Y-122821496D02*
X164627726Y-122858029D01*
X164670087Y-122870879D01*
X164820112Y-122951068D01*
X164951612Y-123058988D01*
X165059532Y-123190488D01*
X165139721Y-123340512D01*
X165152571Y-123382873D01*
X165189104Y-123503305D01*
X165189104Y-123503307D01*
X165201600Y-123630179D01*
X165201600Y-124019820D01*
X165201076Y-124025136D01*
X165189104Y-124146694D01*
X165152571Y-124267128D01*
X165139721Y-124309488D01*
X165059532Y-124459512D01*
X164951612Y-124591012D01*
X164820112Y-124698932D01*
X164670088Y-124779121D01*
X164642433Y-124787510D01*
X164507295Y-124828504D01*
X164394432Y-124839620D01*
X164338001Y-124845178D01*
X164338000Y-124845178D01*
X164168706Y-124828504D01*
X164033568Y-124787510D01*
X164005913Y-124779121D01*
X163855889Y-124698932D01*
X163765946Y-124625117D01*
X163724388Y-124591012D01*
X163616469Y-124459512D01*
X163594127Y-124417713D01*
X163536279Y-124309488D01*
X163523429Y-124267127D01*
X163486896Y-124146695D01*
X163478565Y-124062112D01*
X163474400Y-124019821D01*
X163474400Y-123630180D01*
X163486896Y-123503308D01*
X163486896Y-123503306D01*
X163536278Y-123340517D01*
X163536279Y-123340513D01*
X163616468Y-123190488D01*
X163724388Y-123058988D01*
X163855888Y-122951068D01*
X164005912Y-122870879D01*
X164048273Y-122858029D01*
X164168705Y-122821496D01*
X164281568Y-122810380D01*
X164337999Y-122804822D01*
X164338000Y-122804822D01*
X164507294Y-122821496D01*
X164507294Y-122821496D01*
G37*
G36*
X167047294Y-122821496D02*
X167167726Y-122858029D01*
X167210087Y-122870879D01*
X167360112Y-122951068D01*
X167491612Y-123058988D01*
X167599532Y-123190488D01*
X167679721Y-123340512D01*
X167692571Y-123382873D01*
X167729104Y-123503305D01*
X167729104Y-123503307D01*
X167741600Y-123630179D01*
X167741600Y-124019820D01*
X167741076Y-124025136D01*
X167729104Y-124146694D01*
X167692571Y-124267128D01*
X167679721Y-124309488D01*
X167599532Y-124459512D01*
X167491612Y-124591012D01*
X167360112Y-124698932D01*
X167210088Y-124779121D01*
X167182433Y-124787510D01*
X167047295Y-124828504D01*
X166934432Y-124839620D01*
X166878001Y-124845178D01*
X166878000Y-124845178D01*
X166708706Y-124828504D01*
X166573568Y-124787510D01*
X166545913Y-124779121D01*
X166395889Y-124698932D01*
X166305946Y-124625117D01*
X166264388Y-124591012D01*
X166156469Y-124459512D01*
X166134127Y-124417713D01*
X166076279Y-124309488D01*
X166063429Y-124267127D01*
X166026896Y-124146695D01*
X166018565Y-124062112D01*
X166014400Y-124019821D01*
X166014400Y-123630180D01*
X166026896Y-123503308D01*
X166026896Y-123503306D01*
X166076278Y-123340517D01*
X166076279Y-123340513D01*
X166156468Y-123190488D01*
X166264388Y-123058988D01*
X166395888Y-122951068D01*
X166545912Y-122870879D01*
X166588273Y-122858029D01*
X166708705Y-122821496D01*
X166821568Y-122810380D01*
X166877999Y-122804822D01*
X166878000Y-122804822D01*
X167047294Y-122821496D01*
X167047294Y-122821496D01*
G37*
G36*
X169587294Y-122821496D02*
X169707726Y-122858029D01*
X169750087Y-122870879D01*
X169900112Y-122951068D01*
X170031612Y-123058988D01*
X170139532Y-123190488D01*
X170219721Y-123340512D01*
X170232571Y-123382873D01*
X170269104Y-123503305D01*
X170269104Y-123503307D01*
X170281600Y-123630179D01*
X170281600Y-124019820D01*
X170281076Y-124025136D01*
X170269104Y-124146694D01*
X170232571Y-124267128D01*
X170219721Y-124309488D01*
X170139532Y-124459512D01*
X170031612Y-124591012D01*
X169900112Y-124698932D01*
X169750088Y-124779121D01*
X169722433Y-124787510D01*
X169587295Y-124828504D01*
X169474432Y-124839620D01*
X169418001Y-124845178D01*
X169418000Y-124845178D01*
X169248706Y-124828504D01*
X169113568Y-124787510D01*
X169085913Y-124779121D01*
X168935889Y-124698932D01*
X168845946Y-124625117D01*
X168804388Y-124591012D01*
X168696469Y-124459512D01*
X168674127Y-124417713D01*
X168616279Y-124309488D01*
X168603429Y-124267127D01*
X168566896Y-124146695D01*
X168558565Y-124062112D01*
X168554400Y-124019821D01*
X168554400Y-123630180D01*
X168566896Y-123503308D01*
X168566896Y-123503306D01*
X168616278Y-123340517D01*
X168616279Y-123340513D01*
X168696468Y-123190488D01*
X168804388Y-123058988D01*
X168935888Y-122951068D01*
X169085912Y-122870879D01*
X169128273Y-122858029D01*
X169248705Y-122821496D01*
X169361568Y-122810380D01*
X169417999Y-122804822D01*
X169418000Y-122804822D01*
X169587294Y-122821496D01*
X169587294Y-122821496D01*
G37*
G36*
X172127294Y-122821496D02*
X172247726Y-122858029D01*
X172290087Y-122870879D01*
X172440112Y-122951068D01*
X172571612Y-123058988D01*
X172679532Y-123190488D01*
X172759721Y-123340512D01*
X172772571Y-123382873D01*
X172809104Y-123503305D01*
X172809104Y-123503307D01*
X172821600Y-123630179D01*
X172821600Y-124019820D01*
X172821076Y-124025136D01*
X172809104Y-124146694D01*
X172772571Y-124267128D01*
X172759721Y-124309488D01*
X172679532Y-124459512D01*
X172571612Y-124591012D01*
X172440112Y-124698932D01*
X172290088Y-124779121D01*
X172262433Y-124787510D01*
X172127295Y-124828504D01*
X172014432Y-124839620D01*
X171958001Y-124845178D01*
X171958000Y-124845178D01*
X171788706Y-124828504D01*
X171653568Y-124787510D01*
X171625913Y-124779121D01*
X171475889Y-124698932D01*
X171385946Y-124625117D01*
X171344388Y-124591012D01*
X171236469Y-124459512D01*
X171214127Y-124417713D01*
X171156279Y-124309488D01*
X171143429Y-124267127D01*
X171106896Y-124146695D01*
X171098565Y-124062112D01*
X171094400Y-124019821D01*
X171094400Y-123630180D01*
X171106896Y-123503308D01*
X171106896Y-123503306D01*
X171156278Y-123340517D01*
X171156279Y-123340513D01*
X171236468Y-123190488D01*
X171344388Y-123058988D01*
X171475888Y-122951068D01*
X171625912Y-122870879D01*
X171668273Y-122858029D01*
X171788705Y-122821496D01*
X171901568Y-122810380D01*
X171957999Y-122804822D01*
X171958000Y-122804822D01*
X172127294Y-122821496D01*
X172127294Y-122821496D01*
G37*
G36*
X154347294Y-122821496D02*
X154467726Y-122858029D01*
X154510087Y-122870879D01*
X154660112Y-122951068D01*
X154791612Y-123058988D01*
X154899532Y-123190488D01*
X154979721Y-123340512D01*
X154992571Y-123382873D01*
X155029104Y-123503305D01*
X155029104Y-123503307D01*
X155041600Y-123630179D01*
X155041600Y-124019820D01*
X155041076Y-124025136D01*
X155029104Y-124146694D01*
X154992571Y-124267128D01*
X154979721Y-124309488D01*
X154899532Y-124459512D01*
X154791612Y-124591012D01*
X154660112Y-124698932D01*
X154510088Y-124779121D01*
X154482433Y-124787510D01*
X154347295Y-124828504D01*
X154234432Y-124839620D01*
X154178001Y-124845178D01*
X154178000Y-124845178D01*
X154008706Y-124828504D01*
X153873568Y-124787510D01*
X153845913Y-124779121D01*
X153695889Y-124698932D01*
X153605946Y-124625117D01*
X153564388Y-124591012D01*
X153456469Y-124459512D01*
X153434127Y-124417713D01*
X153376279Y-124309488D01*
X153363429Y-124267127D01*
X153326896Y-124146695D01*
X153318565Y-124062112D01*
X153314400Y-124019821D01*
X153314400Y-123630180D01*
X153326896Y-123503308D01*
X153326896Y-123503306D01*
X153376278Y-123340517D01*
X153376279Y-123340513D01*
X153456468Y-123190488D01*
X153564388Y-123058988D01*
X153695888Y-122951068D01*
X153845912Y-122870879D01*
X153888273Y-122858029D01*
X154008705Y-122821496D01*
X154121568Y-122810380D01*
X154177999Y-122804822D01*
X154178000Y-122804822D01*
X154347294Y-122821496D01*
X154347294Y-122821496D01*
G37*
G36*
X145626630Y-117762299D02*
X145786855Y-117810903D01*
X145934520Y-117889831D01*
X146063949Y-117996051D01*
X146170169Y-118125480D01*
X146249097Y-118273145D01*
X146297701Y-118433370D01*
X146314112Y-118600000D01*
X146297701Y-118766630D01*
X146249097Y-118926855D01*
X146170169Y-119074520D01*
X146063949Y-119203949D01*
X145934520Y-119310169D01*
X145786855Y-119389097D01*
X145626630Y-119437701D01*
X145501752Y-119450000D01*
X145418248Y-119450000D01*
X145293370Y-119437701D01*
X145133145Y-119389097D01*
X144985480Y-119310169D01*
X144856051Y-119203949D01*
X144749831Y-119074520D01*
X144670903Y-118926855D01*
X144622299Y-118766630D01*
X144605888Y-118600000D01*
X144622299Y-118433370D01*
X144670903Y-118273145D01*
X144749831Y-118125480D01*
X144856051Y-117996051D01*
X144985480Y-117889831D01*
X145133145Y-117810903D01*
X145293370Y-117762299D01*
X145418248Y-117750000D01*
X145501752Y-117750000D01*
X145626630Y-117762299D01*
X145626630Y-117762299D01*
G37*
G36*
X148850000Y-119450000D02*
X147150000Y-119450000D01*
X147150000Y-117750000D01*
X148850000Y-117750000D01*
X148850000Y-119450000D01*
X148850000Y-119450000D01*
G37*
G36*
X135075770Y-116765372D02*
X135191689Y-116788429D01*
X135373678Y-116863811D01*
X135537463Y-116973249D01*
X135676751Y-117112537D01*
X135786189Y-117276322D01*
X135861571Y-117458311D01*
X135900000Y-117651509D01*
X135900000Y-117848491D01*
X135861571Y-118041689D01*
X135786189Y-118223678D01*
X135676751Y-118387463D01*
X135537463Y-118526751D01*
X135373678Y-118636189D01*
X135191689Y-118711571D01*
X135075770Y-118734628D01*
X134998493Y-118750000D01*
X134801507Y-118750000D01*
X134724230Y-118734628D01*
X134608311Y-118711571D01*
X134426322Y-118636189D01*
X134262537Y-118526751D01*
X134123249Y-118387463D01*
X134013811Y-118223678D01*
X133938429Y-118041689D01*
X133900000Y-117848491D01*
X133900000Y-117651509D01*
X133938429Y-117458311D01*
X134013811Y-117276322D01*
X134123249Y-117112537D01*
X134262537Y-116973249D01*
X134426322Y-116863811D01*
X134608311Y-116788429D01*
X134724230Y-116765372D01*
X134801507Y-116750000D01*
X134998493Y-116750000D01*
X135075770Y-116765372D01*
X135075770Y-116765372D01*
G37*
G36*
X148166630Y-115222299D02*
X148326855Y-115270903D01*
X148474520Y-115349831D01*
X148603949Y-115456051D01*
X148710169Y-115585480D01*
X148789097Y-115733145D01*
X148837701Y-115893370D01*
X148854112Y-116060000D01*
X148837701Y-116226630D01*
X148789097Y-116386855D01*
X148710169Y-116534520D01*
X148603949Y-116663949D01*
X148474520Y-116770169D01*
X148326855Y-116849097D01*
X148166630Y-116897701D01*
X148041752Y-116910000D01*
X147958248Y-116910000D01*
X147833370Y-116897701D01*
X147673145Y-116849097D01*
X147525480Y-116770169D01*
X147396051Y-116663949D01*
X147289831Y-116534520D01*
X147210903Y-116386855D01*
X147162299Y-116226630D01*
X147145888Y-116060000D01*
X147162299Y-115893370D01*
X147210903Y-115733145D01*
X147289831Y-115585480D01*
X147396051Y-115456051D01*
X147525480Y-115349831D01*
X147673145Y-115270903D01*
X147833370Y-115222299D01*
X147958248Y-115210000D01*
X148041752Y-115210000D01*
X148166630Y-115222299D01*
X148166630Y-115222299D01*
G37*
G36*
X145626630Y-115222299D02*
X145786855Y-115270903D01*
X145934520Y-115349831D01*
X146063949Y-115456051D01*
X146170169Y-115585480D01*
X146249097Y-115733145D01*
X146297701Y-115893370D01*
X146314112Y-116060000D01*
X146297701Y-116226630D01*
X146249097Y-116386855D01*
X146170169Y-116534520D01*
X146063949Y-116663949D01*
X145934520Y-116770169D01*
X145786855Y-116849097D01*
X145626630Y-116897701D01*
X145501752Y-116910000D01*
X145418248Y-116910000D01*
X145293370Y-116897701D01*
X145133145Y-116849097D01*
X144985480Y-116770169D01*
X144856051Y-116663949D01*
X144749831Y-116534520D01*
X144670903Y-116386855D01*
X144622299Y-116226630D01*
X144605888Y-116060000D01*
X144622299Y-115893370D01*
X144670903Y-115733145D01*
X144749831Y-115585480D01*
X144856051Y-115456051D01*
X144985480Y-115349831D01*
X145133145Y-115270903D01*
X145293370Y-115222299D01*
X145418248Y-115210000D01*
X145501752Y-115210000D01*
X145626630Y-115222299D01*
X145626630Y-115222299D01*
G37*
G36*
X159363340Y-116692400D02*
X157585340Y-116692400D01*
X157585340Y-114914400D01*
X159363340Y-114914400D01*
X159363340Y-116692400D01*
X159363340Y-116692400D01*
G37*
G36*
X135075770Y-113265372D02*
X135191689Y-113288429D01*
X135373678Y-113363811D01*
X135537463Y-113473249D01*
X135676751Y-113612537D01*
X135786189Y-113776322D01*
X135861571Y-113958311D01*
X135870289Y-114002141D01*
X135900000Y-114151507D01*
X135900000Y-114348493D01*
X135898168Y-114357701D01*
X135861571Y-114541689D01*
X135786189Y-114723678D01*
X135676751Y-114887463D01*
X135537463Y-115026751D01*
X135373678Y-115136189D01*
X135191689Y-115211571D01*
X135075770Y-115234628D01*
X134998493Y-115250000D01*
X134801507Y-115250000D01*
X134724230Y-115234628D01*
X134608311Y-115211571D01*
X134426322Y-115136189D01*
X134262537Y-115026751D01*
X134123249Y-114887463D01*
X134013811Y-114723678D01*
X133938429Y-114541689D01*
X133901832Y-114357701D01*
X133900000Y-114348493D01*
X133900000Y-114151507D01*
X133929711Y-114002141D01*
X133938429Y-113958311D01*
X134013811Y-113776322D01*
X134123249Y-113612537D01*
X134262537Y-113473249D01*
X134426322Y-113363811D01*
X134608311Y-113288429D01*
X134724230Y-113265372D01*
X134801507Y-113250000D01*
X134998493Y-113250000D01*
X135075770Y-113265372D01*
X135075770Y-113265372D01*
G37*
G36*
X145626630Y-112682299D02*
X145786855Y-112730903D01*
X145934520Y-112809831D01*
X146063949Y-112916051D01*
X146170169Y-113045480D01*
X146249097Y-113193145D01*
X146297701Y-113353370D01*
X146314112Y-113520000D01*
X146297701Y-113686630D01*
X146249097Y-113846855D01*
X146170169Y-113994520D01*
X146063949Y-114123949D01*
X145934520Y-114230169D01*
X145786855Y-114309097D01*
X145626630Y-114357701D01*
X145501752Y-114370000D01*
X145418248Y-114370000D01*
X145293370Y-114357701D01*
X145133145Y-114309097D01*
X144985480Y-114230169D01*
X144856051Y-114123949D01*
X144749831Y-113994520D01*
X144670903Y-113846855D01*
X144622299Y-113686630D01*
X144605888Y-113520000D01*
X144622299Y-113353370D01*
X144670903Y-113193145D01*
X144749831Y-113045480D01*
X144856051Y-112916051D01*
X144985480Y-112809831D01*
X145133145Y-112730903D01*
X145293370Y-112682299D01*
X145418248Y-112670000D01*
X145501752Y-112670000D01*
X145626630Y-112682299D01*
X145626630Y-112682299D01*
G37*
G36*
X148166630Y-112682299D02*
X148326855Y-112730903D01*
X148474520Y-112809831D01*
X148603949Y-112916051D01*
X148710169Y-113045480D01*
X148789097Y-113193145D01*
X148837701Y-113353370D01*
X148854112Y-113520000D01*
X148837701Y-113686630D01*
X148789097Y-113846855D01*
X148710169Y-113994520D01*
X148603949Y-114123949D01*
X148474520Y-114230169D01*
X148326855Y-114309097D01*
X148166630Y-114357701D01*
X148041752Y-114370000D01*
X147958248Y-114370000D01*
X147833370Y-114357701D01*
X147673145Y-114309097D01*
X147525480Y-114230169D01*
X147396051Y-114123949D01*
X147289831Y-113994520D01*
X147210903Y-113846855D01*
X147162299Y-113686630D01*
X147145888Y-113520000D01*
X147162299Y-113353370D01*
X147210903Y-113193145D01*
X147289831Y-113045480D01*
X147396051Y-112916051D01*
X147525480Y-112809831D01*
X147673145Y-112730903D01*
X147833370Y-112682299D01*
X147958248Y-112670000D01*
X148041752Y-112670000D01*
X148166630Y-112682299D01*
X148166630Y-112682299D01*
G37*
G36*
X153391238Y-112403919D02*
X153573137Y-112479264D01*
X153736841Y-112588648D01*
X153876052Y-112727859D01*
X153985436Y-112891563D01*
X154060781Y-113073462D01*
X154099190Y-113266557D01*
X154099190Y-113463443D01*
X154060781Y-113656538D01*
X153985436Y-113838437D01*
X153876052Y-114002141D01*
X153736841Y-114141352D01*
X153573137Y-114250736D01*
X153391238Y-114326081D01*
X153198143Y-114364490D01*
X153001257Y-114364490D01*
X152808162Y-114326081D01*
X152626263Y-114250736D01*
X152462559Y-114141352D01*
X152323348Y-114002141D01*
X152213964Y-113838437D01*
X152138619Y-113656538D01*
X152100210Y-113463443D01*
X152100210Y-113266557D01*
X152138619Y-113073462D01*
X152213964Y-112891563D01*
X152323348Y-112727859D01*
X152462559Y-112588648D01*
X152626263Y-112479264D01*
X152808162Y-112403919D01*
X153001257Y-112365510D01*
X153198143Y-112365510D01*
X153391238Y-112403919D01*
X153391238Y-112403919D01*
G37*
G36*
X158733652Y-112408564D02*
X158895438Y-112475578D01*
X159041047Y-112572871D01*
X159164869Y-112696693D01*
X159262162Y-112842302D01*
X159329176Y-113004088D01*
X159363340Y-113175841D01*
X159363340Y-113350959D01*
X159329176Y-113522712D01*
X159262162Y-113684498D01*
X159164869Y-113830107D01*
X159041047Y-113953929D01*
X158895438Y-114051222D01*
X158733652Y-114118236D01*
X158561899Y-114152400D01*
X158386781Y-114152400D01*
X158215028Y-114118236D01*
X158053242Y-114051222D01*
X157907633Y-113953929D01*
X157783811Y-113830107D01*
X157686518Y-113684498D01*
X157619504Y-113522712D01*
X157585340Y-113350959D01*
X157585340Y-113175841D01*
X157619504Y-113004088D01*
X157686518Y-112842302D01*
X157783811Y-112696693D01*
X157907633Y-112572871D01*
X158053242Y-112475578D01*
X158215028Y-112408564D01*
X158386781Y-112374400D01*
X158561899Y-112374400D01*
X158733652Y-112408564D01*
X158733652Y-112408564D01*
G37*
G36*
X135075770Y-109765372D02*
X135191689Y-109788429D01*
X135373678Y-109863811D01*
X135537463Y-109973249D01*
X135676751Y-110112537D01*
X135786189Y-110276322D01*
X135861571Y-110458311D01*
X135862720Y-110464088D01*
X135896884Y-110635841D01*
X135900000Y-110651509D01*
X135900000Y-110848491D01*
X135861571Y-111041689D01*
X135786189Y-111223678D01*
X135676751Y-111387463D01*
X135537463Y-111526751D01*
X135373678Y-111636189D01*
X135191689Y-111711571D01*
X135075770Y-111734628D01*
X134998493Y-111750000D01*
X134801507Y-111750000D01*
X134724230Y-111734628D01*
X134608311Y-111711571D01*
X134426322Y-111636189D01*
X134262537Y-111526751D01*
X134123249Y-111387463D01*
X134013811Y-111223678D01*
X133938429Y-111041689D01*
X133900000Y-110848491D01*
X133900000Y-110651509D01*
X133903117Y-110635841D01*
X133937280Y-110464088D01*
X133938429Y-110458311D01*
X134013811Y-110276322D01*
X134123249Y-110112537D01*
X134262537Y-109973249D01*
X134426322Y-109863811D01*
X134608311Y-109788429D01*
X134724230Y-109765372D01*
X134801507Y-109750000D01*
X134998493Y-109750000D01*
X135075770Y-109765372D01*
X135075770Y-109765372D01*
G37*
G36*
X158733652Y-109868564D02*
X158895438Y-109935578D01*
X159041047Y-110032871D01*
X159164869Y-110156693D01*
X159262162Y-110302302D01*
X159329176Y-110464088D01*
X159363340Y-110635841D01*
X159363340Y-110810959D01*
X159329176Y-110982712D01*
X159262162Y-111144498D01*
X159164869Y-111290107D01*
X159041047Y-111413929D01*
X158895438Y-111511222D01*
X158733652Y-111578236D01*
X158561899Y-111612400D01*
X158386781Y-111612400D01*
X158215028Y-111578236D01*
X158053242Y-111511222D01*
X157907633Y-111413929D01*
X157783811Y-111290107D01*
X157686518Y-111144498D01*
X157619504Y-110982712D01*
X157585340Y-110810959D01*
X157585340Y-110635841D01*
X157619504Y-110464088D01*
X157686518Y-110302302D01*
X157783811Y-110156693D01*
X157907633Y-110032871D01*
X158053242Y-109935578D01*
X158215028Y-109868564D01*
X158386781Y-109834400D01*
X158561899Y-109834400D01*
X158733652Y-109868564D01*
X158733652Y-109868564D01*
G37*
G36*
X135075770Y-106265372D02*
X135191689Y-106288429D01*
X135373678Y-106363811D01*
X135537463Y-106473249D01*
X135676751Y-106612537D01*
X135786189Y-106776322D01*
X135861571Y-106958311D01*
X135900000Y-107151509D01*
X135900000Y-107348491D01*
X135861571Y-107541689D01*
X135786189Y-107723678D01*
X135676751Y-107887463D01*
X135537463Y-108026751D01*
X135373678Y-108136189D01*
X135191689Y-108211571D01*
X135075770Y-108234628D01*
X134998493Y-108250000D01*
X134801507Y-108250000D01*
X134724230Y-108234628D01*
X134608311Y-108211571D01*
X134426322Y-108136189D01*
X134262537Y-108026751D01*
X134123249Y-107887463D01*
X134013811Y-107723678D01*
X133938429Y-107541689D01*
X133900000Y-107348491D01*
X133900000Y-107151509D01*
X133938429Y-106958311D01*
X134013811Y-106776322D01*
X134123249Y-106612537D01*
X134262537Y-106473249D01*
X134426322Y-106363811D01*
X134608311Y-106288429D01*
X134724230Y-106265372D01*
X134801507Y-106250000D01*
X134998493Y-106250000D01*
X135075770Y-106265372D01*
X135075770Y-106265372D01*
G37*
G36*
X148850000Y-107850000D02*
X147150000Y-107850000D01*
X147150000Y-106150000D01*
X148850000Y-106150000D01*
X148850000Y-107850000D01*
X148850000Y-107850000D01*
G37*
G36*
X145626630Y-106162299D02*
X145786855Y-106210903D01*
X145934520Y-106289831D01*
X146063949Y-106396051D01*
X146170169Y-106525480D01*
X146249097Y-106673145D01*
X146297701Y-106833370D01*
X146314112Y-107000000D01*
X146297701Y-107166630D01*
X146249097Y-107326855D01*
X146170169Y-107474520D01*
X146063949Y-107603949D01*
X145934520Y-107710169D01*
X145786855Y-107789097D01*
X145626630Y-107837701D01*
X145501752Y-107850000D01*
X145418248Y-107850000D01*
X145293370Y-107837701D01*
X145133145Y-107789097D01*
X144985480Y-107710169D01*
X144856051Y-107603949D01*
X144749831Y-107474520D01*
X144670903Y-107326855D01*
X144622299Y-107166630D01*
X144605888Y-107000000D01*
X144622299Y-106833370D01*
X144670903Y-106673145D01*
X144749831Y-106525480D01*
X144856051Y-106396051D01*
X144985480Y-106289831D01*
X145133145Y-106210903D01*
X145293370Y-106162299D01*
X145418248Y-106150000D01*
X145501752Y-106150000D01*
X145626630Y-106162299D01*
X145626630Y-106162299D01*
G37*
G36*
X148166630Y-103622299D02*
X148326855Y-103670903D01*
X148474520Y-103749831D01*
X148603949Y-103856051D01*
X148710169Y-103985480D01*
X148789097Y-104133145D01*
X148837701Y-104293370D01*
X148854112Y-104460000D01*
X148837701Y-104626630D01*
X148789097Y-104786855D01*
X148710169Y-104934520D01*
X148603949Y-105063949D01*
X148474520Y-105170169D01*
X148326855Y-105249097D01*
X148166630Y-105297701D01*
X148041752Y-105310000D01*
X147958248Y-105310000D01*
X147833370Y-105297701D01*
X147673145Y-105249097D01*
X147525480Y-105170169D01*
X147396051Y-105063949D01*
X147289831Y-104934520D01*
X147210903Y-104786855D01*
X147162299Y-104626630D01*
X147145888Y-104460000D01*
X147162299Y-104293370D01*
X147210903Y-104133145D01*
X147289831Y-103985480D01*
X147396051Y-103856051D01*
X147525480Y-103749831D01*
X147673145Y-103670903D01*
X147833370Y-103622299D01*
X147958248Y-103610000D01*
X148041752Y-103610000D01*
X148166630Y-103622299D01*
X148166630Y-103622299D01*
G37*
G36*
X145626630Y-103622299D02*
X145786855Y-103670903D01*
X145934520Y-103749831D01*
X146063949Y-103856051D01*
X146170169Y-103985480D01*
X146249097Y-104133145D01*
X146297701Y-104293370D01*
X146314112Y-104460000D01*
X146297701Y-104626630D01*
X146249097Y-104786855D01*
X146170169Y-104934520D01*
X146063949Y-105063949D01*
X145934520Y-105170169D01*
X145786855Y-105249097D01*
X145626630Y-105297701D01*
X145501752Y-105310000D01*
X145418248Y-105310000D01*
X145293370Y-105297701D01*
X145133145Y-105249097D01*
X144985480Y-105170169D01*
X144856051Y-105063949D01*
X144749831Y-104934520D01*
X144670903Y-104786855D01*
X144622299Y-104626630D01*
X144605888Y-104460000D01*
X144622299Y-104293370D01*
X144670903Y-104133145D01*
X144749831Y-103985480D01*
X144856051Y-103856051D01*
X144985480Y-103749831D01*
X145133145Y-103670903D01*
X145293370Y-103622299D01*
X145418248Y-103610000D01*
X145501752Y-103610000D01*
X145626630Y-103622299D01*
X145626630Y-103622299D01*
G37*
G36*
X135075770Y-102765372D02*
X135191689Y-102788429D01*
X135373678Y-102863811D01*
X135537463Y-102973249D01*
X135676751Y-103112537D01*
X135786189Y-103276322D01*
X135861571Y-103458311D01*
X135884628Y-103574230D01*
X135900000Y-103651507D01*
X135900000Y-103848493D01*
X135898496Y-103856052D01*
X135861571Y-104041689D01*
X135786189Y-104223678D01*
X135676751Y-104387463D01*
X135537463Y-104526751D01*
X135373678Y-104636189D01*
X135191689Y-104711571D01*
X135075770Y-104734628D01*
X134998493Y-104750000D01*
X134801507Y-104750000D01*
X134724230Y-104734628D01*
X134608311Y-104711571D01*
X134426322Y-104636189D01*
X134262537Y-104526751D01*
X134123249Y-104387463D01*
X134013811Y-104223678D01*
X133938429Y-104041689D01*
X133901504Y-103856052D01*
X133900000Y-103848493D01*
X133900000Y-103651507D01*
X133915372Y-103574230D01*
X133938429Y-103458311D01*
X134013811Y-103276322D01*
X134123249Y-103112537D01*
X134262537Y-102973249D01*
X134426322Y-102863811D01*
X134608311Y-102788429D01*
X134724230Y-102765372D01*
X134801507Y-102750000D01*
X134998493Y-102750000D01*
X135075770Y-102765372D01*
X135075770Y-102765372D01*
G37*
G36*
X145626630Y-101082299D02*
X145786855Y-101130903D01*
X145934520Y-101209831D01*
X146063949Y-101316051D01*
X146170169Y-101445480D01*
X146249097Y-101593145D01*
X146297701Y-101753370D01*
X146314112Y-101920000D01*
X146297701Y-102086630D01*
X146249097Y-102246855D01*
X146170169Y-102394520D01*
X146063949Y-102523949D01*
X145934520Y-102630169D01*
X145786855Y-102709097D01*
X145626630Y-102757701D01*
X145501752Y-102770000D01*
X145418248Y-102770000D01*
X145293370Y-102757701D01*
X145133145Y-102709097D01*
X144985480Y-102630169D01*
X144856051Y-102523949D01*
X144749831Y-102394520D01*
X144670903Y-102246855D01*
X144622299Y-102086630D01*
X144605888Y-101920000D01*
X144622299Y-101753370D01*
X144670903Y-101593145D01*
X144749831Y-101445480D01*
X144856051Y-101316051D01*
X144985480Y-101209831D01*
X145133145Y-101130903D01*
X145293370Y-101082299D01*
X145418248Y-101070000D01*
X145501752Y-101070000D01*
X145626630Y-101082299D01*
X145626630Y-101082299D01*
G37*
G36*
X148166630Y-101082299D02*
X148326855Y-101130903D01*
X148474520Y-101209831D01*
X148603949Y-101316051D01*
X148710169Y-101445480D01*
X148789097Y-101593145D01*
X148837701Y-101753370D01*
X148854112Y-101920000D01*
X148837701Y-102086630D01*
X148789097Y-102246855D01*
X148710169Y-102394520D01*
X148603949Y-102523949D01*
X148474520Y-102630169D01*
X148326855Y-102709097D01*
X148166630Y-102757701D01*
X148041752Y-102770000D01*
X147958248Y-102770000D01*
X147833370Y-102757701D01*
X147673145Y-102709097D01*
X147525480Y-102630169D01*
X147396051Y-102523949D01*
X147289831Y-102394520D01*
X147210903Y-102246855D01*
X147162299Y-102086630D01*
X147145888Y-101920000D01*
X147162299Y-101753370D01*
X147210903Y-101593145D01*
X147289831Y-101445480D01*
X147396051Y-101316051D01*
X147525480Y-101209831D01*
X147673145Y-101130903D01*
X147833370Y-101082299D01*
X147958248Y-101070000D01*
X148041752Y-101070000D01*
X148166630Y-101082299D01*
X148166630Y-101082299D01*
G37*
G36*
X135075770Y-99265372D02*
X135191689Y-99288429D01*
X135373678Y-99363811D01*
X135537463Y-99473249D01*
X135676751Y-99612537D01*
X135786189Y-99776322D01*
X135861571Y-99958311D01*
X135900000Y-100151509D01*
X135900000Y-100348491D01*
X135861571Y-100541689D01*
X135786189Y-100723678D01*
X135676751Y-100887463D01*
X135537463Y-101026751D01*
X135373678Y-101136189D01*
X135191689Y-101211571D01*
X135075770Y-101234628D01*
X134998493Y-101250000D01*
X134801507Y-101250000D01*
X134724230Y-101234628D01*
X134608311Y-101211571D01*
X134426322Y-101136189D01*
X134262537Y-101026751D01*
X134123249Y-100887463D01*
X134013811Y-100723678D01*
X133938429Y-100541689D01*
X133900000Y-100348491D01*
X133900000Y-100151509D01*
X133938429Y-99958311D01*
X134013811Y-99776322D01*
X134123249Y-99612537D01*
X134262537Y-99473249D01*
X134426322Y-99363811D01*
X134608311Y-99288429D01*
X134724230Y-99265372D01*
X134801507Y-99250000D01*
X134998493Y-99250000D01*
X135075770Y-99265372D01*
X135075770Y-99265372D01*
G37*
G36*
X159363340Y-100692400D02*
X157585340Y-100692400D01*
X157585340Y-98914400D01*
X159363340Y-98914400D01*
X159363340Y-100692400D01*
X159363340Y-100692400D01*
G37*
G36*
X153391238Y-96403919D02*
X153573137Y-96479264D01*
X153736841Y-96588648D01*
X153876052Y-96727859D01*
X153985436Y-96891563D01*
X154060781Y-97073462D01*
X154099190Y-97266557D01*
X154099190Y-97463443D01*
X154060781Y-97656538D01*
X153985436Y-97838437D01*
X153876052Y-98002141D01*
X153736841Y-98141352D01*
X153573137Y-98250736D01*
X153391238Y-98326081D01*
X153198143Y-98364490D01*
X153001257Y-98364490D01*
X152808162Y-98326081D01*
X152626263Y-98250736D01*
X152462559Y-98141352D01*
X152323348Y-98002141D01*
X152213964Y-97838437D01*
X152138619Y-97656538D01*
X152100210Y-97463443D01*
X152100210Y-97266557D01*
X152138619Y-97073462D01*
X152213964Y-96891563D01*
X152323348Y-96727859D01*
X152462559Y-96588648D01*
X152626263Y-96479264D01*
X152808162Y-96403919D01*
X153001257Y-96365510D01*
X153198143Y-96365510D01*
X153391238Y-96403919D01*
X153391238Y-96403919D01*
G37*
G36*
X158733652Y-96408564D02*
X158895438Y-96475578D01*
X159041047Y-96572871D01*
X159164869Y-96696693D01*
X159262162Y-96842302D01*
X159329176Y-97004088D01*
X159363340Y-97175841D01*
X159363340Y-97350959D01*
X159329176Y-97522712D01*
X159262162Y-97684498D01*
X159164869Y-97830107D01*
X159041047Y-97953929D01*
X158895438Y-98051222D01*
X158733652Y-98118236D01*
X158561899Y-98152400D01*
X158386781Y-98152400D01*
X158215028Y-98118236D01*
X158053242Y-98051222D01*
X157907633Y-97953929D01*
X157783811Y-97830107D01*
X157686518Y-97684498D01*
X157619504Y-97522712D01*
X157585340Y-97350959D01*
X157585340Y-97175841D01*
X157619504Y-97004088D01*
X157686518Y-96842302D01*
X157783811Y-96696693D01*
X157907633Y-96572871D01*
X158053242Y-96475578D01*
X158215028Y-96408564D01*
X158386781Y-96374400D01*
X158561899Y-96374400D01*
X158733652Y-96408564D01*
X158733652Y-96408564D01*
G37*
G36*
X158733652Y-93868564D02*
X158895438Y-93935578D01*
X159041047Y-94032871D01*
X159164869Y-94156693D01*
X159262162Y-94302302D01*
X159329176Y-94464088D01*
X159363340Y-94635841D01*
X159363340Y-94810959D01*
X159329176Y-94982712D01*
X159262162Y-95144498D01*
X159164869Y-95290107D01*
X159041047Y-95413929D01*
X158895438Y-95511222D01*
X158733652Y-95578236D01*
X158561899Y-95612400D01*
X158386781Y-95612400D01*
X158215028Y-95578236D01*
X158053242Y-95511222D01*
X157907633Y-95413929D01*
X157783811Y-95290107D01*
X157686518Y-95144498D01*
X157619504Y-94982712D01*
X157585340Y-94810959D01*
X157585340Y-94635841D01*
X157619504Y-94464088D01*
X157686518Y-94302302D01*
X157783811Y-94156693D01*
X157907633Y-94032871D01*
X158053242Y-93935578D01*
X158215028Y-93868564D01*
X158386781Y-93834400D01*
X158561899Y-93834400D01*
X158733652Y-93868564D01*
X158733652Y-93868564D01*
G37*
G36*
X139043443Y-80329194D02*
X139252728Y-80415883D01*
X139441085Y-80541739D01*
X139601261Y-80701915D01*
X139727117Y-80890272D01*
X139813806Y-81099557D01*
X139858000Y-81321734D01*
X139858000Y-81548266D01*
X139813806Y-81770443D01*
X139727117Y-81979728D01*
X139601261Y-82168085D01*
X139441085Y-82328261D01*
X139252728Y-82454117D01*
X139043443Y-82540806D01*
X138821266Y-82585000D01*
X138594734Y-82585000D01*
X138372557Y-82540806D01*
X138163272Y-82454117D01*
X137974915Y-82328261D01*
X137814739Y-82168085D01*
X137688883Y-81979728D01*
X137602194Y-81770443D01*
X137558000Y-81548266D01*
X137558000Y-81321734D01*
X137602194Y-81099557D01*
X137688883Y-80890272D01*
X137814739Y-80701915D01*
X137974915Y-80541739D01*
X138163272Y-80415883D01*
X138372557Y-80329194D01*
X138594734Y-80285000D01*
X138821266Y-80285000D01*
X139043443Y-80329194D01*
X139043443Y-80329194D01*
G37*
G36*
X133963443Y-80329194D02*
X134172728Y-80415883D01*
X134361085Y-80541739D01*
X134521261Y-80701915D01*
X134647117Y-80890272D01*
X134733806Y-81099557D01*
X134778000Y-81321734D01*
X134778000Y-81548266D01*
X134733806Y-81770443D01*
X134647117Y-81979728D01*
X134521261Y-82168085D01*
X134361085Y-82328261D01*
X134172728Y-82454117D01*
X133963443Y-82540806D01*
X133741266Y-82585000D01*
X133514734Y-82585000D01*
X133292557Y-82540806D01*
X133083272Y-82454117D01*
X132894915Y-82328261D01*
X132734739Y-82168085D01*
X132608883Y-81979728D01*
X132522194Y-81770443D01*
X132478000Y-81548266D01*
X132478000Y-81321734D01*
X132522194Y-81099557D01*
X132608883Y-80890272D01*
X132734739Y-80701915D01*
X132894915Y-80541739D01*
X133083272Y-80415883D01*
X133292557Y-80329194D01*
X133514734Y-80285000D01*
X133741266Y-80285000D01*
X133963443Y-80329194D01*
X133963443Y-80329194D01*
G37*
G36*
X149043770Y-80450372D02*
X149159689Y-80473429D01*
X149341678Y-80548811D01*
X149505463Y-80658249D01*
X149644751Y-80797537D01*
X149754189Y-80961322D01*
X149829571Y-81143311D01*
X149852628Y-81259230D01*
X149868000Y-81336507D01*
X149868000Y-81533493D01*
X149865061Y-81548266D01*
X149829571Y-81726689D01*
X149754189Y-81908678D01*
X149644751Y-82072463D01*
X149505463Y-82211751D01*
X149341678Y-82321189D01*
X149159689Y-82396571D01*
X149043770Y-82419628D01*
X148966493Y-82435000D01*
X148769507Y-82435000D01*
X148692230Y-82419628D01*
X148576311Y-82396571D01*
X148394322Y-82321189D01*
X148230537Y-82211751D01*
X148091249Y-82072463D01*
X147981811Y-81908678D01*
X147906429Y-81726689D01*
X147870939Y-81548266D01*
X147868000Y-81533493D01*
X147868000Y-81336507D01*
X147883372Y-81259230D01*
X147906429Y-81143311D01*
X147981811Y-80961322D01*
X148091249Y-80797537D01*
X148230537Y-80658249D01*
X148394322Y-80548811D01*
X148576311Y-80473429D01*
X148692230Y-80450372D01*
X148769507Y-80435000D01*
X148966493Y-80435000D01*
X149043770Y-80450372D01*
X149043770Y-80450372D01*
G37*
G36*
X151583770Y-80450372D02*
X151699689Y-80473429D01*
X151881678Y-80548811D01*
X152045463Y-80658249D01*
X152184751Y-80797537D01*
X152294189Y-80961322D01*
X152369571Y-81143311D01*
X152392628Y-81259230D01*
X152408000Y-81336507D01*
X152408000Y-81533493D01*
X152405061Y-81548266D01*
X152369571Y-81726689D01*
X152294189Y-81908678D01*
X152184751Y-82072463D01*
X152045463Y-82211751D01*
X151881678Y-82321189D01*
X151699689Y-82396571D01*
X151583770Y-82419628D01*
X151506493Y-82435000D01*
X151309507Y-82435000D01*
X151232230Y-82419628D01*
X151116311Y-82396571D01*
X150934322Y-82321189D01*
X150770537Y-82211751D01*
X150631249Y-82072463D01*
X150521811Y-81908678D01*
X150446429Y-81726689D01*
X150410939Y-81548266D01*
X150408000Y-81533493D01*
X150408000Y-81336507D01*
X150423372Y-81259230D01*
X150446429Y-81143311D01*
X150521811Y-80961322D01*
X150631249Y-80797537D01*
X150770537Y-80658249D01*
X150934322Y-80548811D01*
X151116311Y-80473429D01*
X151232230Y-80450372D01*
X151309507Y-80435000D01*
X151506493Y-80435000D01*
X151583770Y-80450372D01*
X151583770Y-80450372D01*
G37*
G36*
X126830712Y-73611088D02*
X127200510Y-73764263D01*
X127200513Y-73764265D01*
X127533325Y-73986643D01*
X127816357Y-74269675D01*
X128000204Y-74544822D01*
X128038737Y-74602490D01*
X128191912Y-74972288D01*
X128270000Y-75364864D01*
X128270000Y-75765136D01*
X128191912Y-76157712D01*
X128038737Y-76527510D01*
X128038735Y-76527513D01*
X127816357Y-76860325D01*
X127533325Y-77143357D01*
X127200513Y-77365735D01*
X127200510Y-77365737D01*
X126830712Y-77518912D01*
X126438136Y-77597000D01*
X126037864Y-77597000D01*
X125645288Y-77518912D01*
X125275490Y-77365737D01*
X125275487Y-77365735D01*
X124942675Y-77143357D01*
X124659643Y-76860325D01*
X124437265Y-76527513D01*
X124437263Y-76527510D01*
X124284088Y-76157712D01*
X124206000Y-75765136D01*
X124206000Y-75364864D01*
X124284088Y-74972288D01*
X124437263Y-74602490D01*
X124475796Y-74544822D01*
X124659643Y-74269675D01*
X124942675Y-73986643D01*
X125275487Y-73764265D01*
X125275490Y-73764263D01*
X125645288Y-73611088D01*
X126037864Y-73533000D01*
X126438136Y-73533000D01*
X126830712Y-73611088D01*
X126830712Y-73611088D01*
G37*
G36*
X156887294Y-74561496D02*
X157007726Y-74598029D01*
X157050087Y-74610879D01*
X157200112Y-74691068D01*
X157331612Y-74798988D01*
X157439532Y-74930488D01*
X157519721Y-75080512D01*
X157532571Y-75122873D01*
X157569104Y-75243305D01*
X157569104Y-75243307D01*
X157581600Y-75370179D01*
X157581600Y-75759820D01*
X157581076Y-75765136D01*
X157569104Y-75886694D01*
X157532571Y-76007128D01*
X157519721Y-76049488D01*
X157439532Y-76199512D01*
X157331612Y-76331012D01*
X157200112Y-76438932D01*
X157050088Y-76519121D01*
X157022433Y-76527510D01*
X156887295Y-76568504D01*
X156774432Y-76579620D01*
X156718001Y-76585178D01*
X156718000Y-76585178D01*
X156548706Y-76568504D01*
X156413568Y-76527510D01*
X156385913Y-76519121D01*
X156235889Y-76438932D01*
X156145946Y-76365117D01*
X156104388Y-76331012D01*
X155996469Y-76199512D01*
X155974127Y-76157713D01*
X155916279Y-76049488D01*
X155903429Y-76007127D01*
X155866896Y-75886695D01*
X155858565Y-75802112D01*
X155854400Y-75759821D01*
X155854400Y-75370180D01*
X155866896Y-75243308D01*
X155866896Y-75243306D01*
X155916278Y-75080517D01*
X155916279Y-75080513D01*
X155996468Y-74930488D01*
X156104388Y-74798988D01*
X156235888Y-74691068D01*
X156385912Y-74610879D01*
X156428273Y-74598029D01*
X156548705Y-74561496D01*
X156661568Y-74550380D01*
X156717999Y-74544822D01*
X156718000Y-74544822D01*
X156887294Y-74561496D01*
X156887294Y-74561496D01*
G37*
G36*
X137583294Y-74561496D02*
X137703726Y-74598029D01*
X137746087Y-74610879D01*
X137896112Y-74691068D01*
X138027612Y-74798988D01*
X138135532Y-74930488D01*
X138215721Y-75080512D01*
X138228571Y-75122873D01*
X138265104Y-75243305D01*
X138265104Y-75243307D01*
X138277600Y-75370179D01*
X138277600Y-75759820D01*
X138277076Y-75765136D01*
X138265104Y-75886694D01*
X138228571Y-76007128D01*
X138215721Y-76049488D01*
X138135532Y-76199512D01*
X138027612Y-76331012D01*
X137896112Y-76438932D01*
X137746088Y-76519121D01*
X137718433Y-76527510D01*
X137583295Y-76568504D01*
X137470432Y-76579620D01*
X137414001Y-76585178D01*
X137414000Y-76585178D01*
X137244706Y-76568504D01*
X137109568Y-76527510D01*
X137081913Y-76519121D01*
X136931889Y-76438932D01*
X136841946Y-76365117D01*
X136800388Y-76331012D01*
X136692469Y-76199512D01*
X136670127Y-76157713D01*
X136612279Y-76049488D01*
X136599429Y-76007127D01*
X136562896Y-75886695D01*
X136554565Y-75802112D01*
X136550400Y-75759821D01*
X136550400Y-75370180D01*
X136562896Y-75243308D01*
X136562896Y-75243306D01*
X136612278Y-75080517D01*
X136612279Y-75080513D01*
X136692468Y-74930488D01*
X136800388Y-74798988D01*
X136931888Y-74691068D01*
X137081912Y-74610879D01*
X137124273Y-74598029D01*
X137244705Y-74561496D01*
X137357568Y-74550380D01*
X137413999Y-74544822D01*
X137414000Y-74544822D01*
X137583294Y-74561496D01*
X137583294Y-74561496D01*
G37*
G36*
X129963294Y-74561496D02*
X130083726Y-74598029D01*
X130126087Y-74610879D01*
X130276112Y-74691068D01*
X130407612Y-74798988D01*
X130515532Y-74930488D01*
X130595721Y-75080512D01*
X130608571Y-75122873D01*
X130645104Y-75243305D01*
X130645104Y-75243307D01*
X130657600Y-75370179D01*
X130657600Y-75759820D01*
X130657076Y-75765136D01*
X130645104Y-75886694D01*
X130608571Y-76007128D01*
X130595721Y-76049488D01*
X130515532Y-76199512D01*
X130407612Y-76331012D01*
X130276112Y-76438932D01*
X130126088Y-76519121D01*
X130098433Y-76527510D01*
X129963295Y-76568504D01*
X129850432Y-76579620D01*
X129794001Y-76585178D01*
X129794000Y-76585178D01*
X129624706Y-76568504D01*
X129489568Y-76527510D01*
X129461913Y-76519121D01*
X129311889Y-76438932D01*
X129221946Y-76365117D01*
X129180388Y-76331012D01*
X129072469Y-76199512D01*
X129050127Y-76157713D01*
X128992279Y-76049488D01*
X128979429Y-76007127D01*
X128942896Y-75886695D01*
X128934565Y-75802112D01*
X128930400Y-75759821D01*
X128930400Y-75370180D01*
X128942896Y-75243308D01*
X128942896Y-75243306D01*
X128992278Y-75080517D01*
X128992279Y-75080513D01*
X129072468Y-74930488D01*
X129180388Y-74798988D01*
X129311888Y-74691068D01*
X129461912Y-74610879D01*
X129504273Y-74598029D01*
X129624705Y-74561496D01*
X129737568Y-74550380D01*
X129793999Y-74544822D01*
X129794000Y-74544822D01*
X129963294Y-74561496D01*
X129963294Y-74561496D01*
G37*
G36*
X150283294Y-74561496D02*
X150403726Y-74598029D01*
X150446087Y-74610879D01*
X150596112Y-74691068D01*
X150727612Y-74798988D01*
X150835532Y-74930488D01*
X150915721Y-75080512D01*
X150928571Y-75122873D01*
X150965104Y-75243305D01*
X150965104Y-75243307D01*
X150977600Y-75370179D01*
X150977600Y-75759820D01*
X150977076Y-75765136D01*
X150965104Y-75886694D01*
X150928571Y-76007128D01*
X150915721Y-76049488D01*
X150835532Y-76199512D01*
X150727612Y-76331012D01*
X150596112Y-76438932D01*
X150446088Y-76519121D01*
X150418433Y-76527510D01*
X150283295Y-76568504D01*
X150170432Y-76579620D01*
X150114001Y-76585178D01*
X150114000Y-76585178D01*
X149944706Y-76568504D01*
X149809568Y-76527510D01*
X149781913Y-76519121D01*
X149631889Y-76438932D01*
X149541946Y-76365117D01*
X149500388Y-76331012D01*
X149392469Y-76199512D01*
X149370127Y-76157713D01*
X149312279Y-76049488D01*
X149299429Y-76007127D01*
X149262896Y-75886695D01*
X149254565Y-75802112D01*
X149250400Y-75759821D01*
X149250400Y-75370180D01*
X149262896Y-75243308D01*
X149262896Y-75243306D01*
X149312278Y-75080517D01*
X149312279Y-75080513D01*
X149392468Y-74930488D01*
X149500388Y-74798988D01*
X149631888Y-74691068D01*
X149781912Y-74610879D01*
X149824273Y-74598029D01*
X149944705Y-74561496D01*
X150057568Y-74550380D01*
X150113999Y-74544822D01*
X150114000Y-74544822D01*
X150283294Y-74561496D01*
X150283294Y-74561496D01*
G37*
G36*
X145203294Y-74561496D02*
X145323726Y-74598029D01*
X145366087Y-74610879D01*
X145516112Y-74691068D01*
X145647612Y-74798988D01*
X145755532Y-74930488D01*
X145835721Y-75080512D01*
X145848571Y-75122873D01*
X145885104Y-75243305D01*
X145885104Y-75243307D01*
X145897600Y-75370179D01*
X145897600Y-75759820D01*
X145897076Y-75765136D01*
X145885104Y-75886694D01*
X145848571Y-76007128D01*
X145835721Y-76049488D01*
X145755532Y-76199512D01*
X145647612Y-76331012D01*
X145516112Y-76438932D01*
X145366088Y-76519121D01*
X145338433Y-76527510D01*
X145203295Y-76568504D01*
X145090432Y-76579620D01*
X145034001Y-76585178D01*
X145034000Y-76585178D01*
X144864706Y-76568504D01*
X144729568Y-76527510D01*
X144701913Y-76519121D01*
X144551889Y-76438932D01*
X144461946Y-76365117D01*
X144420388Y-76331012D01*
X144312469Y-76199512D01*
X144290127Y-76157713D01*
X144232279Y-76049488D01*
X144219429Y-76007127D01*
X144182896Y-75886695D01*
X144174565Y-75802112D01*
X144170400Y-75759821D01*
X144170400Y-75370180D01*
X144182896Y-75243308D01*
X144182896Y-75243306D01*
X144232278Y-75080517D01*
X144232279Y-75080513D01*
X144312468Y-74930488D01*
X144420388Y-74798988D01*
X144551888Y-74691068D01*
X144701912Y-74610879D01*
X144744273Y-74598029D01*
X144864705Y-74561496D01*
X144977568Y-74550380D01*
X145033999Y-74544822D01*
X145034000Y-74544822D01*
X145203294Y-74561496D01*
X145203294Y-74561496D01*
G37*
G36*
X142663294Y-74561496D02*
X142783726Y-74598029D01*
X142826087Y-74610879D01*
X142976112Y-74691068D01*
X143107612Y-74798988D01*
X143215532Y-74930488D01*
X143295721Y-75080512D01*
X143308571Y-75122873D01*
X143345104Y-75243305D01*
X143345104Y-75243307D01*
X143357600Y-75370179D01*
X143357600Y-75759820D01*
X143357076Y-75765136D01*
X143345104Y-75886694D01*
X143308571Y-76007128D01*
X143295721Y-76049488D01*
X143215532Y-76199512D01*
X143107612Y-76331012D01*
X142976112Y-76438932D01*
X142826088Y-76519121D01*
X142798433Y-76527510D01*
X142663295Y-76568504D01*
X142550432Y-76579620D01*
X142494001Y-76585178D01*
X142494000Y-76585178D01*
X142324706Y-76568504D01*
X142189568Y-76527510D01*
X142161913Y-76519121D01*
X142011889Y-76438932D01*
X141921946Y-76365117D01*
X141880388Y-76331012D01*
X141772469Y-76199512D01*
X141750127Y-76157713D01*
X141692279Y-76049488D01*
X141679429Y-76007127D01*
X141642896Y-75886695D01*
X141634565Y-75802112D01*
X141630400Y-75759821D01*
X141630400Y-75370180D01*
X141642896Y-75243308D01*
X141642896Y-75243306D01*
X141692278Y-75080517D01*
X141692279Y-75080513D01*
X141772468Y-74930488D01*
X141880388Y-74798988D01*
X142011888Y-74691068D01*
X142161912Y-74610879D01*
X142204273Y-74598029D01*
X142324705Y-74561496D01*
X142437568Y-74550380D01*
X142493999Y-74544822D01*
X142494000Y-74544822D01*
X142663294Y-74561496D01*
X142663294Y-74561496D01*
G37*
G36*
X140123294Y-74561496D02*
X140243726Y-74598029D01*
X140286087Y-74610879D01*
X140436112Y-74691068D01*
X140567612Y-74798988D01*
X140675532Y-74930488D01*
X140755721Y-75080512D01*
X140768571Y-75122873D01*
X140805104Y-75243305D01*
X140805104Y-75243307D01*
X140817600Y-75370179D01*
X140817600Y-75759820D01*
X140817076Y-75765136D01*
X140805104Y-75886694D01*
X140768571Y-76007128D01*
X140755721Y-76049488D01*
X140675532Y-76199512D01*
X140567612Y-76331012D01*
X140436112Y-76438932D01*
X140286088Y-76519121D01*
X140258433Y-76527510D01*
X140123295Y-76568504D01*
X140010432Y-76579620D01*
X139954001Y-76585178D01*
X139954000Y-76585178D01*
X139784706Y-76568504D01*
X139649568Y-76527510D01*
X139621913Y-76519121D01*
X139471889Y-76438932D01*
X139381946Y-76365117D01*
X139340388Y-76331012D01*
X139232469Y-76199512D01*
X139210127Y-76157713D01*
X139152279Y-76049488D01*
X139139429Y-76007127D01*
X139102896Y-75886695D01*
X139094565Y-75802112D01*
X139090400Y-75759821D01*
X139090400Y-75370180D01*
X139102896Y-75243308D01*
X139102896Y-75243306D01*
X139152278Y-75080517D01*
X139152279Y-75080513D01*
X139232468Y-74930488D01*
X139340388Y-74798988D01*
X139471888Y-74691068D01*
X139621912Y-74610879D01*
X139664273Y-74598029D01*
X139784705Y-74561496D01*
X139897568Y-74550380D01*
X139953999Y-74544822D01*
X139954000Y-74544822D01*
X140123294Y-74561496D01*
X140123294Y-74561496D01*
G37*
G36*
X147743294Y-74561496D02*
X147863726Y-74598029D01*
X147906087Y-74610879D01*
X148056112Y-74691068D01*
X148187612Y-74798988D01*
X148295532Y-74930488D01*
X148375721Y-75080512D01*
X148388571Y-75122873D01*
X148425104Y-75243305D01*
X148425104Y-75243307D01*
X148437600Y-75370179D01*
X148437600Y-75759820D01*
X148437076Y-75765136D01*
X148425104Y-75886694D01*
X148388571Y-76007128D01*
X148375721Y-76049488D01*
X148295532Y-76199512D01*
X148187612Y-76331012D01*
X148056112Y-76438932D01*
X147906088Y-76519121D01*
X147878433Y-76527510D01*
X147743295Y-76568504D01*
X147630432Y-76579620D01*
X147574001Y-76585178D01*
X147574000Y-76585178D01*
X147404706Y-76568504D01*
X147269568Y-76527510D01*
X147241913Y-76519121D01*
X147091889Y-76438932D01*
X147001946Y-76365117D01*
X146960388Y-76331012D01*
X146852469Y-76199512D01*
X146830127Y-76157713D01*
X146772279Y-76049488D01*
X146759429Y-76007127D01*
X146722896Y-75886695D01*
X146714565Y-75802112D01*
X146710400Y-75759821D01*
X146710400Y-75370180D01*
X146722896Y-75243308D01*
X146722896Y-75243306D01*
X146772278Y-75080517D01*
X146772279Y-75080513D01*
X146852468Y-74930488D01*
X146960388Y-74798988D01*
X147091888Y-74691068D01*
X147241912Y-74610879D01*
X147284273Y-74598029D01*
X147404705Y-74561496D01*
X147517568Y-74550380D01*
X147573999Y-74544822D01*
X147574000Y-74544822D01*
X147743294Y-74561496D01*
X147743294Y-74561496D01*
G37*
G36*
X132503294Y-74561496D02*
X132623726Y-74598029D01*
X132666087Y-74610879D01*
X132816112Y-74691068D01*
X132947612Y-74798988D01*
X133055532Y-74930488D01*
X133135721Y-75080512D01*
X133148571Y-75122873D01*
X133185104Y-75243305D01*
X133185104Y-75243307D01*
X133197600Y-75370179D01*
X133197600Y-75759820D01*
X133197076Y-75765136D01*
X133185104Y-75886694D01*
X133148571Y-76007128D01*
X133135721Y-76049488D01*
X133055532Y-76199512D01*
X132947612Y-76331012D01*
X132816112Y-76438932D01*
X132666088Y-76519121D01*
X132638433Y-76527510D01*
X132503295Y-76568504D01*
X132390432Y-76579620D01*
X132334001Y-76585178D01*
X132334000Y-76585178D01*
X132164706Y-76568504D01*
X132029568Y-76527510D01*
X132001913Y-76519121D01*
X131851889Y-76438932D01*
X131761946Y-76365117D01*
X131720388Y-76331012D01*
X131612469Y-76199512D01*
X131590127Y-76157713D01*
X131532279Y-76049488D01*
X131519429Y-76007127D01*
X131482896Y-75886695D01*
X131474565Y-75802112D01*
X131470400Y-75759821D01*
X131470400Y-75370180D01*
X131482896Y-75243308D01*
X131482896Y-75243306D01*
X131532278Y-75080517D01*
X131532279Y-75080513D01*
X131612468Y-74930488D01*
X131720388Y-74798988D01*
X131851888Y-74691068D01*
X132001912Y-74610879D01*
X132044273Y-74598029D01*
X132164705Y-74561496D01*
X132277568Y-74550380D01*
X132333999Y-74544822D01*
X132334000Y-74544822D01*
X132503294Y-74561496D01*
X132503294Y-74561496D01*
G37*
G36*
X135043294Y-74561496D02*
X135163726Y-74598029D01*
X135206087Y-74610879D01*
X135356112Y-74691068D01*
X135487612Y-74798988D01*
X135595532Y-74930488D01*
X135675721Y-75080512D01*
X135688571Y-75122873D01*
X135725104Y-75243305D01*
X135725104Y-75243307D01*
X135737600Y-75370179D01*
X135737600Y-75759820D01*
X135737076Y-75765136D01*
X135725104Y-75886694D01*
X135688571Y-76007128D01*
X135675721Y-76049488D01*
X135595532Y-76199512D01*
X135487612Y-76331012D01*
X135356112Y-76438932D01*
X135206088Y-76519121D01*
X135178433Y-76527510D01*
X135043295Y-76568504D01*
X134930432Y-76579620D01*
X134874001Y-76585178D01*
X134874000Y-76585178D01*
X134704706Y-76568504D01*
X134569568Y-76527510D01*
X134541913Y-76519121D01*
X134391889Y-76438932D01*
X134301946Y-76365117D01*
X134260388Y-76331012D01*
X134152469Y-76199512D01*
X134130127Y-76157713D01*
X134072279Y-76049488D01*
X134059429Y-76007127D01*
X134022896Y-75886695D01*
X134014565Y-75802112D01*
X134010400Y-75759821D01*
X134010400Y-75370180D01*
X134022896Y-75243308D01*
X134022896Y-75243306D01*
X134072278Y-75080517D01*
X134072279Y-75080513D01*
X134152468Y-74930488D01*
X134260388Y-74798988D01*
X134391888Y-74691068D01*
X134541912Y-74610879D01*
X134584273Y-74598029D01*
X134704705Y-74561496D01*
X134817568Y-74550380D01*
X134873999Y-74544822D01*
X134874000Y-74544822D01*
X135043294Y-74561496D01*
X135043294Y-74561496D01*
G37*
G36*
X152823294Y-74561496D02*
X152943726Y-74598029D01*
X152986087Y-74610879D01*
X153136112Y-74691068D01*
X153267612Y-74798988D01*
X153375532Y-74930488D01*
X153455721Y-75080512D01*
X153468571Y-75122873D01*
X153505104Y-75243305D01*
X153505104Y-75243307D01*
X153517600Y-75370179D01*
X153517600Y-75759820D01*
X153517076Y-75765136D01*
X153505104Y-75886694D01*
X153468571Y-76007128D01*
X153455721Y-76049488D01*
X153375532Y-76199512D01*
X153267612Y-76331012D01*
X153136112Y-76438932D01*
X152986088Y-76519121D01*
X152958433Y-76527510D01*
X152823295Y-76568504D01*
X152710432Y-76579620D01*
X152654001Y-76585178D01*
X152654000Y-76585178D01*
X152484706Y-76568504D01*
X152349568Y-76527510D01*
X152321913Y-76519121D01*
X152171889Y-76438932D01*
X152081946Y-76365117D01*
X152040388Y-76331012D01*
X151932469Y-76199512D01*
X151910127Y-76157713D01*
X151852279Y-76049488D01*
X151839429Y-76007127D01*
X151802896Y-75886695D01*
X151794565Y-75802112D01*
X151790400Y-75759821D01*
X151790400Y-75370180D01*
X151802896Y-75243308D01*
X151802896Y-75243306D01*
X151852278Y-75080517D01*
X151852279Y-75080513D01*
X151932468Y-74930488D01*
X152040388Y-74798988D01*
X152171888Y-74691068D01*
X152321912Y-74610879D01*
X152364273Y-74598029D01*
X152484705Y-74561496D01*
X152597568Y-74550380D01*
X152653999Y-74544822D01*
X152654000Y-74544822D01*
X152823294Y-74561496D01*
X152823294Y-74561496D01*
G37*
G36*
X174667294Y-74561496D02*
X174787726Y-74598029D01*
X174830087Y-74610879D01*
X174980112Y-74691068D01*
X175111612Y-74798988D01*
X175219532Y-74930488D01*
X175299721Y-75080512D01*
X175312571Y-75122873D01*
X175349104Y-75243305D01*
X175349104Y-75243307D01*
X175361600Y-75370179D01*
X175361600Y-75759820D01*
X175361076Y-75765136D01*
X175349104Y-75886694D01*
X175312571Y-76007128D01*
X175299721Y-76049488D01*
X175219532Y-76199512D01*
X175111612Y-76331012D01*
X174980112Y-76438932D01*
X174830088Y-76519121D01*
X174802433Y-76527510D01*
X174667295Y-76568504D01*
X174554432Y-76579620D01*
X174498001Y-76585178D01*
X174498000Y-76585178D01*
X174328706Y-76568504D01*
X174193568Y-76527510D01*
X174165913Y-76519121D01*
X174015889Y-76438932D01*
X173925946Y-76365117D01*
X173884388Y-76331012D01*
X173776469Y-76199512D01*
X173754127Y-76157713D01*
X173696279Y-76049488D01*
X173683429Y-76007127D01*
X173646896Y-75886695D01*
X173638565Y-75802112D01*
X173634400Y-75759821D01*
X173634400Y-75370180D01*
X173646896Y-75243308D01*
X173646896Y-75243306D01*
X173696278Y-75080517D01*
X173696279Y-75080513D01*
X173776468Y-74930488D01*
X173884388Y-74798988D01*
X174015888Y-74691068D01*
X174165912Y-74610879D01*
X174208273Y-74598029D01*
X174328705Y-74561496D01*
X174441568Y-74550380D01*
X174497999Y-74544822D01*
X174498000Y-74544822D01*
X174667294Y-74561496D01*
X174667294Y-74561496D01*
G37*
G36*
X159427294Y-74561496D02*
X159547726Y-74598029D01*
X159590087Y-74610879D01*
X159740112Y-74691068D01*
X159871612Y-74798988D01*
X159979532Y-74930488D01*
X160059721Y-75080512D01*
X160072571Y-75122873D01*
X160109104Y-75243305D01*
X160109104Y-75243307D01*
X160121600Y-75370179D01*
X160121600Y-75759820D01*
X160121076Y-75765136D01*
X160109104Y-75886694D01*
X160072571Y-76007128D01*
X160059721Y-76049488D01*
X159979532Y-76199512D01*
X159871612Y-76331012D01*
X159740112Y-76438932D01*
X159590088Y-76519121D01*
X159562433Y-76527510D01*
X159427295Y-76568504D01*
X159314432Y-76579620D01*
X159258001Y-76585178D01*
X159258000Y-76585178D01*
X159088706Y-76568504D01*
X158953568Y-76527510D01*
X158925913Y-76519121D01*
X158775889Y-76438932D01*
X158685946Y-76365117D01*
X158644388Y-76331012D01*
X158536469Y-76199512D01*
X158514127Y-76157713D01*
X158456279Y-76049488D01*
X158443429Y-76007127D01*
X158406896Y-75886695D01*
X158398565Y-75802112D01*
X158394400Y-75759821D01*
X158394400Y-75370180D01*
X158406896Y-75243308D01*
X158406896Y-75243306D01*
X158456278Y-75080517D01*
X158456279Y-75080513D01*
X158536468Y-74930488D01*
X158644388Y-74798988D01*
X158775888Y-74691068D01*
X158925912Y-74610879D01*
X158968273Y-74598029D01*
X159088705Y-74561496D01*
X159201568Y-74550380D01*
X159257999Y-74544822D01*
X159258000Y-74544822D01*
X159427294Y-74561496D01*
X159427294Y-74561496D01*
G37*
G36*
X169587294Y-74561496D02*
X169707726Y-74598029D01*
X169750087Y-74610879D01*
X169900112Y-74691068D01*
X170031612Y-74798988D01*
X170139532Y-74930488D01*
X170219721Y-75080512D01*
X170232571Y-75122873D01*
X170269104Y-75243305D01*
X170269104Y-75243307D01*
X170281600Y-75370179D01*
X170281600Y-75759820D01*
X170281076Y-75765136D01*
X170269104Y-75886694D01*
X170232571Y-76007128D01*
X170219721Y-76049488D01*
X170139532Y-76199512D01*
X170031612Y-76331012D01*
X169900112Y-76438932D01*
X169750088Y-76519121D01*
X169722433Y-76527510D01*
X169587295Y-76568504D01*
X169474432Y-76579620D01*
X169418001Y-76585178D01*
X169418000Y-76585178D01*
X169248706Y-76568504D01*
X169113568Y-76527510D01*
X169085913Y-76519121D01*
X168935889Y-76438932D01*
X168845946Y-76365117D01*
X168804388Y-76331012D01*
X168696469Y-76199512D01*
X168674127Y-76157713D01*
X168616279Y-76049488D01*
X168603429Y-76007127D01*
X168566896Y-75886695D01*
X168558565Y-75802112D01*
X168554400Y-75759821D01*
X168554400Y-75370180D01*
X168566896Y-75243308D01*
X168566896Y-75243306D01*
X168616278Y-75080517D01*
X168616279Y-75080513D01*
X168696468Y-74930488D01*
X168804388Y-74798988D01*
X168935888Y-74691068D01*
X169085912Y-74610879D01*
X169128273Y-74598029D01*
X169248705Y-74561496D01*
X169361568Y-74550380D01*
X169417999Y-74544822D01*
X169418000Y-74544822D01*
X169587294Y-74561496D01*
X169587294Y-74561496D01*
G37*
G36*
X167047294Y-74561496D02*
X167167726Y-74598029D01*
X167210087Y-74610879D01*
X167360112Y-74691068D01*
X167491612Y-74798988D01*
X167599532Y-74930488D01*
X167679721Y-75080512D01*
X167692571Y-75122873D01*
X167729104Y-75243305D01*
X167729104Y-75243307D01*
X167741600Y-75370179D01*
X167741600Y-75759820D01*
X167741076Y-75765136D01*
X167729104Y-75886694D01*
X167692571Y-76007128D01*
X167679721Y-76049488D01*
X167599532Y-76199512D01*
X167491612Y-76331012D01*
X167360112Y-76438932D01*
X167210088Y-76519121D01*
X167182433Y-76527510D01*
X167047295Y-76568504D01*
X166934432Y-76579620D01*
X166878001Y-76585178D01*
X166878000Y-76585178D01*
X166708706Y-76568504D01*
X166573568Y-76527510D01*
X166545913Y-76519121D01*
X166395889Y-76438932D01*
X166305946Y-76365117D01*
X166264388Y-76331012D01*
X166156469Y-76199512D01*
X166134127Y-76157713D01*
X166076279Y-76049488D01*
X166063429Y-76007127D01*
X166026896Y-75886695D01*
X166018565Y-75802112D01*
X166014400Y-75759821D01*
X166014400Y-75370180D01*
X166026896Y-75243308D01*
X166026896Y-75243306D01*
X166076278Y-75080517D01*
X166076279Y-75080513D01*
X166156468Y-74930488D01*
X166264388Y-74798988D01*
X166395888Y-74691068D01*
X166545912Y-74610879D01*
X166588273Y-74598029D01*
X166708705Y-74561496D01*
X166821568Y-74550380D01*
X166877999Y-74544822D01*
X166878000Y-74544822D01*
X167047294Y-74561496D01*
X167047294Y-74561496D01*
G37*
G36*
X161967294Y-74561496D02*
X162087726Y-74598029D01*
X162130087Y-74610879D01*
X162280112Y-74691068D01*
X162411612Y-74798988D01*
X162519532Y-74930488D01*
X162599721Y-75080512D01*
X162612571Y-75122873D01*
X162649104Y-75243305D01*
X162649104Y-75243307D01*
X162661600Y-75370179D01*
X162661600Y-75759820D01*
X162661076Y-75765136D01*
X162649104Y-75886694D01*
X162612571Y-76007128D01*
X162599721Y-76049488D01*
X162519532Y-76199512D01*
X162411612Y-76331012D01*
X162280112Y-76438932D01*
X162130088Y-76519121D01*
X162102433Y-76527510D01*
X161967295Y-76568504D01*
X161854432Y-76579620D01*
X161798001Y-76585178D01*
X161798000Y-76585178D01*
X161628706Y-76568504D01*
X161493568Y-76527510D01*
X161465913Y-76519121D01*
X161315889Y-76438932D01*
X161225946Y-76365117D01*
X161184388Y-76331012D01*
X161076469Y-76199512D01*
X161054127Y-76157713D01*
X160996279Y-76049488D01*
X160983429Y-76007127D01*
X160946896Y-75886695D01*
X160938565Y-75802112D01*
X160934400Y-75759821D01*
X160934400Y-75370180D01*
X160946896Y-75243308D01*
X160946896Y-75243306D01*
X160996278Y-75080517D01*
X160996279Y-75080513D01*
X161076468Y-74930488D01*
X161184388Y-74798988D01*
X161315888Y-74691068D01*
X161465912Y-74610879D01*
X161508273Y-74598029D01*
X161628705Y-74561496D01*
X161741568Y-74550380D01*
X161797999Y-74544822D01*
X161798000Y-74544822D01*
X161967294Y-74561496D01*
X161967294Y-74561496D01*
G37*
G36*
X164507294Y-74561496D02*
X164627726Y-74598029D01*
X164670087Y-74610879D01*
X164820112Y-74691068D01*
X164951612Y-74798988D01*
X165059532Y-74930488D01*
X165139721Y-75080512D01*
X165152571Y-75122873D01*
X165189104Y-75243305D01*
X165189104Y-75243307D01*
X165201600Y-75370179D01*
X165201600Y-75759820D01*
X165201076Y-75765136D01*
X165189104Y-75886694D01*
X165152571Y-76007128D01*
X165139721Y-76049488D01*
X165059532Y-76199512D01*
X164951612Y-76331012D01*
X164820112Y-76438932D01*
X164670088Y-76519121D01*
X164642433Y-76527510D01*
X164507295Y-76568504D01*
X164394432Y-76579620D01*
X164338001Y-76585178D01*
X164338000Y-76585178D01*
X164168706Y-76568504D01*
X164033568Y-76527510D01*
X164005913Y-76519121D01*
X163855889Y-76438932D01*
X163765946Y-76365117D01*
X163724388Y-76331012D01*
X163616469Y-76199512D01*
X163594127Y-76157713D01*
X163536279Y-76049488D01*
X163523429Y-76007127D01*
X163486896Y-75886695D01*
X163478565Y-75802112D01*
X163474400Y-75759821D01*
X163474400Y-75370180D01*
X163486896Y-75243308D01*
X163486896Y-75243306D01*
X163536278Y-75080517D01*
X163536279Y-75080513D01*
X163616468Y-74930488D01*
X163724388Y-74798988D01*
X163855888Y-74691068D01*
X164005912Y-74610879D01*
X164048273Y-74598029D01*
X164168705Y-74561496D01*
X164281568Y-74550380D01*
X164337999Y-74544822D01*
X164338000Y-74544822D01*
X164507294Y-74561496D01*
X164507294Y-74561496D01*
G37*
G36*
X172127294Y-74561496D02*
X172247726Y-74598029D01*
X172290087Y-74610879D01*
X172440112Y-74691068D01*
X172571612Y-74798988D01*
X172679532Y-74930488D01*
X172759721Y-75080512D01*
X172772571Y-75122873D01*
X172809104Y-75243305D01*
X172809104Y-75243307D01*
X172821600Y-75370179D01*
X172821600Y-75759820D01*
X172821076Y-75765136D01*
X172809104Y-75886694D01*
X172772571Y-76007128D01*
X172759721Y-76049488D01*
X172679532Y-76199512D01*
X172571612Y-76331012D01*
X172440112Y-76438932D01*
X172290088Y-76519121D01*
X172262433Y-76527510D01*
X172127295Y-76568504D01*
X172014432Y-76579620D01*
X171958001Y-76585178D01*
X171958000Y-76585178D01*
X171788706Y-76568504D01*
X171653568Y-76527510D01*
X171625913Y-76519121D01*
X171475889Y-76438932D01*
X171385946Y-76365117D01*
X171344388Y-76331012D01*
X171236469Y-76199512D01*
X171214127Y-76157713D01*
X171156279Y-76049488D01*
X171143429Y-76007127D01*
X171106896Y-75886695D01*
X171098565Y-75802112D01*
X171094400Y-75759821D01*
X171094400Y-75370180D01*
X171106896Y-75243308D01*
X171106896Y-75243306D01*
X171156278Y-75080517D01*
X171156279Y-75080513D01*
X171236468Y-74930488D01*
X171344388Y-74798988D01*
X171475888Y-74691068D01*
X171625912Y-74610879D01*
X171668273Y-74598029D01*
X171788705Y-74561496D01*
X171901568Y-74550380D01*
X171957999Y-74544822D01*
X171958000Y-74544822D01*
X172127294Y-74561496D01*
X172127294Y-74561496D01*
G37*
M02*
