M48
;DRILL file {KiCad 5.0.2+dfsg1-1} date Sun 09 Jun 2019 03:00:19 PM KST
;FORMAT={-:-/ absolute / inch / decimal}
FMAT,2
INCH,TZ
T1C0.0157
T2C0.0394
T3C0.0400
T4C0.0472
T5C0.0591
T6C0.1200
%
G90
G05
T1
X4.8621Y-2.9081
X4.8621Y-3.0065
X4.8621Y-3.1049
X4.8621Y-3.2033
X4.8621Y-3.3018
X4.8621Y-3.4986
X4.8621Y-3.597
X4.8621Y-3.6955
X4.8621Y-3.7939
X4.8621Y-3.8923
X4.8621Y-3.9907
X4.8621Y-4.0892
X4.8621Y-4.1876
X4.8621Y-4.286
X4.8621Y-4.3844
X4.8621Y-4.4829
X4.8621Y-4.5813
X4.8621Y-4.6797
X4.8621Y-4.7781
X4.9606Y-3.1049
X4.9606Y-3.2033
X4.9606Y-3.9809
X4.9606Y-4.1285
X4.9606Y-4.2565
X4.9606Y-4.4041
X4.9606Y-4.5222
X4.9606Y-4.6797
X4.9606Y-4.7781
X5.059Y-3.1049
X5.059Y-3.2033
X5.059Y-3.3018
X5.059Y-3.4002
X5.059Y-3.4986
X5.059Y-3.597
X5.059Y-3.6955
X5.059Y-4.6797
X5.059Y-4.7781
X5.059Y-4.8766
X5.1574Y-3.1049
X5.1574Y-3.2033
X5.1574Y-4.0104
X5.1574Y-4.1876
X5.1574Y-4.4041
X5.1574Y-4.5222
X5.1574Y-4.6797
X5.1574Y-4.7781
X5.1574Y-4.8766
X5.2558Y-3.1049
X5.2558Y-3.2033
X5.2558Y-3.3018
X5.2558Y-3.4002
X5.2558Y-3.4986
X5.2558Y-3.597
X5.2558Y-3.6955
X5.2558Y-3.7939
X5.2558Y-3.8923
X5.2558Y-4.0892
X5.2558Y-4.1876
X5.2558Y-4.4041
X5.2558Y-4.5222
X5.2558Y-4.6797
X5.2558Y-4.7781
X5.2558Y-4.8766
X5.3543Y-3.1049
X5.3543Y-3.2033
X5.3543Y-3.3018
X5.3543Y-3.4002
X5.3543Y-3.4986
X5.3543Y-3.597
X5.3543Y-3.6955
X5.3543Y-3.7939
X5.3543Y-3.9907
X5.3543Y-4.0892
X5.3543Y-4.1876
X5.3543Y-4.3648
X5.3543Y-4.5222
X5.3543Y-4.6797
X5.3543Y-4.7781
X5.3543Y-4.8766
X5.4527Y-3.1049
X5.4527Y-3.2033
X5.4527Y-3.3018
X5.4527Y-3.4002
X5.4527Y-3.4986
X5.4527Y-4.5222
X5.4527Y-4.6797
X5.4527Y-4.7781
X5.5511Y-3.4986
X5.5511Y-4.1876
X5.5511Y-4.6797
X5.5511Y-4.7781
X5.6495Y-3.4986
X5.6495Y-4.0892
X5.6495Y-4.1876
X5.6495Y-4.7781
X5.748Y-3.1049
X5.748Y-3.2033
X5.748Y-3.9907
X5.748Y-4.0892
X5.748Y-4.1876
X5.748Y-4.7781
X5.8464Y-3.2033
X5.8464Y-3.9907
X5.8464Y-4.0892
X5.8464Y-4.1876
X5.8464Y-4.3844
X5.8464Y-4.4829
X5.8464Y-4.6207
X5.9448Y-3.7939
X5.9448Y-3.8923
X5.9448Y-3.9907
X5.9448Y-4.0892
X5.9448Y-4.1876
X5.9448Y-4.3844
X5.9448Y-4.4829
X5.9448Y-4.6207
X6.0432Y-3.1049
X6.0432Y-3.7939
X6.0432Y-3.8923
X6.0432Y-3.9907
X6.0432Y-4.0892
X6.0432Y-4.1876
X6.0432Y-4.3844
X6.0432Y-4.4829
X6.0432Y-4.6207
X6.1417Y-3.597
X6.1417Y-3.9907
X6.1417Y-4.0892
X6.1417Y-4.1876
X6.1417Y-4.6797
X6.2401Y-3.1049
X6.2401Y-3.4002
X6.2401Y-3.6955
X6.2401Y-3.8923
X6.2401Y-3.9907
X6.2401Y-4.0892
X6.2401Y-4.1876
X6.2401Y-4.286
X6.2401Y-4.6797
X6.3385Y-3.1049
X6.3385Y-3.2722
X6.3385Y-3.3904
X6.3385Y-3.4986
X6.3385Y-3.9907
X6.3385Y-4.0892
X6.3385Y-4.1876
X6.3385Y-4.286
X6.3385Y-4.6797
X6.4271Y-3.1049
X6.4369Y-3.597
X6.4369Y-3.7939
X6.4369Y-3.8923
X6.4369Y-3.9907
X6.4369Y-4.0892
X6.4369Y-4.1876
X6.4369Y-4.286
X6.4369Y-4.3844
X6.4369Y-4.4829
X6.4369Y-4.6797
X6.5354Y-3.1049
X6.5354Y-3.4002
X6.5354Y-3.4986
X6.5354Y-4.0892
X6.5354Y-4.1876
X6.5354Y-4.4829
X6.5743Y-3.6132
X6.5747Y-4.2474
X6.6338Y-3.1049
X6.6338Y-4.0892
X6.6338Y-4.1876
X6.6338Y-4.4829
X6.7322Y-3.4002
X6.7322Y-3.4986
X6.7322Y-4.1876
X6.7322Y-4.4829
X6.8306Y-3.1049
X6.8306Y-3.7939
X6.8306Y-3.8923
X6.8306Y-4.3844
X6.8306Y-4.4829
X6.8306Y-4.7781
X6.9291Y-3.1049
X6.9291Y-3.4002
X6.9291Y-3.4986
X6.9291Y-3.597
X6.9291Y-3.6955
X6.9291Y-3.7939
X6.9291Y-3.8923
X6.9291Y-3.9907
X6.9291Y-4.0892
X6.9291Y-4.5813
X6.9291Y-4.6797
X6.9291Y-4.7781
T2
X5.0157Y-4.1856
X5.0157Y-4.3234
X5.5873Y-3.7742
X5.5873Y-3.8742
X5.6873Y-3.7742
X5.6873Y-3.8742
X5.7873Y-3.7742
X5.7873Y-3.8742
X5.5873Y-4.4041
X5.5873Y-4.5041
X5.6873Y-4.4041
X5.6873Y-4.5041
X5.7873Y-4.4041
X5.7873Y-4.5041
X5.0157Y-3.91
X5.0157Y-4.0478
X5.5294Y-3.3203
X5.6294Y-3.3203
X5.0157Y-4.4612
X5.0157Y-4.599
T3
X6.37Y-4.875
X6.47Y-4.875
X6.57Y-4.875
X6.67Y-4.875
X6.77Y-4.875
X6.87Y-4.875
X6.3414Y-4.3592
X6.3414Y-4.4592
X6.3414Y-4.5592
X6.3414Y-3.7293
X6.3414Y-3.8293
X6.3414Y-3.9293
X5.11Y-2.975
X5.21Y-2.975
X5.31Y-2.975
X5.41Y-2.975
X5.51Y-2.975
X5.61Y-2.975
X5.71Y-2.975
X5.81Y-2.975
X5.91Y-2.975
X6.01Y-2.975
X5.47Y-4.875
X5.57Y-4.875
X5.67Y-4.875
X5.77Y-4.875
X5.87Y-4.875
X5.97Y-4.875
X6.07Y-4.875
X6.17Y-4.875
X6.17Y-2.975
X6.27Y-2.975
X6.37Y-2.975
X6.47Y-2.975
X6.57Y-2.975
X6.67Y-2.975
X6.77Y-2.975
X6.87Y-2.975
T4
X4.9294Y-3.3203
X5.1294Y-3.3203
T5
X6.1298Y-4.4632
X6.1298Y-3.8333
T6
X4.97Y-2.975
X4.92Y-4.875
T0
M30
