G04 #@! TF.GenerationSoftware,KiCad,Pcbnew,5.0.2+dfsg1-1*
G04 #@! TF.CreationDate,2019-08-13T09:37:24+09:00*
G04 #@! TF.ProjectId,portal_shield_for_arduino,706f7274-616c-45f7-9368-69656c645f66,rev?*
G04 #@! TF.SameCoordinates,Original*
G04 #@! TF.FileFunction,Paste,Top*
G04 #@! TF.FilePolarity,Positive*
%FSLAX46Y46*%
G04 Gerber Fmt 4.6, Leading zero omitted, Abs format (unit mm)*
G04 Created by KiCad (PCBNEW 5.0.2+dfsg1-1) date Tue 13 Aug 2019 09:37:24 AM KST*
%MOMM*%
%LPD*%
G01*
G04 APERTURE LIST*
%ADD10R,1.780000X2.000000*%
%ADD11C,0.100000*%
%ADD12C,0.975000*%
%ADD13R,0.800000X0.900000*%
%ADD14R,0.900000X1.200000*%
G04 APERTURE END LIST*
D10*
G04 #@! TO.C,U3*
X164770000Y-108600000D03*
X162230000Y-118130000D03*
X162230000Y-108600000D03*
X164770000Y-118130000D03*
G04 #@! TD*
G04 #@! TO.C,U2*
X164770000Y-92600000D03*
X162230000Y-102130000D03*
X162230000Y-92600000D03*
X164770000Y-102130000D03*
G04 #@! TD*
D11*
G04 #@! TO.C,R3*
G36*
X167780142Y-97876174D02*
X167803803Y-97879684D01*
X167827007Y-97885496D01*
X167849529Y-97893554D01*
X167871153Y-97903782D01*
X167891670Y-97916079D01*
X167910883Y-97930329D01*
X167928607Y-97946393D01*
X167944671Y-97964117D01*
X167958921Y-97983330D01*
X167971218Y-98003847D01*
X167981446Y-98025471D01*
X167989504Y-98047993D01*
X167995316Y-98071197D01*
X167998826Y-98094858D01*
X168000000Y-98118750D01*
X168000000Y-98606250D01*
X167998826Y-98630142D01*
X167995316Y-98653803D01*
X167989504Y-98677007D01*
X167981446Y-98699529D01*
X167971218Y-98721153D01*
X167958921Y-98741670D01*
X167944671Y-98760883D01*
X167928607Y-98778607D01*
X167910883Y-98794671D01*
X167891670Y-98808921D01*
X167871153Y-98821218D01*
X167849529Y-98831446D01*
X167827007Y-98839504D01*
X167803803Y-98845316D01*
X167780142Y-98848826D01*
X167756250Y-98850000D01*
X166843750Y-98850000D01*
X166819858Y-98848826D01*
X166796197Y-98845316D01*
X166772993Y-98839504D01*
X166750471Y-98831446D01*
X166728847Y-98821218D01*
X166708330Y-98808921D01*
X166689117Y-98794671D01*
X166671393Y-98778607D01*
X166655329Y-98760883D01*
X166641079Y-98741670D01*
X166628782Y-98721153D01*
X166618554Y-98699529D01*
X166610496Y-98677007D01*
X166604684Y-98653803D01*
X166601174Y-98630142D01*
X166600000Y-98606250D01*
X166600000Y-98118750D01*
X166601174Y-98094858D01*
X166604684Y-98071197D01*
X166610496Y-98047993D01*
X166618554Y-98025471D01*
X166628782Y-98003847D01*
X166641079Y-97983330D01*
X166655329Y-97964117D01*
X166671393Y-97946393D01*
X166689117Y-97930329D01*
X166708330Y-97916079D01*
X166728847Y-97903782D01*
X166750471Y-97893554D01*
X166772993Y-97885496D01*
X166796197Y-97879684D01*
X166819858Y-97876174D01*
X166843750Y-97875000D01*
X167756250Y-97875000D01*
X167780142Y-97876174D01*
X167780142Y-97876174D01*
G37*
D12*
X167300000Y-98362500D03*
D11*
G36*
X167780142Y-99751174D02*
X167803803Y-99754684D01*
X167827007Y-99760496D01*
X167849529Y-99768554D01*
X167871153Y-99778782D01*
X167891670Y-99791079D01*
X167910883Y-99805329D01*
X167928607Y-99821393D01*
X167944671Y-99839117D01*
X167958921Y-99858330D01*
X167971218Y-99878847D01*
X167981446Y-99900471D01*
X167989504Y-99922993D01*
X167995316Y-99946197D01*
X167998826Y-99969858D01*
X168000000Y-99993750D01*
X168000000Y-100481250D01*
X167998826Y-100505142D01*
X167995316Y-100528803D01*
X167989504Y-100552007D01*
X167981446Y-100574529D01*
X167971218Y-100596153D01*
X167958921Y-100616670D01*
X167944671Y-100635883D01*
X167928607Y-100653607D01*
X167910883Y-100669671D01*
X167891670Y-100683921D01*
X167871153Y-100696218D01*
X167849529Y-100706446D01*
X167827007Y-100714504D01*
X167803803Y-100720316D01*
X167780142Y-100723826D01*
X167756250Y-100725000D01*
X166843750Y-100725000D01*
X166819858Y-100723826D01*
X166796197Y-100720316D01*
X166772993Y-100714504D01*
X166750471Y-100706446D01*
X166728847Y-100696218D01*
X166708330Y-100683921D01*
X166689117Y-100669671D01*
X166671393Y-100653607D01*
X166655329Y-100635883D01*
X166641079Y-100616670D01*
X166628782Y-100596153D01*
X166618554Y-100574529D01*
X166610496Y-100552007D01*
X166604684Y-100528803D01*
X166601174Y-100505142D01*
X166600000Y-100481250D01*
X166600000Y-99993750D01*
X166601174Y-99969858D01*
X166604684Y-99946197D01*
X166610496Y-99922993D01*
X166618554Y-99900471D01*
X166628782Y-99878847D01*
X166641079Y-99858330D01*
X166655329Y-99839117D01*
X166671393Y-99821393D01*
X166689117Y-99805329D01*
X166708330Y-99791079D01*
X166728847Y-99778782D01*
X166750471Y-99768554D01*
X166772993Y-99760496D01*
X166796197Y-99754684D01*
X166819858Y-99751174D01*
X166843750Y-99750000D01*
X167756250Y-99750000D01*
X167780142Y-99751174D01*
X167780142Y-99751174D01*
G37*
D12*
X167300000Y-100237500D03*
G04 #@! TD*
D11*
G04 #@! TO.C,R9*
G36*
X155830142Y-83416495D02*
X155853803Y-83420005D01*
X155877007Y-83425817D01*
X155899529Y-83433875D01*
X155921153Y-83444103D01*
X155941670Y-83456400D01*
X155960883Y-83470650D01*
X155978607Y-83486714D01*
X155994671Y-83504438D01*
X156008921Y-83523651D01*
X156021218Y-83544168D01*
X156031446Y-83565792D01*
X156039504Y-83588314D01*
X156045316Y-83611518D01*
X156048826Y-83635179D01*
X156050000Y-83659071D01*
X156050000Y-84571571D01*
X156048826Y-84595463D01*
X156045316Y-84619124D01*
X156039504Y-84642328D01*
X156031446Y-84664850D01*
X156021218Y-84686474D01*
X156008921Y-84706991D01*
X155994671Y-84726204D01*
X155978607Y-84743928D01*
X155960883Y-84759992D01*
X155941670Y-84774242D01*
X155921153Y-84786539D01*
X155899529Y-84796767D01*
X155877007Y-84804825D01*
X155853803Y-84810637D01*
X155830142Y-84814147D01*
X155806250Y-84815321D01*
X155318750Y-84815321D01*
X155294858Y-84814147D01*
X155271197Y-84810637D01*
X155247993Y-84804825D01*
X155225471Y-84796767D01*
X155203847Y-84786539D01*
X155183330Y-84774242D01*
X155164117Y-84759992D01*
X155146393Y-84743928D01*
X155130329Y-84726204D01*
X155116079Y-84706991D01*
X155103782Y-84686474D01*
X155093554Y-84664850D01*
X155085496Y-84642328D01*
X155079684Y-84619124D01*
X155076174Y-84595463D01*
X155075000Y-84571571D01*
X155075000Y-83659071D01*
X155076174Y-83635179D01*
X155079684Y-83611518D01*
X155085496Y-83588314D01*
X155093554Y-83565792D01*
X155103782Y-83544168D01*
X155116079Y-83523651D01*
X155130329Y-83504438D01*
X155146393Y-83486714D01*
X155164117Y-83470650D01*
X155183330Y-83456400D01*
X155203847Y-83444103D01*
X155225471Y-83433875D01*
X155247993Y-83425817D01*
X155271197Y-83420005D01*
X155294858Y-83416495D01*
X155318750Y-83415321D01*
X155806250Y-83415321D01*
X155830142Y-83416495D01*
X155830142Y-83416495D01*
G37*
D12*
X155562500Y-84115321D03*
D11*
G36*
X157705142Y-83416495D02*
X157728803Y-83420005D01*
X157752007Y-83425817D01*
X157774529Y-83433875D01*
X157796153Y-83444103D01*
X157816670Y-83456400D01*
X157835883Y-83470650D01*
X157853607Y-83486714D01*
X157869671Y-83504438D01*
X157883921Y-83523651D01*
X157896218Y-83544168D01*
X157906446Y-83565792D01*
X157914504Y-83588314D01*
X157920316Y-83611518D01*
X157923826Y-83635179D01*
X157925000Y-83659071D01*
X157925000Y-84571571D01*
X157923826Y-84595463D01*
X157920316Y-84619124D01*
X157914504Y-84642328D01*
X157906446Y-84664850D01*
X157896218Y-84686474D01*
X157883921Y-84706991D01*
X157869671Y-84726204D01*
X157853607Y-84743928D01*
X157835883Y-84759992D01*
X157816670Y-84774242D01*
X157796153Y-84786539D01*
X157774529Y-84796767D01*
X157752007Y-84804825D01*
X157728803Y-84810637D01*
X157705142Y-84814147D01*
X157681250Y-84815321D01*
X157193750Y-84815321D01*
X157169858Y-84814147D01*
X157146197Y-84810637D01*
X157122993Y-84804825D01*
X157100471Y-84796767D01*
X157078847Y-84786539D01*
X157058330Y-84774242D01*
X157039117Y-84759992D01*
X157021393Y-84743928D01*
X157005329Y-84726204D01*
X156991079Y-84706991D01*
X156978782Y-84686474D01*
X156968554Y-84664850D01*
X156960496Y-84642328D01*
X156954684Y-84619124D01*
X156951174Y-84595463D01*
X156950000Y-84571571D01*
X156950000Y-83659071D01*
X156951174Y-83635179D01*
X156954684Y-83611518D01*
X156960496Y-83588314D01*
X156968554Y-83565792D01*
X156978782Y-83544168D01*
X156991079Y-83523651D01*
X157005329Y-83504438D01*
X157021393Y-83486714D01*
X157039117Y-83470650D01*
X157058330Y-83456400D01*
X157078847Y-83444103D01*
X157100471Y-83433875D01*
X157122993Y-83425817D01*
X157146197Y-83420005D01*
X157169858Y-83416495D01*
X157193750Y-83415321D01*
X157681250Y-83415321D01*
X157705142Y-83416495D01*
X157705142Y-83416495D01*
G37*
D12*
X157437500Y-84115321D03*
G04 #@! TD*
D11*
G04 #@! TO.C,R10*
G36*
X167830142Y-83416495D02*
X167853803Y-83420005D01*
X167877007Y-83425817D01*
X167899529Y-83433875D01*
X167921153Y-83444103D01*
X167941670Y-83456400D01*
X167960883Y-83470650D01*
X167978607Y-83486714D01*
X167994671Y-83504438D01*
X168008921Y-83523651D01*
X168021218Y-83544168D01*
X168031446Y-83565792D01*
X168039504Y-83588314D01*
X168045316Y-83611518D01*
X168048826Y-83635179D01*
X168050000Y-83659071D01*
X168050000Y-84571571D01*
X168048826Y-84595463D01*
X168045316Y-84619124D01*
X168039504Y-84642328D01*
X168031446Y-84664850D01*
X168021218Y-84686474D01*
X168008921Y-84706991D01*
X167994671Y-84726204D01*
X167978607Y-84743928D01*
X167960883Y-84759992D01*
X167941670Y-84774242D01*
X167921153Y-84786539D01*
X167899529Y-84796767D01*
X167877007Y-84804825D01*
X167853803Y-84810637D01*
X167830142Y-84814147D01*
X167806250Y-84815321D01*
X167318750Y-84815321D01*
X167294858Y-84814147D01*
X167271197Y-84810637D01*
X167247993Y-84804825D01*
X167225471Y-84796767D01*
X167203847Y-84786539D01*
X167183330Y-84774242D01*
X167164117Y-84759992D01*
X167146393Y-84743928D01*
X167130329Y-84726204D01*
X167116079Y-84706991D01*
X167103782Y-84686474D01*
X167093554Y-84664850D01*
X167085496Y-84642328D01*
X167079684Y-84619124D01*
X167076174Y-84595463D01*
X167075000Y-84571571D01*
X167075000Y-83659071D01*
X167076174Y-83635179D01*
X167079684Y-83611518D01*
X167085496Y-83588314D01*
X167093554Y-83565792D01*
X167103782Y-83544168D01*
X167116079Y-83523651D01*
X167130329Y-83504438D01*
X167146393Y-83486714D01*
X167164117Y-83470650D01*
X167183330Y-83456400D01*
X167203847Y-83444103D01*
X167225471Y-83433875D01*
X167247993Y-83425817D01*
X167271197Y-83420005D01*
X167294858Y-83416495D01*
X167318750Y-83415321D01*
X167806250Y-83415321D01*
X167830142Y-83416495D01*
X167830142Y-83416495D01*
G37*
D12*
X167562500Y-84115321D03*
D11*
G36*
X169705142Y-83416495D02*
X169728803Y-83420005D01*
X169752007Y-83425817D01*
X169774529Y-83433875D01*
X169796153Y-83444103D01*
X169816670Y-83456400D01*
X169835883Y-83470650D01*
X169853607Y-83486714D01*
X169869671Y-83504438D01*
X169883921Y-83523651D01*
X169896218Y-83544168D01*
X169906446Y-83565792D01*
X169914504Y-83588314D01*
X169920316Y-83611518D01*
X169923826Y-83635179D01*
X169925000Y-83659071D01*
X169925000Y-84571571D01*
X169923826Y-84595463D01*
X169920316Y-84619124D01*
X169914504Y-84642328D01*
X169906446Y-84664850D01*
X169896218Y-84686474D01*
X169883921Y-84706991D01*
X169869671Y-84726204D01*
X169853607Y-84743928D01*
X169835883Y-84759992D01*
X169816670Y-84774242D01*
X169796153Y-84786539D01*
X169774529Y-84796767D01*
X169752007Y-84804825D01*
X169728803Y-84810637D01*
X169705142Y-84814147D01*
X169681250Y-84815321D01*
X169193750Y-84815321D01*
X169169858Y-84814147D01*
X169146197Y-84810637D01*
X169122993Y-84804825D01*
X169100471Y-84796767D01*
X169078847Y-84786539D01*
X169058330Y-84774242D01*
X169039117Y-84759992D01*
X169021393Y-84743928D01*
X169005329Y-84726204D01*
X168991079Y-84706991D01*
X168978782Y-84686474D01*
X168968554Y-84664850D01*
X168960496Y-84642328D01*
X168954684Y-84619124D01*
X168951174Y-84595463D01*
X168950000Y-84571571D01*
X168950000Y-83659071D01*
X168951174Y-83635179D01*
X168954684Y-83611518D01*
X168960496Y-83588314D01*
X168968554Y-83565792D01*
X168978782Y-83544168D01*
X168991079Y-83523651D01*
X169005329Y-83504438D01*
X169021393Y-83486714D01*
X169039117Y-83470650D01*
X169058330Y-83456400D01*
X169078847Y-83444103D01*
X169100471Y-83433875D01*
X169122993Y-83425817D01*
X169146197Y-83420005D01*
X169169858Y-83416495D01*
X169193750Y-83415321D01*
X169681250Y-83415321D01*
X169705142Y-83416495D01*
X169705142Y-83416495D01*
G37*
D12*
X169437500Y-84115321D03*
G04 #@! TD*
D11*
G04 #@! TO.C,+5V*
G36*
X167830142Y-87166174D02*
X167853803Y-87169684D01*
X167877007Y-87175496D01*
X167899529Y-87183554D01*
X167921153Y-87193782D01*
X167941670Y-87206079D01*
X167960883Y-87220329D01*
X167978607Y-87236393D01*
X167994671Y-87254117D01*
X168008921Y-87273330D01*
X168021218Y-87293847D01*
X168031446Y-87315471D01*
X168039504Y-87337993D01*
X168045316Y-87361197D01*
X168048826Y-87384858D01*
X168050000Y-87408750D01*
X168050000Y-88321250D01*
X168048826Y-88345142D01*
X168045316Y-88368803D01*
X168039504Y-88392007D01*
X168031446Y-88414529D01*
X168021218Y-88436153D01*
X168008921Y-88456670D01*
X167994671Y-88475883D01*
X167978607Y-88493607D01*
X167960883Y-88509671D01*
X167941670Y-88523921D01*
X167921153Y-88536218D01*
X167899529Y-88546446D01*
X167877007Y-88554504D01*
X167853803Y-88560316D01*
X167830142Y-88563826D01*
X167806250Y-88565000D01*
X167318750Y-88565000D01*
X167294858Y-88563826D01*
X167271197Y-88560316D01*
X167247993Y-88554504D01*
X167225471Y-88546446D01*
X167203847Y-88536218D01*
X167183330Y-88523921D01*
X167164117Y-88509671D01*
X167146393Y-88493607D01*
X167130329Y-88475883D01*
X167116079Y-88456670D01*
X167103782Y-88436153D01*
X167093554Y-88414529D01*
X167085496Y-88392007D01*
X167079684Y-88368803D01*
X167076174Y-88345142D01*
X167075000Y-88321250D01*
X167075000Y-87408750D01*
X167076174Y-87384858D01*
X167079684Y-87361197D01*
X167085496Y-87337993D01*
X167093554Y-87315471D01*
X167103782Y-87293847D01*
X167116079Y-87273330D01*
X167130329Y-87254117D01*
X167146393Y-87236393D01*
X167164117Y-87220329D01*
X167183330Y-87206079D01*
X167203847Y-87193782D01*
X167225471Y-87183554D01*
X167247993Y-87175496D01*
X167271197Y-87169684D01*
X167294858Y-87166174D01*
X167318750Y-87165000D01*
X167806250Y-87165000D01*
X167830142Y-87166174D01*
X167830142Y-87166174D01*
G37*
D12*
X167562500Y-87865000D03*
D11*
G36*
X169705142Y-87166174D02*
X169728803Y-87169684D01*
X169752007Y-87175496D01*
X169774529Y-87183554D01*
X169796153Y-87193782D01*
X169816670Y-87206079D01*
X169835883Y-87220329D01*
X169853607Y-87236393D01*
X169869671Y-87254117D01*
X169883921Y-87273330D01*
X169896218Y-87293847D01*
X169906446Y-87315471D01*
X169914504Y-87337993D01*
X169920316Y-87361197D01*
X169923826Y-87384858D01*
X169925000Y-87408750D01*
X169925000Y-88321250D01*
X169923826Y-88345142D01*
X169920316Y-88368803D01*
X169914504Y-88392007D01*
X169906446Y-88414529D01*
X169896218Y-88436153D01*
X169883921Y-88456670D01*
X169869671Y-88475883D01*
X169853607Y-88493607D01*
X169835883Y-88509671D01*
X169816670Y-88523921D01*
X169796153Y-88536218D01*
X169774529Y-88546446D01*
X169752007Y-88554504D01*
X169728803Y-88560316D01*
X169705142Y-88563826D01*
X169681250Y-88565000D01*
X169193750Y-88565000D01*
X169169858Y-88563826D01*
X169146197Y-88560316D01*
X169122993Y-88554504D01*
X169100471Y-88546446D01*
X169078847Y-88536218D01*
X169058330Y-88523921D01*
X169039117Y-88509671D01*
X169021393Y-88493607D01*
X169005329Y-88475883D01*
X168991079Y-88456670D01*
X168978782Y-88436153D01*
X168968554Y-88414529D01*
X168960496Y-88392007D01*
X168954684Y-88368803D01*
X168951174Y-88345142D01*
X168950000Y-88321250D01*
X168950000Y-87408750D01*
X168951174Y-87384858D01*
X168954684Y-87361197D01*
X168960496Y-87337993D01*
X168968554Y-87315471D01*
X168978782Y-87293847D01*
X168991079Y-87273330D01*
X169005329Y-87254117D01*
X169021393Y-87236393D01*
X169039117Y-87220329D01*
X169058330Y-87206079D01*
X169078847Y-87193782D01*
X169100471Y-87183554D01*
X169122993Y-87175496D01*
X169146197Y-87169684D01*
X169169858Y-87166174D01*
X169193750Y-87165000D01*
X169681250Y-87165000D01*
X169705142Y-87166174D01*
X169705142Y-87166174D01*
G37*
D12*
X169437500Y-87865000D03*
G04 #@! TD*
D13*
G04 #@! TO.C,Q5*
X157450000Y-80115321D03*
X155550000Y-80115321D03*
X156500000Y-82115321D03*
G04 #@! TD*
D11*
G04 #@! TO.C,PWR*
G36*
X155830142Y-87166174D02*
X155853803Y-87169684D01*
X155877007Y-87175496D01*
X155899529Y-87183554D01*
X155921153Y-87193782D01*
X155941670Y-87206079D01*
X155960883Y-87220329D01*
X155978607Y-87236393D01*
X155994671Y-87254117D01*
X156008921Y-87273330D01*
X156021218Y-87293847D01*
X156031446Y-87315471D01*
X156039504Y-87337993D01*
X156045316Y-87361197D01*
X156048826Y-87384858D01*
X156050000Y-87408750D01*
X156050000Y-88321250D01*
X156048826Y-88345142D01*
X156045316Y-88368803D01*
X156039504Y-88392007D01*
X156031446Y-88414529D01*
X156021218Y-88436153D01*
X156008921Y-88456670D01*
X155994671Y-88475883D01*
X155978607Y-88493607D01*
X155960883Y-88509671D01*
X155941670Y-88523921D01*
X155921153Y-88536218D01*
X155899529Y-88546446D01*
X155877007Y-88554504D01*
X155853803Y-88560316D01*
X155830142Y-88563826D01*
X155806250Y-88565000D01*
X155318750Y-88565000D01*
X155294858Y-88563826D01*
X155271197Y-88560316D01*
X155247993Y-88554504D01*
X155225471Y-88546446D01*
X155203847Y-88536218D01*
X155183330Y-88523921D01*
X155164117Y-88509671D01*
X155146393Y-88493607D01*
X155130329Y-88475883D01*
X155116079Y-88456670D01*
X155103782Y-88436153D01*
X155093554Y-88414529D01*
X155085496Y-88392007D01*
X155079684Y-88368803D01*
X155076174Y-88345142D01*
X155075000Y-88321250D01*
X155075000Y-87408750D01*
X155076174Y-87384858D01*
X155079684Y-87361197D01*
X155085496Y-87337993D01*
X155093554Y-87315471D01*
X155103782Y-87293847D01*
X155116079Y-87273330D01*
X155130329Y-87254117D01*
X155146393Y-87236393D01*
X155164117Y-87220329D01*
X155183330Y-87206079D01*
X155203847Y-87193782D01*
X155225471Y-87183554D01*
X155247993Y-87175496D01*
X155271197Y-87169684D01*
X155294858Y-87166174D01*
X155318750Y-87165000D01*
X155806250Y-87165000D01*
X155830142Y-87166174D01*
X155830142Y-87166174D01*
G37*
D12*
X155562500Y-87865000D03*
D11*
G36*
X157705142Y-87166174D02*
X157728803Y-87169684D01*
X157752007Y-87175496D01*
X157774529Y-87183554D01*
X157796153Y-87193782D01*
X157816670Y-87206079D01*
X157835883Y-87220329D01*
X157853607Y-87236393D01*
X157869671Y-87254117D01*
X157883921Y-87273330D01*
X157896218Y-87293847D01*
X157906446Y-87315471D01*
X157914504Y-87337993D01*
X157920316Y-87361197D01*
X157923826Y-87384858D01*
X157925000Y-87408750D01*
X157925000Y-88321250D01*
X157923826Y-88345142D01*
X157920316Y-88368803D01*
X157914504Y-88392007D01*
X157906446Y-88414529D01*
X157896218Y-88436153D01*
X157883921Y-88456670D01*
X157869671Y-88475883D01*
X157853607Y-88493607D01*
X157835883Y-88509671D01*
X157816670Y-88523921D01*
X157796153Y-88536218D01*
X157774529Y-88546446D01*
X157752007Y-88554504D01*
X157728803Y-88560316D01*
X157705142Y-88563826D01*
X157681250Y-88565000D01*
X157193750Y-88565000D01*
X157169858Y-88563826D01*
X157146197Y-88560316D01*
X157122993Y-88554504D01*
X157100471Y-88546446D01*
X157078847Y-88536218D01*
X157058330Y-88523921D01*
X157039117Y-88509671D01*
X157021393Y-88493607D01*
X157005329Y-88475883D01*
X156991079Y-88456670D01*
X156978782Y-88436153D01*
X156968554Y-88414529D01*
X156960496Y-88392007D01*
X156954684Y-88368803D01*
X156951174Y-88345142D01*
X156950000Y-88321250D01*
X156950000Y-87408750D01*
X156951174Y-87384858D01*
X156954684Y-87361197D01*
X156960496Y-87337993D01*
X156968554Y-87315471D01*
X156978782Y-87293847D01*
X156991079Y-87273330D01*
X157005329Y-87254117D01*
X157021393Y-87236393D01*
X157039117Y-87220329D01*
X157058330Y-87206079D01*
X157078847Y-87193782D01*
X157100471Y-87183554D01*
X157122993Y-87175496D01*
X157146197Y-87169684D01*
X157169858Y-87166174D01*
X157193750Y-87165000D01*
X157681250Y-87165000D01*
X157705142Y-87166174D01*
X157705142Y-87166174D01*
G37*
D12*
X157437500Y-87865000D03*
G04 #@! TD*
D14*
G04 #@! TO.C,D1*
X153338000Y-87825000D03*
X150038000Y-87825000D03*
G04 #@! TD*
D11*
G04 #@! TO.C,CAM*
G36*
X163830142Y-87166174D02*
X163853803Y-87169684D01*
X163877007Y-87175496D01*
X163899529Y-87183554D01*
X163921153Y-87193782D01*
X163941670Y-87206079D01*
X163960883Y-87220329D01*
X163978607Y-87236393D01*
X163994671Y-87254117D01*
X164008921Y-87273330D01*
X164021218Y-87293847D01*
X164031446Y-87315471D01*
X164039504Y-87337993D01*
X164045316Y-87361197D01*
X164048826Y-87384858D01*
X164050000Y-87408750D01*
X164050000Y-88321250D01*
X164048826Y-88345142D01*
X164045316Y-88368803D01*
X164039504Y-88392007D01*
X164031446Y-88414529D01*
X164021218Y-88436153D01*
X164008921Y-88456670D01*
X163994671Y-88475883D01*
X163978607Y-88493607D01*
X163960883Y-88509671D01*
X163941670Y-88523921D01*
X163921153Y-88536218D01*
X163899529Y-88546446D01*
X163877007Y-88554504D01*
X163853803Y-88560316D01*
X163830142Y-88563826D01*
X163806250Y-88565000D01*
X163318750Y-88565000D01*
X163294858Y-88563826D01*
X163271197Y-88560316D01*
X163247993Y-88554504D01*
X163225471Y-88546446D01*
X163203847Y-88536218D01*
X163183330Y-88523921D01*
X163164117Y-88509671D01*
X163146393Y-88493607D01*
X163130329Y-88475883D01*
X163116079Y-88456670D01*
X163103782Y-88436153D01*
X163093554Y-88414529D01*
X163085496Y-88392007D01*
X163079684Y-88368803D01*
X163076174Y-88345142D01*
X163075000Y-88321250D01*
X163075000Y-87408750D01*
X163076174Y-87384858D01*
X163079684Y-87361197D01*
X163085496Y-87337993D01*
X163093554Y-87315471D01*
X163103782Y-87293847D01*
X163116079Y-87273330D01*
X163130329Y-87254117D01*
X163146393Y-87236393D01*
X163164117Y-87220329D01*
X163183330Y-87206079D01*
X163203847Y-87193782D01*
X163225471Y-87183554D01*
X163247993Y-87175496D01*
X163271197Y-87169684D01*
X163294858Y-87166174D01*
X163318750Y-87165000D01*
X163806250Y-87165000D01*
X163830142Y-87166174D01*
X163830142Y-87166174D01*
G37*
D12*
X163562500Y-87865000D03*
D11*
G36*
X165705142Y-87166174D02*
X165728803Y-87169684D01*
X165752007Y-87175496D01*
X165774529Y-87183554D01*
X165796153Y-87193782D01*
X165816670Y-87206079D01*
X165835883Y-87220329D01*
X165853607Y-87236393D01*
X165869671Y-87254117D01*
X165883921Y-87273330D01*
X165896218Y-87293847D01*
X165906446Y-87315471D01*
X165914504Y-87337993D01*
X165920316Y-87361197D01*
X165923826Y-87384858D01*
X165925000Y-87408750D01*
X165925000Y-88321250D01*
X165923826Y-88345142D01*
X165920316Y-88368803D01*
X165914504Y-88392007D01*
X165906446Y-88414529D01*
X165896218Y-88436153D01*
X165883921Y-88456670D01*
X165869671Y-88475883D01*
X165853607Y-88493607D01*
X165835883Y-88509671D01*
X165816670Y-88523921D01*
X165796153Y-88536218D01*
X165774529Y-88546446D01*
X165752007Y-88554504D01*
X165728803Y-88560316D01*
X165705142Y-88563826D01*
X165681250Y-88565000D01*
X165193750Y-88565000D01*
X165169858Y-88563826D01*
X165146197Y-88560316D01*
X165122993Y-88554504D01*
X165100471Y-88546446D01*
X165078847Y-88536218D01*
X165058330Y-88523921D01*
X165039117Y-88509671D01*
X165021393Y-88493607D01*
X165005329Y-88475883D01*
X164991079Y-88456670D01*
X164978782Y-88436153D01*
X164968554Y-88414529D01*
X164960496Y-88392007D01*
X164954684Y-88368803D01*
X164951174Y-88345142D01*
X164950000Y-88321250D01*
X164950000Y-87408750D01*
X164951174Y-87384858D01*
X164954684Y-87361197D01*
X164960496Y-87337993D01*
X164968554Y-87315471D01*
X164978782Y-87293847D01*
X164991079Y-87273330D01*
X165005329Y-87254117D01*
X165021393Y-87236393D01*
X165039117Y-87220329D01*
X165058330Y-87206079D01*
X165078847Y-87193782D01*
X165100471Y-87183554D01*
X165122993Y-87175496D01*
X165146197Y-87169684D01*
X165169858Y-87166174D01*
X165193750Y-87165000D01*
X165681250Y-87165000D01*
X165705142Y-87166174D01*
X165705142Y-87166174D01*
G37*
D12*
X165437500Y-87865000D03*
G04 #@! TD*
D11*
G04 #@! TO.C,LED*
G36*
X161705142Y-87166174D02*
X161728803Y-87169684D01*
X161752007Y-87175496D01*
X161774529Y-87183554D01*
X161796153Y-87193782D01*
X161816670Y-87206079D01*
X161835883Y-87220329D01*
X161853607Y-87236393D01*
X161869671Y-87254117D01*
X161883921Y-87273330D01*
X161896218Y-87293847D01*
X161906446Y-87315471D01*
X161914504Y-87337993D01*
X161920316Y-87361197D01*
X161923826Y-87384858D01*
X161925000Y-87408750D01*
X161925000Y-88321250D01*
X161923826Y-88345142D01*
X161920316Y-88368803D01*
X161914504Y-88392007D01*
X161906446Y-88414529D01*
X161896218Y-88436153D01*
X161883921Y-88456670D01*
X161869671Y-88475883D01*
X161853607Y-88493607D01*
X161835883Y-88509671D01*
X161816670Y-88523921D01*
X161796153Y-88536218D01*
X161774529Y-88546446D01*
X161752007Y-88554504D01*
X161728803Y-88560316D01*
X161705142Y-88563826D01*
X161681250Y-88565000D01*
X161193750Y-88565000D01*
X161169858Y-88563826D01*
X161146197Y-88560316D01*
X161122993Y-88554504D01*
X161100471Y-88546446D01*
X161078847Y-88536218D01*
X161058330Y-88523921D01*
X161039117Y-88509671D01*
X161021393Y-88493607D01*
X161005329Y-88475883D01*
X160991079Y-88456670D01*
X160978782Y-88436153D01*
X160968554Y-88414529D01*
X160960496Y-88392007D01*
X160954684Y-88368803D01*
X160951174Y-88345142D01*
X160950000Y-88321250D01*
X160950000Y-87408750D01*
X160951174Y-87384858D01*
X160954684Y-87361197D01*
X160960496Y-87337993D01*
X160968554Y-87315471D01*
X160978782Y-87293847D01*
X160991079Y-87273330D01*
X161005329Y-87254117D01*
X161021393Y-87236393D01*
X161039117Y-87220329D01*
X161058330Y-87206079D01*
X161078847Y-87193782D01*
X161100471Y-87183554D01*
X161122993Y-87175496D01*
X161146197Y-87169684D01*
X161169858Y-87166174D01*
X161193750Y-87165000D01*
X161681250Y-87165000D01*
X161705142Y-87166174D01*
X161705142Y-87166174D01*
G37*
D12*
X161437500Y-87865000D03*
D11*
G36*
X159830142Y-87166174D02*
X159853803Y-87169684D01*
X159877007Y-87175496D01*
X159899529Y-87183554D01*
X159921153Y-87193782D01*
X159941670Y-87206079D01*
X159960883Y-87220329D01*
X159978607Y-87236393D01*
X159994671Y-87254117D01*
X160008921Y-87273330D01*
X160021218Y-87293847D01*
X160031446Y-87315471D01*
X160039504Y-87337993D01*
X160045316Y-87361197D01*
X160048826Y-87384858D01*
X160050000Y-87408750D01*
X160050000Y-88321250D01*
X160048826Y-88345142D01*
X160045316Y-88368803D01*
X160039504Y-88392007D01*
X160031446Y-88414529D01*
X160021218Y-88436153D01*
X160008921Y-88456670D01*
X159994671Y-88475883D01*
X159978607Y-88493607D01*
X159960883Y-88509671D01*
X159941670Y-88523921D01*
X159921153Y-88536218D01*
X159899529Y-88546446D01*
X159877007Y-88554504D01*
X159853803Y-88560316D01*
X159830142Y-88563826D01*
X159806250Y-88565000D01*
X159318750Y-88565000D01*
X159294858Y-88563826D01*
X159271197Y-88560316D01*
X159247993Y-88554504D01*
X159225471Y-88546446D01*
X159203847Y-88536218D01*
X159183330Y-88523921D01*
X159164117Y-88509671D01*
X159146393Y-88493607D01*
X159130329Y-88475883D01*
X159116079Y-88456670D01*
X159103782Y-88436153D01*
X159093554Y-88414529D01*
X159085496Y-88392007D01*
X159079684Y-88368803D01*
X159076174Y-88345142D01*
X159075000Y-88321250D01*
X159075000Y-87408750D01*
X159076174Y-87384858D01*
X159079684Y-87361197D01*
X159085496Y-87337993D01*
X159093554Y-87315471D01*
X159103782Y-87293847D01*
X159116079Y-87273330D01*
X159130329Y-87254117D01*
X159146393Y-87236393D01*
X159164117Y-87220329D01*
X159183330Y-87206079D01*
X159203847Y-87193782D01*
X159225471Y-87183554D01*
X159247993Y-87175496D01*
X159271197Y-87169684D01*
X159294858Y-87166174D01*
X159318750Y-87165000D01*
X159806250Y-87165000D01*
X159830142Y-87166174D01*
X159830142Y-87166174D01*
G37*
D12*
X159562500Y-87865000D03*
G04 #@! TD*
D13*
G04 #@! TO.C,Q2*
X165450000Y-80115321D03*
X163550000Y-80115321D03*
X164500000Y-82115321D03*
G04 #@! TD*
G04 #@! TO.C,Q3*
X160500000Y-82115321D03*
X159550000Y-80115321D03*
X161450000Y-80115321D03*
G04 #@! TD*
D11*
G04 #@! TO.C,R1*
G36*
X147509142Y-83676174D02*
X147532803Y-83679684D01*
X147556007Y-83685496D01*
X147578529Y-83693554D01*
X147600153Y-83703782D01*
X147620670Y-83716079D01*
X147639883Y-83730329D01*
X147657607Y-83746393D01*
X147673671Y-83764117D01*
X147687921Y-83783330D01*
X147700218Y-83803847D01*
X147710446Y-83825471D01*
X147718504Y-83847993D01*
X147724316Y-83871197D01*
X147727826Y-83894858D01*
X147729000Y-83918750D01*
X147729000Y-84831250D01*
X147727826Y-84855142D01*
X147724316Y-84878803D01*
X147718504Y-84902007D01*
X147710446Y-84924529D01*
X147700218Y-84946153D01*
X147687921Y-84966670D01*
X147673671Y-84985883D01*
X147657607Y-85003607D01*
X147639883Y-85019671D01*
X147620670Y-85033921D01*
X147600153Y-85046218D01*
X147578529Y-85056446D01*
X147556007Y-85064504D01*
X147532803Y-85070316D01*
X147509142Y-85073826D01*
X147485250Y-85075000D01*
X146997750Y-85075000D01*
X146973858Y-85073826D01*
X146950197Y-85070316D01*
X146926993Y-85064504D01*
X146904471Y-85056446D01*
X146882847Y-85046218D01*
X146862330Y-85033921D01*
X146843117Y-85019671D01*
X146825393Y-85003607D01*
X146809329Y-84985883D01*
X146795079Y-84966670D01*
X146782782Y-84946153D01*
X146772554Y-84924529D01*
X146764496Y-84902007D01*
X146758684Y-84878803D01*
X146755174Y-84855142D01*
X146754000Y-84831250D01*
X146754000Y-83918750D01*
X146755174Y-83894858D01*
X146758684Y-83871197D01*
X146764496Y-83847993D01*
X146772554Y-83825471D01*
X146782782Y-83803847D01*
X146795079Y-83783330D01*
X146809329Y-83764117D01*
X146825393Y-83746393D01*
X146843117Y-83730329D01*
X146862330Y-83716079D01*
X146882847Y-83703782D01*
X146904471Y-83693554D01*
X146926993Y-83685496D01*
X146950197Y-83679684D01*
X146973858Y-83676174D01*
X146997750Y-83675000D01*
X147485250Y-83675000D01*
X147509142Y-83676174D01*
X147509142Y-83676174D01*
G37*
D12*
X147241500Y-84375000D03*
D11*
G36*
X145634142Y-83676174D02*
X145657803Y-83679684D01*
X145681007Y-83685496D01*
X145703529Y-83693554D01*
X145725153Y-83703782D01*
X145745670Y-83716079D01*
X145764883Y-83730329D01*
X145782607Y-83746393D01*
X145798671Y-83764117D01*
X145812921Y-83783330D01*
X145825218Y-83803847D01*
X145835446Y-83825471D01*
X145843504Y-83847993D01*
X145849316Y-83871197D01*
X145852826Y-83894858D01*
X145854000Y-83918750D01*
X145854000Y-84831250D01*
X145852826Y-84855142D01*
X145849316Y-84878803D01*
X145843504Y-84902007D01*
X145835446Y-84924529D01*
X145825218Y-84946153D01*
X145812921Y-84966670D01*
X145798671Y-84985883D01*
X145782607Y-85003607D01*
X145764883Y-85019671D01*
X145745670Y-85033921D01*
X145725153Y-85046218D01*
X145703529Y-85056446D01*
X145681007Y-85064504D01*
X145657803Y-85070316D01*
X145634142Y-85073826D01*
X145610250Y-85075000D01*
X145122750Y-85075000D01*
X145098858Y-85073826D01*
X145075197Y-85070316D01*
X145051993Y-85064504D01*
X145029471Y-85056446D01*
X145007847Y-85046218D01*
X144987330Y-85033921D01*
X144968117Y-85019671D01*
X144950393Y-85003607D01*
X144934329Y-84985883D01*
X144920079Y-84966670D01*
X144907782Y-84946153D01*
X144897554Y-84924529D01*
X144889496Y-84902007D01*
X144883684Y-84878803D01*
X144880174Y-84855142D01*
X144879000Y-84831250D01*
X144879000Y-83918750D01*
X144880174Y-83894858D01*
X144883684Y-83871197D01*
X144889496Y-83847993D01*
X144897554Y-83825471D01*
X144907782Y-83803847D01*
X144920079Y-83783330D01*
X144934329Y-83764117D01*
X144950393Y-83746393D01*
X144968117Y-83730329D01*
X144987330Y-83716079D01*
X145007847Y-83703782D01*
X145029471Y-83693554D01*
X145051993Y-83685496D01*
X145075197Y-83679684D01*
X145098858Y-83676174D01*
X145122750Y-83675000D01*
X145610250Y-83675000D01*
X145634142Y-83676174D01*
X145634142Y-83676174D01*
G37*
D12*
X145366500Y-84375000D03*
G04 #@! TD*
D11*
G04 #@! TO.C,R2*
G36*
X167780142Y-95951174D02*
X167803803Y-95954684D01*
X167827007Y-95960496D01*
X167849529Y-95968554D01*
X167871153Y-95978782D01*
X167891670Y-95991079D01*
X167910883Y-96005329D01*
X167928607Y-96021393D01*
X167944671Y-96039117D01*
X167958921Y-96058330D01*
X167971218Y-96078847D01*
X167981446Y-96100471D01*
X167989504Y-96122993D01*
X167995316Y-96146197D01*
X167998826Y-96169858D01*
X168000000Y-96193750D01*
X168000000Y-96681250D01*
X167998826Y-96705142D01*
X167995316Y-96728803D01*
X167989504Y-96752007D01*
X167981446Y-96774529D01*
X167971218Y-96796153D01*
X167958921Y-96816670D01*
X167944671Y-96835883D01*
X167928607Y-96853607D01*
X167910883Y-96869671D01*
X167891670Y-96883921D01*
X167871153Y-96896218D01*
X167849529Y-96906446D01*
X167827007Y-96914504D01*
X167803803Y-96920316D01*
X167780142Y-96923826D01*
X167756250Y-96925000D01*
X166843750Y-96925000D01*
X166819858Y-96923826D01*
X166796197Y-96920316D01*
X166772993Y-96914504D01*
X166750471Y-96906446D01*
X166728847Y-96896218D01*
X166708330Y-96883921D01*
X166689117Y-96869671D01*
X166671393Y-96853607D01*
X166655329Y-96835883D01*
X166641079Y-96816670D01*
X166628782Y-96796153D01*
X166618554Y-96774529D01*
X166610496Y-96752007D01*
X166604684Y-96728803D01*
X166601174Y-96705142D01*
X166600000Y-96681250D01*
X166600000Y-96193750D01*
X166601174Y-96169858D01*
X166604684Y-96146197D01*
X166610496Y-96122993D01*
X166618554Y-96100471D01*
X166628782Y-96078847D01*
X166641079Y-96058330D01*
X166655329Y-96039117D01*
X166671393Y-96021393D01*
X166689117Y-96005329D01*
X166708330Y-95991079D01*
X166728847Y-95978782D01*
X166750471Y-95968554D01*
X166772993Y-95960496D01*
X166796197Y-95954684D01*
X166819858Y-95951174D01*
X166843750Y-95950000D01*
X167756250Y-95950000D01*
X167780142Y-95951174D01*
X167780142Y-95951174D01*
G37*
D12*
X167300000Y-96437500D03*
D11*
G36*
X167780142Y-94076174D02*
X167803803Y-94079684D01*
X167827007Y-94085496D01*
X167849529Y-94093554D01*
X167871153Y-94103782D01*
X167891670Y-94116079D01*
X167910883Y-94130329D01*
X167928607Y-94146393D01*
X167944671Y-94164117D01*
X167958921Y-94183330D01*
X167971218Y-94203847D01*
X167981446Y-94225471D01*
X167989504Y-94247993D01*
X167995316Y-94271197D01*
X167998826Y-94294858D01*
X168000000Y-94318750D01*
X168000000Y-94806250D01*
X167998826Y-94830142D01*
X167995316Y-94853803D01*
X167989504Y-94877007D01*
X167981446Y-94899529D01*
X167971218Y-94921153D01*
X167958921Y-94941670D01*
X167944671Y-94960883D01*
X167928607Y-94978607D01*
X167910883Y-94994671D01*
X167891670Y-95008921D01*
X167871153Y-95021218D01*
X167849529Y-95031446D01*
X167827007Y-95039504D01*
X167803803Y-95045316D01*
X167780142Y-95048826D01*
X167756250Y-95050000D01*
X166843750Y-95050000D01*
X166819858Y-95048826D01*
X166796197Y-95045316D01*
X166772993Y-95039504D01*
X166750471Y-95031446D01*
X166728847Y-95021218D01*
X166708330Y-95008921D01*
X166689117Y-94994671D01*
X166671393Y-94978607D01*
X166655329Y-94960883D01*
X166641079Y-94941670D01*
X166628782Y-94921153D01*
X166618554Y-94899529D01*
X166610496Y-94877007D01*
X166604684Y-94853803D01*
X166601174Y-94830142D01*
X166600000Y-94806250D01*
X166600000Y-94318750D01*
X166601174Y-94294858D01*
X166604684Y-94271197D01*
X166610496Y-94247993D01*
X166618554Y-94225471D01*
X166628782Y-94203847D01*
X166641079Y-94183330D01*
X166655329Y-94164117D01*
X166671393Y-94146393D01*
X166689117Y-94130329D01*
X166708330Y-94116079D01*
X166728847Y-94103782D01*
X166750471Y-94093554D01*
X166772993Y-94085496D01*
X166796197Y-94079684D01*
X166819858Y-94076174D01*
X166843750Y-94075000D01*
X167756250Y-94075000D01*
X167780142Y-94076174D01*
X167780142Y-94076174D01*
G37*
D12*
X167300000Y-94562500D03*
G04 #@! TD*
D11*
G04 #@! TO.C,R4*
G36*
X146088142Y-98526174D02*
X146111803Y-98529684D01*
X146135007Y-98535496D01*
X146157529Y-98543554D01*
X146179153Y-98553782D01*
X146199670Y-98566079D01*
X146218883Y-98580329D01*
X146236607Y-98596393D01*
X146252671Y-98614117D01*
X146266921Y-98633330D01*
X146279218Y-98653847D01*
X146289446Y-98675471D01*
X146297504Y-98697993D01*
X146303316Y-98721197D01*
X146306826Y-98744858D01*
X146308000Y-98768750D01*
X146308000Y-99681250D01*
X146306826Y-99705142D01*
X146303316Y-99728803D01*
X146297504Y-99752007D01*
X146289446Y-99774529D01*
X146279218Y-99796153D01*
X146266921Y-99816670D01*
X146252671Y-99835883D01*
X146236607Y-99853607D01*
X146218883Y-99869671D01*
X146199670Y-99883921D01*
X146179153Y-99896218D01*
X146157529Y-99906446D01*
X146135007Y-99914504D01*
X146111803Y-99920316D01*
X146088142Y-99923826D01*
X146064250Y-99925000D01*
X145576750Y-99925000D01*
X145552858Y-99923826D01*
X145529197Y-99920316D01*
X145505993Y-99914504D01*
X145483471Y-99906446D01*
X145461847Y-99896218D01*
X145441330Y-99883921D01*
X145422117Y-99869671D01*
X145404393Y-99853607D01*
X145388329Y-99835883D01*
X145374079Y-99816670D01*
X145361782Y-99796153D01*
X145351554Y-99774529D01*
X145343496Y-99752007D01*
X145337684Y-99728803D01*
X145334174Y-99705142D01*
X145333000Y-99681250D01*
X145333000Y-98768750D01*
X145334174Y-98744858D01*
X145337684Y-98721197D01*
X145343496Y-98697993D01*
X145351554Y-98675471D01*
X145361782Y-98653847D01*
X145374079Y-98633330D01*
X145388329Y-98614117D01*
X145404393Y-98596393D01*
X145422117Y-98580329D01*
X145441330Y-98566079D01*
X145461847Y-98553782D01*
X145483471Y-98543554D01*
X145505993Y-98535496D01*
X145529197Y-98529684D01*
X145552858Y-98526174D01*
X145576750Y-98525000D01*
X146064250Y-98525000D01*
X146088142Y-98526174D01*
X146088142Y-98526174D01*
G37*
D12*
X145820500Y-99225000D03*
D11*
G36*
X147963142Y-98526174D02*
X147986803Y-98529684D01*
X148010007Y-98535496D01*
X148032529Y-98543554D01*
X148054153Y-98553782D01*
X148074670Y-98566079D01*
X148093883Y-98580329D01*
X148111607Y-98596393D01*
X148127671Y-98614117D01*
X148141921Y-98633330D01*
X148154218Y-98653847D01*
X148164446Y-98675471D01*
X148172504Y-98697993D01*
X148178316Y-98721197D01*
X148181826Y-98744858D01*
X148183000Y-98768750D01*
X148183000Y-99681250D01*
X148181826Y-99705142D01*
X148178316Y-99728803D01*
X148172504Y-99752007D01*
X148164446Y-99774529D01*
X148154218Y-99796153D01*
X148141921Y-99816670D01*
X148127671Y-99835883D01*
X148111607Y-99853607D01*
X148093883Y-99869671D01*
X148074670Y-99883921D01*
X148054153Y-99896218D01*
X148032529Y-99906446D01*
X148010007Y-99914504D01*
X147986803Y-99920316D01*
X147963142Y-99923826D01*
X147939250Y-99925000D01*
X147451750Y-99925000D01*
X147427858Y-99923826D01*
X147404197Y-99920316D01*
X147380993Y-99914504D01*
X147358471Y-99906446D01*
X147336847Y-99896218D01*
X147316330Y-99883921D01*
X147297117Y-99869671D01*
X147279393Y-99853607D01*
X147263329Y-99835883D01*
X147249079Y-99816670D01*
X147236782Y-99796153D01*
X147226554Y-99774529D01*
X147218496Y-99752007D01*
X147212684Y-99728803D01*
X147209174Y-99705142D01*
X147208000Y-99681250D01*
X147208000Y-98768750D01*
X147209174Y-98744858D01*
X147212684Y-98721197D01*
X147218496Y-98697993D01*
X147226554Y-98675471D01*
X147236782Y-98653847D01*
X147249079Y-98633330D01*
X147263329Y-98614117D01*
X147279393Y-98596393D01*
X147297117Y-98580329D01*
X147316330Y-98566079D01*
X147336847Y-98553782D01*
X147358471Y-98543554D01*
X147380993Y-98535496D01*
X147404197Y-98529684D01*
X147427858Y-98526174D01*
X147451750Y-98525000D01*
X147939250Y-98525000D01*
X147963142Y-98526174D01*
X147963142Y-98526174D01*
G37*
D12*
X147695500Y-99225000D03*
G04 #@! TD*
D11*
G04 #@! TO.C,R5*
G36*
X163830142Y-83416495D02*
X163853803Y-83420005D01*
X163877007Y-83425817D01*
X163899529Y-83433875D01*
X163921153Y-83444103D01*
X163941670Y-83456400D01*
X163960883Y-83470650D01*
X163978607Y-83486714D01*
X163994671Y-83504438D01*
X164008921Y-83523651D01*
X164021218Y-83544168D01*
X164031446Y-83565792D01*
X164039504Y-83588314D01*
X164045316Y-83611518D01*
X164048826Y-83635179D01*
X164050000Y-83659071D01*
X164050000Y-84571571D01*
X164048826Y-84595463D01*
X164045316Y-84619124D01*
X164039504Y-84642328D01*
X164031446Y-84664850D01*
X164021218Y-84686474D01*
X164008921Y-84706991D01*
X163994671Y-84726204D01*
X163978607Y-84743928D01*
X163960883Y-84759992D01*
X163941670Y-84774242D01*
X163921153Y-84786539D01*
X163899529Y-84796767D01*
X163877007Y-84804825D01*
X163853803Y-84810637D01*
X163830142Y-84814147D01*
X163806250Y-84815321D01*
X163318750Y-84815321D01*
X163294858Y-84814147D01*
X163271197Y-84810637D01*
X163247993Y-84804825D01*
X163225471Y-84796767D01*
X163203847Y-84786539D01*
X163183330Y-84774242D01*
X163164117Y-84759992D01*
X163146393Y-84743928D01*
X163130329Y-84726204D01*
X163116079Y-84706991D01*
X163103782Y-84686474D01*
X163093554Y-84664850D01*
X163085496Y-84642328D01*
X163079684Y-84619124D01*
X163076174Y-84595463D01*
X163075000Y-84571571D01*
X163075000Y-83659071D01*
X163076174Y-83635179D01*
X163079684Y-83611518D01*
X163085496Y-83588314D01*
X163093554Y-83565792D01*
X163103782Y-83544168D01*
X163116079Y-83523651D01*
X163130329Y-83504438D01*
X163146393Y-83486714D01*
X163164117Y-83470650D01*
X163183330Y-83456400D01*
X163203847Y-83444103D01*
X163225471Y-83433875D01*
X163247993Y-83425817D01*
X163271197Y-83420005D01*
X163294858Y-83416495D01*
X163318750Y-83415321D01*
X163806250Y-83415321D01*
X163830142Y-83416495D01*
X163830142Y-83416495D01*
G37*
D12*
X163562500Y-84115321D03*
D11*
G36*
X165705142Y-83416495D02*
X165728803Y-83420005D01*
X165752007Y-83425817D01*
X165774529Y-83433875D01*
X165796153Y-83444103D01*
X165816670Y-83456400D01*
X165835883Y-83470650D01*
X165853607Y-83486714D01*
X165869671Y-83504438D01*
X165883921Y-83523651D01*
X165896218Y-83544168D01*
X165906446Y-83565792D01*
X165914504Y-83588314D01*
X165920316Y-83611518D01*
X165923826Y-83635179D01*
X165925000Y-83659071D01*
X165925000Y-84571571D01*
X165923826Y-84595463D01*
X165920316Y-84619124D01*
X165914504Y-84642328D01*
X165906446Y-84664850D01*
X165896218Y-84686474D01*
X165883921Y-84706991D01*
X165869671Y-84726204D01*
X165853607Y-84743928D01*
X165835883Y-84759992D01*
X165816670Y-84774242D01*
X165796153Y-84786539D01*
X165774529Y-84796767D01*
X165752007Y-84804825D01*
X165728803Y-84810637D01*
X165705142Y-84814147D01*
X165681250Y-84815321D01*
X165193750Y-84815321D01*
X165169858Y-84814147D01*
X165146197Y-84810637D01*
X165122993Y-84804825D01*
X165100471Y-84796767D01*
X165078847Y-84786539D01*
X165058330Y-84774242D01*
X165039117Y-84759992D01*
X165021393Y-84743928D01*
X165005329Y-84726204D01*
X164991079Y-84706991D01*
X164978782Y-84686474D01*
X164968554Y-84664850D01*
X164960496Y-84642328D01*
X164954684Y-84619124D01*
X164951174Y-84595463D01*
X164950000Y-84571571D01*
X164950000Y-83659071D01*
X164951174Y-83635179D01*
X164954684Y-83611518D01*
X164960496Y-83588314D01*
X164968554Y-83565792D01*
X164978782Y-83544168D01*
X164991079Y-83523651D01*
X165005329Y-83504438D01*
X165021393Y-83486714D01*
X165039117Y-83470650D01*
X165058330Y-83456400D01*
X165078847Y-83444103D01*
X165100471Y-83433875D01*
X165122993Y-83425817D01*
X165146197Y-83420005D01*
X165169858Y-83416495D01*
X165193750Y-83415321D01*
X165681250Y-83415321D01*
X165705142Y-83416495D01*
X165705142Y-83416495D01*
G37*
D12*
X165437500Y-84115321D03*
G04 #@! TD*
D11*
G04 #@! TO.C,R6*
G36*
X167780142Y-108576174D02*
X167803803Y-108579684D01*
X167827007Y-108585496D01*
X167849529Y-108593554D01*
X167871153Y-108603782D01*
X167891670Y-108616079D01*
X167910883Y-108630329D01*
X167928607Y-108646393D01*
X167944671Y-108664117D01*
X167958921Y-108683330D01*
X167971218Y-108703847D01*
X167981446Y-108725471D01*
X167989504Y-108747993D01*
X167995316Y-108771197D01*
X167998826Y-108794858D01*
X168000000Y-108818750D01*
X168000000Y-109306250D01*
X167998826Y-109330142D01*
X167995316Y-109353803D01*
X167989504Y-109377007D01*
X167981446Y-109399529D01*
X167971218Y-109421153D01*
X167958921Y-109441670D01*
X167944671Y-109460883D01*
X167928607Y-109478607D01*
X167910883Y-109494671D01*
X167891670Y-109508921D01*
X167871153Y-109521218D01*
X167849529Y-109531446D01*
X167827007Y-109539504D01*
X167803803Y-109545316D01*
X167780142Y-109548826D01*
X167756250Y-109550000D01*
X166843750Y-109550000D01*
X166819858Y-109548826D01*
X166796197Y-109545316D01*
X166772993Y-109539504D01*
X166750471Y-109531446D01*
X166728847Y-109521218D01*
X166708330Y-109508921D01*
X166689117Y-109494671D01*
X166671393Y-109478607D01*
X166655329Y-109460883D01*
X166641079Y-109441670D01*
X166628782Y-109421153D01*
X166618554Y-109399529D01*
X166610496Y-109377007D01*
X166604684Y-109353803D01*
X166601174Y-109330142D01*
X166600000Y-109306250D01*
X166600000Y-108818750D01*
X166601174Y-108794858D01*
X166604684Y-108771197D01*
X166610496Y-108747993D01*
X166618554Y-108725471D01*
X166628782Y-108703847D01*
X166641079Y-108683330D01*
X166655329Y-108664117D01*
X166671393Y-108646393D01*
X166689117Y-108630329D01*
X166708330Y-108616079D01*
X166728847Y-108603782D01*
X166750471Y-108593554D01*
X166772993Y-108585496D01*
X166796197Y-108579684D01*
X166819858Y-108576174D01*
X166843750Y-108575000D01*
X167756250Y-108575000D01*
X167780142Y-108576174D01*
X167780142Y-108576174D01*
G37*
D12*
X167300000Y-109062500D03*
D11*
G36*
X167780142Y-110451174D02*
X167803803Y-110454684D01*
X167827007Y-110460496D01*
X167849529Y-110468554D01*
X167871153Y-110478782D01*
X167891670Y-110491079D01*
X167910883Y-110505329D01*
X167928607Y-110521393D01*
X167944671Y-110539117D01*
X167958921Y-110558330D01*
X167971218Y-110578847D01*
X167981446Y-110600471D01*
X167989504Y-110622993D01*
X167995316Y-110646197D01*
X167998826Y-110669858D01*
X168000000Y-110693750D01*
X168000000Y-111181250D01*
X167998826Y-111205142D01*
X167995316Y-111228803D01*
X167989504Y-111252007D01*
X167981446Y-111274529D01*
X167971218Y-111296153D01*
X167958921Y-111316670D01*
X167944671Y-111335883D01*
X167928607Y-111353607D01*
X167910883Y-111369671D01*
X167891670Y-111383921D01*
X167871153Y-111396218D01*
X167849529Y-111406446D01*
X167827007Y-111414504D01*
X167803803Y-111420316D01*
X167780142Y-111423826D01*
X167756250Y-111425000D01*
X166843750Y-111425000D01*
X166819858Y-111423826D01*
X166796197Y-111420316D01*
X166772993Y-111414504D01*
X166750471Y-111406446D01*
X166728847Y-111396218D01*
X166708330Y-111383921D01*
X166689117Y-111369671D01*
X166671393Y-111353607D01*
X166655329Y-111335883D01*
X166641079Y-111316670D01*
X166628782Y-111296153D01*
X166618554Y-111274529D01*
X166610496Y-111252007D01*
X166604684Y-111228803D01*
X166601174Y-111205142D01*
X166600000Y-111181250D01*
X166600000Y-110693750D01*
X166601174Y-110669858D01*
X166604684Y-110646197D01*
X166610496Y-110622993D01*
X166618554Y-110600471D01*
X166628782Y-110578847D01*
X166641079Y-110558330D01*
X166655329Y-110539117D01*
X166671393Y-110521393D01*
X166689117Y-110505329D01*
X166708330Y-110491079D01*
X166728847Y-110478782D01*
X166750471Y-110468554D01*
X166772993Y-110460496D01*
X166796197Y-110454684D01*
X166819858Y-110451174D01*
X166843750Y-110450000D01*
X167756250Y-110450000D01*
X167780142Y-110451174D01*
X167780142Y-110451174D01*
G37*
D12*
X167300000Y-110937500D03*
G04 #@! TD*
D11*
G04 #@! TO.C,R7*
G36*
X161705142Y-83416495D02*
X161728803Y-83420005D01*
X161752007Y-83425817D01*
X161774529Y-83433875D01*
X161796153Y-83444103D01*
X161816670Y-83456400D01*
X161835883Y-83470650D01*
X161853607Y-83486714D01*
X161869671Y-83504438D01*
X161883921Y-83523651D01*
X161896218Y-83544168D01*
X161906446Y-83565792D01*
X161914504Y-83588314D01*
X161920316Y-83611518D01*
X161923826Y-83635179D01*
X161925000Y-83659071D01*
X161925000Y-84571571D01*
X161923826Y-84595463D01*
X161920316Y-84619124D01*
X161914504Y-84642328D01*
X161906446Y-84664850D01*
X161896218Y-84686474D01*
X161883921Y-84706991D01*
X161869671Y-84726204D01*
X161853607Y-84743928D01*
X161835883Y-84759992D01*
X161816670Y-84774242D01*
X161796153Y-84786539D01*
X161774529Y-84796767D01*
X161752007Y-84804825D01*
X161728803Y-84810637D01*
X161705142Y-84814147D01*
X161681250Y-84815321D01*
X161193750Y-84815321D01*
X161169858Y-84814147D01*
X161146197Y-84810637D01*
X161122993Y-84804825D01*
X161100471Y-84796767D01*
X161078847Y-84786539D01*
X161058330Y-84774242D01*
X161039117Y-84759992D01*
X161021393Y-84743928D01*
X161005329Y-84726204D01*
X160991079Y-84706991D01*
X160978782Y-84686474D01*
X160968554Y-84664850D01*
X160960496Y-84642328D01*
X160954684Y-84619124D01*
X160951174Y-84595463D01*
X160950000Y-84571571D01*
X160950000Y-83659071D01*
X160951174Y-83635179D01*
X160954684Y-83611518D01*
X160960496Y-83588314D01*
X160968554Y-83565792D01*
X160978782Y-83544168D01*
X160991079Y-83523651D01*
X161005329Y-83504438D01*
X161021393Y-83486714D01*
X161039117Y-83470650D01*
X161058330Y-83456400D01*
X161078847Y-83444103D01*
X161100471Y-83433875D01*
X161122993Y-83425817D01*
X161146197Y-83420005D01*
X161169858Y-83416495D01*
X161193750Y-83415321D01*
X161681250Y-83415321D01*
X161705142Y-83416495D01*
X161705142Y-83416495D01*
G37*
D12*
X161437500Y-84115321D03*
D11*
G36*
X159830142Y-83416495D02*
X159853803Y-83420005D01*
X159877007Y-83425817D01*
X159899529Y-83433875D01*
X159921153Y-83444103D01*
X159941670Y-83456400D01*
X159960883Y-83470650D01*
X159978607Y-83486714D01*
X159994671Y-83504438D01*
X160008921Y-83523651D01*
X160021218Y-83544168D01*
X160031446Y-83565792D01*
X160039504Y-83588314D01*
X160045316Y-83611518D01*
X160048826Y-83635179D01*
X160050000Y-83659071D01*
X160050000Y-84571571D01*
X160048826Y-84595463D01*
X160045316Y-84619124D01*
X160039504Y-84642328D01*
X160031446Y-84664850D01*
X160021218Y-84686474D01*
X160008921Y-84706991D01*
X159994671Y-84726204D01*
X159978607Y-84743928D01*
X159960883Y-84759992D01*
X159941670Y-84774242D01*
X159921153Y-84786539D01*
X159899529Y-84796767D01*
X159877007Y-84804825D01*
X159853803Y-84810637D01*
X159830142Y-84814147D01*
X159806250Y-84815321D01*
X159318750Y-84815321D01*
X159294858Y-84814147D01*
X159271197Y-84810637D01*
X159247993Y-84804825D01*
X159225471Y-84796767D01*
X159203847Y-84786539D01*
X159183330Y-84774242D01*
X159164117Y-84759992D01*
X159146393Y-84743928D01*
X159130329Y-84726204D01*
X159116079Y-84706991D01*
X159103782Y-84686474D01*
X159093554Y-84664850D01*
X159085496Y-84642328D01*
X159079684Y-84619124D01*
X159076174Y-84595463D01*
X159075000Y-84571571D01*
X159075000Y-83659071D01*
X159076174Y-83635179D01*
X159079684Y-83611518D01*
X159085496Y-83588314D01*
X159093554Y-83565792D01*
X159103782Y-83544168D01*
X159116079Y-83523651D01*
X159130329Y-83504438D01*
X159146393Y-83486714D01*
X159164117Y-83470650D01*
X159183330Y-83456400D01*
X159203847Y-83444103D01*
X159225471Y-83433875D01*
X159247993Y-83425817D01*
X159271197Y-83420005D01*
X159294858Y-83416495D01*
X159318750Y-83415321D01*
X159806250Y-83415321D01*
X159830142Y-83416495D01*
X159830142Y-83416495D01*
G37*
D12*
X159562500Y-84115321D03*
G04 #@! TD*
D11*
G04 #@! TO.C,R8*
G36*
X167780142Y-112576174D02*
X167803803Y-112579684D01*
X167827007Y-112585496D01*
X167849529Y-112593554D01*
X167871153Y-112603782D01*
X167891670Y-112616079D01*
X167910883Y-112630329D01*
X167928607Y-112646393D01*
X167944671Y-112664117D01*
X167958921Y-112683330D01*
X167971218Y-112703847D01*
X167981446Y-112725471D01*
X167989504Y-112747993D01*
X167995316Y-112771197D01*
X167998826Y-112794858D01*
X168000000Y-112818750D01*
X168000000Y-113306250D01*
X167998826Y-113330142D01*
X167995316Y-113353803D01*
X167989504Y-113377007D01*
X167981446Y-113399529D01*
X167971218Y-113421153D01*
X167958921Y-113441670D01*
X167944671Y-113460883D01*
X167928607Y-113478607D01*
X167910883Y-113494671D01*
X167891670Y-113508921D01*
X167871153Y-113521218D01*
X167849529Y-113531446D01*
X167827007Y-113539504D01*
X167803803Y-113545316D01*
X167780142Y-113548826D01*
X167756250Y-113550000D01*
X166843750Y-113550000D01*
X166819858Y-113548826D01*
X166796197Y-113545316D01*
X166772993Y-113539504D01*
X166750471Y-113531446D01*
X166728847Y-113521218D01*
X166708330Y-113508921D01*
X166689117Y-113494671D01*
X166671393Y-113478607D01*
X166655329Y-113460883D01*
X166641079Y-113441670D01*
X166628782Y-113421153D01*
X166618554Y-113399529D01*
X166610496Y-113377007D01*
X166604684Y-113353803D01*
X166601174Y-113330142D01*
X166600000Y-113306250D01*
X166600000Y-112818750D01*
X166601174Y-112794858D01*
X166604684Y-112771197D01*
X166610496Y-112747993D01*
X166618554Y-112725471D01*
X166628782Y-112703847D01*
X166641079Y-112683330D01*
X166655329Y-112664117D01*
X166671393Y-112646393D01*
X166689117Y-112630329D01*
X166708330Y-112616079D01*
X166728847Y-112603782D01*
X166750471Y-112593554D01*
X166772993Y-112585496D01*
X166796197Y-112579684D01*
X166819858Y-112576174D01*
X166843750Y-112575000D01*
X167756250Y-112575000D01*
X167780142Y-112576174D01*
X167780142Y-112576174D01*
G37*
D12*
X167300000Y-113062500D03*
D11*
G36*
X167780142Y-114451174D02*
X167803803Y-114454684D01*
X167827007Y-114460496D01*
X167849529Y-114468554D01*
X167871153Y-114478782D01*
X167891670Y-114491079D01*
X167910883Y-114505329D01*
X167928607Y-114521393D01*
X167944671Y-114539117D01*
X167958921Y-114558330D01*
X167971218Y-114578847D01*
X167981446Y-114600471D01*
X167989504Y-114622993D01*
X167995316Y-114646197D01*
X167998826Y-114669858D01*
X168000000Y-114693750D01*
X168000000Y-115181250D01*
X167998826Y-115205142D01*
X167995316Y-115228803D01*
X167989504Y-115252007D01*
X167981446Y-115274529D01*
X167971218Y-115296153D01*
X167958921Y-115316670D01*
X167944671Y-115335883D01*
X167928607Y-115353607D01*
X167910883Y-115369671D01*
X167891670Y-115383921D01*
X167871153Y-115396218D01*
X167849529Y-115406446D01*
X167827007Y-115414504D01*
X167803803Y-115420316D01*
X167780142Y-115423826D01*
X167756250Y-115425000D01*
X166843750Y-115425000D01*
X166819858Y-115423826D01*
X166796197Y-115420316D01*
X166772993Y-115414504D01*
X166750471Y-115406446D01*
X166728847Y-115396218D01*
X166708330Y-115383921D01*
X166689117Y-115369671D01*
X166671393Y-115353607D01*
X166655329Y-115335883D01*
X166641079Y-115316670D01*
X166628782Y-115296153D01*
X166618554Y-115274529D01*
X166610496Y-115252007D01*
X166604684Y-115228803D01*
X166601174Y-115205142D01*
X166600000Y-115181250D01*
X166600000Y-114693750D01*
X166601174Y-114669858D01*
X166604684Y-114646197D01*
X166610496Y-114622993D01*
X166618554Y-114600471D01*
X166628782Y-114578847D01*
X166641079Y-114558330D01*
X166655329Y-114539117D01*
X166671393Y-114521393D01*
X166689117Y-114505329D01*
X166708330Y-114491079D01*
X166728847Y-114478782D01*
X166750471Y-114468554D01*
X166772993Y-114460496D01*
X166796197Y-114454684D01*
X166819858Y-114451174D01*
X166843750Y-114450000D01*
X167756250Y-114450000D01*
X167780142Y-114451174D01*
X167780142Y-114451174D01*
G37*
D12*
X167300000Y-114937500D03*
G04 #@! TD*
D10*
G04 #@! TO.C,U1*
X147574000Y-87056000D03*
X145034000Y-96586000D03*
X145034000Y-87056000D03*
X147574000Y-96586000D03*
G04 #@! TD*
M02*
