G04 #@! TF.GenerationSoftware,KiCad,Pcbnew,5.0.2+dfsg1-1*
G04 #@! TF.CreationDate,2019-06-09T15:00:16+09:00*
G04 #@! TF.ProjectId,portal_shield_for_arduino,706f7274-616c-45f7-9368-69656c645f66,rev?*
G04 #@! TF.SameCoordinates,Original*
G04 #@! TF.FileFunction,Copper,L2,Bot*
G04 #@! TF.FilePolarity,Positive*
%FSLAX46Y46*%
G04 Gerber Fmt 4.6, Leading zero omitted, Abs format (unit mm)*
G04 Created by KiCad (PCBNEW 5.0.2+dfsg1-1) date Sun 09 Jun 2019 03:00:16 PM KST*
%MOMM*%
%LPD*%
G01*
G04 APERTURE LIST*
G04 #@! TA.AperFunction,ComponentPad*
%ADD10O,1.727200X2.032000*%
G04 #@! TD*
G04 #@! TA.AperFunction,ComponentPad*
%ADD11C,4.064000*%
G04 #@! TD*
G04 #@! TA.AperFunction,ComponentPad*
%ADD12C,2.000000*%
G04 #@! TD*
G04 #@! TA.AperFunction,ComponentPad*
%ADD13C,2.300000*%
G04 #@! TD*
G04 #@! TA.AperFunction,ComponentPad*
%ADD14C,1.998980*%
G04 #@! TD*
G04 #@! TA.AperFunction,ComponentPad*
%ADD15R,1.778000X1.778000*%
G04 #@! TD*
G04 #@! TA.AperFunction,ComponentPad*
%ADD16C,1.778000*%
G04 #@! TD*
G04 #@! TA.AperFunction,ComponentPad*
%ADD17R,1.700000X1.700000*%
G04 #@! TD*
G04 #@! TA.AperFunction,ComponentPad*
%ADD18O,1.700000X1.700000*%
G04 #@! TD*
G04 #@! TA.AperFunction,ViaPad*
%ADD19C,0.600000*%
G04 #@! TD*
G04 #@! TA.AperFunction,Conductor*
%ADD20C,0.250000*%
G04 #@! TD*
G04 #@! TA.AperFunction,Conductor*
%ADD21C,1.000000*%
G04 #@! TD*
G04 APERTURE END LIST*
D10*
G04 #@! TO.P,P1,1*
G04 #@! TO.N,Net-(P1-Pad1)*
X138938000Y-123825000D03*
G04 #@! TO.P,P1,2*
G04 #@! TO.N,/IOREF*
X141478000Y-123825000D03*
G04 #@! TO.P,P1,3*
G04 #@! TO.N,/Reset*
X144018000Y-123825000D03*
G04 #@! TO.P,P1,4*
G04 #@! TO.N,+3V3*
X146558000Y-123825000D03*
G04 #@! TO.P,P1,5*
G04 #@! TO.N,+5V*
X149098000Y-123825000D03*
G04 #@! TO.P,P1,6*
G04 #@! TO.N,GND*
X151638000Y-123825000D03*
G04 #@! TO.P,P1,7*
X154178000Y-123825000D03*
G04 #@! TO.P,P1,8*
G04 #@! TO.N,/Vin(12V)*
X156718000Y-123825000D03*
G04 #@! TD*
G04 #@! TO.P,P2,1*
G04 #@! TO.N,/A0*
X161798000Y-123825000D03*
G04 #@! TO.P,P2,2*
G04 #@! TO.N,/A1*
X164338000Y-123825000D03*
G04 #@! TO.P,P2,3*
G04 #@! TO.N,/A2*
X166878000Y-123825000D03*
G04 #@! TO.P,P2,4*
G04 #@! TO.N,/A3*
X169418000Y-123825000D03*
G04 #@! TO.P,P2,5*
G04 #@! TO.N,/A4(SDA)*
X171958000Y-123825000D03*
G04 #@! TO.P,P2,6*
G04 #@! TO.N,/A5(SCL)*
X174498000Y-123825000D03*
G04 #@! TD*
G04 #@! TO.P,P3,1*
G04 #@! TO.N,/A5(SCL)*
X129794000Y-75565000D03*
G04 #@! TO.P,P3,2*
G04 #@! TO.N,/A4(SDA)*
X132334000Y-75565000D03*
G04 #@! TO.P,P3,3*
G04 #@! TO.N,/AREF*
X134874000Y-75565000D03*
G04 #@! TO.P,P3,4*
G04 #@! TO.N,GND*
X137414000Y-75565000D03*
G04 #@! TO.P,P3,5*
G04 #@! TO.N,/13(SCK)*
X139954000Y-75565000D03*
G04 #@! TO.P,P3,6*
G04 #@! TO.N,/12(MISO)*
X142494000Y-75565000D03*
G04 #@! TO.P,P3,7*
G04 #@! TO.N,/11(\002A\002A/MOSI)*
X145034000Y-75565000D03*
G04 #@! TO.P,P3,8*
G04 #@! TO.N,/10(\002A\002A/SS)*
X147574000Y-75565000D03*
G04 #@! TO.P,P3,9*
G04 #@! TO.N,/9(\002A\002A)*
X150114000Y-75565000D03*
G04 #@! TO.P,P3,10*
G04 #@! TO.N,/8*
X152654000Y-75565000D03*
G04 #@! TD*
G04 #@! TO.P,P4,1*
G04 #@! TO.N,/7*
X156718000Y-75565000D03*
G04 #@! TO.P,P4,2*
G04 #@! TO.N,/6(\002A\002A)*
X159258000Y-75565000D03*
G04 #@! TO.P,P4,3*
G04 #@! TO.N,/5(\002A\002A)*
X161798000Y-75565000D03*
G04 #@! TO.P,P4,4*
G04 #@! TO.N,/4*
X164338000Y-75565000D03*
G04 #@! TO.P,P4,5*
G04 #@! TO.N,/3(\002A\002A)*
X166878000Y-75565000D03*
G04 #@! TO.P,P4,6*
G04 #@! TO.N,/2*
X169418000Y-75565000D03*
G04 #@! TO.P,P4,7*
G04 #@! TO.N,/1(Tx)*
X171958000Y-75565000D03*
G04 #@! TO.P,P4,8*
G04 #@! TO.N,/0(Rx)*
X174498000Y-75565000D03*
G04 #@! TD*
D11*
G04 #@! TO.P,P5,1*
G04 #@! TO.N,Net-(P5-Pad1)*
X124968000Y-123825000D03*
G04 #@! TD*
G04 #@! TO.P,P7,1*
G04 #@! TO.N,Net-(P7-Pad1)*
X126238000Y-75565000D03*
G04 #@! TD*
D12*
G04 #@! TO.P,J1,1*
G04 #@! TO.N,Net-(J1-Pad1)*
X127398000Y-102815000D03*
G04 #@! TO.P,J1,2*
G04 #@! TO.N,Net-(J1-Pad2)*
X127398000Y-99315000D03*
G04 #@! TD*
G04 #@! TO.P,J3,1*
G04 #@! TO.N,Net-(J2-Pad4)*
X127398000Y-109815000D03*
G04 #@! TO.P,J3,2*
G04 #@! TO.N,Net-(J2-Pad3)*
X127398000Y-106315000D03*
G04 #@! TD*
G04 #@! TO.P,J5,2*
G04 #@! TO.N,Net-(J4-Pad3)*
X127398000Y-113315000D03*
G04 #@! TO.P,J5,1*
G04 #@! TO.N,Net-(J4-Pad4)*
X127398000Y-116815000D03*
G04 #@! TD*
G04 #@! TO.P,K1,1*
G04 #@! TO.N,Net-(D1-Pad1)*
X142988000Y-84335000D03*
G04 #@! TO.P,K1,2*
G04 #@! TO.N,Net-(D1-Pad2)*
X140448000Y-84335000D03*
D13*
G04 #@! TO.P,K1,5*
G04 #@! TO.N,Net-(J1-Pad1)*
X130288000Y-84335000D03*
G04 #@! TO.P,K1,6*
G04 #@! TO.N,Net-(J1-Pad2)*
X125208000Y-84335000D03*
G04 #@! TD*
D14*
G04 #@! TO.P,Q1,*
G04 #@! TO.N,*
X155697400Y-97365000D03*
D15*
G04 #@! TO.P,Q1,1*
G04 #@! TO.N,Net-(J2-Pad2)*
X161072040Y-99803400D03*
D16*
G04 #@! TO.P,Q1,3*
G04 #@! TO.N,GND*
X161072040Y-94723400D03*
G04 #@! TO.P,Q1,2*
G04 #@! TO.N,Net-(J2-Pad5)*
X161072040Y-97263400D03*
G04 #@! TD*
G04 #@! TO.P,Q4,2*
G04 #@! TO.N,Net-(J4-Pad5)*
X161072040Y-113263400D03*
G04 #@! TO.P,Q4,3*
G04 #@! TO.N,GND*
X161072040Y-110723400D03*
D15*
G04 #@! TO.P,Q4,1*
G04 #@! TO.N,Net-(J4-Pad2)*
X161072040Y-115803400D03*
D14*
G04 #@! TO.P,Q4,*
G04 #@! TO.N,*
X155697400Y-113365000D03*
G04 #@! TD*
D17*
G04 #@! TO.P,J2,1*
G04 #@! TO.N,GND*
X146998000Y-95865000D03*
D18*
G04 #@! TO.P,J2,2*
G04 #@! TO.N,Net-(J2-Pad2)*
X146998000Y-98405000D03*
G04 #@! TO.P,J2,3*
G04 #@! TO.N,Net-(J2-Pad3)*
X144458000Y-95865000D03*
G04 #@! TO.P,J2,4*
G04 #@! TO.N,Net-(J2-Pad4)*
X144458000Y-98405000D03*
G04 #@! TO.P,J2,5*
G04 #@! TO.N,Net-(J2-Pad5)*
X141918000Y-95865000D03*
G04 #@! TO.P,J2,6*
G04 #@! TO.N,/Vin(12V)*
X141918000Y-98405000D03*
G04 #@! TD*
G04 #@! TO.P,J4,6*
G04 #@! TO.N,/Vin(12V)*
X141918000Y-114405000D03*
G04 #@! TO.P,J4,5*
G04 #@! TO.N,Net-(J4-Pad5)*
X141918000Y-111865000D03*
G04 #@! TO.P,J4,4*
G04 #@! TO.N,Net-(J4-Pad4)*
X144458000Y-114405000D03*
G04 #@! TO.P,J4,3*
G04 #@! TO.N,Net-(J4-Pad3)*
X144458000Y-111865000D03*
G04 #@! TO.P,J4,2*
G04 #@! TO.N,Net-(J4-Pad2)*
X146998000Y-114405000D03*
D17*
G04 #@! TO.P,J4,1*
G04 #@! TO.N,GND*
X146998000Y-111865000D03*
G04 #@! TD*
D19*
G04 #@! TO.N,GND*
X125998000Y-81365000D03*
X130998000Y-81365000D03*
X135998000Y-81365000D03*
X135998000Y-86365000D03*
X135998000Y-91365000D03*
X128498000Y-81365000D03*
X133498000Y-81365000D03*
X133498000Y-78865000D03*
X135998000Y-78865000D03*
X130998000Y-78865000D03*
X128498000Y-78865000D03*
X125998000Y-78865000D03*
X123498000Y-78865000D03*
X123498000Y-81365000D03*
X123498000Y-83865000D03*
X128498000Y-83865000D03*
X133498000Y-83865000D03*
X135998000Y-83865000D03*
X133498000Y-86365000D03*
X133498000Y-88865000D03*
X135998000Y-88865000D03*
X133498000Y-91365000D03*
X133498000Y-93865000D03*
X135998000Y-93865000D03*
X138498000Y-88865000D03*
X140998000Y-88865000D03*
X143498000Y-88865000D03*
X145998000Y-78865000D03*
X145998000Y-81365000D03*
X148498000Y-81365000D03*
X153498000Y-78865000D03*
X128498000Y-91365000D03*
X128498000Y-88865000D03*
X123498000Y-88865000D03*
X123498000Y-91365000D03*
X123498000Y-93865000D03*
X123498000Y-96365000D03*
X128498000Y-93865000D03*
X123498000Y-98865000D03*
X123498000Y-101365000D03*
X123498000Y-103865000D03*
X123498000Y-106365000D03*
X123498000Y-108865000D03*
X123498000Y-111365000D03*
X123498000Y-113865000D03*
X123498000Y-116365000D03*
X123498000Y-118865000D03*
X125998000Y-118865000D03*
X125998000Y-121365000D03*
X123498000Y-121365000D03*
X128498000Y-121365000D03*
X128498000Y-118865000D03*
X130998000Y-118865000D03*
X130998000Y-121365000D03*
X130998000Y-123865000D03*
X128498000Y-123865000D03*
X133498000Y-123865000D03*
X133498000Y-121365000D03*
X133498000Y-118865000D03*
X135998000Y-118865000D03*
X135998000Y-121365000D03*
X135998000Y-123865000D03*
X138498000Y-121365000D03*
X138498000Y-118865000D03*
X140998000Y-118865000D03*
X140998000Y-121365000D03*
X143498000Y-121365000D03*
X145998000Y-121365000D03*
X143498000Y-106365000D03*
X145998000Y-103865000D03*
X145998000Y-106365000D03*
X148498000Y-106365000D03*
X148498000Y-103865000D03*
X148498000Y-101365000D03*
X145998000Y-101365000D03*
X150998000Y-101365000D03*
X150998000Y-103865000D03*
X150998000Y-106365000D03*
X153498000Y-106365000D03*
X153498000Y-103865000D03*
X153498000Y-101365000D03*
X153498000Y-96365000D03*
X150998000Y-96365000D03*
X150998000Y-98865000D03*
X153498000Y-98865000D03*
X155998000Y-91365000D03*
X158498000Y-93865000D03*
X163498000Y-96365000D03*
X163498000Y-98865000D03*
X158498000Y-98865000D03*
X155998000Y-101365000D03*
X155998000Y-103865000D03*
X158498000Y-103865000D03*
X158498000Y-101365000D03*
X160998000Y-101365000D03*
X160998000Y-103865000D03*
X163498000Y-103865000D03*
X163498000Y-101365000D03*
X163498000Y-106365000D03*
X160998000Y-106365000D03*
X158498000Y-106365000D03*
X155998000Y-106365000D03*
X158498000Y-108865000D03*
X160998000Y-108865000D03*
X163498000Y-108865000D03*
X163498000Y-111365000D03*
X163498000Y-113865000D03*
X165998000Y-113865000D03*
X165998000Y-103865000D03*
X165998000Y-106365000D03*
X168498000Y-103865000D03*
X168498000Y-106365000D03*
X170998000Y-106365000D03*
X175998000Y-103865000D03*
X175998000Y-101365000D03*
X175998000Y-98865000D03*
X175998000Y-96365000D03*
X173498000Y-96365000D03*
X173498000Y-98865000D03*
X175998000Y-93865000D03*
X175998000Y-91365000D03*
X175998000Y-88865000D03*
X175998000Y-86365000D03*
X170998000Y-88865000D03*
X170998000Y-86365000D03*
X165998000Y-88865000D03*
X165998000Y-86365000D03*
X158498000Y-86365000D03*
X175998000Y-78865000D03*
X173498000Y-78865000D03*
X170998000Y-113865000D03*
X168498000Y-113865000D03*
X173498000Y-111365000D03*
X173498000Y-113865000D03*
X163498000Y-118865000D03*
X160998000Y-118865000D03*
X158498000Y-118865000D03*
X153498000Y-113865000D03*
X153498000Y-111365000D03*
X150998000Y-111365000D03*
X150998000Y-113865000D03*
X155998000Y-118865000D03*
X173498000Y-121365000D03*
X175998000Y-121365000D03*
X175998000Y-118865000D03*
X175998000Y-116365000D03*
X133498000Y-96365000D03*
X128498000Y-86365000D03*
X123498000Y-76365000D03*
X123498000Y-73865000D03*
X138498000Y-78865000D03*
X138498000Y-81365000D03*
X138498000Y-83865000D03*
X138498000Y-86365000D03*
X163498000Y-91365000D03*
X160998000Y-88865000D03*
X148498000Y-111365000D03*
X148498000Y-113865000D03*
X135998000Y-96365000D03*
X133498000Y-98865000D03*
X135998000Y-103865000D03*
X133498000Y-103865000D03*
X133498000Y-106365000D03*
X135998000Y-106365000D03*
X135998000Y-101365000D03*
X130998000Y-106365000D03*
X148498000Y-117365000D03*
X150998000Y-117365000D03*
X153498000Y-117365000D03*
X138498000Y-114865000D03*
X135998000Y-114865000D03*
X133498000Y-114865000D03*
X130998000Y-111865000D03*
X133498000Y-111865000D03*
X135998000Y-110865000D03*
X140998000Y-106365000D03*
X143498000Y-103865000D03*
X130998000Y-114865000D03*
X125998000Y-114865000D03*
X125998000Y-111865000D03*
X125998000Y-108115000D03*
X125998000Y-104865000D03*
X125998000Y-101115000D03*
X130998000Y-101865000D03*
X168498000Y-78865000D03*
X165998000Y-78865000D03*
X163248000Y-78865000D03*
X160998000Y-78865000D03*
X160998000Y-83115000D03*
X160998000Y-86115000D03*
X158498000Y-78865000D03*
G04 #@! TO.N,/5(\002A\002A)*
X166998000Y-107885000D03*
G04 #@! TO.N,/3(\002A\002A)*
X166988000Y-91775000D03*
G04 #@! TD*
D20*
G04 #@! TO.N,/5(\002A\002A)*
X166998000Y-96515000D02*
X166998000Y-107885000D01*
X161798000Y-75565000D02*
X161798000Y-91315000D01*
X161798000Y-91315000D02*
X161858000Y-91375000D01*
X161858000Y-91375000D02*
X166998000Y-96515000D01*
G04 #@! TO.N,/3(\002A\002A)*
X166988000Y-75675000D02*
X166878000Y-75565000D01*
X166988000Y-91775000D02*
X166988000Y-75675000D01*
D21*
G04 #@! TO.N,/Vin(12V)*
X156718000Y-121809000D02*
X153854000Y-118945000D01*
X156718000Y-123825000D02*
X156718000Y-121809000D01*
X141918000Y-116995000D02*
X141918000Y-114405000D01*
X143868000Y-118945000D02*
X141918000Y-116995000D01*
X138898000Y-101425000D02*
X141918000Y-98405000D01*
X138898000Y-101425000D02*
X138898000Y-112755000D01*
X140548000Y-114405000D02*
X141918000Y-114405000D01*
X138898000Y-112755000D02*
X140548000Y-114405000D01*
X143868000Y-118945000D02*
X153854000Y-118945000D01*
G04 #@! TO.N,Net-(J2-Pad3)*
X139712213Y-93015000D02*
X143288000Y-93015000D01*
X144458000Y-94185000D02*
X144458000Y-95865000D01*
X143288000Y-93015000D02*
X144458000Y-94185000D01*
X138668000Y-96459213D02*
X138668000Y-94059213D01*
X128812213Y-106315000D02*
X138668000Y-96459213D01*
X127398000Y-106315000D02*
X128812213Y-106315000D01*
X138668000Y-94059213D02*
X139712213Y-93015000D01*
G04 #@! TO.N,Net-(J4-Pad5)*
X159814805Y-113263400D02*
X155996405Y-109445000D01*
X161072040Y-113263400D02*
X159814805Y-113263400D01*
X141918000Y-110545000D02*
X141918000Y-111865000D01*
X143018000Y-109445000D02*
X141918000Y-110545000D01*
X143018000Y-109445000D02*
X155996405Y-109445000D01*
G04 #@! TD*
D20*
G04 #@! TO.N,GND*
G36*
X124874544Y-73524444D02*
X124197444Y-74201544D01*
X123831000Y-75086218D01*
X123831000Y-76043782D01*
X124197444Y-76928456D01*
X124874544Y-77605556D01*
X125759218Y-77972000D01*
X126716782Y-77972000D01*
X127601456Y-77605556D01*
X128278556Y-76928456D01*
X128611935Y-76123608D01*
X128627265Y-76200678D01*
X128901021Y-76610380D01*
X129310723Y-76884135D01*
X129794000Y-76980265D01*
X130277278Y-76884135D01*
X130686980Y-76610380D01*
X130960735Y-76200677D01*
X131032600Y-75839387D01*
X131032600Y-75290613D01*
X131095400Y-75290613D01*
X131095400Y-75839388D01*
X131167265Y-76200678D01*
X131441021Y-76610380D01*
X131850723Y-76884135D01*
X132334000Y-76980265D01*
X132817278Y-76884135D01*
X133226980Y-76610380D01*
X133500735Y-76200677D01*
X133572600Y-75839387D01*
X133572600Y-75290613D01*
X133635400Y-75290613D01*
X133635400Y-75839388D01*
X133707265Y-76200678D01*
X133981021Y-76610380D01*
X134390723Y-76884135D01*
X134874000Y-76980265D01*
X135357278Y-76884135D01*
X135766980Y-76610380D01*
X136040735Y-76200677D01*
X136103663Y-75884313D01*
X136185001Y-75884313D01*
X136342428Y-76341925D01*
X136662992Y-76704459D01*
X137097769Y-76914950D01*
X137289000Y-76855406D01*
X137289000Y-75690000D01*
X137539000Y-75690000D01*
X137539000Y-76855406D01*
X137730231Y-76914950D01*
X138165008Y-76704459D01*
X138485572Y-76341925D01*
X138642999Y-75884313D01*
X138560229Y-75690000D01*
X137539000Y-75690000D01*
X137289000Y-75690000D01*
X136267771Y-75690000D01*
X136185001Y-75884313D01*
X136103663Y-75884313D01*
X136112600Y-75839387D01*
X136112600Y-75290612D01*
X136103664Y-75245687D01*
X136185001Y-75245687D01*
X136267771Y-75440000D01*
X137289000Y-75440000D01*
X137289000Y-74274594D01*
X137539000Y-74274594D01*
X137539000Y-75440000D01*
X138560229Y-75440000D01*
X138623862Y-75290613D01*
X138715400Y-75290613D01*
X138715400Y-75839388D01*
X138787265Y-76200678D01*
X139061021Y-76610380D01*
X139470723Y-76884135D01*
X139954000Y-76980265D01*
X140437278Y-76884135D01*
X140846980Y-76610380D01*
X141120735Y-76200677D01*
X141192600Y-75839387D01*
X141192600Y-75290613D01*
X141255400Y-75290613D01*
X141255400Y-75839388D01*
X141327265Y-76200678D01*
X141601021Y-76610380D01*
X142010723Y-76884135D01*
X142494000Y-76980265D01*
X142977278Y-76884135D01*
X143386980Y-76610380D01*
X143660735Y-76200677D01*
X143732600Y-75839387D01*
X143732600Y-75290613D01*
X143795400Y-75290613D01*
X143795400Y-75839388D01*
X143867265Y-76200678D01*
X144141021Y-76610380D01*
X144550723Y-76884135D01*
X145034000Y-76980265D01*
X145517278Y-76884135D01*
X145926980Y-76610380D01*
X146200735Y-76200677D01*
X146272600Y-75839387D01*
X146272600Y-75290613D01*
X146335400Y-75290613D01*
X146335400Y-75839388D01*
X146407265Y-76200678D01*
X146681021Y-76610380D01*
X147090723Y-76884135D01*
X147574000Y-76980265D01*
X148057278Y-76884135D01*
X148466980Y-76610380D01*
X148740735Y-76200677D01*
X148812600Y-75839387D01*
X148812600Y-75290613D01*
X148875400Y-75290613D01*
X148875400Y-75839388D01*
X148947265Y-76200678D01*
X149221021Y-76610380D01*
X149630723Y-76884135D01*
X150114000Y-76980265D01*
X150597278Y-76884135D01*
X151006980Y-76610380D01*
X151280735Y-76200677D01*
X151352600Y-75839387D01*
X151352600Y-75290613D01*
X151415400Y-75290613D01*
X151415400Y-75839388D01*
X151487265Y-76200678D01*
X151761021Y-76610380D01*
X152170723Y-76884135D01*
X152654000Y-76980265D01*
X153137278Y-76884135D01*
X153546980Y-76610380D01*
X153820735Y-76200677D01*
X153892600Y-75839387D01*
X153892600Y-75290613D01*
X155479400Y-75290613D01*
X155479400Y-75839388D01*
X155551265Y-76200678D01*
X155825021Y-76610380D01*
X156234723Y-76884135D01*
X156718000Y-76980265D01*
X157201278Y-76884135D01*
X157610980Y-76610380D01*
X157884735Y-76200677D01*
X157956600Y-75839387D01*
X157956600Y-75290613D01*
X158019400Y-75290613D01*
X158019400Y-75839388D01*
X158091265Y-76200678D01*
X158365021Y-76610380D01*
X158774723Y-76884135D01*
X159258000Y-76980265D01*
X159741278Y-76884135D01*
X160150980Y-76610380D01*
X160424735Y-76200677D01*
X160496600Y-75839387D01*
X160496600Y-75290613D01*
X160559400Y-75290613D01*
X160559400Y-75839388D01*
X160631265Y-76200678D01*
X160905021Y-76610380D01*
X161298000Y-76872961D01*
X161298001Y-91265754D01*
X161288205Y-91315000D01*
X161303650Y-91392643D01*
X161327012Y-91510090D01*
X161437521Y-91675480D01*
X161479269Y-91703375D01*
X166498000Y-96722107D01*
X166498001Y-107430405D01*
X166425763Y-107502643D01*
X166323000Y-107750734D01*
X166323000Y-108019266D01*
X166425763Y-108267357D01*
X166615643Y-108457237D01*
X166863734Y-108560000D01*
X167132266Y-108560000D01*
X167380357Y-108457237D01*
X167570237Y-108267357D01*
X167673000Y-108019266D01*
X167673000Y-107750734D01*
X167570237Y-107502643D01*
X167498000Y-107430406D01*
X167498000Y-96564243D01*
X167507795Y-96515000D01*
X167468989Y-96319910D01*
X167393150Y-96206408D01*
X167358480Y-96154520D01*
X167316733Y-96126626D01*
X162298000Y-91107894D01*
X162298000Y-76872962D01*
X162690980Y-76610380D01*
X162964735Y-76200677D01*
X163036600Y-75839387D01*
X163036600Y-75290613D01*
X163099400Y-75290613D01*
X163099400Y-75839388D01*
X163171265Y-76200678D01*
X163445021Y-76610380D01*
X163854723Y-76884135D01*
X164338000Y-76980265D01*
X164821278Y-76884135D01*
X165230980Y-76610380D01*
X165504735Y-76200677D01*
X165576600Y-75839387D01*
X165576600Y-75290613D01*
X165639400Y-75290613D01*
X165639400Y-75839388D01*
X165711265Y-76200678D01*
X165985021Y-76610380D01*
X166394723Y-76884135D01*
X166488001Y-76902689D01*
X166488000Y-91320406D01*
X166415763Y-91392643D01*
X166313000Y-91640734D01*
X166313000Y-91909266D01*
X166415763Y-92157357D01*
X166605643Y-92347237D01*
X166853734Y-92450000D01*
X167122266Y-92450000D01*
X167370357Y-92347237D01*
X167560237Y-92157357D01*
X167663000Y-91909266D01*
X167663000Y-91640734D01*
X167560237Y-91392643D01*
X167488000Y-91320406D01*
X167488000Y-76799462D01*
X167770980Y-76610380D01*
X168044735Y-76200677D01*
X168116600Y-75839387D01*
X168116600Y-75290613D01*
X168179400Y-75290613D01*
X168179400Y-75839388D01*
X168251265Y-76200678D01*
X168525021Y-76610380D01*
X168934723Y-76884135D01*
X169418000Y-76980265D01*
X169901278Y-76884135D01*
X170310980Y-76610380D01*
X170584735Y-76200677D01*
X170656600Y-75839387D01*
X170656600Y-75290613D01*
X170719400Y-75290613D01*
X170719400Y-75839388D01*
X170791265Y-76200678D01*
X171065021Y-76610380D01*
X171474723Y-76884135D01*
X171958000Y-76980265D01*
X172441278Y-76884135D01*
X172850980Y-76610380D01*
X173124735Y-76200677D01*
X173196600Y-75839387D01*
X173196600Y-75290613D01*
X173259400Y-75290613D01*
X173259400Y-75839388D01*
X173331265Y-76200678D01*
X173605021Y-76610380D01*
X174014723Y-76884135D01*
X174498000Y-76980265D01*
X174981278Y-76884135D01*
X175390980Y-76610380D01*
X175664735Y-76200677D01*
X175736600Y-75839387D01*
X175736600Y-75290612D01*
X175664735Y-74929322D01*
X175390980Y-74519620D01*
X174981277Y-74245865D01*
X174498000Y-74149735D01*
X174014722Y-74245865D01*
X173605020Y-74519620D01*
X173331265Y-74929323D01*
X173259400Y-75290613D01*
X173196600Y-75290613D01*
X173196600Y-75290612D01*
X173124735Y-74929322D01*
X172850980Y-74519620D01*
X172441277Y-74245865D01*
X171958000Y-74149735D01*
X171474722Y-74245865D01*
X171065020Y-74519620D01*
X170791265Y-74929323D01*
X170719400Y-75290613D01*
X170656600Y-75290613D01*
X170656600Y-75290612D01*
X170584735Y-74929322D01*
X170310980Y-74519620D01*
X169901277Y-74245865D01*
X169418000Y-74149735D01*
X168934722Y-74245865D01*
X168525020Y-74519620D01*
X168251265Y-74929323D01*
X168179400Y-75290613D01*
X168116600Y-75290613D01*
X168116600Y-75290612D01*
X168044735Y-74929322D01*
X167770980Y-74519620D01*
X167361277Y-74245865D01*
X166878000Y-74149735D01*
X166394722Y-74245865D01*
X165985020Y-74519620D01*
X165711265Y-74929323D01*
X165639400Y-75290613D01*
X165576600Y-75290613D01*
X165576600Y-75290612D01*
X165504735Y-74929322D01*
X165230980Y-74519620D01*
X164821277Y-74245865D01*
X164338000Y-74149735D01*
X163854722Y-74245865D01*
X163445020Y-74519620D01*
X163171265Y-74929323D01*
X163099400Y-75290613D01*
X163036600Y-75290613D01*
X163036600Y-75290612D01*
X162964735Y-74929322D01*
X162690980Y-74519620D01*
X162281277Y-74245865D01*
X161798000Y-74149735D01*
X161314722Y-74245865D01*
X160905020Y-74519620D01*
X160631265Y-74929323D01*
X160559400Y-75290613D01*
X160496600Y-75290613D01*
X160496600Y-75290612D01*
X160424735Y-74929322D01*
X160150980Y-74519620D01*
X159741277Y-74245865D01*
X159258000Y-74149735D01*
X158774722Y-74245865D01*
X158365020Y-74519620D01*
X158091265Y-74929323D01*
X158019400Y-75290613D01*
X157956600Y-75290613D01*
X157956600Y-75290612D01*
X157884735Y-74929322D01*
X157610980Y-74519620D01*
X157201277Y-74245865D01*
X156718000Y-74149735D01*
X156234722Y-74245865D01*
X155825020Y-74519620D01*
X155551265Y-74929323D01*
X155479400Y-75290613D01*
X153892600Y-75290613D01*
X153892600Y-75290612D01*
X153820735Y-74929322D01*
X153546980Y-74519620D01*
X153137277Y-74245865D01*
X152654000Y-74149735D01*
X152170722Y-74245865D01*
X151761020Y-74519620D01*
X151487265Y-74929323D01*
X151415400Y-75290613D01*
X151352600Y-75290613D01*
X151352600Y-75290612D01*
X151280735Y-74929322D01*
X151006980Y-74519620D01*
X150597277Y-74245865D01*
X150114000Y-74149735D01*
X149630722Y-74245865D01*
X149221020Y-74519620D01*
X148947265Y-74929323D01*
X148875400Y-75290613D01*
X148812600Y-75290613D01*
X148812600Y-75290612D01*
X148740735Y-74929322D01*
X148466980Y-74519620D01*
X148057277Y-74245865D01*
X147574000Y-74149735D01*
X147090722Y-74245865D01*
X146681020Y-74519620D01*
X146407265Y-74929323D01*
X146335400Y-75290613D01*
X146272600Y-75290613D01*
X146272600Y-75290612D01*
X146200735Y-74929322D01*
X145926980Y-74519620D01*
X145517277Y-74245865D01*
X145034000Y-74149735D01*
X144550722Y-74245865D01*
X144141020Y-74519620D01*
X143867265Y-74929323D01*
X143795400Y-75290613D01*
X143732600Y-75290613D01*
X143732600Y-75290612D01*
X143660735Y-74929322D01*
X143386980Y-74519620D01*
X142977277Y-74245865D01*
X142494000Y-74149735D01*
X142010722Y-74245865D01*
X141601020Y-74519620D01*
X141327265Y-74929323D01*
X141255400Y-75290613D01*
X141192600Y-75290613D01*
X141192600Y-75290612D01*
X141120735Y-74929322D01*
X140846980Y-74519620D01*
X140437277Y-74245865D01*
X139954000Y-74149735D01*
X139470722Y-74245865D01*
X139061020Y-74519620D01*
X138787265Y-74929323D01*
X138715400Y-75290613D01*
X138623862Y-75290613D01*
X138642999Y-75245687D01*
X138485572Y-74788075D01*
X138165008Y-74425541D01*
X137730231Y-74215050D01*
X137539000Y-74274594D01*
X137289000Y-74274594D01*
X137097769Y-74215050D01*
X136662992Y-74425541D01*
X136342428Y-74788075D01*
X136185001Y-75245687D01*
X136103664Y-75245687D01*
X136040735Y-74929322D01*
X135766980Y-74519620D01*
X135357277Y-74245865D01*
X134874000Y-74149735D01*
X134390722Y-74245865D01*
X133981020Y-74519620D01*
X133707265Y-74929323D01*
X133635400Y-75290613D01*
X133572600Y-75290613D01*
X133572600Y-75290612D01*
X133500735Y-74929322D01*
X133226980Y-74519620D01*
X132817277Y-74245865D01*
X132334000Y-74149735D01*
X131850722Y-74245865D01*
X131441020Y-74519620D01*
X131167265Y-74929323D01*
X131095400Y-75290613D01*
X131032600Y-75290613D01*
X131032600Y-75290612D01*
X130960735Y-74929322D01*
X130686980Y-74519620D01*
X130277277Y-74245865D01*
X129794000Y-74149735D01*
X129310722Y-74245865D01*
X128901020Y-74519620D01*
X128627265Y-74929323D01*
X128611935Y-75006392D01*
X128278556Y-74201544D01*
X127601456Y-73524444D01*
X127482088Y-73475000D01*
X175327605Y-73475000D01*
X176588001Y-74735397D01*
X176588000Y-123869320D01*
X176588001Y-123869325D01*
X176588000Y-125915000D01*
X126212088Y-125915000D01*
X126331456Y-125865556D01*
X127008556Y-125188456D01*
X127375000Y-124303782D01*
X127375000Y-123550613D01*
X137699400Y-123550613D01*
X137699400Y-124099388D01*
X137771265Y-124460678D01*
X138045021Y-124870380D01*
X138454723Y-125144135D01*
X138938000Y-125240265D01*
X139421278Y-125144135D01*
X139830980Y-124870380D01*
X140104735Y-124460677D01*
X140176600Y-124099387D01*
X140176600Y-123550613D01*
X140239400Y-123550613D01*
X140239400Y-124099388D01*
X140311265Y-124460678D01*
X140585021Y-124870380D01*
X140994723Y-125144135D01*
X141478000Y-125240265D01*
X141961278Y-125144135D01*
X142370980Y-124870380D01*
X142644735Y-124460677D01*
X142716600Y-124099387D01*
X142716600Y-123550613D01*
X142779400Y-123550613D01*
X142779400Y-124099388D01*
X142851265Y-124460678D01*
X143125021Y-124870380D01*
X143534723Y-125144135D01*
X144018000Y-125240265D01*
X144501278Y-125144135D01*
X144910980Y-124870380D01*
X145184735Y-124460677D01*
X145256600Y-124099387D01*
X145256600Y-123550613D01*
X145319400Y-123550613D01*
X145319400Y-124099388D01*
X145391265Y-124460678D01*
X145665021Y-124870380D01*
X146074723Y-125144135D01*
X146558000Y-125240265D01*
X147041278Y-125144135D01*
X147450980Y-124870380D01*
X147724735Y-124460677D01*
X147796600Y-124099387D01*
X147796600Y-123550613D01*
X147859400Y-123550613D01*
X147859400Y-124099388D01*
X147931265Y-124460678D01*
X148205021Y-124870380D01*
X148614723Y-125144135D01*
X149098000Y-125240265D01*
X149581278Y-125144135D01*
X149990980Y-124870380D01*
X150264735Y-124460677D01*
X150327663Y-124144313D01*
X150409001Y-124144313D01*
X150566428Y-124601925D01*
X150886992Y-124964459D01*
X151321769Y-125174950D01*
X151513000Y-125115406D01*
X151513000Y-123950000D01*
X151763000Y-123950000D01*
X151763000Y-125115406D01*
X151954231Y-125174950D01*
X152389008Y-124964459D01*
X152709572Y-124601925D01*
X152866999Y-124144313D01*
X152949001Y-124144313D01*
X153106428Y-124601925D01*
X153426992Y-124964459D01*
X153861769Y-125174950D01*
X154053000Y-125115406D01*
X154053000Y-123950000D01*
X154303000Y-123950000D01*
X154303000Y-125115406D01*
X154494231Y-125174950D01*
X154929008Y-124964459D01*
X155249572Y-124601925D01*
X155406999Y-124144313D01*
X155324229Y-123950000D01*
X154303000Y-123950000D01*
X154053000Y-123950000D01*
X153031771Y-123950000D01*
X152949001Y-124144313D01*
X152866999Y-124144313D01*
X152784229Y-123950000D01*
X151763000Y-123950000D01*
X151513000Y-123950000D01*
X150491771Y-123950000D01*
X150409001Y-124144313D01*
X150327663Y-124144313D01*
X150336600Y-124099387D01*
X150336600Y-123550612D01*
X150327664Y-123505687D01*
X150409001Y-123505687D01*
X150491771Y-123700000D01*
X151513000Y-123700000D01*
X151513000Y-122534594D01*
X151763000Y-122534594D01*
X151763000Y-123700000D01*
X152784229Y-123700000D01*
X152866999Y-123505687D01*
X152949001Y-123505687D01*
X153031771Y-123700000D01*
X154053000Y-123700000D01*
X154053000Y-122534594D01*
X154303000Y-122534594D01*
X154303000Y-123700000D01*
X155324229Y-123700000D01*
X155406999Y-123505687D01*
X155249572Y-123048075D01*
X154929008Y-122685541D01*
X154494231Y-122475050D01*
X154303000Y-122534594D01*
X154053000Y-122534594D01*
X153861769Y-122475050D01*
X153426992Y-122685541D01*
X153106428Y-123048075D01*
X152949001Y-123505687D01*
X152866999Y-123505687D01*
X152709572Y-123048075D01*
X152389008Y-122685541D01*
X151954231Y-122475050D01*
X151763000Y-122534594D01*
X151513000Y-122534594D01*
X151321769Y-122475050D01*
X150886992Y-122685541D01*
X150566428Y-123048075D01*
X150409001Y-123505687D01*
X150327664Y-123505687D01*
X150264735Y-123189322D01*
X149990980Y-122779620D01*
X149581277Y-122505865D01*
X149098000Y-122409735D01*
X148614722Y-122505865D01*
X148205020Y-122779620D01*
X147931265Y-123189323D01*
X147859400Y-123550613D01*
X147796600Y-123550613D01*
X147796600Y-123550612D01*
X147724735Y-123189322D01*
X147450980Y-122779620D01*
X147041277Y-122505865D01*
X146558000Y-122409735D01*
X146074722Y-122505865D01*
X145665020Y-122779620D01*
X145391265Y-123189323D01*
X145319400Y-123550613D01*
X145256600Y-123550613D01*
X145256600Y-123550612D01*
X145184735Y-123189322D01*
X144910980Y-122779620D01*
X144501277Y-122505865D01*
X144018000Y-122409735D01*
X143534722Y-122505865D01*
X143125020Y-122779620D01*
X142851265Y-123189323D01*
X142779400Y-123550613D01*
X142716600Y-123550613D01*
X142716600Y-123550612D01*
X142644735Y-123189322D01*
X142370980Y-122779620D01*
X141961277Y-122505865D01*
X141478000Y-122409735D01*
X140994722Y-122505865D01*
X140585020Y-122779620D01*
X140311265Y-123189323D01*
X140239400Y-123550613D01*
X140176600Y-123550613D01*
X140176600Y-123550612D01*
X140104735Y-123189322D01*
X139830980Y-122779620D01*
X139421277Y-122505865D01*
X138938000Y-122409735D01*
X138454722Y-122505865D01*
X138045020Y-122779620D01*
X137771265Y-123189323D01*
X137699400Y-123550613D01*
X127375000Y-123550613D01*
X127375000Y-123346218D01*
X127008556Y-122461544D01*
X126331456Y-121784444D01*
X125446782Y-121418000D01*
X124489218Y-121418000D01*
X123604544Y-121784444D01*
X122948000Y-122440988D01*
X122948000Y-116541495D01*
X126023000Y-116541495D01*
X126023000Y-117088505D01*
X126232331Y-117593875D01*
X126619125Y-117980669D01*
X127124495Y-118190000D01*
X127671505Y-118190000D01*
X128176875Y-117980669D01*
X128563669Y-117593875D01*
X128773000Y-117088505D01*
X128773000Y-116541495D01*
X128563669Y-116036125D01*
X128176875Y-115649331D01*
X127671505Y-115440000D01*
X127124495Y-115440000D01*
X126619125Y-115649331D01*
X126232331Y-116036125D01*
X126023000Y-116541495D01*
X122948000Y-116541495D01*
X122948000Y-113041495D01*
X126023000Y-113041495D01*
X126023000Y-113588505D01*
X126232331Y-114093875D01*
X126619125Y-114480669D01*
X127124495Y-114690000D01*
X127671505Y-114690000D01*
X128176875Y-114480669D01*
X128563669Y-114093875D01*
X128773000Y-113588505D01*
X128773000Y-113041495D01*
X128563669Y-112536125D01*
X128176875Y-112149331D01*
X127671505Y-111940000D01*
X127124495Y-111940000D01*
X126619125Y-112149331D01*
X126232331Y-112536125D01*
X126023000Y-113041495D01*
X122948000Y-113041495D01*
X122948000Y-109541495D01*
X126023000Y-109541495D01*
X126023000Y-110088505D01*
X126232331Y-110593875D01*
X126619125Y-110980669D01*
X127124495Y-111190000D01*
X127671505Y-111190000D01*
X128176875Y-110980669D01*
X128563669Y-110593875D01*
X128773000Y-110088505D01*
X128773000Y-109541495D01*
X128563669Y-109036125D01*
X128176875Y-108649331D01*
X127671505Y-108440000D01*
X127124495Y-108440000D01*
X126619125Y-108649331D01*
X126232331Y-109036125D01*
X126023000Y-109541495D01*
X122948000Y-109541495D01*
X122948000Y-106041495D01*
X126023000Y-106041495D01*
X126023000Y-106588505D01*
X126232331Y-107093875D01*
X126619125Y-107480669D01*
X127124495Y-107690000D01*
X127671505Y-107690000D01*
X128176875Y-107480669D01*
X128467544Y-107190000D01*
X128726035Y-107190000D01*
X128812213Y-107207142D01*
X128898391Y-107190000D01*
X128898392Y-107190000D01*
X129153621Y-107139232D01*
X129443053Y-106945840D01*
X129491872Y-106872777D01*
X134939649Y-101425000D01*
X138005858Y-101425000D01*
X138023000Y-101511178D01*
X138023001Y-112668817D01*
X138005858Y-112755000D01*
X138062846Y-113041495D01*
X138073769Y-113096408D01*
X138267161Y-113385840D01*
X138340221Y-113434657D01*
X139868341Y-114962777D01*
X139917160Y-115035840D01*
X140206592Y-115229232D01*
X140461821Y-115280000D01*
X140547999Y-115297142D01*
X140634177Y-115280000D01*
X141029361Y-115280000D01*
X141034824Y-115288176D01*
X141043001Y-115293639D01*
X141043000Y-116908822D01*
X141025858Y-116995000D01*
X141043000Y-117081178D01*
X141093768Y-117336407D01*
X141287160Y-117625840D01*
X141360223Y-117674659D01*
X143188341Y-119502777D01*
X143237160Y-119575840D01*
X143526592Y-119769232D01*
X143781821Y-119820000D01*
X143867999Y-119837142D01*
X143954177Y-119820000D01*
X153491564Y-119820000D01*
X155843001Y-122171438D01*
X155843001Y-122767606D01*
X155825020Y-122779620D01*
X155551265Y-123189323D01*
X155479400Y-123550613D01*
X155479400Y-124099388D01*
X155551265Y-124460678D01*
X155825021Y-124870380D01*
X156234723Y-125144135D01*
X156718000Y-125240265D01*
X157201278Y-125144135D01*
X157610980Y-124870380D01*
X157884735Y-124460677D01*
X157956600Y-124099387D01*
X157956600Y-123550613D01*
X160559400Y-123550613D01*
X160559400Y-124099388D01*
X160631265Y-124460678D01*
X160905021Y-124870380D01*
X161314723Y-125144135D01*
X161798000Y-125240265D01*
X162281278Y-125144135D01*
X162690980Y-124870380D01*
X162964735Y-124460677D01*
X163036600Y-124099387D01*
X163036600Y-123550613D01*
X163099400Y-123550613D01*
X163099400Y-124099388D01*
X163171265Y-124460678D01*
X163445021Y-124870380D01*
X163854723Y-125144135D01*
X164338000Y-125240265D01*
X164821278Y-125144135D01*
X165230980Y-124870380D01*
X165504735Y-124460677D01*
X165576600Y-124099387D01*
X165576600Y-123550613D01*
X165639400Y-123550613D01*
X165639400Y-124099388D01*
X165711265Y-124460678D01*
X165985021Y-124870380D01*
X166394723Y-125144135D01*
X166878000Y-125240265D01*
X167361278Y-125144135D01*
X167770980Y-124870380D01*
X168044735Y-124460677D01*
X168116600Y-124099387D01*
X168116600Y-123550613D01*
X168179400Y-123550613D01*
X168179400Y-124099388D01*
X168251265Y-124460678D01*
X168525021Y-124870380D01*
X168934723Y-125144135D01*
X169418000Y-125240265D01*
X169901278Y-125144135D01*
X170310980Y-124870380D01*
X170584735Y-124460677D01*
X170656600Y-124099387D01*
X170656600Y-123550613D01*
X170719400Y-123550613D01*
X170719400Y-124099388D01*
X170791265Y-124460678D01*
X171065021Y-124870380D01*
X171474723Y-125144135D01*
X171958000Y-125240265D01*
X172441278Y-125144135D01*
X172850980Y-124870380D01*
X173124735Y-124460677D01*
X173196600Y-124099387D01*
X173196600Y-123550613D01*
X173259400Y-123550613D01*
X173259400Y-124099388D01*
X173331265Y-124460678D01*
X173605021Y-124870380D01*
X174014723Y-125144135D01*
X174498000Y-125240265D01*
X174981278Y-125144135D01*
X175390980Y-124870380D01*
X175664735Y-124460677D01*
X175736600Y-124099387D01*
X175736600Y-123550612D01*
X175664735Y-123189322D01*
X175390980Y-122779620D01*
X174981277Y-122505865D01*
X174498000Y-122409735D01*
X174014722Y-122505865D01*
X173605020Y-122779620D01*
X173331265Y-123189323D01*
X173259400Y-123550613D01*
X173196600Y-123550613D01*
X173196600Y-123550612D01*
X173124735Y-123189322D01*
X172850980Y-122779620D01*
X172441277Y-122505865D01*
X171958000Y-122409735D01*
X171474722Y-122505865D01*
X171065020Y-122779620D01*
X170791265Y-123189323D01*
X170719400Y-123550613D01*
X170656600Y-123550613D01*
X170656600Y-123550612D01*
X170584735Y-123189322D01*
X170310980Y-122779620D01*
X169901277Y-122505865D01*
X169418000Y-122409735D01*
X168934722Y-122505865D01*
X168525020Y-122779620D01*
X168251265Y-123189323D01*
X168179400Y-123550613D01*
X168116600Y-123550613D01*
X168116600Y-123550612D01*
X168044735Y-123189322D01*
X167770980Y-122779620D01*
X167361277Y-122505865D01*
X166878000Y-122409735D01*
X166394722Y-122505865D01*
X165985020Y-122779620D01*
X165711265Y-123189323D01*
X165639400Y-123550613D01*
X165576600Y-123550613D01*
X165576600Y-123550612D01*
X165504735Y-123189322D01*
X165230980Y-122779620D01*
X164821277Y-122505865D01*
X164338000Y-122409735D01*
X163854722Y-122505865D01*
X163445020Y-122779620D01*
X163171265Y-123189323D01*
X163099400Y-123550613D01*
X163036600Y-123550613D01*
X163036600Y-123550612D01*
X162964735Y-123189322D01*
X162690980Y-122779620D01*
X162281277Y-122505865D01*
X161798000Y-122409735D01*
X161314722Y-122505865D01*
X160905020Y-122779620D01*
X160631265Y-123189323D01*
X160559400Y-123550613D01*
X157956600Y-123550613D01*
X157956600Y-123550612D01*
X157884735Y-123189322D01*
X157610980Y-122779620D01*
X157593000Y-122767606D01*
X157593000Y-121895179D01*
X157610142Y-121809000D01*
X157542232Y-121467592D01*
X157397656Y-121251219D01*
X157348840Y-121178160D01*
X157275780Y-121129343D01*
X154533659Y-118387223D01*
X154484840Y-118314160D01*
X154195408Y-118120768D01*
X153940179Y-118070000D01*
X153940178Y-118070000D01*
X153854000Y-118052858D01*
X153767822Y-118070000D01*
X144230436Y-118070000D01*
X142793000Y-116632564D01*
X142793000Y-115293639D01*
X142801176Y-115288176D01*
X143071925Y-114882971D01*
X143166999Y-114405000D01*
X143209001Y-114405000D01*
X143304075Y-114882971D01*
X143574824Y-115288176D01*
X143980029Y-115558925D01*
X144337348Y-115630000D01*
X144578652Y-115630000D01*
X144935971Y-115558925D01*
X145341176Y-115288176D01*
X145611925Y-114882971D01*
X145706999Y-114405000D01*
X145749001Y-114405000D01*
X145844075Y-114882971D01*
X146114824Y-115288176D01*
X146520029Y-115558925D01*
X146877348Y-115630000D01*
X147118652Y-115630000D01*
X147475971Y-115558925D01*
X147881176Y-115288176D01*
X148130924Y-114914400D01*
X159800694Y-114914400D01*
X159800694Y-116692400D01*
X159829798Y-116838717D01*
X159912681Y-116962759D01*
X160036723Y-117045642D01*
X160183040Y-117074746D01*
X161961040Y-117074746D01*
X162107357Y-117045642D01*
X162231399Y-116962759D01*
X162314282Y-116838717D01*
X162343386Y-116692400D01*
X162343386Y-114914400D01*
X162314282Y-114768083D01*
X162231399Y-114644041D01*
X162107357Y-114561158D01*
X161961040Y-114532054D01*
X160183040Y-114532054D01*
X160036723Y-114561158D01*
X159912681Y-114644041D01*
X159829798Y-114768083D01*
X159800694Y-114914400D01*
X148130924Y-114914400D01*
X148151925Y-114882971D01*
X148246999Y-114405000D01*
X148151925Y-113927029D01*
X147881176Y-113521824D01*
X147475971Y-113251075D01*
X147118652Y-113180000D01*
X146877348Y-113180000D01*
X146520029Y-113251075D01*
X146114824Y-113521824D01*
X145844075Y-113927029D01*
X145749001Y-114405000D01*
X145706999Y-114405000D01*
X145611925Y-113927029D01*
X145341176Y-113521824D01*
X144935971Y-113251075D01*
X144578652Y-113180000D01*
X144337348Y-113180000D01*
X143980029Y-113251075D01*
X143574824Y-113521824D01*
X143304075Y-113927029D01*
X143209001Y-114405000D01*
X143166999Y-114405000D01*
X143071925Y-113927029D01*
X142801176Y-113521824D01*
X142395971Y-113251075D01*
X142038652Y-113180000D01*
X141797348Y-113180000D01*
X141440029Y-113251075D01*
X141034824Y-113521824D01*
X141029361Y-113530000D01*
X140910436Y-113530000D01*
X140472033Y-113091597D01*
X154322910Y-113091597D01*
X154322910Y-113638403D01*
X154532164Y-114143586D01*
X154918814Y-114530236D01*
X155423997Y-114739490D01*
X155970803Y-114739490D01*
X156475986Y-114530236D01*
X156862636Y-114143586D01*
X157071890Y-113638403D01*
X157071890Y-113091597D01*
X156862636Y-112586414D01*
X156475986Y-112199764D01*
X155970803Y-111990510D01*
X155423997Y-111990510D01*
X154918814Y-112199764D01*
X154532164Y-112586414D01*
X154322910Y-113091597D01*
X140472033Y-113091597D01*
X139773000Y-112392564D01*
X139773000Y-111865000D01*
X140669001Y-111865000D01*
X140764075Y-112342971D01*
X141034824Y-112748176D01*
X141440029Y-113018925D01*
X141797348Y-113090000D01*
X142038652Y-113090000D01*
X142395971Y-113018925D01*
X142801176Y-112748176D01*
X143071925Y-112342971D01*
X143166999Y-111865000D01*
X143209001Y-111865000D01*
X143304075Y-112342971D01*
X143574824Y-112748176D01*
X143980029Y-113018925D01*
X144337348Y-113090000D01*
X144578652Y-113090000D01*
X144935971Y-113018925D01*
X145341176Y-112748176D01*
X145611925Y-112342971D01*
X145663487Y-112083750D01*
X145773000Y-112083750D01*
X145773000Y-112789592D01*
X145830090Y-112927420D01*
X145935579Y-113032910D01*
X146073408Y-113090000D01*
X146779250Y-113090000D01*
X146873000Y-112996250D01*
X146873000Y-111990000D01*
X147123000Y-111990000D01*
X147123000Y-112996250D01*
X147216750Y-113090000D01*
X147922592Y-113090000D01*
X148060421Y-113032910D01*
X148165910Y-112927420D01*
X148223000Y-112789592D01*
X148223000Y-112083750D01*
X148129250Y-111990000D01*
X147123000Y-111990000D01*
X146873000Y-111990000D01*
X145866750Y-111990000D01*
X145773000Y-112083750D01*
X145663487Y-112083750D01*
X145706999Y-111865000D01*
X145611925Y-111387029D01*
X145341176Y-110981824D01*
X145279193Y-110940408D01*
X145773000Y-110940408D01*
X145773000Y-111646250D01*
X145866750Y-111740000D01*
X146873000Y-111740000D01*
X146873000Y-110733750D01*
X147123000Y-110733750D01*
X147123000Y-111740000D01*
X148129250Y-111740000D01*
X148223000Y-111646250D01*
X148223000Y-110940408D01*
X148165910Y-110802580D01*
X148060421Y-110697090D01*
X147922592Y-110640000D01*
X147216750Y-110640000D01*
X147123000Y-110733750D01*
X146873000Y-110733750D01*
X146779250Y-110640000D01*
X146073408Y-110640000D01*
X145935579Y-110697090D01*
X145830090Y-110802580D01*
X145773000Y-110940408D01*
X145279193Y-110940408D01*
X144935971Y-110711075D01*
X144578652Y-110640000D01*
X144337348Y-110640000D01*
X143980029Y-110711075D01*
X143574824Y-110981824D01*
X143304075Y-111387029D01*
X143209001Y-111865000D01*
X143166999Y-111865000D01*
X143071925Y-111387029D01*
X142801176Y-110981824D01*
X142793000Y-110976361D01*
X142793000Y-110907436D01*
X143380437Y-110320000D01*
X155633969Y-110320000D01*
X159135148Y-113821180D01*
X159183965Y-113894240D01*
X159473397Y-114087632D01*
X159728626Y-114138400D01*
X159814804Y-114155542D01*
X159900982Y-114138400D01*
X160159475Y-114138400D01*
X160356042Y-114334967D01*
X160820615Y-114527400D01*
X161323465Y-114527400D01*
X161788038Y-114334967D01*
X162143607Y-113979398D01*
X162336040Y-113514825D01*
X162336040Y-113011975D01*
X162143607Y-112547402D01*
X161788038Y-112191833D01*
X161323465Y-111999400D01*
X160901518Y-111999400D01*
X161396157Y-111970741D01*
X161724858Y-111834589D01*
X161824018Y-111652154D01*
X161072040Y-110900177D01*
X160320062Y-111652154D01*
X160419222Y-111834589D01*
X160892921Y-111999400D01*
X160820615Y-111999400D01*
X160356042Y-112191833D01*
X160168358Y-112379517D01*
X158334349Y-110545508D01*
X159795613Y-110545508D01*
X159824699Y-111047517D01*
X159960851Y-111376218D01*
X160143286Y-111475378D01*
X160895263Y-110723400D01*
X161248817Y-110723400D01*
X162000794Y-111475378D01*
X162183229Y-111376218D01*
X162348467Y-110901292D01*
X162319381Y-110399283D01*
X162183229Y-110070582D01*
X162000794Y-109971422D01*
X161248817Y-110723400D01*
X160895263Y-110723400D01*
X160143286Y-109971422D01*
X159960851Y-110070582D01*
X159795613Y-110545508D01*
X158334349Y-110545508D01*
X157583487Y-109794646D01*
X160320062Y-109794646D01*
X161072040Y-110546623D01*
X161824018Y-109794646D01*
X161724858Y-109612211D01*
X161249932Y-109446973D01*
X160747923Y-109476059D01*
X160419222Y-109612211D01*
X160320062Y-109794646D01*
X157583487Y-109794646D01*
X156676064Y-108887223D01*
X156627245Y-108814160D01*
X156337813Y-108620768D01*
X156082584Y-108570000D01*
X156082583Y-108570000D01*
X155996405Y-108552858D01*
X155910227Y-108570000D01*
X143104179Y-108570000D01*
X143018000Y-108552858D01*
X142676591Y-108620768D01*
X142633844Y-108649331D01*
X142387160Y-108814160D01*
X142338343Y-108887220D01*
X141360223Y-109865341D01*
X141287160Y-109914160D01*
X141093768Y-110203593D01*
X141054843Y-110399283D01*
X141025858Y-110545000D01*
X141043000Y-110631178D01*
X141043000Y-110976361D01*
X141034824Y-110981824D01*
X140764075Y-111387029D01*
X140669001Y-111865000D01*
X139773000Y-111865000D01*
X139773000Y-101787436D01*
X141930437Y-99630000D01*
X142038652Y-99630000D01*
X142395971Y-99558925D01*
X142801176Y-99288176D01*
X143071925Y-98882971D01*
X143166999Y-98405000D01*
X143209001Y-98405000D01*
X143304075Y-98882971D01*
X143574824Y-99288176D01*
X143980029Y-99558925D01*
X144337348Y-99630000D01*
X144578652Y-99630000D01*
X144935971Y-99558925D01*
X145341176Y-99288176D01*
X145611925Y-98882971D01*
X145706999Y-98405000D01*
X145749001Y-98405000D01*
X145844075Y-98882971D01*
X146114824Y-99288176D01*
X146520029Y-99558925D01*
X146877348Y-99630000D01*
X147118652Y-99630000D01*
X147475971Y-99558925D01*
X147881176Y-99288176D01*
X148130924Y-98914400D01*
X159800694Y-98914400D01*
X159800694Y-100692400D01*
X159829798Y-100838717D01*
X159912681Y-100962759D01*
X160036723Y-101045642D01*
X160183040Y-101074746D01*
X161961040Y-101074746D01*
X162107357Y-101045642D01*
X162231399Y-100962759D01*
X162314282Y-100838717D01*
X162343386Y-100692400D01*
X162343386Y-98914400D01*
X162314282Y-98768083D01*
X162231399Y-98644041D01*
X162107357Y-98561158D01*
X161961040Y-98532054D01*
X160183040Y-98532054D01*
X160036723Y-98561158D01*
X159912681Y-98644041D01*
X159829798Y-98768083D01*
X159800694Y-98914400D01*
X148130924Y-98914400D01*
X148151925Y-98882971D01*
X148246999Y-98405000D01*
X148151925Y-97927029D01*
X147881176Y-97521824D01*
X147475971Y-97251075D01*
X147118652Y-97180000D01*
X146877348Y-97180000D01*
X146520029Y-97251075D01*
X146114824Y-97521824D01*
X145844075Y-97927029D01*
X145749001Y-98405000D01*
X145706999Y-98405000D01*
X145611925Y-97927029D01*
X145341176Y-97521824D01*
X144935971Y-97251075D01*
X144578652Y-97180000D01*
X144337348Y-97180000D01*
X143980029Y-97251075D01*
X143574824Y-97521824D01*
X143304075Y-97927029D01*
X143209001Y-98405000D01*
X143166999Y-98405000D01*
X143071925Y-97927029D01*
X142801176Y-97521824D01*
X142395971Y-97251075D01*
X142038652Y-97180000D01*
X141797348Y-97180000D01*
X141440029Y-97251075D01*
X141034824Y-97521824D01*
X140764075Y-97927029D01*
X140669001Y-98405000D01*
X140670919Y-98414644D01*
X138340223Y-100745341D01*
X138267160Y-100794160D01*
X138073768Y-101083593D01*
X138023000Y-101338821D01*
X138005858Y-101425000D01*
X134939649Y-101425000D01*
X139225780Y-97138870D01*
X139296529Y-97091597D01*
X154322910Y-97091597D01*
X154322910Y-97638403D01*
X154532164Y-98143586D01*
X154918814Y-98530236D01*
X155423997Y-98739490D01*
X155970803Y-98739490D01*
X156475986Y-98530236D01*
X156862636Y-98143586D01*
X157071890Y-97638403D01*
X157071890Y-97091597D01*
X157038910Y-97011975D01*
X159808040Y-97011975D01*
X159808040Y-97514825D01*
X160000473Y-97979398D01*
X160356042Y-98334967D01*
X160820615Y-98527400D01*
X161323465Y-98527400D01*
X161788038Y-98334967D01*
X162143607Y-97979398D01*
X162336040Y-97514825D01*
X162336040Y-97011975D01*
X162143607Y-96547402D01*
X161788038Y-96191833D01*
X161323465Y-95999400D01*
X160901518Y-95999400D01*
X161396157Y-95970741D01*
X161724858Y-95834589D01*
X161824018Y-95652154D01*
X161072040Y-94900177D01*
X160320062Y-95652154D01*
X160419222Y-95834589D01*
X160892921Y-95999400D01*
X160820615Y-95999400D01*
X160356042Y-96191833D01*
X160000473Y-96547402D01*
X159808040Y-97011975D01*
X157038910Y-97011975D01*
X156862636Y-96586414D01*
X156475986Y-96199764D01*
X155970803Y-95990510D01*
X155423997Y-95990510D01*
X154918814Y-96199764D01*
X154532164Y-96586414D01*
X154322910Y-97091597D01*
X139296529Y-97091597D01*
X139298840Y-97090053D01*
X139492232Y-96800621D01*
X139543000Y-96545392D01*
X139543000Y-96545391D01*
X139560142Y-96459213D01*
X139543000Y-96373034D01*
X139543000Y-95865000D01*
X140669001Y-95865000D01*
X140764075Y-96342971D01*
X141034824Y-96748176D01*
X141440029Y-97018925D01*
X141797348Y-97090000D01*
X142038652Y-97090000D01*
X142395971Y-97018925D01*
X142801176Y-96748176D01*
X143071925Y-96342971D01*
X143166999Y-95865000D01*
X143071925Y-95387029D01*
X142801176Y-94981824D01*
X142395971Y-94711075D01*
X142038652Y-94640000D01*
X141797348Y-94640000D01*
X141440029Y-94711075D01*
X141034824Y-94981824D01*
X140764075Y-95387029D01*
X140669001Y-95865000D01*
X139543000Y-95865000D01*
X139543000Y-94421649D01*
X140074650Y-93890000D01*
X142925564Y-93890000D01*
X143583000Y-94547437D01*
X143583000Y-94976361D01*
X143574824Y-94981824D01*
X143304075Y-95387029D01*
X143209001Y-95865000D01*
X143304075Y-96342971D01*
X143574824Y-96748176D01*
X143980029Y-97018925D01*
X144337348Y-97090000D01*
X144578652Y-97090000D01*
X144935971Y-97018925D01*
X145341176Y-96748176D01*
X145611925Y-96342971D01*
X145663487Y-96083750D01*
X145773000Y-96083750D01*
X145773000Y-96789592D01*
X145830090Y-96927420D01*
X145935579Y-97032910D01*
X146073408Y-97090000D01*
X146779250Y-97090000D01*
X146873000Y-96996250D01*
X146873000Y-95990000D01*
X147123000Y-95990000D01*
X147123000Y-96996250D01*
X147216750Y-97090000D01*
X147922592Y-97090000D01*
X148060421Y-97032910D01*
X148165910Y-96927420D01*
X148223000Y-96789592D01*
X148223000Y-96083750D01*
X148129250Y-95990000D01*
X147123000Y-95990000D01*
X146873000Y-95990000D01*
X145866750Y-95990000D01*
X145773000Y-96083750D01*
X145663487Y-96083750D01*
X145706999Y-95865000D01*
X145611925Y-95387029D01*
X145341176Y-94981824D01*
X145333000Y-94976361D01*
X145333000Y-94940408D01*
X145773000Y-94940408D01*
X145773000Y-95646250D01*
X145866750Y-95740000D01*
X146873000Y-95740000D01*
X146873000Y-94733750D01*
X147123000Y-94733750D01*
X147123000Y-95740000D01*
X148129250Y-95740000D01*
X148223000Y-95646250D01*
X148223000Y-94940408D01*
X148165910Y-94802580D01*
X148060421Y-94697090D01*
X147922592Y-94640000D01*
X147216750Y-94640000D01*
X147123000Y-94733750D01*
X146873000Y-94733750D01*
X146779250Y-94640000D01*
X146073408Y-94640000D01*
X145935579Y-94697090D01*
X145830090Y-94802580D01*
X145773000Y-94940408D01*
X145333000Y-94940408D01*
X145333000Y-94545508D01*
X159795613Y-94545508D01*
X159824699Y-95047517D01*
X159960851Y-95376218D01*
X160143286Y-95475378D01*
X160895263Y-94723400D01*
X161248817Y-94723400D01*
X162000794Y-95475378D01*
X162183229Y-95376218D01*
X162348467Y-94901292D01*
X162319381Y-94399283D01*
X162183229Y-94070582D01*
X162000794Y-93971422D01*
X161248817Y-94723400D01*
X160895263Y-94723400D01*
X160143286Y-93971422D01*
X159960851Y-94070582D01*
X159795613Y-94545508D01*
X145333000Y-94545508D01*
X145333000Y-94271179D01*
X145350142Y-94185000D01*
X145282232Y-93843591D01*
X145249528Y-93794646D01*
X160320062Y-93794646D01*
X161072040Y-94546623D01*
X161824018Y-93794646D01*
X161724858Y-93612211D01*
X161249932Y-93446973D01*
X160747923Y-93476059D01*
X160419222Y-93612211D01*
X160320062Y-93794646D01*
X145249528Y-93794646D01*
X145191160Y-93707293D01*
X145088840Y-93554160D01*
X145015780Y-93505343D01*
X143967659Y-92457223D01*
X143918840Y-92384160D01*
X143629408Y-92190768D01*
X143374179Y-92140000D01*
X143374178Y-92140000D01*
X143288000Y-92122858D01*
X143201822Y-92140000D01*
X139798390Y-92140000D01*
X139712212Y-92122858D01*
X139626034Y-92140000D01*
X139370805Y-92190768D01*
X139081373Y-92384160D01*
X139032556Y-92457220D01*
X138110221Y-93379556D01*
X138037161Y-93428373D01*
X137940671Y-93572781D01*
X137843769Y-93717805D01*
X137775858Y-94059213D01*
X137793001Y-94145395D01*
X137793000Y-96096776D01*
X128458660Y-105431116D01*
X128176875Y-105149331D01*
X127671505Y-104940000D01*
X127124495Y-104940000D01*
X126619125Y-105149331D01*
X126232331Y-105536125D01*
X126023000Y-106041495D01*
X122948000Y-106041495D01*
X122948000Y-102541495D01*
X126023000Y-102541495D01*
X126023000Y-103088505D01*
X126232331Y-103593875D01*
X126619125Y-103980669D01*
X127124495Y-104190000D01*
X127671505Y-104190000D01*
X128176875Y-103980669D01*
X128563669Y-103593875D01*
X128773000Y-103088505D01*
X128773000Y-102541495D01*
X128563669Y-102036125D01*
X128176875Y-101649331D01*
X127671505Y-101440000D01*
X127124495Y-101440000D01*
X126619125Y-101649331D01*
X126232331Y-102036125D01*
X126023000Y-102541495D01*
X122948000Y-102541495D01*
X122948000Y-99041495D01*
X126023000Y-99041495D01*
X126023000Y-99588505D01*
X126232331Y-100093875D01*
X126619125Y-100480669D01*
X127124495Y-100690000D01*
X127671505Y-100690000D01*
X128176875Y-100480669D01*
X128563669Y-100093875D01*
X128773000Y-99588505D01*
X128773000Y-99041495D01*
X128563669Y-98536125D01*
X128176875Y-98149331D01*
X127671505Y-97940000D01*
X127124495Y-97940000D01*
X126619125Y-98149331D01*
X126232331Y-98536125D01*
X126023000Y-99041495D01*
X122948000Y-99041495D01*
X122948000Y-84031659D01*
X123683000Y-84031659D01*
X123683000Y-84638341D01*
X123915167Y-85198843D01*
X124344157Y-85627833D01*
X124904659Y-85860000D01*
X125511341Y-85860000D01*
X126071843Y-85627833D01*
X126500833Y-85198843D01*
X126733000Y-84638341D01*
X126733000Y-84031659D01*
X128763000Y-84031659D01*
X128763000Y-84638341D01*
X128995167Y-85198843D01*
X129424157Y-85627833D01*
X129984659Y-85860000D01*
X130591341Y-85860000D01*
X131151843Y-85627833D01*
X131580833Y-85198843D01*
X131813000Y-84638341D01*
X131813000Y-84061495D01*
X139073000Y-84061495D01*
X139073000Y-84608505D01*
X139282331Y-85113875D01*
X139669125Y-85500669D01*
X140174495Y-85710000D01*
X140721505Y-85710000D01*
X141226875Y-85500669D01*
X141613669Y-85113875D01*
X141718000Y-84861998D01*
X141822331Y-85113875D01*
X142209125Y-85500669D01*
X142714495Y-85710000D01*
X143261505Y-85710000D01*
X143766875Y-85500669D01*
X144153669Y-85113875D01*
X144363000Y-84608505D01*
X144363000Y-84061495D01*
X144153669Y-83556125D01*
X143766875Y-83169331D01*
X143261505Y-82960000D01*
X142714495Y-82960000D01*
X142209125Y-83169331D01*
X141822331Y-83556125D01*
X141718000Y-83808002D01*
X141613669Y-83556125D01*
X141226875Y-83169331D01*
X140721505Y-82960000D01*
X140174495Y-82960000D01*
X139669125Y-83169331D01*
X139282331Y-83556125D01*
X139073000Y-84061495D01*
X131813000Y-84061495D01*
X131813000Y-84031659D01*
X131580833Y-83471157D01*
X131151843Y-83042167D01*
X130591341Y-82810000D01*
X129984659Y-82810000D01*
X129424157Y-83042167D01*
X128995167Y-83471157D01*
X128763000Y-84031659D01*
X126733000Y-84031659D01*
X126500833Y-83471157D01*
X126071843Y-83042167D01*
X125511341Y-82810000D01*
X124904659Y-82810000D01*
X124344157Y-83042167D01*
X123915167Y-83471157D01*
X123683000Y-84031659D01*
X122948000Y-84031659D01*
X122948000Y-73475000D01*
X124993912Y-73475000D01*
X124874544Y-73524444D01*
X124874544Y-73524444D01*
G37*
X124874544Y-73524444D02*
X124197444Y-74201544D01*
X123831000Y-75086218D01*
X123831000Y-76043782D01*
X124197444Y-76928456D01*
X124874544Y-77605556D01*
X125759218Y-77972000D01*
X126716782Y-77972000D01*
X127601456Y-77605556D01*
X128278556Y-76928456D01*
X128611935Y-76123608D01*
X128627265Y-76200678D01*
X128901021Y-76610380D01*
X129310723Y-76884135D01*
X129794000Y-76980265D01*
X130277278Y-76884135D01*
X130686980Y-76610380D01*
X130960735Y-76200677D01*
X131032600Y-75839387D01*
X131032600Y-75290613D01*
X131095400Y-75290613D01*
X131095400Y-75839388D01*
X131167265Y-76200678D01*
X131441021Y-76610380D01*
X131850723Y-76884135D01*
X132334000Y-76980265D01*
X132817278Y-76884135D01*
X133226980Y-76610380D01*
X133500735Y-76200677D01*
X133572600Y-75839387D01*
X133572600Y-75290613D01*
X133635400Y-75290613D01*
X133635400Y-75839388D01*
X133707265Y-76200678D01*
X133981021Y-76610380D01*
X134390723Y-76884135D01*
X134874000Y-76980265D01*
X135357278Y-76884135D01*
X135766980Y-76610380D01*
X136040735Y-76200677D01*
X136103663Y-75884313D01*
X136185001Y-75884313D01*
X136342428Y-76341925D01*
X136662992Y-76704459D01*
X137097769Y-76914950D01*
X137289000Y-76855406D01*
X137289000Y-75690000D01*
X137539000Y-75690000D01*
X137539000Y-76855406D01*
X137730231Y-76914950D01*
X138165008Y-76704459D01*
X138485572Y-76341925D01*
X138642999Y-75884313D01*
X138560229Y-75690000D01*
X137539000Y-75690000D01*
X137289000Y-75690000D01*
X136267771Y-75690000D01*
X136185001Y-75884313D01*
X136103663Y-75884313D01*
X136112600Y-75839387D01*
X136112600Y-75290612D01*
X136103664Y-75245687D01*
X136185001Y-75245687D01*
X136267771Y-75440000D01*
X137289000Y-75440000D01*
X137289000Y-74274594D01*
X137539000Y-74274594D01*
X137539000Y-75440000D01*
X138560229Y-75440000D01*
X138623862Y-75290613D01*
X138715400Y-75290613D01*
X138715400Y-75839388D01*
X138787265Y-76200678D01*
X139061021Y-76610380D01*
X139470723Y-76884135D01*
X139954000Y-76980265D01*
X140437278Y-76884135D01*
X140846980Y-76610380D01*
X141120735Y-76200677D01*
X141192600Y-75839387D01*
X141192600Y-75290613D01*
X141255400Y-75290613D01*
X141255400Y-75839388D01*
X141327265Y-76200678D01*
X141601021Y-76610380D01*
X142010723Y-76884135D01*
X142494000Y-76980265D01*
X142977278Y-76884135D01*
X143386980Y-76610380D01*
X143660735Y-76200677D01*
X143732600Y-75839387D01*
X143732600Y-75290613D01*
X143795400Y-75290613D01*
X143795400Y-75839388D01*
X143867265Y-76200678D01*
X144141021Y-76610380D01*
X144550723Y-76884135D01*
X145034000Y-76980265D01*
X145517278Y-76884135D01*
X145926980Y-76610380D01*
X146200735Y-76200677D01*
X146272600Y-75839387D01*
X146272600Y-75290613D01*
X146335400Y-75290613D01*
X146335400Y-75839388D01*
X146407265Y-76200678D01*
X146681021Y-76610380D01*
X147090723Y-76884135D01*
X147574000Y-76980265D01*
X148057278Y-76884135D01*
X148466980Y-76610380D01*
X148740735Y-76200677D01*
X148812600Y-75839387D01*
X148812600Y-75290613D01*
X148875400Y-75290613D01*
X148875400Y-75839388D01*
X148947265Y-76200678D01*
X149221021Y-76610380D01*
X149630723Y-76884135D01*
X150114000Y-76980265D01*
X150597278Y-76884135D01*
X151006980Y-76610380D01*
X151280735Y-76200677D01*
X151352600Y-75839387D01*
X151352600Y-75290613D01*
X151415400Y-75290613D01*
X151415400Y-75839388D01*
X151487265Y-76200678D01*
X151761021Y-76610380D01*
X152170723Y-76884135D01*
X152654000Y-76980265D01*
X153137278Y-76884135D01*
X153546980Y-76610380D01*
X153820735Y-76200677D01*
X153892600Y-75839387D01*
X153892600Y-75290613D01*
X155479400Y-75290613D01*
X155479400Y-75839388D01*
X155551265Y-76200678D01*
X155825021Y-76610380D01*
X156234723Y-76884135D01*
X156718000Y-76980265D01*
X157201278Y-76884135D01*
X157610980Y-76610380D01*
X157884735Y-76200677D01*
X157956600Y-75839387D01*
X157956600Y-75290613D01*
X158019400Y-75290613D01*
X158019400Y-75839388D01*
X158091265Y-76200678D01*
X158365021Y-76610380D01*
X158774723Y-76884135D01*
X159258000Y-76980265D01*
X159741278Y-76884135D01*
X160150980Y-76610380D01*
X160424735Y-76200677D01*
X160496600Y-75839387D01*
X160496600Y-75290613D01*
X160559400Y-75290613D01*
X160559400Y-75839388D01*
X160631265Y-76200678D01*
X160905021Y-76610380D01*
X161298000Y-76872961D01*
X161298001Y-91265754D01*
X161288205Y-91315000D01*
X161303650Y-91392643D01*
X161327012Y-91510090D01*
X161437521Y-91675480D01*
X161479269Y-91703375D01*
X166498000Y-96722107D01*
X166498001Y-107430405D01*
X166425763Y-107502643D01*
X166323000Y-107750734D01*
X166323000Y-108019266D01*
X166425763Y-108267357D01*
X166615643Y-108457237D01*
X166863734Y-108560000D01*
X167132266Y-108560000D01*
X167380357Y-108457237D01*
X167570237Y-108267357D01*
X167673000Y-108019266D01*
X167673000Y-107750734D01*
X167570237Y-107502643D01*
X167498000Y-107430406D01*
X167498000Y-96564243D01*
X167507795Y-96515000D01*
X167468989Y-96319910D01*
X167393150Y-96206408D01*
X167358480Y-96154520D01*
X167316733Y-96126626D01*
X162298000Y-91107894D01*
X162298000Y-76872962D01*
X162690980Y-76610380D01*
X162964735Y-76200677D01*
X163036600Y-75839387D01*
X163036600Y-75290613D01*
X163099400Y-75290613D01*
X163099400Y-75839388D01*
X163171265Y-76200678D01*
X163445021Y-76610380D01*
X163854723Y-76884135D01*
X164338000Y-76980265D01*
X164821278Y-76884135D01*
X165230980Y-76610380D01*
X165504735Y-76200677D01*
X165576600Y-75839387D01*
X165576600Y-75290613D01*
X165639400Y-75290613D01*
X165639400Y-75839388D01*
X165711265Y-76200678D01*
X165985021Y-76610380D01*
X166394723Y-76884135D01*
X166488001Y-76902689D01*
X166488000Y-91320406D01*
X166415763Y-91392643D01*
X166313000Y-91640734D01*
X166313000Y-91909266D01*
X166415763Y-92157357D01*
X166605643Y-92347237D01*
X166853734Y-92450000D01*
X167122266Y-92450000D01*
X167370357Y-92347237D01*
X167560237Y-92157357D01*
X167663000Y-91909266D01*
X167663000Y-91640734D01*
X167560237Y-91392643D01*
X167488000Y-91320406D01*
X167488000Y-76799462D01*
X167770980Y-76610380D01*
X168044735Y-76200677D01*
X168116600Y-75839387D01*
X168116600Y-75290613D01*
X168179400Y-75290613D01*
X168179400Y-75839388D01*
X168251265Y-76200678D01*
X168525021Y-76610380D01*
X168934723Y-76884135D01*
X169418000Y-76980265D01*
X169901278Y-76884135D01*
X170310980Y-76610380D01*
X170584735Y-76200677D01*
X170656600Y-75839387D01*
X170656600Y-75290613D01*
X170719400Y-75290613D01*
X170719400Y-75839388D01*
X170791265Y-76200678D01*
X171065021Y-76610380D01*
X171474723Y-76884135D01*
X171958000Y-76980265D01*
X172441278Y-76884135D01*
X172850980Y-76610380D01*
X173124735Y-76200677D01*
X173196600Y-75839387D01*
X173196600Y-75290613D01*
X173259400Y-75290613D01*
X173259400Y-75839388D01*
X173331265Y-76200678D01*
X173605021Y-76610380D01*
X174014723Y-76884135D01*
X174498000Y-76980265D01*
X174981278Y-76884135D01*
X175390980Y-76610380D01*
X175664735Y-76200677D01*
X175736600Y-75839387D01*
X175736600Y-75290612D01*
X175664735Y-74929322D01*
X175390980Y-74519620D01*
X174981277Y-74245865D01*
X174498000Y-74149735D01*
X174014722Y-74245865D01*
X173605020Y-74519620D01*
X173331265Y-74929323D01*
X173259400Y-75290613D01*
X173196600Y-75290613D01*
X173196600Y-75290612D01*
X173124735Y-74929322D01*
X172850980Y-74519620D01*
X172441277Y-74245865D01*
X171958000Y-74149735D01*
X171474722Y-74245865D01*
X171065020Y-74519620D01*
X170791265Y-74929323D01*
X170719400Y-75290613D01*
X170656600Y-75290613D01*
X170656600Y-75290612D01*
X170584735Y-74929322D01*
X170310980Y-74519620D01*
X169901277Y-74245865D01*
X169418000Y-74149735D01*
X168934722Y-74245865D01*
X168525020Y-74519620D01*
X168251265Y-74929323D01*
X168179400Y-75290613D01*
X168116600Y-75290613D01*
X168116600Y-75290612D01*
X168044735Y-74929322D01*
X167770980Y-74519620D01*
X167361277Y-74245865D01*
X166878000Y-74149735D01*
X166394722Y-74245865D01*
X165985020Y-74519620D01*
X165711265Y-74929323D01*
X165639400Y-75290613D01*
X165576600Y-75290613D01*
X165576600Y-75290612D01*
X165504735Y-74929322D01*
X165230980Y-74519620D01*
X164821277Y-74245865D01*
X164338000Y-74149735D01*
X163854722Y-74245865D01*
X163445020Y-74519620D01*
X163171265Y-74929323D01*
X163099400Y-75290613D01*
X163036600Y-75290613D01*
X163036600Y-75290612D01*
X162964735Y-74929322D01*
X162690980Y-74519620D01*
X162281277Y-74245865D01*
X161798000Y-74149735D01*
X161314722Y-74245865D01*
X160905020Y-74519620D01*
X160631265Y-74929323D01*
X160559400Y-75290613D01*
X160496600Y-75290613D01*
X160496600Y-75290612D01*
X160424735Y-74929322D01*
X160150980Y-74519620D01*
X159741277Y-74245865D01*
X159258000Y-74149735D01*
X158774722Y-74245865D01*
X158365020Y-74519620D01*
X158091265Y-74929323D01*
X158019400Y-75290613D01*
X157956600Y-75290613D01*
X157956600Y-75290612D01*
X157884735Y-74929322D01*
X157610980Y-74519620D01*
X157201277Y-74245865D01*
X156718000Y-74149735D01*
X156234722Y-74245865D01*
X155825020Y-74519620D01*
X155551265Y-74929323D01*
X155479400Y-75290613D01*
X153892600Y-75290613D01*
X153892600Y-75290612D01*
X153820735Y-74929322D01*
X153546980Y-74519620D01*
X153137277Y-74245865D01*
X152654000Y-74149735D01*
X152170722Y-74245865D01*
X151761020Y-74519620D01*
X151487265Y-74929323D01*
X151415400Y-75290613D01*
X151352600Y-75290613D01*
X151352600Y-75290612D01*
X151280735Y-74929322D01*
X151006980Y-74519620D01*
X150597277Y-74245865D01*
X150114000Y-74149735D01*
X149630722Y-74245865D01*
X149221020Y-74519620D01*
X148947265Y-74929323D01*
X148875400Y-75290613D01*
X148812600Y-75290613D01*
X148812600Y-75290612D01*
X148740735Y-74929322D01*
X148466980Y-74519620D01*
X148057277Y-74245865D01*
X147574000Y-74149735D01*
X147090722Y-74245865D01*
X146681020Y-74519620D01*
X146407265Y-74929323D01*
X146335400Y-75290613D01*
X146272600Y-75290613D01*
X146272600Y-75290612D01*
X146200735Y-74929322D01*
X145926980Y-74519620D01*
X145517277Y-74245865D01*
X145034000Y-74149735D01*
X144550722Y-74245865D01*
X144141020Y-74519620D01*
X143867265Y-74929323D01*
X143795400Y-75290613D01*
X143732600Y-75290613D01*
X143732600Y-75290612D01*
X143660735Y-74929322D01*
X143386980Y-74519620D01*
X142977277Y-74245865D01*
X142494000Y-74149735D01*
X142010722Y-74245865D01*
X141601020Y-74519620D01*
X141327265Y-74929323D01*
X141255400Y-75290613D01*
X141192600Y-75290613D01*
X141192600Y-75290612D01*
X141120735Y-74929322D01*
X140846980Y-74519620D01*
X140437277Y-74245865D01*
X139954000Y-74149735D01*
X139470722Y-74245865D01*
X139061020Y-74519620D01*
X138787265Y-74929323D01*
X138715400Y-75290613D01*
X138623862Y-75290613D01*
X138642999Y-75245687D01*
X138485572Y-74788075D01*
X138165008Y-74425541D01*
X137730231Y-74215050D01*
X137539000Y-74274594D01*
X137289000Y-74274594D01*
X137097769Y-74215050D01*
X136662992Y-74425541D01*
X136342428Y-74788075D01*
X136185001Y-75245687D01*
X136103664Y-75245687D01*
X136040735Y-74929322D01*
X135766980Y-74519620D01*
X135357277Y-74245865D01*
X134874000Y-74149735D01*
X134390722Y-74245865D01*
X133981020Y-74519620D01*
X133707265Y-74929323D01*
X133635400Y-75290613D01*
X133572600Y-75290613D01*
X133572600Y-75290612D01*
X133500735Y-74929322D01*
X133226980Y-74519620D01*
X132817277Y-74245865D01*
X132334000Y-74149735D01*
X131850722Y-74245865D01*
X131441020Y-74519620D01*
X131167265Y-74929323D01*
X131095400Y-75290613D01*
X131032600Y-75290613D01*
X131032600Y-75290612D01*
X130960735Y-74929322D01*
X130686980Y-74519620D01*
X130277277Y-74245865D01*
X129794000Y-74149735D01*
X129310722Y-74245865D01*
X128901020Y-74519620D01*
X128627265Y-74929323D01*
X128611935Y-75006392D01*
X128278556Y-74201544D01*
X127601456Y-73524444D01*
X127482088Y-73475000D01*
X175327605Y-73475000D01*
X176588001Y-74735397D01*
X176588000Y-123869320D01*
X176588001Y-123869325D01*
X176588000Y-125915000D01*
X126212088Y-125915000D01*
X126331456Y-125865556D01*
X127008556Y-125188456D01*
X127375000Y-124303782D01*
X127375000Y-123550613D01*
X137699400Y-123550613D01*
X137699400Y-124099388D01*
X137771265Y-124460678D01*
X138045021Y-124870380D01*
X138454723Y-125144135D01*
X138938000Y-125240265D01*
X139421278Y-125144135D01*
X139830980Y-124870380D01*
X140104735Y-124460677D01*
X140176600Y-124099387D01*
X140176600Y-123550613D01*
X140239400Y-123550613D01*
X140239400Y-124099388D01*
X140311265Y-124460678D01*
X140585021Y-124870380D01*
X140994723Y-125144135D01*
X141478000Y-125240265D01*
X141961278Y-125144135D01*
X142370980Y-124870380D01*
X142644735Y-124460677D01*
X142716600Y-124099387D01*
X142716600Y-123550613D01*
X142779400Y-123550613D01*
X142779400Y-124099388D01*
X142851265Y-124460678D01*
X143125021Y-124870380D01*
X143534723Y-125144135D01*
X144018000Y-125240265D01*
X144501278Y-125144135D01*
X144910980Y-124870380D01*
X145184735Y-124460677D01*
X145256600Y-124099387D01*
X145256600Y-123550613D01*
X145319400Y-123550613D01*
X145319400Y-124099388D01*
X145391265Y-124460678D01*
X145665021Y-124870380D01*
X146074723Y-125144135D01*
X146558000Y-125240265D01*
X147041278Y-125144135D01*
X147450980Y-124870380D01*
X147724735Y-124460677D01*
X147796600Y-124099387D01*
X147796600Y-123550613D01*
X147859400Y-123550613D01*
X147859400Y-124099388D01*
X147931265Y-124460678D01*
X148205021Y-124870380D01*
X148614723Y-125144135D01*
X149098000Y-125240265D01*
X149581278Y-125144135D01*
X149990980Y-124870380D01*
X150264735Y-124460677D01*
X150327663Y-124144313D01*
X150409001Y-124144313D01*
X150566428Y-124601925D01*
X150886992Y-124964459D01*
X151321769Y-125174950D01*
X151513000Y-125115406D01*
X151513000Y-123950000D01*
X151763000Y-123950000D01*
X151763000Y-125115406D01*
X151954231Y-125174950D01*
X152389008Y-124964459D01*
X152709572Y-124601925D01*
X152866999Y-124144313D01*
X152949001Y-124144313D01*
X153106428Y-124601925D01*
X153426992Y-124964459D01*
X153861769Y-125174950D01*
X154053000Y-125115406D01*
X154053000Y-123950000D01*
X154303000Y-123950000D01*
X154303000Y-125115406D01*
X154494231Y-125174950D01*
X154929008Y-124964459D01*
X155249572Y-124601925D01*
X155406999Y-124144313D01*
X155324229Y-123950000D01*
X154303000Y-123950000D01*
X154053000Y-123950000D01*
X153031771Y-123950000D01*
X152949001Y-124144313D01*
X152866999Y-124144313D01*
X152784229Y-123950000D01*
X151763000Y-123950000D01*
X151513000Y-123950000D01*
X150491771Y-123950000D01*
X150409001Y-124144313D01*
X150327663Y-124144313D01*
X150336600Y-124099387D01*
X150336600Y-123550612D01*
X150327664Y-123505687D01*
X150409001Y-123505687D01*
X150491771Y-123700000D01*
X151513000Y-123700000D01*
X151513000Y-122534594D01*
X151763000Y-122534594D01*
X151763000Y-123700000D01*
X152784229Y-123700000D01*
X152866999Y-123505687D01*
X152949001Y-123505687D01*
X153031771Y-123700000D01*
X154053000Y-123700000D01*
X154053000Y-122534594D01*
X154303000Y-122534594D01*
X154303000Y-123700000D01*
X155324229Y-123700000D01*
X155406999Y-123505687D01*
X155249572Y-123048075D01*
X154929008Y-122685541D01*
X154494231Y-122475050D01*
X154303000Y-122534594D01*
X154053000Y-122534594D01*
X153861769Y-122475050D01*
X153426992Y-122685541D01*
X153106428Y-123048075D01*
X152949001Y-123505687D01*
X152866999Y-123505687D01*
X152709572Y-123048075D01*
X152389008Y-122685541D01*
X151954231Y-122475050D01*
X151763000Y-122534594D01*
X151513000Y-122534594D01*
X151321769Y-122475050D01*
X150886992Y-122685541D01*
X150566428Y-123048075D01*
X150409001Y-123505687D01*
X150327664Y-123505687D01*
X150264735Y-123189322D01*
X149990980Y-122779620D01*
X149581277Y-122505865D01*
X149098000Y-122409735D01*
X148614722Y-122505865D01*
X148205020Y-122779620D01*
X147931265Y-123189323D01*
X147859400Y-123550613D01*
X147796600Y-123550613D01*
X147796600Y-123550612D01*
X147724735Y-123189322D01*
X147450980Y-122779620D01*
X147041277Y-122505865D01*
X146558000Y-122409735D01*
X146074722Y-122505865D01*
X145665020Y-122779620D01*
X145391265Y-123189323D01*
X145319400Y-123550613D01*
X145256600Y-123550613D01*
X145256600Y-123550612D01*
X145184735Y-123189322D01*
X144910980Y-122779620D01*
X144501277Y-122505865D01*
X144018000Y-122409735D01*
X143534722Y-122505865D01*
X143125020Y-122779620D01*
X142851265Y-123189323D01*
X142779400Y-123550613D01*
X142716600Y-123550613D01*
X142716600Y-123550612D01*
X142644735Y-123189322D01*
X142370980Y-122779620D01*
X141961277Y-122505865D01*
X141478000Y-122409735D01*
X140994722Y-122505865D01*
X140585020Y-122779620D01*
X140311265Y-123189323D01*
X140239400Y-123550613D01*
X140176600Y-123550613D01*
X140176600Y-123550612D01*
X140104735Y-123189322D01*
X139830980Y-122779620D01*
X139421277Y-122505865D01*
X138938000Y-122409735D01*
X138454722Y-122505865D01*
X138045020Y-122779620D01*
X137771265Y-123189323D01*
X137699400Y-123550613D01*
X127375000Y-123550613D01*
X127375000Y-123346218D01*
X127008556Y-122461544D01*
X126331456Y-121784444D01*
X125446782Y-121418000D01*
X124489218Y-121418000D01*
X123604544Y-121784444D01*
X122948000Y-122440988D01*
X122948000Y-116541495D01*
X126023000Y-116541495D01*
X126023000Y-117088505D01*
X126232331Y-117593875D01*
X126619125Y-117980669D01*
X127124495Y-118190000D01*
X127671505Y-118190000D01*
X128176875Y-117980669D01*
X128563669Y-117593875D01*
X128773000Y-117088505D01*
X128773000Y-116541495D01*
X128563669Y-116036125D01*
X128176875Y-115649331D01*
X127671505Y-115440000D01*
X127124495Y-115440000D01*
X126619125Y-115649331D01*
X126232331Y-116036125D01*
X126023000Y-116541495D01*
X122948000Y-116541495D01*
X122948000Y-113041495D01*
X126023000Y-113041495D01*
X126023000Y-113588505D01*
X126232331Y-114093875D01*
X126619125Y-114480669D01*
X127124495Y-114690000D01*
X127671505Y-114690000D01*
X128176875Y-114480669D01*
X128563669Y-114093875D01*
X128773000Y-113588505D01*
X128773000Y-113041495D01*
X128563669Y-112536125D01*
X128176875Y-112149331D01*
X127671505Y-111940000D01*
X127124495Y-111940000D01*
X126619125Y-112149331D01*
X126232331Y-112536125D01*
X126023000Y-113041495D01*
X122948000Y-113041495D01*
X122948000Y-109541495D01*
X126023000Y-109541495D01*
X126023000Y-110088505D01*
X126232331Y-110593875D01*
X126619125Y-110980669D01*
X127124495Y-111190000D01*
X127671505Y-111190000D01*
X128176875Y-110980669D01*
X128563669Y-110593875D01*
X128773000Y-110088505D01*
X128773000Y-109541495D01*
X128563669Y-109036125D01*
X128176875Y-108649331D01*
X127671505Y-108440000D01*
X127124495Y-108440000D01*
X126619125Y-108649331D01*
X126232331Y-109036125D01*
X126023000Y-109541495D01*
X122948000Y-109541495D01*
X122948000Y-106041495D01*
X126023000Y-106041495D01*
X126023000Y-106588505D01*
X126232331Y-107093875D01*
X126619125Y-107480669D01*
X127124495Y-107690000D01*
X127671505Y-107690000D01*
X128176875Y-107480669D01*
X128467544Y-107190000D01*
X128726035Y-107190000D01*
X128812213Y-107207142D01*
X128898391Y-107190000D01*
X128898392Y-107190000D01*
X129153621Y-107139232D01*
X129443053Y-106945840D01*
X129491872Y-106872777D01*
X134939649Y-101425000D01*
X138005858Y-101425000D01*
X138023000Y-101511178D01*
X138023001Y-112668817D01*
X138005858Y-112755000D01*
X138062846Y-113041495D01*
X138073769Y-113096408D01*
X138267161Y-113385840D01*
X138340221Y-113434657D01*
X139868341Y-114962777D01*
X139917160Y-115035840D01*
X140206592Y-115229232D01*
X140461821Y-115280000D01*
X140547999Y-115297142D01*
X140634177Y-115280000D01*
X141029361Y-115280000D01*
X141034824Y-115288176D01*
X141043001Y-115293639D01*
X141043000Y-116908822D01*
X141025858Y-116995000D01*
X141043000Y-117081178D01*
X141093768Y-117336407D01*
X141287160Y-117625840D01*
X141360223Y-117674659D01*
X143188341Y-119502777D01*
X143237160Y-119575840D01*
X143526592Y-119769232D01*
X143781821Y-119820000D01*
X143867999Y-119837142D01*
X143954177Y-119820000D01*
X153491564Y-119820000D01*
X155843001Y-122171438D01*
X155843001Y-122767606D01*
X155825020Y-122779620D01*
X155551265Y-123189323D01*
X155479400Y-123550613D01*
X155479400Y-124099388D01*
X155551265Y-124460678D01*
X155825021Y-124870380D01*
X156234723Y-125144135D01*
X156718000Y-125240265D01*
X157201278Y-125144135D01*
X157610980Y-124870380D01*
X157884735Y-124460677D01*
X157956600Y-124099387D01*
X157956600Y-123550613D01*
X160559400Y-123550613D01*
X160559400Y-124099388D01*
X160631265Y-124460678D01*
X160905021Y-124870380D01*
X161314723Y-125144135D01*
X161798000Y-125240265D01*
X162281278Y-125144135D01*
X162690980Y-124870380D01*
X162964735Y-124460677D01*
X163036600Y-124099387D01*
X163036600Y-123550613D01*
X163099400Y-123550613D01*
X163099400Y-124099388D01*
X163171265Y-124460678D01*
X163445021Y-124870380D01*
X163854723Y-125144135D01*
X164338000Y-125240265D01*
X164821278Y-125144135D01*
X165230980Y-124870380D01*
X165504735Y-124460677D01*
X165576600Y-124099387D01*
X165576600Y-123550613D01*
X165639400Y-123550613D01*
X165639400Y-124099388D01*
X165711265Y-124460678D01*
X165985021Y-124870380D01*
X166394723Y-125144135D01*
X166878000Y-125240265D01*
X167361278Y-125144135D01*
X167770980Y-124870380D01*
X168044735Y-124460677D01*
X168116600Y-124099387D01*
X168116600Y-123550613D01*
X168179400Y-123550613D01*
X168179400Y-124099388D01*
X168251265Y-124460678D01*
X168525021Y-124870380D01*
X168934723Y-125144135D01*
X169418000Y-125240265D01*
X169901278Y-125144135D01*
X170310980Y-124870380D01*
X170584735Y-124460677D01*
X170656600Y-124099387D01*
X170656600Y-123550613D01*
X170719400Y-123550613D01*
X170719400Y-124099388D01*
X170791265Y-124460678D01*
X171065021Y-124870380D01*
X171474723Y-125144135D01*
X171958000Y-125240265D01*
X172441278Y-125144135D01*
X172850980Y-124870380D01*
X173124735Y-124460677D01*
X173196600Y-124099387D01*
X173196600Y-123550613D01*
X173259400Y-123550613D01*
X173259400Y-124099388D01*
X173331265Y-124460678D01*
X173605021Y-124870380D01*
X174014723Y-125144135D01*
X174498000Y-125240265D01*
X174981278Y-125144135D01*
X175390980Y-124870380D01*
X175664735Y-124460677D01*
X175736600Y-124099387D01*
X175736600Y-123550612D01*
X175664735Y-123189322D01*
X175390980Y-122779620D01*
X174981277Y-122505865D01*
X174498000Y-122409735D01*
X174014722Y-122505865D01*
X173605020Y-122779620D01*
X173331265Y-123189323D01*
X173259400Y-123550613D01*
X173196600Y-123550613D01*
X173196600Y-123550612D01*
X173124735Y-123189322D01*
X172850980Y-122779620D01*
X172441277Y-122505865D01*
X171958000Y-122409735D01*
X171474722Y-122505865D01*
X171065020Y-122779620D01*
X170791265Y-123189323D01*
X170719400Y-123550613D01*
X170656600Y-123550613D01*
X170656600Y-123550612D01*
X170584735Y-123189322D01*
X170310980Y-122779620D01*
X169901277Y-122505865D01*
X169418000Y-122409735D01*
X168934722Y-122505865D01*
X168525020Y-122779620D01*
X168251265Y-123189323D01*
X168179400Y-123550613D01*
X168116600Y-123550613D01*
X168116600Y-123550612D01*
X168044735Y-123189322D01*
X167770980Y-122779620D01*
X167361277Y-122505865D01*
X166878000Y-122409735D01*
X166394722Y-122505865D01*
X165985020Y-122779620D01*
X165711265Y-123189323D01*
X165639400Y-123550613D01*
X165576600Y-123550613D01*
X165576600Y-123550612D01*
X165504735Y-123189322D01*
X165230980Y-122779620D01*
X164821277Y-122505865D01*
X164338000Y-122409735D01*
X163854722Y-122505865D01*
X163445020Y-122779620D01*
X163171265Y-123189323D01*
X163099400Y-123550613D01*
X163036600Y-123550613D01*
X163036600Y-123550612D01*
X162964735Y-123189322D01*
X162690980Y-122779620D01*
X162281277Y-122505865D01*
X161798000Y-122409735D01*
X161314722Y-122505865D01*
X160905020Y-122779620D01*
X160631265Y-123189323D01*
X160559400Y-123550613D01*
X157956600Y-123550613D01*
X157956600Y-123550612D01*
X157884735Y-123189322D01*
X157610980Y-122779620D01*
X157593000Y-122767606D01*
X157593000Y-121895179D01*
X157610142Y-121809000D01*
X157542232Y-121467592D01*
X157397656Y-121251219D01*
X157348840Y-121178160D01*
X157275780Y-121129343D01*
X154533659Y-118387223D01*
X154484840Y-118314160D01*
X154195408Y-118120768D01*
X153940179Y-118070000D01*
X153940178Y-118070000D01*
X153854000Y-118052858D01*
X153767822Y-118070000D01*
X144230436Y-118070000D01*
X142793000Y-116632564D01*
X142793000Y-115293639D01*
X142801176Y-115288176D01*
X143071925Y-114882971D01*
X143166999Y-114405000D01*
X143209001Y-114405000D01*
X143304075Y-114882971D01*
X143574824Y-115288176D01*
X143980029Y-115558925D01*
X144337348Y-115630000D01*
X144578652Y-115630000D01*
X144935971Y-115558925D01*
X145341176Y-115288176D01*
X145611925Y-114882971D01*
X145706999Y-114405000D01*
X145749001Y-114405000D01*
X145844075Y-114882971D01*
X146114824Y-115288176D01*
X146520029Y-115558925D01*
X146877348Y-115630000D01*
X147118652Y-115630000D01*
X147475971Y-115558925D01*
X147881176Y-115288176D01*
X148130924Y-114914400D01*
X159800694Y-114914400D01*
X159800694Y-116692400D01*
X159829798Y-116838717D01*
X159912681Y-116962759D01*
X160036723Y-117045642D01*
X160183040Y-117074746D01*
X161961040Y-117074746D01*
X162107357Y-117045642D01*
X162231399Y-116962759D01*
X162314282Y-116838717D01*
X162343386Y-116692400D01*
X162343386Y-114914400D01*
X162314282Y-114768083D01*
X162231399Y-114644041D01*
X162107357Y-114561158D01*
X161961040Y-114532054D01*
X160183040Y-114532054D01*
X160036723Y-114561158D01*
X159912681Y-114644041D01*
X159829798Y-114768083D01*
X159800694Y-114914400D01*
X148130924Y-114914400D01*
X148151925Y-114882971D01*
X148246999Y-114405000D01*
X148151925Y-113927029D01*
X147881176Y-113521824D01*
X147475971Y-113251075D01*
X147118652Y-113180000D01*
X146877348Y-113180000D01*
X146520029Y-113251075D01*
X146114824Y-113521824D01*
X145844075Y-113927029D01*
X145749001Y-114405000D01*
X145706999Y-114405000D01*
X145611925Y-113927029D01*
X145341176Y-113521824D01*
X144935971Y-113251075D01*
X144578652Y-113180000D01*
X144337348Y-113180000D01*
X143980029Y-113251075D01*
X143574824Y-113521824D01*
X143304075Y-113927029D01*
X143209001Y-114405000D01*
X143166999Y-114405000D01*
X143071925Y-113927029D01*
X142801176Y-113521824D01*
X142395971Y-113251075D01*
X142038652Y-113180000D01*
X141797348Y-113180000D01*
X141440029Y-113251075D01*
X141034824Y-113521824D01*
X141029361Y-113530000D01*
X140910436Y-113530000D01*
X140472033Y-113091597D01*
X154322910Y-113091597D01*
X154322910Y-113638403D01*
X154532164Y-114143586D01*
X154918814Y-114530236D01*
X155423997Y-114739490D01*
X155970803Y-114739490D01*
X156475986Y-114530236D01*
X156862636Y-114143586D01*
X157071890Y-113638403D01*
X157071890Y-113091597D01*
X156862636Y-112586414D01*
X156475986Y-112199764D01*
X155970803Y-111990510D01*
X155423997Y-111990510D01*
X154918814Y-112199764D01*
X154532164Y-112586414D01*
X154322910Y-113091597D01*
X140472033Y-113091597D01*
X139773000Y-112392564D01*
X139773000Y-111865000D01*
X140669001Y-111865000D01*
X140764075Y-112342971D01*
X141034824Y-112748176D01*
X141440029Y-113018925D01*
X141797348Y-113090000D01*
X142038652Y-113090000D01*
X142395971Y-113018925D01*
X142801176Y-112748176D01*
X143071925Y-112342971D01*
X143166999Y-111865000D01*
X143209001Y-111865000D01*
X143304075Y-112342971D01*
X143574824Y-112748176D01*
X143980029Y-113018925D01*
X144337348Y-113090000D01*
X144578652Y-113090000D01*
X144935971Y-113018925D01*
X145341176Y-112748176D01*
X145611925Y-112342971D01*
X145663487Y-112083750D01*
X145773000Y-112083750D01*
X145773000Y-112789592D01*
X145830090Y-112927420D01*
X145935579Y-113032910D01*
X146073408Y-113090000D01*
X146779250Y-113090000D01*
X146873000Y-112996250D01*
X146873000Y-111990000D01*
X147123000Y-111990000D01*
X147123000Y-112996250D01*
X147216750Y-113090000D01*
X147922592Y-113090000D01*
X148060421Y-113032910D01*
X148165910Y-112927420D01*
X148223000Y-112789592D01*
X148223000Y-112083750D01*
X148129250Y-111990000D01*
X147123000Y-111990000D01*
X146873000Y-111990000D01*
X145866750Y-111990000D01*
X145773000Y-112083750D01*
X145663487Y-112083750D01*
X145706999Y-111865000D01*
X145611925Y-111387029D01*
X145341176Y-110981824D01*
X145279193Y-110940408D01*
X145773000Y-110940408D01*
X145773000Y-111646250D01*
X145866750Y-111740000D01*
X146873000Y-111740000D01*
X146873000Y-110733750D01*
X147123000Y-110733750D01*
X147123000Y-111740000D01*
X148129250Y-111740000D01*
X148223000Y-111646250D01*
X148223000Y-110940408D01*
X148165910Y-110802580D01*
X148060421Y-110697090D01*
X147922592Y-110640000D01*
X147216750Y-110640000D01*
X147123000Y-110733750D01*
X146873000Y-110733750D01*
X146779250Y-110640000D01*
X146073408Y-110640000D01*
X145935579Y-110697090D01*
X145830090Y-110802580D01*
X145773000Y-110940408D01*
X145279193Y-110940408D01*
X144935971Y-110711075D01*
X144578652Y-110640000D01*
X144337348Y-110640000D01*
X143980029Y-110711075D01*
X143574824Y-110981824D01*
X143304075Y-111387029D01*
X143209001Y-111865000D01*
X143166999Y-111865000D01*
X143071925Y-111387029D01*
X142801176Y-110981824D01*
X142793000Y-110976361D01*
X142793000Y-110907436D01*
X143380437Y-110320000D01*
X155633969Y-110320000D01*
X159135148Y-113821180D01*
X159183965Y-113894240D01*
X159473397Y-114087632D01*
X159728626Y-114138400D01*
X159814804Y-114155542D01*
X159900982Y-114138400D01*
X160159475Y-114138400D01*
X160356042Y-114334967D01*
X160820615Y-114527400D01*
X161323465Y-114527400D01*
X161788038Y-114334967D01*
X162143607Y-113979398D01*
X162336040Y-113514825D01*
X162336040Y-113011975D01*
X162143607Y-112547402D01*
X161788038Y-112191833D01*
X161323465Y-111999400D01*
X160901518Y-111999400D01*
X161396157Y-111970741D01*
X161724858Y-111834589D01*
X161824018Y-111652154D01*
X161072040Y-110900177D01*
X160320062Y-111652154D01*
X160419222Y-111834589D01*
X160892921Y-111999400D01*
X160820615Y-111999400D01*
X160356042Y-112191833D01*
X160168358Y-112379517D01*
X158334349Y-110545508D01*
X159795613Y-110545508D01*
X159824699Y-111047517D01*
X159960851Y-111376218D01*
X160143286Y-111475378D01*
X160895263Y-110723400D01*
X161248817Y-110723400D01*
X162000794Y-111475378D01*
X162183229Y-111376218D01*
X162348467Y-110901292D01*
X162319381Y-110399283D01*
X162183229Y-110070582D01*
X162000794Y-109971422D01*
X161248817Y-110723400D01*
X160895263Y-110723400D01*
X160143286Y-109971422D01*
X159960851Y-110070582D01*
X159795613Y-110545508D01*
X158334349Y-110545508D01*
X157583487Y-109794646D01*
X160320062Y-109794646D01*
X161072040Y-110546623D01*
X161824018Y-109794646D01*
X161724858Y-109612211D01*
X161249932Y-109446973D01*
X160747923Y-109476059D01*
X160419222Y-109612211D01*
X160320062Y-109794646D01*
X157583487Y-109794646D01*
X156676064Y-108887223D01*
X156627245Y-108814160D01*
X156337813Y-108620768D01*
X156082584Y-108570000D01*
X156082583Y-108570000D01*
X155996405Y-108552858D01*
X155910227Y-108570000D01*
X143104179Y-108570000D01*
X143018000Y-108552858D01*
X142676591Y-108620768D01*
X142633844Y-108649331D01*
X142387160Y-108814160D01*
X142338343Y-108887220D01*
X141360223Y-109865341D01*
X141287160Y-109914160D01*
X141093768Y-110203593D01*
X141054843Y-110399283D01*
X141025858Y-110545000D01*
X141043000Y-110631178D01*
X141043000Y-110976361D01*
X141034824Y-110981824D01*
X140764075Y-111387029D01*
X140669001Y-111865000D01*
X139773000Y-111865000D01*
X139773000Y-101787436D01*
X141930437Y-99630000D01*
X142038652Y-99630000D01*
X142395971Y-99558925D01*
X142801176Y-99288176D01*
X143071925Y-98882971D01*
X143166999Y-98405000D01*
X143209001Y-98405000D01*
X143304075Y-98882971D01*
X143574824Y-99288176D01*
X143980029Y-99558925D01*
X144337348Y-99630000D01*
X144578652Y-99630000D01*
X144935971Y-99558925D01*
X145341176Y-99288176D01*
X145611925Y-98882971D01*
X145706999Y-98405000D01*
X145749001Y-98405000D01*
X145844075Y-98882971D01*
X146114824Y-99288176D01*
X146520029Y-99558925D01*
X146877348Y-99630000D01*
X147118652Y-99630000D01*
X147475971Y-99558925D01*
X147881176Y-99288176D01*
X148130924Y-98914400D01*
X159800694Y-98914400D01*
X159800694Y-100692400D01*
X159829798Y-100838717D01*
X159912681Y-100962759D01*
X160036723Y-101045642D01*
X160183040Y-101074746D01*
X161961040Y-101074746D01*
X162107357Y-101045642D01*
X162231399Y-100962759D01*
X162314282Y-100838717D01*
X162343386Y-100692400D01*
X162343386Y-98914400D01*
X162314282Y-98768083D01*
X162231399Y-98644041D01*
X162107357Y-98561158D01*
X161961040Y-98532054D01*
X160183040Y-98532054D01*
X160036723Y-98561158D01*
X159912681Y-98644041D01*
X159829798Y-98768083D01*
X159800694Y-98914400D01*
X148130924Y-98914400D01*
X148151925Y-98882971D01*
X148246999Y-98405000D01*
X148151925Y-97927029D01*
X147881176Y-97521824D01*
X147475971Y-97251075D01*
X147118652Y-97180000D01*
X146877348Y-97180000D01*
X146520029Y-97251075D01*
X146114824Y-97521824D01*
X145844075Y-97927029D01*
X145749001Y-98405000D01*
X145706999Y-98405000D01*
X145611925Y-97927029D01*
X145341176Y-97521824D01*
X144935971Y-97251075D01*
X144578652Y-97180000D01*
X144337348Y-97180000D01*
X143980029Y-97251075D01*
X143574824Y-97521824D01*
X143304075Y-97927029D01*
X143209001Y-98405000D01*
X143166999Y-98405000D01*
X143071925Y-97927029D01*
X142801176Y-97521824D01*
X142395971Y-97251075D01*
X142038652Y-97180000D01*
X141797348Y-97180000D01*
X141440029Y-97251075D01*
X141034824Y-97521824D01*
X140764075Y-97927029D01*
X140669001Y-98405000D01*
X140670919Y-98414644D01*
X138340223Y-100745341D01*
X138267160Y-100794160D01*
X138073768Y-101083593D01*
X138023000Y-101338821D01*
X138005858Y-101425000D01*
X134939649Y-101425000D01*
X139225780Y-97138870D01*
X139296529Y-97091597D01*
X154322910Y-97091597D01*
X154322910Y-97638403D01*
X154532164Y-98143586D01*
X154918814Y-98530236D01*
X155423997Y-98739490D01*
X155970803Y-98739490D01*
X156475986Y-98530236D01*
X156862636Y-98143586D01*
X157071890Y-97638403D01*
X157071890Y-97091597D01*
X157038910Y-97011975D01*
X159808040Y-97011975D01*
X159808040Y-97514825D01*
X160000473Y-97979398D01*
X160356042Y-98334967D01*
X160820615Y-98527400D01*
X161323465Y-98527400D01*
X161788038Y-98334967D01*
X162143607Y-97979398D01*
X162336040Y-97514825D01*
X162336040Y-97011975D01*
X162143607Y-96547402D01*
X161788038Y-96191833D01*
X161323465Y-95999400D01*
X160901518Y-95999400D01*
X161396157Y-95970741D01*
X161724858Y-95834589D01*
X161824018Y-95652154D01*
X161072040Y-94900177D01*
X160320062Y-95652154D01*
X160419222Y-95834589D01*
X160892921Y-95999400D01*
X160820615Y-95999400D01*
X160356042Y-96191833D01*
X160000473Y-96547402D01*
X159808040Y-97011975D01*
X157038910Y-97011975D01*
X156862636Y-96586414D01*
X156475986Y-96199764D01*
X155970803Y-95990510D01*
X155423997Y-95990510D01*
X154918814Y-96199764D01*
X154532164Y-96586414D01*
X154322910Y-97091597D01*
X139296529Y-97091597D01*
X139298840Y-97090053D01*
X139492232Y-96800621D01*
X139543000Y-96545392D01*
X139543000Y-96545391D01*
X139560142Y-96459213D01*
X139543000Y-96373034D01*
X139543000Y-95865000D01*
X140669001Y-95865000D01*
X140764075Y-96342971D01*
X141034824Y-96748176D01*
X141440029Y-97018925D01*
X141797348Y-97090000D01*
X142038652Y-97090000D01*
X142395971Y-97018925D01*
X142801176Y-96748176D01*
X143071925Y-96342971D01*
X143166999Y-95865000D01*
X143071925Y-95387029D01*
X142801176Y-94981824D01*
X142395971Y-94711075D01*
X142038652Y-94640000D01*
X141797348Y-94640000D01*
X141440029Y-94711075D01*
X141034824Y-94981824D01*
X140764075Y-95387029D01*
X140669001Y-95865000D01*
X139543000Y-95865000D01*
X139543000Y-94421649D01*
X140074650Y-93890000D01*
X142925564Y-93890000D01*
X143583000Y-94547437D01*
X143583000Y-94976361D01*
X143574824Y-94981824D01*
X143304075Y-95387029D01*
X143209001Y-95865000D01*
X143304075Y-96342971D01*
X143574824Y-96748176D01*
X143980029Y-97018925D01*
X144337348Y-97090000D01*
X144578652Y-97090000D01*
X144935971Y-97018925D01*
X145341176Y-96748176D01*
X145611925Y-96342971D01*
X145663487Y-96083750D01*
X145773000Y-96083750D01*
X145773000Y-96789592D01*
X145830090Y-96927420D01*
X145935579Y-97032910D01*
X146073408Y-97090000D01*
X146779250Y-97090000D01*
X146873000Y-96996250D01*
X146873000Y-95990000D01*
X147123000Y-95990000D01*
X147123000Y-96996250D01*
X147216750Y-97090000D01*
X147922592Y-97090000D01*
X148060421Y-97032910D01*
X148165910Y-96927420D01*
X148223000Y-96789592D01*
X148223000Y-96083750D01*
X148129250Y-95990000D01*
X147123000Y-95990000D01*
X146873000Y-95990000D01*
X145866750Y-95990000D01*
X145773000Y-96083750D01*
X145663487Y-96083750D01*
X145706999Y-95865000D01*
X145611925Y-95387029D01*
X145341176Y-94981824D01*
X145333000Y-94976361D01*
X145333000Y-94940408D01*
X145773000Y-94940408D01*
X145773000Y-95646250D01*
X145866750Y-95740000D01*
X146873000Y-95740000D01*
X146873000Y-94733750D01*
X147123000Y-94733750D01*
X147123000Y-95740000D01*
X148129250Y-95740000D01*
X148223000Y-95646250D01*
X148223000Y-94940408D01*
X148165910Y-94802580D01*
X148060421Y-94697090D01*
X147922592Y-94640000D01*
X147216750Y-94640000D01*
X147123000Y-94733750D01*
X146873000Y-94733750D01*
X146779250Y-94640000D01*
X146073408Y-94640000D01*
X145935579Y-94697090D01*
X145830090Y-94802580D01*
X145773000Y-94940408D01*
X145333000Y-94940408D01*
X145333000Y-94545508D01*
X159795613Y-94545508D01*
X159824699Y-95047517D01*
X159960851Y-95376218D01*
X160143286Y-95475378D01*
X160895263Y-94723400D01*
X161248817Y-94723400D01*
X162000794Y-95475378D01*
X162183229Y-95376218D01*
X162348467Y-94901292D01*
X162319381Y-94399283D01*
X162183229Y-94070582D01*
X162000794Y-93971422D01*
X161248817Y-94723400D01*
X160895263Y-94723400D01*
X160143286Y-93971422D01*
X159960851Y-94070582D01*
X159795613Y-94545508D01*
X145333000Y-94545508D01*
X145333000Y-94271179D01*
X145350142Y-94185000D01*
X145282232Y-93843591D01*
X145249528Y-93794646D01*
X160320062Y-93794646D01*
X161072040Y-94546623D01*
X161824018Y-93794646D01*
X161724858Y-93612211D01*
X161249932Y-93446973D01*
X160747923Y-93476059D01*
X160419222Y-93612211D01*
X160320062Y-93794646D01*
X145249528Y-93794646D01*
X145191160Y-93707293D01*
X145088840Y-93554160D01*
X145015780Y-93505343D01*
X143967659Y-92457223D01*
X143918840Y-92384160D01*
X143629408Y-92190768D01*
X143374179Y-92140000D01*
X143374178Y-92140000D01*
X143288000Y-92122858D01*
X143201822Y-92140000D01*
X139798390Y-92140000D01*
X139712212Y-92122858D01*
X139626034Y-92140000D01*
X139370805Y-92190768D01*
X139081373Y-92384160D01*
X139032556Y-92457220D01*
X138110221Y-93379556D01*
X138037161Y-93428373D01*
X137940671Y-93572781D01*
X137843769Y-93717805D01*
X137775858Y-94059213D01*
X137793001Y-94145395D01*
X137793000Y-96096776D01*
X128458660Y-105431116D01*
X128176875Y-105149331D01*
X127671505Y-104940000D01*
X127124495Y-104940000D01*
X126619125Y-105149331D01*
X126232331Y-105536125D01*
X126023000Y-106041495D01*
X122948000Y-106041495D01*
X122948000Y-102541495D01*
X126023000Y-102541495D01*
X126023000Y-103088505D01*
X126232331Y-103593875D01*
X126619125Y-103980669D01*
X127124495Y-104190000D01*
X127671505Y-104190000D01*
X128176875Y-103980669D01*
X128563669Y-103593875D01*
X128773000Y-103088505D01*
X128773000Y-102541495D01*
X128563669Y-102036125D01*
X128176875Y-101649331D01*
X127671505Y-101440000D01*
X127124495Y-101440000D01*
X126619125Y-101649331D01*
X126232331Y-102036125D01*
X126023000Y-102541495D01*
X122948000Y-102541495D01*
X122948000Y-99041495D01*
X126023000Y-99041495D01*
X126023000Y-99588505D01*
X126232331Y-100093875D01*
X126619125Y-100480669D01*
X127124495Y-100690000D01*
X127671505Y-100690000D01*
X128176875Y-100480669D01*
X128563669Y-100093875D01*
X128773000Y-99588505D01*
X128773000Y-99041495D01*
X128563669Y-98536125D01*
X128176875Y-98149331D01*
X127671505Y-97940000D01*
X127124495Y-97940000D01*
X126619125Y-98149331D01*
X126232331Y-98536125D01*
X126023000Y-99041495D01*
X122948000Y-99041495D01*
X122948000Y-84031659D01*
X123683000Y-84031659D01*
X123683000Y-84638341D01*
X123915167Y-85198843D01*
X124344157Y-85627833D01*
X124904659Y-85860000D01*
X125511341Y-85860000D01*
X126071843Y-85627833D01*
X126500833Y-85198843D01*
X126733000Y-84638341D01*
X126733000Y-84031659D01*
X128763000Y-84031659D01*
X128763000Y-84638341D01*
X128995167Y-85198843D01*
X129424157Y-85627833D01*
X129984659Y-85860000D01*
X130591341Y-85860000D01*
X131151843Y-85627833D01*
X131580833Y-85198843D01*
X131813000Y-84638341D01*
X131813000Y-84061495D01*
X139073000Y-84061495D01*
X139073000Y-84608505D01*
X139282331Y-85113875D01*
X139669125Y-85500669D01*
X140174495Y-85710000D01*
X140721505Y-85710000D01*
X141226875Y-85500669D01*
X141613669Y-85113875D01*
X141718000Y-84861998D01*
X141822331Y-85113875D01*
X142209125Y-85500669D01*
X142714495Y-85710000D01*
X143261505Y-85710000D01*
X143766875Y-85500669D01*
X144153669Y-85113875D01*
X144363000Y-84608505D01*
X144363000Y-84061495D01*
X144153669Y-83556125D01*
X143766875Y-83169331D01*
X143261505Y-82960000D01*
X142714495Y-82960000D01*
X142209125Y-83169331D01*
X141822331Y-83556125D01*
X141718000Y-83808002D01*
X141613669Y-83556125D01*
X141226875Y-83169331D01*
X140721505Y-82960000D01*
X140174495Y-82960000D01*
X139669125Y-83169331D01*
X139282331Y-83556125D01*
X139073000Y-84061495D01*
X131813000Y-84061495D01*
X131813000Y-84031659D01*
X131580833Y-83471157D01*
X131151843Y-83042167D01*
X130591341Y-82810000D01*
X129984659Y-82810000D01*
X129424157Y-83042167D01*
X128995167Y-83471157D01*
X128763000Y-84031659D01*
X126733000Y-84031659D01*
X126500833Y-83471157D01*
X126071843Y-83042167D01*
X125511341Y-82810000D01*
X124904659Y-82810000D01*
X124344157Y-83042167D01*
X123915167Y-83471157D01*
X123683000Y-84031659D01*
X122948000Y-84031659D01*
X122948000Y-73475000D01*
X124993912Y-73475000D01*
X124874544Y-73524444D01*
G04 #@! TD*
M02*
