G04 #@! TF.GenerationSoftware,KiCad,Pcbnew,5.0.2+dfsg1-1*
G04 #@! TF.CreationDate,2019-06-09T15:00:16+09:00*
G04 #@! TF.ProjectId,portal_shield_for_arduino,706f7274-616c-45f7-9368-69656c645f66,rev?*
G04 #@! TF.SameCoordinates,Original*
G04 #@! TF.FileFunction,Legend,Top*
G04 #@! TF.FilePolarity,Positive*
%FSLAX46Y46*%
G04 Gerber Fmt 4.6, Leading zero omitted, Abs format (unit mm)*
G04 Created by KiCad (PCBNEW 5.0.2+dfsg1-1) date Sun 09 Jun 2019 03:00:16 PM KST*
%MOMM*%
%LPD*%
G01*
G04 APERTURE LIST*
%ADD10C,0.200000*%
%ADD11C,0.150000*%
%ADD12C,0.120000*%
%ADD13C,0.304800*%
%ADD14C,0.152400*%
G04 APERTURE END LIST*
D10*
X135545619Y-112710238D02*
X135545619Y-112234047D01*
X136545619Y-112234047D01*
X136069428Y-113043571D02*
X136069428Y-113376904D01*
X135545619Y-113519761D02*
X135545619Y-113043571D01*
X136545619Y-113043571D01*
X136545619Y-113519761D01*
X135545619Y-113948333D02*
X136545619Y-113948333D01*
X136545619Y-114186428D01*
X136498000Y-114329285D01*
X136402761Y-114424523D01*
X136307523Y-114472142D01*
X136117047Y-114519761D01*
X135974190Y-114519761D01*
X135783714Y-114472142D01*
X135688476Y-114424523D01*
X135593238Y-114329285D01*
X135545619Y-114186428D01*
X135545619Y-113948333D01*
X135926571Y-114948333D02*
X135926571Y-115710238D01*
X136593238Y-116900714D02*
X135307523Y-116043571D01*
X135926571Y-117234047D02*
X135926571Y-117995952D01*
X135545619Y-117615000D02*
X136307523Y-117615000D01*
X123897523Y-88467380D02*
X123897523Y-87467380D01*
X124278476Y-87467380D01*
X124373714Y-87515000D01*
X124421333Y-87562619D01*
X124468952Y-87657857D01*
X124468952Y-87800714D01*
X124421333Y-87895952D01*
X124373714Y-87943571D01*
X124278476Y-87991190D01*
X123897523Y-87991190D01*
X125040380Y-88467380D02*
X124945142Y-88419761D01*
X124897523Y-88372142D01*
X124849904Y-88276904D01*
X124849904Y-87991190D01*
X124897523Y-87895952D01*
X124945142Y-87848333D01*
X125040380Y-87800714D01*
X125183238Y-87800714D01*
X125278476Y-87848333D01*
X125326095Y-87895952D01*
X125373714Y-87991190D01*
X125373714Y-88276904D01*
X125326095Y-88372142D01*
X125278476Y-88419761D01*
X125183238Y-88467380D01*
X125040380Y-88467380D01*
X125802285Y-88467380D02*
X125802285Y-87800714D01*
X125802285Y-87991190D02*
X125849904Y-87895952D01*
X125897523Y-87848333D01*
X125992761Y-87800714D01*
X126088000Y-87800714D01*
X126278476Y-87800714D02*
X126659428Y-87800714D01*
X126421333Y-87467380D02*
X126421333Y-88324523D01*
X126468952Y-88419761D01*
X126564190Y-88467380D01*
X126659428Y-88467380D01*
X127421333Y-88467380D02*
X127421333Y-87943571D01*
X127373714Y-87848333D01*
X127278476Y-87800714D01*
X127088000Y-87800714D01*
X126992761Y-87848333D01*
X127421333Y-88419761D02*
X127326095Y-88467380D01*
X127088000Y-88467380D01*
X126992761Y-88419761D01*
X126945142Y-88324523D01*
X126945142Y-88229285D01*
X126992761Y-88134047D01*
X127088000Y-88086428D01*
X127326095Y-88086428D01*
X127421333Y-88038809D01*
X128040380Y-88467380D02*
X127945142Y-88419761D01*
X127897523Y-88324523D01*
X127897523Y-87467380D01*
X129135619Y-88419761D02*
X129278476Y-88467380D01*
X129516571Y-88467380D01*
X129611809Y-88419761D01*
X129659428Y-88372142D01*
X129707047Y-88276904D01*
X129707047Y-88181666D01*
X129659428Y-88086428D01*
X129611809Y-88038809D01*
X129516571Y-87991190D01*
X129326095Y-87943571D01*
X129230857Y-87895952D01*
X129183238Y-87848333D01*
X129135619Y-87753095D01*
X129135619Y-87657857D01*
X129183238Y-87562619D01*
X129230857Y-87515000D01*
X129326095Y-87467380D01*
X129564190Y-87467380D01*
X129707047Y-87515000D01*
X130135619Y-88467380D02*
X130135619Y-87467380D01*
X130564190Y-88467380D02*
X130564190Y-87943571D01*
X130516571Y-87848333D01*
X130421333Y-87800714D01*
X130278476Y-87800714D01*
X130183238Y-87848333D01*
X130135619Y-87895952D01*
X131040380Y-88467380D02*
X131040380Y-87800714D01*
X131040380Y-87467380D02*
X130992761Y-87515000D01*
X131040380Y-87562619D01*
X131088000Y-87515000D01*
X131040380Y-87467380D01*
X131040380Y-87562619D01*
X131897523Y-88419761D02*
X131802285Y-88467380D01*
X131611809Y-88467380D01*
X131516571Y-88419761D01*
X131468952Y-88324523D01*
X131468952Y-87943571D01*
X131516571Y-87848333D01*
X131611809Y-87800714D01*
X131802285Y-87800714D01*
X131897523Y-87848333D01*
X131945142Y-87943571D01*
X131945142Y-88038809D01*
X131468952Y-88134047D01*
X132516571Y-88467380D02*
X132421333Y-88419761D01*
X132373714Y-88324523D01*
X132373714Y-87467380D01*
X133326095Y-88467380D02*
X133326095Y-87467380D01*
X133326095Y-88419761D02*
X133230857Y-88467380D01*
X133040380Y-88467380D01*
X132945142Y-88419761D01*
X132897523Y-88372142D01*
X132849904Y-88276904D01*
X132849904Y-87991190D01*
X132897523Y-87895952D01*
X132945142Y-87848333D01*
X133040380Y-87800714D01*
X133230857Y-87800714D01*
X133326095Y-87848333D01*
X134088000Y-88848333D02*
X134040380Y-88800714D01*
X133945142Y-88657857D01*
X133897523Y-88562619D01*
X133849904Y-88419761D01*
X133802285Y-88181666D01*
X133802285Y-87991190D01*
X133849904Y-87753095D01*
X133897523Y-87610238D01*
X133945142Y-87515000D01*
X134040380Y-87372142D01*
X134088000Y-87324523D01*
X134421333Y-88181666D02*
X134897523Y-88181666D01*
X134326095Y-88467380D02*
X134659428Y-87467380D01*
X134992761Y-88467380D01*
X135326095Y-88467380D02*
X135326095Y-87800714D01*
X135326095Y-87991190D02*
X135373714Y-87895952D01*
X135421333Y-87848333D01*
X135516571Y-87800714D01*
X135611809Y-87800714D01*
X136373714Y-88467380D02*
X136373714Y-87467380D01*
X136373714Y-88419761D02*
X136278476Y-88467380D01*
X136088000Y-88467380D01*
X135992761Y-88419761D01*
X135945142Y-88372142D01*
X135897523Y-88276904D01*
X135897523Y-87991190D01*
X135945142Y-87895952D01*
X135992761Y-87848333D01*
X136088000Y-87800714D01*
X136278476Y-87800714D01*
X136373714Y-87848333D01*
X137278476Y-87800714D02*
X137278476Y-88467380D01*
X136849904Y-87800714D02*
X136849904Y-88324523D01*
X136897523Y-88419761D01*
X136992761Y-88467380D01*
X137135619Y-88467380D01*
X137230857Y-88419761D01*
X137278476Y-88372142D01*
X137754666Y-88467380D02*
X137754666Y-87800714D01*
X137754666Y-87467380D02*
X137707047Y-87515000D01*
X137754666Y-87562619D01*
X137802285Y-87515000D01*
X137754666Y-87467380D01*
X137754666Y-87562619D01*
X138230857Y-87800714D02*
X138230857Y-88467380D01*
X138230857Y-87895952D02*
X138278476Y-87848333D01*
X138373714Y-87800714D01*
X138516571Y-87800714D01*
X138611809Y-87848333D01*
X138659428Y-87943571D01*
X138659428Y-88467380D01*
X139278476Y-88467380D02*
X139183238Y-88419761D01*
X139135619Y-88372142D01*
X139088000Y-88276904D01*
X139088000Y-87991190D01*
X139135619Y-87895952D01*
X139183238Y-87848333D01*
X139278476Y-87800714D01*
X139421333Y-87800714D01*
X139516571Y-87848333D01*
X139564190Y-87895952D01*
X139611809Y-87991190D01*
X139611809Y-88276904D01*
X139564190Y-88372142D01*
X139516571Y-88419761D01*
X139421333Y-88467380D01*
X139278476Y-88467380D01*
X139945142Y-88848333D02*
X139992761Y-88800714D01*
X140088000Y-88657857D01*
X140135619Y-88562619D01*
X140183238Y-88419761D01*
X140230857Y-88181666D01*
X140230857Y-87991190D01*
X140183238Y-87753095D01*
X140135619Y-87610238D01*
X140088000Y-87515000D01*
X139992761Y-87372142D01*
X139945142Y-87324523D01*
X141659428Y-87467380D02*
X141754666Y-87467380D01*
X141849904Y-87515000D01*
X141897523Y-87562619D01*
X141945142Y-87657857D01*
X141992761Y-87848333D01*
X141992761Y-88086428D01*
X141945142Y-88276904D01*
X141897523Y-88372142D01*
X141849904Y-88419761D01*
X141754666Y-88467380D01*
X141659428Y-88467380D01*
X141564190Y-88419761D01*
X141516571Y-88372142D01*
X141468952Y-88276904D01*
X141421333Y-88086428D01*
X141421333Y-87848333D01*
X141468952Y-87657857D01*
X141516571Y-87562619D01*
X141564190Y-87515000D01*
X141659428Y-87467380D01*
X142421333Y-88372142D02*
X142468952Y-88419761D01*
X142421333Y-88467380D01*
X142373714Y-88419761D01*
X142421333Y-88372142D01*
X142421333Y-88467380D01*
X143421333Y-88467380D02*
X142849904Y-88467380D01*
X143135619Y-88467380D02*
X143135619Y-87467380D01*
X143040380Y-87610238D01*
X142945142Y-87705476D01*
X142849904Y-87753095D01*
X143849904Y-88372142D02*
X143897523Y-88419761D01*
X143849904Y-88467380D01*
X143802285Y-88419761D01*
X143849904Y-88372142D01*
X143849904Y-88467380D01*
X144516571Y-87467380D02*
X144611809Y-87467380D01*
X144707047Y-87515000D01*
X144754666Y-87562619D01*
X144802285Y-87657857D01*
X144849904Y-87848333D01*
X144849904Y-88086428D01*
X144802285Y-88276904D01*
X144754666Y-88372142D01*
X144707047Y-88419761D01*
X144611809Y-88467380D01*
X144516571Y-88467380D01*
X144421333Y-88419761D01*
X144373714Y-88372142D01*
X144326095Y-88276904D01*
X144278476Y-88086428D01*
X144278476Y-87848333D01*
X144326095Y-87657857D01*
X144373714Y-87562619D01*
X144421333Y-87515000D01*
X144516571Y-87467380D01*
X145278476Y-88372142D02*
X145326095Y-88419761D01*
X145278476Y-88467380D01*
X145230857Y-88419761D01*
X145278476Y-88372142D01*
X145278476Y-88467380D01*
X126992761Y-90167380D02*
X126421333Y-90167380D01*
X126707047Y-90167380D02*
X126707047Y-89167380D01*
X126611809Y-89310238D01*
X126516571Y-89405476D01*
X126421333Y-89453095D01*
X128087999Y-90167380D02*
X128611809Y-89500714D01*
X128087999Y-89500714D02*
X128611809Y-90167380D01*
X130326095Y-90167380D02*
X129992761Y-89691190D01*
X129754666Y-90167380D02*
X129754666Y-89167380D01*
X130135619Y-89167380D01*
X130230857Y-89215000D01*
X130278476Y-89262619D01*
X130326095Y-89357857D01*
X130326095Y-89500714D01*
X130278476Y-89595952D01*
X130230857Y-89643571D01*
X130135619Y-89691190D01*
X129754666Y-89691190D01*
X131135619Y-90119761D02*
X131040380Y-90167380D01*
X130849904Y-90167380D01*
X130754666Y-90119761D01*
X130707047Y-90024523D01*
X130707047Y-89643571D01*
X130754666Y-89548333D01*
X130849904Y-89500714D01*
X131040380Y-89500714D01*
X131135619Y-89548333D01*
X131183238Y-89643571D01*
X131183238Y-89738809D01*
X130707047Y-89834047D01*
X131754666Y-90167380D02*
X131659428Y-90119761D01*
X131611809Y-90024523D01*
X131611809Y-89167380D01*
X132564190Y-90167380D02*
X132564190Y-89643571D01*
X132516571Y-89548333D01*
X132421333Y-89500714D01*
X132230857Y-89500714D01*
X132135619Y-89548333D01*
X132564190Y-90119761D02*
X132468952Y-90167380D01*
X132230857Y-90167380D01*
X132135619Y-90119761D01*
X132087999Y-90024523D01*
X132087999Y-89929285D01*
X132135619Y-89834047D01*
X132230857Y-89786428D01*
X132468952Y-89786428D01*
X132564190Y-89738809D01*
X132945142Y-89500714D02*
X133183238Y-90167380D01*
X133421333Y-89500714D02*
X133183238Y-90167380D01*
X133087999Y-90405476D01*
X133040380Y-90453095D01*
X132945142Y-90500714D01*
X133849904Y-90119761D02*
X133849904Y-90167380D01*
X133802285Y-90262619D01*
X133754666Y-90310238D01*
X134992761Y-89262619D02*
X135040380Y-89215000D01*
X135135619Y-89167380D01*
X135373714Y-89167380D01*
X135468952Y-89215000D01*
X135516571Y-89262619D01*
X135564190Y-89357857D01*
X135564190Y-89453095D01*
X135516571Y-89595952D01*
X134945142Y-90167380D01*
X135564190Y-90167380D01*
X136659428Y-90167380D02*
X137183238Y-89500714D01*
X136659428Y-89500714D02*
X137183238Y-90167380D01*
X138326095Y-90167380D02*
X138326095Y-89167380D01*
X138659428Y-89881666D01*
X138992761Y-89167380D01*
X138992761Y-90167380D01*
X139611809Y-90167380D02*
X139516571Y-90119761D01*
X139468952Y-90072142D01*
X139421333Y-89976904D01*
X139421333Y-89691190D01*
X139468952Y-89595952D01*
X139516571Y-89548333D01*
X139611809Y-89500714D01*
X139754666Y-89500714D01*
X139849904Y-89548333D01*
X139897523Y-89595952D01*
X139945142Y-89691190D01*
X139945142Y-89976904D01*
X139897523Y-90072142D01*
X139849904Y-90119761D01*
X139754666Y-90167380D01*
X139611809Y-90167380D01*
X140326095Y-90119761D02*
X140421333Y-90167380D01*
X140611809Y-90167380D01*
X140707047Y-90119761D01*
X140754666Y-90024523D01*
X140754666Y-89976904D01*
X140707047Y-89881666D01*
X140611809Y-89834047D01*
X140468952Y-89834047D01*
X140373714Y-89786428D01*
X140326095Y-89691190D01*
X140326095Y-89643571D01*
X140373714Y-89548333D01*
X140468952Y-89500714D01*
X140611809Y-89500714D01*
X140707047Y-89548333D01*
X141040380Y-89500714D02*
X141421333Y-89500714D01*
X141183238Y-90167380D02*
X141183238Y-89310238D01*
X141230857Y-89215000D01*
X141326095Y-89167380D01*
X141421333Y-89167380D01*
X142135619Y-90119761D02*
X142040380Y-90167380D01*
X141849904Y-90167380D01*
X141754666Y-90119761D01*
X141707047Y-90024523D01*
X141707047Y-89643571D01*
X141754666Y-89548333D01*
X141849904Y-89500714D01*
X142040380Y-89500714D01*
X142135619Y-89548333D01*
X142183238Y-89643571D01*
X142183238Y-89738809D01*
X141707047Y-89834047D01*
X142468952Y-89500714D02*
X142849904Y-89500714D01*
X142611809Y-89167380D02*
X142611809Y-90024523D01*
X142659428Y-90119761D01*
X142754666Y-90167380D01*
X142849904Y-90167380D01*
X124826095Y-91867380D02*
X124826095Y-90867380D01*
X125064190Y-90867380D01*
X125207047Y-90915000D01*
X125302285Y-91010238D01*
X125349904Y-91105476D01*
X125397523Y-91295952D01*
X125397523Y-91438809D01*
X125349904Y-91629285D01*
X125302285Y-91724523D01*
X125207047Y-91819761D01*
X125064190Y-91867380D01*
X124826095Y-91867380D01*
X126207047Y-91819761D02*
X126111809Y-91867380D01*
X125921333Y-91867380D01*
X125826095Y-91819761D01*
X125778476Y-91724523D01*
X125778476Y-91343571D01*
X125826095Y-91248333D01*
X125921333Y-91200714D01*
X126111809Y-91200714D01*
X126207047Y-91248333D01*
X126254666Y-91343571D01*
X126254666Y-91438809D01*
X125778476Y-91534047D01*
X126635619Y-91819761D02*
X126730857Y-91867380D01*
X126921333Y-91867380D01*
X127016571Y-91819761D01*
X127064190Y-91724523D01*
X127064190Y-91676904D01*
X127016571Y-91581666D01*
X126921333Y-91534047D01*
X126778476Y-91534047D01*
X126683238Y-91486428D01*
X126635619Y-91391190D01*
X126635619Y-91343571D01*
X126683238Y-91248333D01*
X126778476Y-91200714D01*
X126921333Y-91200714D01*
X127016571Y-91248333D01*
X127492761Y-91867380D02*
X127492761Y-91200714D01*
X127492761Y-90867380D02*
X127445142Y-90915000D01*
X127492761Y-90962619D01*
X127540380Y-90915000D01*
X127492761Y-90867380D01*
X127492761Y-90962619D01*
X128397523Y-91200714D02*
X128397523Y-92010238D01*
X128349904Y-92105476D01*
X128302285Y-92153095D01*
X128207047Y-92200714D01*
X128064190Y-92200714D01*
X127968952Y-92153095D01*
X128397523Y-91819761D02*
X128302285Y-91867380D01*
X128111809Y-91867380D01*
X128016571Y-91819761D01*
X127968952Y-91772142D01*
X127921333Y-91676904D01*
X127921333Y-91391190D01*
X127968952Y-91295952D01*
X128016571Y-91248333D01*
X128111809Y-91200714D01*
X128302285Y-91200714D01*
X128397523Y-91248333D01*
X128873714Y-91200714D02*
X128873714Y-91867380D01*
X128873714Y-91295952D02*
X128921333Y-91248333D01*
X129016571Y-91200714D01*
X129159428Y-91200714D01*
X129254666Y-91248333D01*
X129302285Y-91343571D01*
X129302285Y-91867380D01*
X130159428Y-91819761D02*
X130064190Y-91867380D01*
X129873714Y-91867380D01*
X129778476Y-91819761D01*
X129730857Y-91724523D01*
X129730857Y-91343571D01*
X129778476Y-91248333D01*
X129873714Y-91200714D01*
X130064190Y-91200714D01*
X130159428Y-91248333D01*
X130207047Y-91343571D01*
X130207047Y-91438809D01*
X129730857Y-91534047D01*
X131064190Y-91867380D02*
X131064190Y-90867380D01*
X131064190Y-91819761D02*
X130968952Y-91867380D01*
X130778476Y-91867380D01*
X130683238Y-91819761D01*
X130635619Y-91772142D01*
X130588000Y-91676904D01*
X130588000Y-91391190D01*
X130635619Y-91295952D01*
X130683238Y-91248333D01*
X130778476Y-91200714D01*
X130968952Y-91200714D01*
X131064190Y-91248333D01*
X132302285Y-91867380D02*
X132302285Y-90867380D01*
X132302285Y-91248333D02*
X132397523Y-91200714D01*
X132588000Y-91200714D01*
X132683238Y-91248333D01*
X132730857Y-91295952D01*
X132778476Y-91391190D01*
X132778476Y-91676904D01*
X132730857Y-91772142D01*
X132683238Y-91819761D01*
X132588000Y-91867380D01*
X132397523Y-91867380D01*
X132302285Y-91819761D01*
X133111809Y-91200714D02*
X133349904Y-91867380D01*
X133588000Y-91200714D02*
X133349904Y-91867380D01*
X133254666Y-92105476D01*
X133207047Y-92153095D01*
X133111809Y-92200714D01*
X134730857Y-91867380D02*
X134730857Y-90867380D01*
X134730857Y-91343571D02*
X135302285Y-91343571D01*
X135302285Y-91867380D02*
X135302285Y-90867380D01*
X135921333Y-91867380D02*
X135826095Y-91819761D01*
X135778476Y-91772142D01*
X135730857Y-91676904D01*
X135730857Y-91391190D01*
X135778476Y-91295952D01*
X135826095Y-91248333D01*
X135921333Y-91200714D01*
X136064190Y-91200714D01*
X136159428Y-91248333D01*
X136207047Y-91295952D01*
X136254666Y-91391190D01*
X136254666Y-91676904D01*
X136207047Y-91772142D01*
X136159428Y-91819761D01*
X136064190Y-91867380D01*
X135921333Y-91867380D01*
X136588000Y-91200714D02*
X136826095Y-91867380D01*
X137064190Y-91200714D02*
X136826095Y-91867380D01*
X136730857Y-92105476D01*
X136683238Y-92153095D01*
X136588000Y-92200714D01*
X137588000Y-91867380D02*
X137492761Y-91819761D01*
X137445142Y-91772142D01*
X137397523Y-91676904D01*
X137397523Y-91391190D01*
X137445142Y-91295952D01*
X137492761Y-91248333D01*
X137588000Y-91200714D01*
X137730857Y-91200714D01*
X137826095Y-91248333D01*
X137873714Y-91295952D01*
X137921333Y-91391190D01*
X137921333Y-91676904D01*
X137873714Y-91772142D01*
X137826095Y-91819761D01*
X137730857Y-91867380D01*
X137588000Y-91867380D01*
X138778476Y-91200714D02*
X138778476Y-91867380D01*
X138349904Y-91200714D02*
X138349904Y-91724523D01*
X138397523Y-91819761D01*
X138492761Y-91867380D01*
X138635619Y-91867380D01*
X138730857Y-91819761D01*
X138778476Y-91772142D01*
X139254666Y-91200714D02*
X139254666Y-91867380D01*
X139254666Y-91295952D02*
X139302285Y-91248333D01*
X139397523Y-91200714D01*
X139540380Y-91200714D01*
X139635619Y-91248333D01*
X139683238Y-91343571D01*
X139683238Y-91867380D01*
X140588000Y-91200714D02*
X140588000Y-92010238D01*
X140540380Y-92105476D01*
X140492761Y-92153095D01*
X140397523Y-92200714D01*
X140254666Y-92200714D01*
X140159428Y-92153095D01*
X140588000Y-91819761D02*
X140492761Y-91867380D01*
X140302285Y-91867380D01*
X140207047Y-91819761D01*
X140159428Y-91772142D01*
X140111809Y-91676904D01*
X140111809Y-91391190D01*
X140159428Y-91295952D01*
X140207047Y-91248333D01*
X140302285Y-91200714D01*
X140492761Y-91200714D01*
X140588000Y-91248333D01*
X142302285Y-91867380D02*
X141826095Y-91867380D01*
X141826095Y-90867380D01*
X143016571Y-91819761D02*
X142921333Y-91867380D01*
X142730857Y-91867380D01*
X142635619Y-91819761D01*
X142588000Y-91724523D01*
X142588000Y-91343571D01*
X142635619Y-91248333D01*
X142730857Y-91200714D01*
X142921333Y-91200714D01*
X143016571Y-91248333D01*
X143064190Y-91343571D01*
X143064190Y-91438809D01*
X142588000Y-91534047D01*
X143873714Y-91819761D02*
X143778476Y-91867380D01*
X143588000Y-91867380D01*
X143492761Y-91819761D01*
X143445142Y-91724523D01*
X143445142Y-91343571D01*
X143492761Y-91248333D01*
X143588000Y-91200714D01*
X143778476Y-91200714D01*
X143873714Y-91248333D01*
X143921333Y-91343571D01*
X143921333Y-91438809D01*
X143445142Y-91534047D01*
X144349904Y-91772142D02*
X144397523Y-91819761D01*
X144349904Y-91867380D01*
X144302285Y-91819761D01*
X144349904Y-91772142D01*
X144349904Y-91867380D01*
X129730857Y-92662619D02*
X129778476Y-92615000D01*
X129873714Y-92567380D01*
X130111809Y-92567380D01*
X130207047Y-92615000D01*
X130254666Y-92662619D01*
X130302285Y-92757857D01*
X130302285Y-92853095D01*
X130254666Y-92995952D01*
X129683238Y-93567380D01*
X130302285Y-93567380D01*
X130921333Y-92567380D02*
X131016571Y-92567380D01*
X131111809Y-92615000D01*
X131159428Y-92662619D01*
X131207047Y-92757857D01*
X131254666Y-92948333D01*
X131254666Y-93186428D01*
X131207047Y-93376904D01*
X131159428Y-93472142D01*
X131111809Y-93519761D01*
X131016571Y-93567380D01*
X130921333Y-93567380D01*
X130826095Y-93519761D01*
X130778476Y-93472142D01*
X130730857Y-93376904D01*
X130683238Y-93186428D01*
X130683238Y-92948333D01*
X130730857Y-92757857D01*
X130778476Y-92662619D01*
X130826095Y-92615000D01*
X130921333Y-92567380D01*
X132207047Y-93567380D02*
X131635619Y-93567380D01*
X131921333Y-93567380D02*
X131921333Y-92567380D01*
X131826095Y-92710238D01*
X131730857Y-92805476D01*
X131635619Y-92853095D01*
X132683238Y-93567380D02*
X132873714Y-93567380D01*
X132968952Y-93519761D01*
X133016571Y-93472142D01*
X133111809Y-93329285D01*
X133159428Y-93138809D01*
X133159428Y-92757857D01*
X133111809Y-92662619D01*
X133064190Y-92615000D01*
X132968952Y-92567380D01*
X132778476Y-92567380D01*
X132683238Y-92615000D01*
X132635619Y-92662619D01*
X132588000Y-92757857D01*
X132588000Y-92995952D01*
X132635619Y-93091190D01*
X132683238Y-93138809D01*
X132778476Y-93186428D01*
X132968952Y-93186428D01*
X133064190Y-93138809D01*
X133111809Y-93091190D01*
X133159428Y-92995952D01*
X133588000Y-93186428D02*
X134349904Y-93186428D01*
X135016571Y-92567380D02*
X135111809Y-92567380D01*
X135207047Y-92615000D01*
X135254666Y-92662619D01*
X135302285Y-92757857D01*
X135349904Y-92948333D01*
X135349904Y-93186428D01*
X135302285Y-93376904D01*
X135254666Y-93472142D01*
X135207047Y-93519761D01*
X135111809Y-93567380D01*
X135016571Y-93567380D01*
X134921333Y-93519761D01*
X134873714Y-93472142D01*
X134826095Y-93376904D01*
X134778476Y-93186428D01*
X134778476Y-92948333D01*
X134826095Y-92757857D01*
X134873714Y-92662619D01*
X134921333Y-92615000D01*
X135016571Y-92567380D01*
X136207047Y-92567380D02*
X136016571Y-92567380D01*
X135921333Y-92615000D01*
X135873714Y-92662619D01*
X135778476Y-92805476D01*
X135730857Y-92995952D01*
X135730857Y-93376904D01*
X135778476Y-93472142D01*
X135826095Y-93519761D01*
X135921333Y-93567380D01*
X136111809Y-93567380D01*
X136207047Y-93519761D01*
X136254666Y-93472142D01*
X136302285Y-93376904D01*
X136302285Y-93138809D01*
X136254666Y-93043571D01*
X136207047Y-92995952D01*
X136111809Y-92948333D01*
X135921333Y-92948333D01*
X135826095Y-92995952D01*
X135778476Y-93043571D01*
X135730857Y-93138809D01*
X136730857Y-93186428D02*
X137492761Y-93186428D01*
X138159428Y-92567380D02*
X138254666Y-92567380D01*
X138349904Y-92615000D01*
X138397523Y-92662619D01*
X138445142Y-92757857D01*
X138492761Y-92948333D01*
X138492761Y-93186428D01*
X138445142Y-93376904D01*
X138397523Y-93472142D01*
X138349904Y-93519761D01*
X138254666Y-93567380D01*
X138159428Y-93567380D01*
X138064190Y-93519761D01*
X138016571Y-93472142D01*
X137968952Y-93376904D01*
X137921333Y-93186428D01*
X137921333Y-92948333D01*
X137968952Y-92757857D01*
X138016571Y-92662619D01*
X138064190Y-92615000D01*
X138159428Y-92567380D01*
X138968952Y-93567380D02*
X139159428Y-93567380D01*
X139254666Y-93519761D01*
X139302285Y-93472142D01*
X139397523Y-93329285D01*
X139445142Y-93138809D01*
X139445142Y-92757857D01*
X139397523Y-92662619D01*
X139349904Y-92615000D01*
X139254666Y-92567380D01*
X139064190Y-92567380D01*
X138968952Y-92615000D01*
X138921333Y-92662619D01*
X138873714Y-92757857D01*
X138873714Y-92995952D01*
X138921333Y-93091190D01*
X138968952Y-93138809D01*
X139064190Y-93186428D01*
X139254666Y-93186428D01*
X139349904Y-93138809D01*
X139397523Y-93091190D01*
X139445142Y-92995952D01*
X135640857Y-105662619D02*
X135593238Y-105615000D01*
X135545619Y-105472142D01*
X135545619Y-105376904D01*
X135593238Y-105234047D01*
X135688476Y-105138809D01*
X135783714Y-105091190D01*
X135974190Y-105043571D01*
X136117047Y-105043571D01*
X136307523Y-105091190D01*
X136402761Y-105138809D01*
X136498000Y-105234047D01*
X136545619Y-105376904D01*
X136545619Y-105472142D01*
X136498000Y-105615000D01*
X136450380Y-105662619D01*
X135831333Y-106043571D02*
X135831333Y-106519761D01*
X135545619Y-105948333D02*
X136545619Y-106281666D01*
X135545619Y-106615000D01*
X135545619Y-106948333D02*
X136545619Y-106948333D01*
X135831333Y-107281666D01*
X136545619Y-107615000D01*
X135545619Y-107615000D01*
X135926571Y-108091190D02*
X135926571Y-108853095D01*
X136593238Y-110043571D02*
X135307523Y-109186428D01*
X135926571Y-110376904D02*
X135926571Y-111138809D01*
X135545619Y-110757857D02*
X136307523Y-110757857D01*
X135831333Y-98543571D02*
X135831333Y-99019761D01*
X135545619Y-98448333D02*
X136545619Y-98781666D01*
X135545619Y-99115000D01*
X136545619Y-99305476D02*
X136545619Y-99876904D01*
X135545619Y-99591190D02*
X136545619Y-99591190D01*
X136545619Y-100115000D02*
X135545619Y-100781666D01*
X136545619Y-100781666D02*
X135545619Y-100115000D01*
X135545619Y-101686428D02*
X135545619Y-101115000D01*
X135545619Y-101400714D02*
X136545619Y-101400714D01*
X136402761Y-101305476D01*
X136307523Y-101210238D01*
X136259904Y-101115000D01*
X136593238Y-102829285D02*
X135307523Y-101972142D01*
X136450380Y-103115000D02*
X136498000Y-103162619D01*
X136545619Y-103257857D01*
X136545619Y-103495952D01*
X136498000Y-103591190D01*
X136450380Y-103638809D01*
X136355142Y-103686428D01*
X136259904Y-103686428D01*
X136117047Y-103638809D01*
X135545619Y-103067380D01*
X135545619Y-103686428D01*
X139664666Y-117817380D02*
X139664666Y-116817380D01*
X140045619Y-116817380D01*
X140140857Y-116865000D01*
X140188476Y-116912619D01*
X140236095Y-117007857D01*
X140236095Y-117150714D01*
X140188476Y-117245952D01*
X140140857Y-117293571D01*
X140045619Y-117341190D01*
X139664666Y-117341190D01*
X140807523Y-117817380D02*
X140712285Y-117769761D01*
X140664666Y-117722142D01*
X140617047Y-117626904D01*
X140617047Y-117341190D01*
X140664666Y-117245952D01*
X140712285Y-117198333D01*
X140807523Y-117150714D01*
X140950380Y-117150714D01*
X141045619Y-117198333D01*
X141093238Y-117245952D01*
X141140857Y-117341190D01*
X141140857Y-117626904D01*
X141093238Y-117722142D01*
X141045619Y-117769761D01*
X140950380Y-117817380D01*
X140807523Y-117817380D01*
X141474190Y-117150714D02*
X141664666Y-117817380D01*
X141855142Y-117341190D01*
X142045619Y-117817380D01*
X142236095Y-117150714D01*
X142998000Y-117769761D02*
X142902761Y-117817380D01*
X142712285Y-117817380D01*
X142617047Y-117769761D01*
X142569428Y-117674523D01*
X142569428Y-117293571D01*
X142617047Y-117198333D01*
X142712285Y-117150714D01*
X142902761Y-117150714D01*
X142998000Y-117198333D01*
X143045619Y-117293571D01*
X143045619Y-117388809D01*
X142569428Y-117484047D01*
X143474190Y-117817380D02*
X143474190Y-117150714D01*
X143474190Y-117341190D02*
X143521809Y-117245952D01*
X143569428Y-117198333D01*
X143664666Y-117150714D01*
X143759904Y-117150714D01*
X144807523Y-116769761D02*
X143950380Y-118055476D01*
X145093238Y-117769761D02*
X145236095Y-117817380D01*
X145474190Y-117817380D01*
X145569428Y-117769761D01*
X145617047Y-117722142D01*
X145664666Y-117626904D01*
X145664666Y-117531666D01*
X145617047Y-117436428D01*
X145569428Y-117388809D01*
X145474190Y-117341190D01*
X145283714Y-117293571D01*
X145188476Y-117245952D01*
X145140857Y-117198333D01*
X145093238Y-117103095D01*
X145093238Y-117007857D01*
X145140857Y-116912619D01*
X145188476Y-116865000D01*
X145283714Y-116817380D01*
X145521809Y-116817380D01*
X145664666Y-116865000D01*
X146093238Y-117817380D02*
X146093238Y-117150714D01*
X146093238Y-116817380D02*
X146045619Y-116865000D01*
X146093238Y-116912619D01*
X146140857Y-116865000D01*
X146093238Y-116817380D01*
X146093238Y-116912619D01*
X146998000Y-117150714D02*
X146998000Y-117960238D01*
X146950380Y-118055476D01*
X146902761Y-118103095D01*
X146807523Y-118150714D01*
X146664666Y-118150714D01*
X146569428Y-118103095D01*
X146998000Y-117769761D02*
X146902761Y-117817380D01*
X146712285Y-117817380D01*
X146617047Y-117769761D01*
X146569428Y-117722142D01*
X146521809Y-117626904D01*
X146521809Y-117341190D01*
X146569428Y-117245952D01*
X146617047Y-117198333D01*
X146712285Y-117150714D01*
X146902761Y-117150714D01*
X146998000Y-117198333D01*
X147474190Y-117150714D02*
X147474190Y-117817380D01*
X147474190Y-117245952D02*
X147521809Y-117198333D01*
X147617047Y-117150714D01*
X147759904Y-117150714D01*
X147855142Y-117198333D01*
X147902761Y-117293571D01*
X147902761Y-117817380D01*
X148807523Y-117817380D02*
X148807523Y-117293571D01*
X148759904Y-117198333D01*
X148664666Y-117150714D01*
X148474190Y-117150714D01*
X148378952Y-117198333D01*
X148807523Y-117769761D02*
X148712285Y-117817380D01*
X148474190Y-117817380D01*
X148378952Y-117769761D01*
X148331333Y-117674523D01*
X148331333Y-117579285D01*
X148378952Y-117484047D01*
X148474190Y-117436428D01*
X148712285Y-117436428D01*
X148807523Y-117388809D01*
X149426571Y-117817380D02*
X149331333Y-117769761D01*
X149283714Y-117674523D01*
X149283714Y-116817380D01*
X139664666Y-101817380D02*
X139664666Y-100817380D01*
X140045619Y-100817380D01*
X140140857Y-100865000D01*
X140188476Y-100912619D01*
X140236095Y-101007857D01*
X140236095Y-101150714D01*
X140188476Y-101245952D01*
X140140857Y-101293571D01*
X140045619Y-101341190D01*
X139664666Y-101341190D01*
X140807523Y-101817380D02*
X140712285Y-101769761D01*
X140664666Y-101722142D01*
X140617047Y-101626904D01*
X140617047Y-101341190D01*
X140664666Y-101245952D01*
X140712285Y-101198333D01*
X140807523Y-101150714D01*
X140950380Y-101150714D01*
X141045619Y-101198333D01*
X141093238Y-101245952D01*
X141140857Y-101341190D01*
X141140857Y-101626904D01*
X141093238Y-101722142D01*
X141045619Y-101769761D01*
X140950380Y-101817380D01*
X140807523Y-101817380D01*
X141474190Y-101150714D02*
X141664666Y-101817380D01*
X141855142Y-101341190D01*
X142045619Y-101817380D01*
X142236095Y-101150714D01*
X142998000Y-101769761D02*
X142902761Y-101817380D01*
X142712285Y-101817380D01*
X142617047Y-101769761D01*
X142569428Y-101674523D01*
X142569428Y-101293571D01*
X142617047Y-101198333D01*
X142712285Y-101150714D01*
X142902761Y-101150714D01*
X142998000Y-101198333D01*
X143045619Y-101293571D01*
X143045619Y-101388809D01*
X142569428Y-101484047D01*
X143474190Y-101817380D02*
X143474190Y-101150714D01*
X143474190Y-101341190D02*
X143521809Y-101245952D01*
X143569428Y-101198333D01*
X143664666Y-101150714D01*
X143759904Y-101150714D01*
X144807523Y-100769761D02*
X143950380Y-102055476D01*
X145093238Y-101769761D02*
X145236095Y-101817380D01*
X145474190Y-101817380D01*
X145569428Y-101769761D01*
X145617047Y-101722142D01*
X145664666Y-101626904D01*
X145664666Y-101531666D01*
X145617047Y-101436428D01*
X145569428Y-101388809D01*
X145474190Y-101341190D01*
X145283714Y-101293571D01*
X145188476Y-101245952D01*
X145140857Y-101198333D01*
X145093238Y-101103095D01*
X145093238Y-101007857D01*
X145140857Y-100912619D01*
X145188476Y-100865000D01*
X145283714Y-100817380D01*
X145521809Y-100817380D01*
X145664666Y-100865000D01*
X146093238Y-101817380D02*
X146093238Y-101150714D01*
X146093238Y-100817380D02*
X146045619Y-100865000D01*
X146093238Y-100912619D01*
X146140857Y-100865000D01*
X146093238Y-100817380D01*
X146093238Y-100912619D01*
X146998000Y-101150714D02*
X146998000Y-101960238D01*
X146950380Y-102055476D01*
X146902761Y-102103095D01*
X146807523Y-102150714D01*
X146664666Y-102150714D01*
X146569428Y-102103095D01*
X146998000Y-101769761D02*
X146902761Y-101817380D01*
X146712285Y-101817380D01*
X146617047Y-101769761D01*
X146569428Y-101722142D01*
X146521809Y-101626904D01*
X146521809Y-101341190D01*
X146569428Y-101245952D01*
X146617047Y-101198333D01*
X146712285Y-101150714D01*
X146902761Y-101150714D01*
X146998000Y-101198333D01*
X147474190Y-101150714D02*
X147474190Y-101817380D01*
X147474190Y-101245952D02*
X147521809Y-101198333D01*
X147617047Y-101150714D01*
X147759904Y-101150714D01*
X147855142Y-101198333D01*
X147902761Y-101293571D01*
X147902761Y-101817380D01*
X148807523Y-101817380D02*
X148807523Y-101293571D01*
X148759904Y-101198333D01*
X148664666Y-101150714D01*
X148474190Y-101150714D01*
X148378952Y-101198333D01*
X148807523Y-101769761D02*
X148712285Y-101817380D01*
X148474190Y-101817380D01*
X148378952Y-101769761D01*
X148331333Y-101674523D01*
X148331333Y-101579285D01*
X148378952Y-101484047D01*
X148474190Y-101436428D01*
X148712285Y-101436428D01*
X148807523Y-101388809D01*
X149426571Y-101817380D02*
X149331333Y-101769761D01*
X149283714Y-101674523D01*
X149283714Y-100817380D01*
D11*
X141390380Y-120999285D02*
X141390380Y-121570714D01*
X141390380Y-121285000D02*
X140390380Y-121285000D01*
X140533238Y-121380238D01*
X140628476Y-121475476D01*
X140676095Y-121570714D01*
D12*
G04 #@! TO.C,R3*
X166288000Y-100606422D02*
X166288000Y-101123578D01*
X167708000Y-100606422D02*
X167708000Y-101123578D01*
G04 #@! TO.C,R9*
X158816151Y-84825321D02*
X158298995Y-84825321D01*
X158816151Y-83405321D02*
X158298995Y-83405321D01*
G04 #@! TO.C,R10*
X174816151Y-84825321D02*
X174298995Y-84825321D01*
X174816151Y-83405321D02*
X174298995Y-83405321D01*
G04 #@! TO.C,+5V*
X173557573Y-88825000D02*
X176242573Y-88825000D01*
X176242573Y-88825000D02*
X176242573Y-86905000D01*
X176242573Y-86905000D02*
X173557573Y-86905000D01*
G04 #@! TO.C,Q5*
X156977573Y-81875321D02*
X157907573Y-81875321D01*
X160137573Y-81875321D02*
X159207573Y-81875321D01*
X160137573Y-81875321D02*
X160137573Y-79715321D01*
X156977573Y-81875321D02*
X156977573Y-80415321D01*
G04 #@! TO.C,ATX_ON*
X157557573Y-88825000D02*
X160242573Y-88825000D01*
X160242573Y-88825000D02*
X160242573Y-86905000D01*
X160242573Y-86905000D02*
X157557573Y-86905000D01*
D11*
G04 #@! TO.C,P1*
X140208000Y-125095000D02*
X157988000Y-125095000D01*
X157988000Y-125095000D02*
X157988000Y-122555000D01*
X157988000Y-122555000D02*
X140208000Y-122555000D01*
X137388000Y-125375000D02*
X138938000Y-125375000D01*
X140208000Y-125095000D02*
X140208000Y-122555000D01*
X138938000Y-122275000D02*
X137388000Y-122275000D01*
X137388000Y-122275000D02*
X137388000Y-125375000D01*
G04 #@! TO.C,P2*
X163068000Y-125095000D02*
X175768000Y-125095000D01*
X175768000Y-125095000D02*
X175768000Y-122555000D01*
X175768000Y-122555000D02*
X163068000Y-122555000D01*
X160248000Y-125375000D02*
X161798000Y-125375000D01*
X163068000Y-125095000D02*
X163068000Y-122555000D01*
X161798000Y-122275000D02*
X160248000Y-122275000D01*
X160248000Y-122275000D02*
X160248000Y-125375000D01*
G04 #@! TO.C,P3*
X131064000Y-76835000D02*
X153924000Y-76835000D01*
X153924000Y-76835000D02*
X153924000Y-74295000D01*
X153924000Y-74295000D02*
X131064000Y-74295000D01*
X128244000Y-77115000D02*
X129794000Y-77115000D01*
X131064000Y-76835000D02*
X131064000Y-74295000D01*
X129794000Y-74015000D02*
X128244000Y-74015000D01*
X128244000Y-74015000D02*
X128244000Y-77115000D01*
G04 #@! TO.C,P4*
X157988000Y-76835000D02*
X175768000Y-76835000D01*
X175768000Y-76835000D02*
X175768000Y-74295000D01*
X175768000Y-74295000D02*
X157988000Y-74295000D01*
X155168000Y-77115000D02*
X156718000Y-77115000D01*
X157988000Y-76835000D02*
X157988000Y-74295000D01*
X156718000Y-74015000D02*
X155168000Y-74015000D01*
X155168000Y-74015000D02*
X155168000Y-77115000D01*
G04 #@! TO.C,P5*
X127254000Y-123825000D02*
G75*
G03X127254000Y-123825000I-2286000J0D01*
G01*
G04 #@! TO.C,P7*
X128524000Y-75565000D02*
G75*
G03X128524000Y-75565000I-2286000J0D01*
G01*
D12*
G04 #@! TO.C,D1*
X143848000Y-79765000D02*
X143848000Y-77765000D01*
X143848000Y-77765000D02*
X139948000Y-77765000D01*
X143848000Y-79765000D02*
X139948000Y-79765000D01*
G04 #@! TO.C,CAMERA*
X168557573Y-88825000D02*
X171242573Y-88825000D01*
X171242573Y-88825000D02*
X171242573Y-86905000D01*
X171242573Y-86905000D02*
X168557573Y-86905000D01*
G04 #@! TO.C,LIGHT*
X165742573Y-86905000D02*
X163057573Y-86905000D01*
X165742573Y-88825000D02*
X165742573Y-86905000D01*
X163057573Y-88825000D02*
X165742573Y-88825000D01*
D11*
G04 #@! TO.C,J1*
X134698000Y-101065000D02*
X122698000Y-101065000D01*
X122698000Y-101065000D02*
X122698000Y-104565000D01*
X122698000Y-104565000D02*
X134698000Y-104565000D01*
X134698000Y-104565000D02*
X134698000Y-101065000D01*
X134698000Y-101065000D02*
X134698000Y-97565000D01*
X134698000Y-97565000D02*
X122698000Y-97565000D01*
X122698000Y-97565000D02*
X122698000Y-101065000D01*
X134698000Y-97565000D02*
X134698000Y-96065000D01*
X134698000Y-96065000D02*
X122698000Y-96065000D01*
X122698000Y-96065000D02*
X122698000Y-97565000D01*
X132948000Y-97565000D02*
X132948000Y-100065000D01*
X132948000Y-100065000D02*
X129948000Y-100065000D01*
X129948000Y-100065000D02*
X129948000Y-97565000D01*
X132948000Y-101065000D02*
X132948000Y-103565000D01*
X132948000Y-103565000D02*
X129948000Y-103565000D01*
X129948000Y-103565000D02*
X129948000Y-101065000D01*
G04 #@! TO.C,J3*
X134698000Y-108065000D02*
X122698000Y-108065000D01*
X122698000Y-108065000D02*
X122698000Y-111565000D01*
X122698000Y-111565000D02*
X134698000Y-111565000D01*
X134698000Y-111565000D02*
X134698000Y-108065000D01*
X134698000Y-108065000D02*
X134698000Y-104565000D01*
X134698000Y-104565000D02*
X122698000Y-104565000D01*
X122698000Y-104565000D02*
X122698000Y-108065000D01*
X134698000Y-104565000D02*
X134698000Y-103065000D01*
X134698000Y-103065000D02*
X122698000Y-103065000D01*
X122698000Y-103065000D02*
X122698000Y-104565000D01*
X132948000Y-104565000D02*
X132948000Y-107065000D01*
X132948000Y-107065000D02*
X129948000Y-107065000D01*
X129948000Y-107065000D02*
X129948000Y-104565000D01*
X132948000Y-108065000D02*
X132948000Y-110565000D01*
X132948000Y-110565000D02*
X129948000Y-110565000D01*
X129948000Y-110565000D02*
X129948000Y-108065000D01*
G04 #@! TO.C,J5*
X129948000Y-117565000D02*
X129948000Y-115065000D01*
X132948000Y-117565000D02*
X129948000Y-117565000D01*
X132948000Y-115065000D02*
X132948000Y-117565000D01*
X129948000Y-114065000D02*
X129948000Y-111565000D01*
X132948000Y-114065000D02*
X129948000Y-114065000D01*
X132948000Y-111565000D02*
X132948000Y-114065000D01*
X122698000Y-110065000D02*
X122698000Y-111565000D01*
X134698000Y-110065000D02*
X122698000Y-110065000D01*
X134698000Y-111565000D02*
X134698000Y-110065000D01*
X122698000Y-111565000D02*
X122698000Y-115065000D01*
X134698000Y-111565000D02*
X122698000Y-111565000D01*
X134698000Y-115065000D02*
X134698000Y-111565000D01*
X134698000Y-118565000D02*
X134698000Y-115065000D01*
X122698000Y-118565000D02*
X134698000Y-118565000D01*
X122698000Y-115065000D02*
X122698000Y-118565000D01*
X134698000Y-115065000D02*
X122698000Y-115065000D01*
G04 #@! TO.C,K1*
X145348000Y-85565000D02*
X122848000Y-85565000D01*
X122848000Y-85565000D02*
X122848000Y-80565000D01*
X122848000Y-80565000D02*
X145348000Y-80565000D01*
X145348000Y-80565000D02*
X145348000Y-85565000D01*
X143098000Y-83315000D02*
X143098000Y-81815000D01*
X143098000Y-81815000D02*
X142598000Y-81815000D01*
X140348000Y-83315000D02*
X140348000Y-81815000D01*
X140348000Y-81815000D02*
X140848000Y-81815000D01*
X142598000Y-82275000D02*
X142598000Y-81275000D01*
X142598000Y-81275000D02*
X140848000Y-81275000D01*
X140848000Y-81275000D02*
X140848000Y-82275000D01*
X140848000Y-82275000D02*
X142598000Y-82275000D01*
X142098000Y-81275000D02*
X141348000Y-82275000D01*
X130348000Y-83065000D02*
X130348000Y-81815000D01*
X130348000Y-81815000D02*
X125348000Y-81065000D01*
X125348000Y-83065000D02*
X125348000Y-81565000D01*
X125348000Y-81565000D02*
X125598000Y-81815000D01*
X125598000Y-81815000D02*
X125098000Y-81815000D01*
X125098000Y-81815000D02*
X125348000Y-81565000D01*
D13*
G04 #@! TO.C,Q1*
X162997360Y-104865620D02*
X152497000Y-104865620D01*
X162997360Y-103565140D02*
X162997360Y-104865620D01*
X158097700Y-103565140D02*
X162997360Y-103565140D01*
X158097700Y-91164860D02*
X158097700Y-103565140D01*
X162997360Y-91164860D02*
X158097700Y-91164860D01*
X162997360Y-89864380D02*
X162997360Y-91164860D01*
X152497000Y-89864380D02*
X162997360Y-89864380D01*
X152497000Y-104865620D02*
X152497000Y-89864380D01*
D12*
G04 #@! TO.C,Q2*
X167977573Y-81875321D02*
X168907573Y-81875321D01*
X171137573Y-81875321D02*
X170207573Y-81875321D01*
X171137573Y-81875321D02*
X171137573Y-79715321D01*
X167977573Y-81875321D02*
X167977573Y-80415321D01*
G04 #@! TO.C,Q3*
X162477573Y-81875321D02*
X162477573Y-80415321D01*
X165637573Y-81875321D02*
X165637573Y-79715321D01*
X165637573Y-81875321D02*
X164707573Y-81875321D01*
X162477573Y-81875321D02*
X163407573Y-81875321D01*
D13*
G04 #@! TO.C,Q4*
X152497000Y-120865620D02*
X152497000Y-105864380D01*
X152497000Y-105864380D02*
X162997360Y-105864380D01*
X162997360Y-105864380D02*
X162997360Y-107164860D01*
X162997360Y-107164860D02*
X158097700Y-107164860D01*
X158097700Y-107164860D02*
X158097700Y-119565140D01*
X158097700Y-119565140D02*
X162997360Y-119565140D01*
X162997360Y-119565140D02*
X162997360Y-120865620D01*
X162997360Y-120865620D02*
X152497000Y-120865620D01*
D12*
G04 #@! TO.C,R1*
X152387700Y-82123578D02*
X152387700Y-81606422D01*
X153807700Y-82123578D02*
X153807700Y-81606422D01*
G04 #@! TO.C,R2*
X166288000Y-94123578D02*
X166288000Y-93606422D01*
X167708000Y-94123578D02*
X167708000Y-93606422D01*
G04 #@! TO.C,R4*
X152387700Y-86123578D02*
X152387700Y-85606422D01*
X153807700Y-86123578D02*
X153807700Y-85606422D01*
G04 #@! TO.C,R5*
X169298995Y-84825321D02*
X169816151Y-84825321D01*
X169298995Y-83405321D02*
X169816151Y-83405321D01*
G04 #@! TO.C,R6*
X167708000Y-110123578D02*
X167708000Y-109606422D01*
X166288000Y-110123578D02*
X166288000Y-109606422D01*
G04 #@! TO.C,R7*
X164316151Y-83405321D02*
X163798995Y-83405321D01*
X164316151Y-84825321D02*
X163798995Y-84825321D01*
G04 #@! TO.C,R8*
X167708000Y-116606422D02*
X167708000Y-117123578D01*
X166288000Y-116606422D02*
X166288000Y-117123578D01*
G04 #@! TO.C,U1*
X151697700Y-87100000D02*
X151697700Y-84865000D01*
X146497700Y-87100000D02*
X151697700Y-87100000D01*
X146497700Y-80630000D02*
X146497700Y-87100000D01*
X151697700Y-80630000D02*
X146497700Y-80630000D01*
X151697700Y-82865000D02*
X151697700Y-80630000D01*
X151697700Y-84865000D02*
G75*
G02X151697700Y-82865000I0J1000000D01*
G01*
G04 #@! TO.C,U2*
X173598000Y-98365000D02*
G75*
G02X173598000Y-96365000I0J1000000D01*
G01*
X173598000Y-96365000D02*
X173598000Y-94130000D01*
X173598000Y-94130000D02*
X168398000Y-94130000D01*
X168398000Y-94130000D02*
X168398000Y-100600000D01*
X168398000Y-100600000D02*
X173598000Y-100600000D01*
X173598000Y-100600000D02*
X173598000Y-98365000D01*
G04 #@! TO.C,U3*
X173598000Y-114365000D02*
G75*
G02X173598000Y-112365000I0J1000000D01*
G01*
X173598000Y-112365000D02*
X173598000Y-110130000D01*
X173598000Y-110130000D02*
X168398000Y-110130000D01*
X168398000Y-110130000D02*
X168398000Y-116600000D01*
X168398000Y-116600000D02*
X173598000Y-116600000D01*
X173598000Y-116600000D02*
X173598000Y-114365000D01*
G04 #@! TO.C,J2*
X140588000Y-94535000D02*
X140588000Y-99735000D01*
X145728000Y-94535000D02*
X140588000Y-94535000D01*
X148328000Y-99735000D02*
X140588000Y-99735000D01*
X145728000Y-94535000D02*
X145728000Y-97135000D01*
X145728000Y-97135000D02*
X148328000Y-97135000D01*
X148328000Y-97135000D02*
X148328000Y-99735000D01*
X146998000Y-94535000D02*
X148328000Y-94535000D01*
X148328000Y-94535000D02*
X148328000Y-95865000D01*
G04 #@! TO.C,J4*
X148328000Y-110535000D02*
X148328000Y-111865000D01*
X146998000Y-110535000D02*
X148328000Y-110535000D01*
X148328000Y-113135000D02*
X148328000Y-115735000D01*
X145728000Y-113135000D02*
X148328000Y-113135000D01*
X145728000Y-110535000D02*
X145728000Y-113135000D01*
X148328000Y-115735000D02*
X140588000Y-115735000D01*
X145728000Y-110535000D02*
X140588000Y-110535000D01*
X140588000Y-110535000D02*
X140588000Y-115735000D01*
G04 #@! TO.C,R3*
D11*
X166831333Y-98817380D02*
X166498000Y-98341190D01*
X166259904Y-98817380D02*
X166259904Y-97817380D01*
X166640857Y-97817380D01*
X166736095Y-97865000D01*
X166783714Y-97912619D01*
X166831333Y-98007857D01*
X166831333Y-98150714D01*
X166783714Y-98245952D01*
X166736095Y-98293571D01*
X166640857Y-98341190D01*
X166259904Y-98341190D01*
X167164666Y-97817380D02*
X167783714Y-97817380D01*
X167450380Y-98198333D01*
X167593238Y-98198333D01*
X167688476Y-98245952D01*
X167736095Y-98293571D01*
X167783714Y-98388809D01*
X167783714Y-98626904D01*
X167736095Y-98722142D01*
X167688476Y-98769761D01*
X167593238Y-98817380D01*
X167307523Y-98817380D01*
X167212285Y-98769761D01*
X167164666Y-98722142D01*
G04 #@! TO.C,R9*
X156331333Y-83317380D02*
X155998000Y-82841190D01*
X155759904Y-83317380D02*
X155759904Y-82317380D01*
X156140857Y-82317380D01*
X156236095Y-82365000D01*
X156283714Y-82412619D01*
X156331333Y-82507857D01*
X156331333Y-82650714D01*
X156283714Y-82745952D01*
X156236095Y-82793571D01*
X156140857Y-82841190D01*
X155759904Y-82841190D01*
X156807523Y-83317380D02*
X156998000Y-83317380D01*
X157093238Y-83269761D01*
X157140857Y-83222142D01*
X157236095Y-83079285D01*
X157283714Y-82888809D01*
X157283714Y-82507857D01*
X157236095Y-82412619D01*
X157188476Y-82365000D01*
X157093238Y-82317380D01*
X156902761Y-82317380D01*
X156807523Y-82365000D01*
X156759904Y-82412619D01*
X156712285Y-82507857D01*
X156712285Y-82745952D01*
X156759904Y-82841190D01*
X156807523Y-82888809D01*
X156902761Y-82936428D01*
X157093238Y-82936428D01*
X157188476Y-82888809D01*
X157236095Y-82841190D01*
X157283714Y-82745952D01*
G04 #@! TO.C,R10*
X173855142Y-82817380D02*
X173521809Y-82341190D01*
X173283714Y-82817380D02*
X173283714Y-81817380D01*
X173664666Y-81817380D01*
X173759904Y-81865000D01*
X173807523Y-81912619D01*
X173855142Y-82007857D01*
X173855142Y-82150714D01*
X173807523Y-82245952D01*
X173759904Y-82293571D01*
X173664666Y-82341190D01*
X173283714Y-82341190D01*
X174807523Y-82817380D02*
X174236095Y-82817380D01*
X174521809Y-82817380D02*
X174521809Y-81817380D01*
X174426571Y-81960238D01*
X174331333Y-82055476D01*
X174236095Y-82103095D01*
X175426571Y-81817380D02*
X175521809Y-81817380D01*
X175617047Y-81865000D01*
X175664666Y-81912619D01*
X175712285Y-82007857D01*
X175759904Y-82198333D01*
X175759904Y-82436428D01*
X175712285Y-82626904D01*
X175664666Y-82722142D01*
X175617047Y-82769761D01*
X175521809Y-82817380D01*
X175426571Y-82817380D01*
X175331333Y-82769761D01*
X175283714Y-82722142D01*
X175236095Y-82626904D01*
X175188476Y-82436428D01*
X175188476Y-82198333D01*
X175236095Y-82007857D01*
X175283714Y-81912619D01*
X175331333Y-81865000D01*
X175426571Y-81817380D01*
G04 #@! TO.C,+5V*
X173271858Y-86186428D02*
X174033763Y-86186428D01*
X173652811Y-86567380D02*
X173652811Y-85805476D01*
X174986144Y-85567380D02*
X174509953Y-85567380D01*
X174462334Y-86043571D01*
X174509953Y-85995952D01*
X174605192Y-85948333D01*
X174843287Y-85948333D01*
X174938525Y-85995952D01*
X174986144Y-86043571D01*
X175033763Y-86138809D01*
X175033763Y-86376904D01*
X174986144Y-86472142D01*
X174938525Y-86519761D01*
X174843287Y-86567380D01*
X174605192Y-86567380D01*
X174509953Y-86519761D01*
X174462334Y-86472142D01*
X175319477Y-85567380D02*
X175652811Y-86567380D01*
X175986144Y-85567380D01*
G04 #@! TO.C,Q5*
X158402761Y-78912619D02*
X158307523Y-78865000D01*
X158212285Y-78769761D01*
X158069428Y-78626904D01*
X157974190Y-78579285D01*
X157878952Y-78579285D01*
X157926571Y-78817380D02*
X157831333Y-78769761D01*
X157736095Y-78674523D01*
X157688476Y-78484047D01*
X157688476Y-78150714D01*
X157736095Y-77960238D01*
X157831333Y-77865000D01*
X157926571Y-77817380D01*
X158117047Y-77817380D01*
X158212285Y-77865000D01*
X158307523Y-77960238D01*
X158355142Y-78150714D01*
X158355142Y-78484047D01*
X158307523Y-78674523D01*
X158212285Y-78769761D01*
X158117047Y-78817380D01*
X157926571Y-78817380D01*
X159259904Y-77817380D02*
X158783714Y-77817380D01*
X158736095Y-78293571D01*
X158783714Y-78245952D01*
X158878952Y-78198333D01*
X159117047Y-78198333D01*
X159212285Y-78245952D01*
X159259904Y-78293571D01*
X159307523Y-78388809D01*
X159307523Y-78626904D01*
X159259904Y-78722142D01*
X159212285Y-78769761D01*
X159117047Y-78817380D01*
X158878952Y-78817380D01*
X158783714Y-78769761D01*
X158736095Y-78722142D01*
G04 #@! TO.C,ATX_ON*
X156033763Y-86281666D02*
X156509953Y-86281666D01*
X155938525Y-86567380D02*
X156271858Y-85567380D01*
X156605192Y-86567380D01*
X156795668Y-85567380D02*
X157367096Y-85567380D01*
X157081382Y-86567380D02*
X157081382Y-85567380D01*
X157605192Y-85567380D02*
X158271858Y-86567380D01*
X158271858Y-85567380D02*
X157605192Y-86567380D01*
X158414715Y-86662619D02*
X159176620Y-86662619D01*
X159605192Y-85567380D02*
X159795668Y-85567380D01*
X159890906Y-85615000D01*
X159986144Y-85710238D01*
X160033763Y-85900714D01*
X160033763Y-86234047D01*
X159986144Y-86424523D01*
X159890906Y-86519761D01*
X159795668Y-86567380D01*
X159605192Y-86567380D01*
X159509953Y-86519761D01*
X159414715Y-86424523D01*
X159367096Y-86234047D01*
X159367096Y-85900714D01*
X159414715Y-85710238D01*
X159509953Y-85615000D01*
X159605192Y-85567380D01*
X160462334Y-86567380D02*
X160462334Y-85567380D01*
X161033763Y-86567380D01*
X161033763Y-85567380D01*
G04 #@! TO.C,P1*
X147089904Y-121737380D02*
X147089904Y-120737380D01*
X147470857Y-120737380D01*
X147566095Y-120785000D01*
X147613714Y-120832619D01*
X147661333Y-120927857D01*
X147661333Y-121070714D01*
X147613714Y-121165952D01*
X147566095Y-121213571D01*
X147470857Y-121261190D01*
X147089904Y-121261190D01*
X148613714Y-121737380D02*
X148042285Y-121737380D01*
X148328000Y-121737380D02*
X148328000Y-120737380D01*
X148232761Y-120880238D01*
X148137523Y-120975476D01*
X148042285Y-121023095D01*
G04 #@! TO.C,P2*
X167663904Y-121737380D02*
X167663904Y-120737380D01*
X168044857Y-120737380D01*
X168140095Y-120785000D01*
X168187714Y-120832619D01*
X168235333Y-120927857D01*
X168235333Y-121070714D01*
X168187714Y-121165952D01*
X168140095Y-121213571D01*
X168044857Y-121261190D01*
X167663904Y-121261190D01*
X168616285Y-120832619D02*
X168663904Y-120785000D01*
X168759142Y-120737380D01*
X168997238Y-120737380D01*
X169092476Y-120785000D01*
X169140095Y-120832619D01*
X169187714Y-120927857D01*
X169187714Y-121023095D01*
X169140095Y-121165952D01*
X168568666Y-121737380D01*
X169187714Y-121737380D01*
G04 #@! TO.C,P3*
X129259904Y-78811380D02*
X129259904Y-77811380D01*
X129640857Y-77811380D01*
X129736095Y-77859000D01*
X129783714Y-77906619D01*
X129831333Y-78001857D01*
X129831333Y-78144714D01*
X129783714Y-78239952D01*
X129736095Y-78287571D01*
X129640857Y-78335190D01*
X129259904Y-78335190D01*
X130164666Y-77811380D02*
X130783714Y-77811380D01*
X130450380Y-78192333D01*
X130593238Y-78192333D01*
X130688476Y-78239952D01*
X130736095Y-78287571D01*
X130783714Y-78382809D01*
X130783714Y-78620904D01*
X130736095Y-78716142D01*
X130688476Y-78763761D01*
X130593238Y-78811380D01*
X130307523Y-78811380D01*
X130212285Y-78763761D01*
X130164666Y-78716142D01*
G04 #@! TO.C,P4*
X154759904Y-78811380D02*
X154759904Y-77811380D01*
X155140857Y-77811380D01*
X155236095Y-77859000D01*
X155283714Y-77906619D01*
X155331333Y-78001857D01*
X155331333Y-78144714D01*
X155283714Y-78239952D01*
X155236095Y-78287571D01*
X155140857Y-78335190D01*
X154759904Y-78335190D01*
X156188476Y-78144714D02*
X156188476Y-78811380D01*
X155950380Y-77763761D02*
X155712285Y-78478047D01*
X156331333Y-78478047D01*
G04 #@! TO.C,D1*
X137760204Y-79217380D02*
X137760204Y-78217380D01*
X137998300Y-78217380D01*
X138141157Y-78265000D01*
X138236395Y-78360238D01*
X138284014Y-78455476D01*
X138331633Y-78645952D01*
X138331633Y-78788809D01*
X138284014Y-78979285D01*
X138236395Y-79074523D01*
X138141157Y-79169761D01*
X137998300Y-79217380D01*
X137760204Y-79217380D01*
X139284014Y-79217380D02*
X138712585Y-79217380D01*
X138998300Y-79217380D02*
X138998300Y-78217380D01*
X138903061Y-78360238D01*
X138807823Y-78455476D01*
X138712585Y-78503095D01*
G04 #@! TO.C,CAMERA*
X167486144Y-86472142D02*
X167438525Y-86519761D01*
X167295668Y-86567380D01*
X167200430Y-86567380D01*
X167057573Y-86519761D01*
X166962334Y-86424523D01*
X166914715Y-86329285D01*
X166867096Y-86138809D01*
X166867096Y-85995952D01*
X166914715Y-85805476D01*
X166962334Y-85710238D01*
X167057573Y-85615000D01*
X167200430Y-85567380D01*
X167295668Y-85567380D01*
X167438525Y-85615000D01*
X167486144Y-85662619D01*
X167867096Y-86281666D02*
X168343287Y-86281666D01*
X167771858Y-86567380D02*
X168105192Y-85567380D01*
X168438525Y-86567380D01*
X168771858Y-86567380D02*
X168771858Y-85567380D01*
X169105192Y-86281666D01*
X169438525Y-85567380D01*
X169438525Y-86567380D01*
X169914715Y-86043571D02*
X170248049Y-86043571D01*
X170390906Y-86567380D02*
X169914715Y-86567380D01*
X169914715Y-85567380D01*
X170390906Y-85567380D01*
X171390906Y-86567380D02*
X171057573Y-86091190D01*
X170819477Y-86567380D02*
X170819477Y-85567380D01*
X171200430Y-85567380D01*
X171295668Y-85615000D01*
X171343287Y-85662619D01*
X171390906Y-85757857D01*
X171390906Y-85900714D01*
X171343287Y-85995952D01*
X171295668Y-86043571D01*
X171200430Y-86091190D01*
X170819477Y-86091190D01*
X171771858Y-86281666D02*
X172248049Y-86281666D01*
X171676620Y-86567380D02*
X172009953Y-85567380D01*
X172343287Y-86567380D01*
G04 #@! TO.C,LIGHT*
X162724239Y-86567380D02*
X162248049Y-86567380D01*
X162248049Y-85567380D01*
X163057573Y-86567380D02*
X163057573Y-85567380D01*
X164057573Y-85615000D02*
X163962334Y-85567380D01*
X163819477Y-85567380D01*
X163676620Y-85615000D01*
X163581382Y-85710238D01*
X163533763Y-85805476D01*
X163486144Y-85995952D01*
X163486144Y-86138809D01*
X163533763Y-86329285D01*
X163581382Y-86424523D01*
X163676620Y-86519761D01*
X163819477Y-86567380D01*
X163914715Y-86567380D01*
X164057573Y-86519761D01*
X164105192Y-86472142D01*
X164105192Y-86138809D01*
X163914715Y-86138809D01*
X164533763Y-86567380D02*
X164533763Y-85567380D01*
X164533763Y-86043571D02*
X165105192Y-86043571D01*
X165105192Y-86567380D02*
X165105192Y-85567380D01*
X165438525Y-85567380D02*
X166009953Y-85567380D01*
X165724239Y-86567380D02*
X165724239Y-85567380D01*
G04 #@! TO.C,K1*
X123260204Y-79517380D02*
X123260204Y-78517380D01*
X123831633Y-79517380D02*
X123403061Y-78945952D01*
X123831633Y-78517380D02*
X123260204Y-79088809D01*
X124784014Y-79517380D02*
X124212585Y-79517380D01*
X124498300Y-79517380D02*
X124498300Y-78517380D01*
X124403061Y-78660238D01*
X124307823Y-78755476D01*
X124212585Y-78803095D01*
G04 #@! TO.C,Q1*
D14*
X163401238Y-97921380D02*
X163304476Y-97873000D01*
X163207714Y-97776238D01*
X163062571Y-97631095D01*
X162965809Y-97582714D01*
X162869047Y-97582714D01*
X162917428Y-97824619D02*
X162820666Y-97776238D01*
X162723904Y-97679476D01*
X162675523Y-97485952D01*
X162675523Y-97147285D01*
X162723904Y-96953761D01*
X162820666Y-96857000D01*
X162917428Y-96808619D01*
X163110952Y-96808619D01*
X163207714Y-96857000D01*
X163304476Y-96953761D01*
X163352857Y-97147285D01*
X163352857Y-97485952D01*
X163304476Y-97679476D01*
X163207714Y-97776238D01*
X163110952Y-97824619D01*
X162917428Y-97824619D01*
X164320476Y-97824619D02*
X163739904Y-97824619D01*
X164030190Y-97824619D02*
X164030190Y-96808619D01*
X163933428Y-96953761D01*
X163836666Y-97050523D01*
X163739904Y-97098904D01*
G04 #@! TO.C,Q2*
D11*
X169402761Y-78912619D02*
X169307523Y-78865000D01*
X169212285Y-78769761D01*
X169069428Y-78626904D01*
X168974190Y-78579285D01*
X168878952Y-78579285D01*
X168926571Y-78817380D02*
X168831333Y-78769761D01*
X168736095Y-78674523D01*
X168688476Y-78484047D01*
X168688476Y-78150714D01*
X168736095Y-77960238D01*
X168831333Y-77865000D01*
X168926571Y-77817380D01*
X169117047Y-77817380D01*
X169212285Y-77865000D01*
X169307523Y-77960238D01*
X169355142Y-78150714D01*
X169355142Y-78484047D01*
X169307523Y-78674523D01*
X169212285Y-78769761D01*
X169117047Y-78817380D01*
X168926571Y-78817380D01*
X169736095Y-77912619D02*
X169783714Y-77865000D01*
X169878952Y-77817380D01*
X170117047Y-77817380D01*
X170212285Y-77865000D01*
X170259904Y-77912619D01*
X170307523Y-78007857D01*
X170307523Y-78103095D01*
X170259904Y-78245952D01*
X169688476Y-78817380D01*
X170307523Y-78817380D01*
G04 #@! TO.C,Q3*
X163402761Y-78912619D02*
X163307523Y-78865000D01*
X163212285Y-78769761D01*
X163069428Y-78626904D01*
X162974190Y-78579285D01*
X162878952Y-78579285D01*
X162926571Y-78817380D02*
X162831333Y-78769761D01*
X162736095Y-78674523D01*
X162688476Y-78484047D01*
X162688476Y-78150714D01*
X162736095Y-77960238D01*
X162831333Y-77865000D01*
X162926571Y-77817380D01*
X163117047Y-77817380D01*
X163212285Y-77865000D01*
X163307523Y-77960238D01*
X163355142Y-78150714D01*
X163355142Y-78484047D01*
X163307523Y-78674523D01*
X163212285Y-78769761D01*
X163117047Y-78817380D01*
X162926571Y-78817380D01*
X163688476Y-77817380D02*
X164307523Y-77817380D01*
X163974190Y-78198333D01*
X164117047Y-78198333D01*
X164212285Y-78245952D01*
X164259904Y-78293571D01*
X164307523Y-78388809D01*
X164307523Y-78626904D01*
X164259904Y-78722142D01*
X164212285Y-78769761D01*
X164117047Y-78817380D01*
X163831333Y-78817380D01*
X163736095Y-78769761D01*
X163688476Y-78722142D01*
G04 #@! TO.C,Q4*
D14*
X163401238Y-113421380D02*
X163304476Y-113373000D01*
X163207714Y-113276238D01*
X163062571Y-113131095D01*
X162965809Y-113082714D01*
X162869047Y-113082714D01*
X162917428Y-113324619D02*
X162820666Y-113276238D01*
X162723904Y-113179476D01*
X162675523Y-112985952D01*
X162675523Y-112647285D01*
X162723904Y-112453761D01*
X162820666Y-112357000D01*
X162917428Y-112308619D01*
X163110952Y-112308619D01*
X163207714Y-112357000D01*
X163304476Y-112453761D01*
X163352857Y-112647285D01*
X163352857Y-112985952D01*
X163304476Y-113179476D01*
X163207714Y-113276238D01*
X163110952Y-113324619D01*
X162917428Y-113324619D01*
X164223714Y-112647285D02*
X164223714Y-113324619D01*
X163981809Y-112260238D02*
X163739904Y-112985952D01*
X164368857Y-112985952D01*
G04 #@! TO.C,R1*
D11*
X152831333Y-79817380D02*
X152498000Y-79341190D01*
X152259904Y-79817380D02*
X152259904Y-78817380D01*
X152640857Y-78817380D01*
X152736095Y-78865000D01*
X152783714Y-78912619D01*
X152831333Y-79007857D01*
X152831333Y-79150714D01*
X152783714Y-79245952D01*
X152736095Y-79293571D01*
X152640857Y-79341190D01*
X152259904Y-79341190D01*
X153783714Y-79817380D02*
X153212285Y-79817380D01*
X153498000Y-79817380D02*
X153498000Y-78817380D01*
X153402761Y-78960238D01*
X153307523Y-79055476D01*
X153212285Y-79103095D01*
G04 #@! TO.C,R2*
X166831333Y-90817380D02*
X166498000Y-90341190D01*
X166259904Y-90817380D02*
X166259904Y-89817380D01*
X166640857Y-89817380D01*
X166736095Y-89865000D01*
X166783714Y-89912619D01*
X166831333Y-90007857D01*
X166831333Y-90150714D01*
X166783714Y-90245952D01*
X166736095Y-90293571D01*
X166640857Y-90341190D01*
X166259904Y-90341190D01*
X167212285Y-89912619D02*
X167259904Y-89865000D01*
X167355142Y-89817380D01*
X167593238Y-89817380D01*
X167688476Y-89865000D01*
X167736095Y-89912619D01*
X167783714Y-90007857D01*
X167783714Y-90103095D01*
X167736095Y-90245952D01*
X167164666Y-90817380D01*
X167783714Y-90817380D01*
G04 #@! TO.C,R4*
X152831333Y-88817380D02*
X152498000Y-88341190D01*
X152259904Y-88817380D02*
X152259904Y-87817380D01*
X152640857Y-87817380D01*
X152736095Y-87865000D01*
X152783714Y-87912619D01*
X152831333Y-88007857D01*
X152831333Y-88150714D01*
X152783714Y-88245952D01*
X152736095Y-88293571D01*
X152640857Y-88341190D01*
X152259904Y-88341190D01*
X153688476Y-88150714D02*
X153688476Y-88817380D01*
X153450380Y-87769761D02*
X153212285Y-88484047D01*
X153831333Y-88484047D01*
G04 #@! TO.C,R5*
X167331333Y-83317380D02*
X166998000Y-82841190D01*
X166759904Y-83317380D02*
X166759904Y-82317380D01*
X167140857Y-82317380D01*
X167236095Y-82365000D01*
X167283714Y-82412619D01*
X167331333Y-82507857D01*
X167331333Y-82650714D01*
X167283714Y-82745952D01*
X167236095Y-82793571D01*
X167140857Y-82841190D01*
X166759904Y-82841190D01*
X168236095Y-82317380D02*
X167759904Y-82317380D01*
X167712285Y-82793571D01*
X167759904Y-82745952D01*
X167855142Y-82698333D01*
X168093238Y-82698333D01*
X168188476Y-82745952D01*
X168236095Y-82793571D01*
X168283714Y-82888809D01*
X168283714Y-83126904D01*
X168236095Y-83222142D01*
X168188476Y-83269761D01*
X168093238Y-83317380D01*
X167855142Y-83317380D01*
X167759904Y-83269761D01*
X167712285Y-83222142D01*
G04 #@! TO.C,R6*
X166831333Y-107317380D02*
X166498000Y-106841190D01*
X166259904Y-107317380D02*
X166259904Y-106317380D01*
X166640857Y-106317380D01*
X166736095Y-106365000D01*
X166783714Y-106412619D01*
X166831333Y-106507857D01*
X166831333Y-106650714D01*
X166783714Y-106745952D01*
X166736095Y-106793571D01*
X166640857Y-106841190D01*
X166259904Y-106841190D01*
X167688476Y-106317380D02*
X167498000Y-106317380D01*
X167402761Y-106365000D01*
X167355142Y-106412619D01*
X167259904Y-106555476D01*
X167212285Y-106745952D01*
X167212285Y-107126904D01*
X167259904Y-107222142D01*
X167307523Y-107269761D01*
X167402761Y-107317380D01*
X167593238Y-107317380D01*
X167688476Y-107269761D01*
X167736095Y-107222142D01*
X167783714Y-107126904D01*
X167783714Y-106888809D01*
X167736095Y-106793571D01*
X167688476Y-106745952D01*
X167593238Y-106698333D01*
X167402761Y-106698333D01*
X167307523Y-106745952D01*
X167259904Y-106793571D01*
X167212285Y-106888809D01*
G04 #@! TO.C,R7*
X161831333Y-83317380D02*
X161498000Y-82841190D01*
X161259904Y-83317380D02*
X161259904Y-82317380D01*
X161640857Y-82317380D01*
X161736095Y-82365000D01*
X161783714Y-82412619D01*
X161831333Y-82507857D01*
X161831333Y-82650714D01*
X161783714Y-82745952D01*
X161736095Y-82793571D01*
X161640857Y-82841190D01*
X161259904Y-82841190D01*
X162164666Y-82317380D02*
X162831333Y-82317380D01*
X162402761Y-83317380D01*
G04 #@! TO.C,R8*
X166831333Y-114817380D02*
X166498000Y-114341190D01*
X166259904Y-114817380D02*
X166259904Y-113817380D01*
X166640857Y-113817380D01*
X166736095Y-113865000D01*
X166783714Y-113912619D01*
X166831333Y-114007857D01*
X166831333Y-114150714D01*
X166783714Y-114245952D01*
X166736095Y-114293571D01*
X166640857Y-114341190D01*
X166259904Y-114341190D01*
X167402761Y-114245952D02*
X167307523Y-114198333D01*
X167259904Y-114150714D01*
X167212285Y-114055476D01*
X167212285Y-114007857D01*
X167259904Y-113912619D01*
X167307523Y-113865000D01*
X167402761Y-113817380D01*
X167593238Y-113817380D01*
X167688476Y-113865000D01*
X167736095Y-113912619D01*
X167783714Y-114007857D01*
X167783714Y-114055476D01*
X167736095Y-114150714D01*
X167688476Y-114198333D01*
X167593238Y-114245952D01*
X167402761Y-114245952D01*
X167307523Y-114293571D01*
X167259904Y-114341190D01*
X167212285Y-114436428D01*
X167212285Y-114626904D01*
X167259904Y-114722142D01*
X167307523Y-114769761D01*
X167402761Y-114817380D01*
X167593238Y-114817380D01*
X167688476Y-114769761D01*
X167736095Y-114722142D01*
X167783714Y-114626904D01*
X167783714Y-114436428D01*
X167736095Y-114341190D01*
X167688476Y-114293571D01*
X167593238Y-114245952D01*
G04 #@! TO.C,U1*
X144836095Y-78717380D02*
X144836095Y-79526904D01*
X144883714Y-79622142D01*
X144931333Y-79669761D01*
X145026571Y-79717380D01*
X145217047Y-79717380D01*
X145312285Y-79669761D01*
X145359904Y-79622142D01*
X145407523Y-79526904D01*
X145407523Y-78717380D01*
X146407523Y-79717380D02*
X145836095Y-79717380D01*
X146121809Y-79717380D02*
X146121809Y-78717380D01*
X146026571Y-78860238D01*
X145931333Y-78955476D01*
X145836095Y-79003095D01*
G04 #@! TO.C,U2*
X174050380Y-98126904D02*
X174859904Y-98126904D01*
X174955142Y-98079285D01*
X175002761Y-98031666D01*
X175050380Y-97936428D01*
X175050380Y-97745952D01*
X175002761Y-97650714D01*
X174955142Y-97603095D01*
X174859904Y-97555476D01*
X174050380Y-97555476D01*
X174145619Y-97126904D02*
X174098000Y-97079285D01*
X174050380Y-96984047D01*
X174050380Y-96745952D01*
X174098000Y-96650714D01*
X174145619Y-96603095D01*
X174240857Y-96555476D01*
X174336095Y-96555476D01*
X174478952Y-96603095D01*
X175050380Y-97174523D01*
X175050380Y-96555476D01*
G04 #@! TO.C,U3*
X174050380Y-114126904D02*
X174859904Y-114126904D01*
X174955142Y-114079285D01*
X175002761Y-114031666D01*
X175050380Y-113936428D01*
X175050380Y-113745952D01*
X175002761Y-113650714D01*
X174955142Y-113603095D01*
X174859904Y-113555476D01*
X174050380Y-113555476D01*
X174050380Y-113174523D02*
X174050380Y-112555476D01*
X174431333Y-112888809D01*
X174431333Y-112745952D01*
X174478952Y-112650714D01*
X174526571Y-112603095D01*
X174621809Y-112555476D01*
X174859904Y-112555476D01*
X174955142Y-112603095D01*
X175002761Y-112650714D01*
X175050380Y-112745952D01*
X175050380Y-113031666D01*
X175002761Y-113126904D01*
X174955142Y-113174523D01*
G04 #@! TD*
M02*
