M48
;DRILL file {KiCad 5.0.2+dfsg1-1} date Tue 13 Aug 2019 09:37:29 AM KST
;FORMAT={-:-/ absolute / inch / decimal}
FMAT,2
INCH,TZ
T1C0.0157
T2C0.0394
T3C0.0400
T4C0.0472
T5C0.0591
T6C0.1200
%
G90
G05
T1
X5.0787Y-3.1049
X5.0787Y-3.2033
X5.0787Y-3.3018
X5.0787Y-3.4002
X5.0787Y-3.4986
X5.0787Y-3.597
X5.0787Y-3.6955
X5.0787Y-3.7939
X5.0787Y-3.8923
X5.0787Y-3.9907
X5.0787Y-4.0892
X5.0787Y-4.1876
X5.0787Y-4.286
X5.0787Y-4.3844
X5.0787Y-4.4829
X5.0787Y-4.5813
X5.0787Y-4.6797
X5.0787Y-4.7781
X5.0787Y-4.8766
X5.1574Y-3.1049
X5.1574Y-3.2033
X5.1574Y-3.3018
X5.1574Y-3.4002
X5.1574Y-3.4986
X5.1574Y-3.597
X5.1574Y-3.6955
X5.1574Y-3.7939
X5.1574Y-3.8923
X5.1574Y-3.9907
X5.1574Y-4.0892
X5.1574Y-4.1876
X5.1574Y-4.286
X5.1574Y-4.3844
X5.1574Y-4.4829
X5.1574Y-4.5813
X5.1574Y-4.6797
X5.1574Y-4.7781
X5.1574Y-4.8766
X5.2361Y-4.4829
X5.2558Y-3.1049
X5.2558Y-3.9907
X5.2558Y-4.1876
X5.2558Y-4.286
X5.2558Y-4.3844
X5.2558Y-4.5813
X5.2558Y-4.6797
X5.2558Y-4.7781
X5.2558Y-4.8766
X5.3543Y-3.1049
X5.3543Y-3.2033
X5.3543Y-3.3018
X5.3543Y-3.4002
X5.3543Y-3.4986
X5.3543Y-3.597
X5.3543Y-3.6955
X5.3543Y-3.7939
X5.3543Y-3.8923
X5.3543Y-4.7781
X5.3543Y-4.8766
X5.4527Y-3.1049
X5.4527Y-4.6797
X5.4527Y-4.7781
X5.5511Y-3.1049
X5.5511Y-3.2033
X5.5511Y-3.3018
X5.5511Y-3.4002
X5.5511Y-3.4986
X5.5511Y-3.597
X5.5511Y-3.6955
X5.5511Y-3.7939
X5.5511Y-4.7781
X5.6495Y-3.1049
X5.6495Y-3.2033
X5.6495Y-3.3018
X5.6495Y-3.4002
X5.6495Y-3.4986
X5.6495Y-3.597
X5.6495Y-3.6955
X5.6495Y-3.7939
X5.748Y-3.1049
X5.748Y-3.4986
X5.748Y-3.597
X5.748Y-3.6955
X5.7676Y-3.2033
X5.8464Y-3.1049
X5.8464Y-3.4986
X5.8857Y-3.6758
X5.8857Y-3.7742
X5.9251Y-4.1876
X5.9448Y-3.1049
X5.9448Y-3.597
X5.9645Y-3.3018
X5.9842Y-3.4002
X5.9842Y-3.4986
X5.9842Y-3.9317
X5.9842Y-4.5813
X6.0432Y-3.1049
X6.0432Y-3.6955
X6.0432Y-4.1876
X6.0432Y-4.286
X6.0432Y-4.6797
X6.122Y-4.5026
X6.1417Y-3.1049
X6.1417Y-3.597
X6.1417Y-3.6955
X6.1417Y-3.7939
X6.1417Y-4.0892
X6.1417Y-4.1876
X6.1417Y-4.286
X6.1417Y-4.6797
X6.2007Y-4.0104
X6.2401Y-3.597
X6.2401Y-4.0892
X6.2401Y-4.1876
X6.2401Y-4.286
X6.2401Y-4.6797
X6.2401Y-4.8766
X6.2991Y-3.6561
X6.3385Y-3.7939
X6.3385Y-3.8923
X6.3385Y-4.0892
X6.3385Y-4.1876
X6.3385Y-4.4041
X6.3385Y-4.5222
X6.4369Y-3.7939
X6.4369Y-3.8923
X6.4369Y-4.1876
X6.4566Y-4.4041
X6.4763Y-4.5616
X6.5354Y-3.8923
X6.555Y-4.6994
X6.555Y-4.7781
X6.5846Y-3.6695
X6.5865Y-4.2278
X6.5944Y-4.0892
X6.6141Y-3.597
X6.6535Y-4.6994
X6.6535Y-4.7781
X6.6731Y-3.1049
X6.6731Y-3.2033
X6.6731Y-4.0892
T2
X5.7268Y-4.0126
X5.7268Y-4.1126
X5.7268Y-4.2126
X5.8268Y-4.0126
X5.8268Y-4.1126
X5.8268Y-4.2126
X5.311Y-4.2224
X5.311Y-4.3602
X5.7268Y-4.4693
X5.7268Y-4.5693
X5.7268Y-4.6693
X5.8268Y-4.4693
X5.8268Y-4.5693
X5.8268Y-4.6693
X5.311Y-4.498
X5.311Y-4.6358
X5.8609Y-3.2061
X5.9609Y-3.2061
X5.311Y-3.9469
X5.311Y-4.0846
T3
X6.37Y-4.875
X6.47Y-4.875
X6.57Y-4.875
X6.67Y-4.875
X6.77Y-4.875
X6.87Y-4.875
X6.2391Y-4.3592
X6.2391Y-4.4592
X6.2391Y-4.5592
X5.47Y-4.875
X5.57Y-4.875
X5.67Y-4.875
X5.77Y-4.875
X5.87Y-4.875
X5.97Y-4.875
X6.07Y-4.875
X6.17Y-4.875
X6.17Y-2.975
X6.27Y-2.975
X6.37Y-2.975
X6.47Y-2.975
X6.57Y-2.975
X6.67Y-2.975
X6.77Y-2.975
X6.87Y-2.975
X5.11Y-2.975
X5.21Y-2.975
X5.31Y-2.975
X5.41Y-2.975
X5.51Y-2.975
X5.61Y-2.975
X5.71Y-2.975
X5.81Y-2.975
X5.91Y-2.975
X6.01Y-2.975
X6.2391Y-3.7293
X6.2391Y-3.8293
X6.2391Y-3.9293
T4
X5.2609Y-3.2061
X5.4609Y-3.2061
T5
X6.0275Y-4.4632
X6.0275Y-3.8333
T6
X4.92Y-4.875
X4.97Y-2.975
T0
M30
